<?xml version="1.0" standalone="no"?>
<!DOCTYPE svg PUBLIC "-//W3C//DTD SVG 1.1//EN" "http://www.w3.org/Graphics/SVG/1.1/DTD/svg11.dtd" >
<svg xmlns="http://www.w3.org/2000/svg">
<metadata></metadata>
<defs>
<font id="kirobold_italic" horiz-adv-x="1083" >
<font-face units-per-em="2048" ascent="1577" descent="-471" />
<missing-glyph horiz-adv-x="440" />
<glyph unicode="&#xfb01;" horiz-adv-x="1089" d="M92 877l17 98q6 43 49 43h88l12 76q60 364 420 364q147 0 262 -67q41 -21 14 -64l-55 -86q-24 -37 -61 -16q-68 41 -162 41q-166 0 -195 -176l-12 -72h524q52 0 43 -51l-147 -924q-6 -43 -49 -43h-129q-52 0 -43 51l123 774h-351l-125 -782q-6 -43 -49 -43h-129 q-52 0 -43 51l121 774h-80q-52 0 -43 52z" />
<glyph unicode="&#xfb02;" horiz-adv-x="1110" d="M92 877l17 98q6 43 49 43h90l10 69q29 182 135 276.5t285 94.5q127 0 229 -47q13 23 43 23h129q52 0 43 -52l-213 -1339q-6 -43 -49 -43h-129q-52 0 -43 51l184 1155q-76 60 -192 60q-80 0 -133.5 -49t-65.5 -134l-10 -65h207q52 0 43 -51l-16 -99q-6 -43 -50 -43h-215 l-125 -782q-6 -43 -49 -43h-129q-52 0 -43 51l123 774h-82q-52 0 -43 52z" />
<glyph unicode="&#xfb03;" horiz-adv-x="1667" d="M92 877l17 98q6 43 49 43h90l8 49q28 182 135 276.5t287 94.5q162 0 283 -80q106 100 294 100q148 0 263 -67q41 -21 14 -64l-55 -86q-25 -37 -62 -16q-68 41 -162 41q-165 0 -194 -176l-12 -72h524q52 0 43 -51l-148 -924q-6 -43 -49 -43h-129q-52 0 -43 51l123 774 h-350l-125 -782q-6 -43 -49 -43h-129q-52 0 -43 51l121 774h-353l-125 -782q-6 -43 -49 -43h-129q-52 0 -43 51l123 774h-82q-52 0 -43 52zM471 1018h352l13 76q11 59 22 94q-74 57 -178 57q-80 0 -134.5 -49t-66.5 -133z" />
<glyph unicode="&#xfb04;" horiz-adv-x="1687" d="M92 877l17 98q6 43 49 43h90l8 49q28 182 135 276.5t287 94.5q162 0 283 -80q103 100 294 100q128 0 230 -47q13 23 43 23h129q52 0 43 -52l-230 -1339q-6 -43 -49 -43h-129q-52 0 -43 51l201 1155q-76 60 -193 60q-80 0 -133 -49t-65 -134l-10 -65h206q52 0 43 -51 l-16 -99q-6 -43 -49 -43h-215l-125 -782q-6 -43 -49 -43h-129q-52 0 -43 51l123 774h-355l-125 -782q-6 -43 -49 -43h-129q-52 0 -43 51l123 774h-82q-52 0 -43 52zM471 1018h354l11 69q7 41 22 99q-69 59 -178 59q-80 0 -134.5 -49t-66.5 -133z" />
<glyph horiz-adv-x="0" />
<glyph horiz-adv-x="682" />
<glyph unicode=" "  horiz-adv-x="440" />
<glyph unicode="&#x09;" horiz-adv-x="440" />
<glyph unicode="&#xa0;" horiz-adv-x="440" />
<glyph unicode="!" horiz-adv-x="512" d="M51 106q0 64 44 107t106 43q59 0 95 -36.5t36 -94.5q0 -64 -44 -107t-106 -43q-59 0 -95 36.5t-36 94.5zM178 442l10 346l82 529q6 43 49 43h130q52 0 43 -51l-80 -521l-99 -352q-9 -28 -39 -28h-63q-36 0 -33 34z" />
<glyph unicode="&#x22;" horiz-adv-x="825" d="M205 895l41 420q3 45 49 45h125q25 0 36 -14t5 -37l-92 -420q-9 -37 -45 -37h-80q-42 0 -39 43zM573 895l41 420q3 45 50 45h124q25 0 36 -14t5 -37l-92 -420q-9 -37 -45 -37h-80q-42 0 -39 43z" />
<glyph unicode="#" d="M29 406l32 100q9 33 45 33h138l82 241h-125q-23 0 -32 12.5t-1 34.5l33 101q9 33 45 33h139l96 284q9 33 45 33h101q48 0 32 -47l-90 -270h191l96 284q9 33 45 33h100q23 0 32 -12.5t1 -34.5l-90 -270h125q23 0 32 -13t1 -35l-33 -100q-11 -33 -47 -33h-137l-82 -241h125 q23 0 32 -12.5t1 -34.5l-33 -101q-9 -33 -45 -33h-140l-110 -325q-9 -33 -45 -33h-101q-48 0 -32 47l104 311h-190l-109 -325q-9 -33 -45 -33h-102q-23 0 -32 12.5t-1 34.5l104 311h-123q-23 0 -31.5 13t-0.5 35zM430 539h188l82 241h-190z" />
<glyph unicode="$" d="M55 195q-24 38 11 65l96 82q37 29 65 -6q85 -98 224 -113l51 316q-186 23 -265 93.5t-79 207.5q0 185 123.5 299t334.5 123l19 122q3 25 29 25h49q27 0 24 -29l-20 -123q205 -15 309 -145q26 -37 -10 -65l-96 -84q-36 -29 -66 8q-61 70 -168 82l-51 -316 q184 -22 264 -92.5t80 -206.5q0 -185 -124 -299t-335 -123l-20 -135q-3 -24 -29 -24h-49q-28 0 -25 28l23 133q-250 18 -365 177zM391 879q0 -49 34.5 -78.5t109.5 -44.5l49 299q-91 -12 -142 -58.5t-51 -117.5zM553 223q89 9 140.5 56.5t51.5 119.5q0 50 -34 79t-109 44z " />
<glyph unicode="%" horiz-adv-x="1312" d="M86.5 14.5q-7.5 14.5 9.5 34.5l985 1204q17 25 49 25h101q28 0 34.5 -14.5t-10.5 -34.5l-985 -1204q-17 -25 -49 -25h-100q-27 0 -34.5 14.5zM113 838q0 17 4 53l26 164q38 248 277 248q112 0 174.5 -57t62.5 -156q0 -16 -4 -52l-24 -164q-19 -122 -89 -184.5t-186 -62.5 q-114 0 -177.5 55.5t-63.5 155.5zM270 852q0 -82 86 -82q99 0 117 115l27 162q2 10 2 30q0 82 -86 82q-104 0 -119 -112l-25 -164q-2 -12 -2 -31zM692 186q0 18 4 54l27 163q38 248 276 248q112 0 175 -57t63 -156q0 -15 -4 -51l-25 -164q-19 -123 -88.5 -185.5 t-185.5 -62.5q-114 0 -178 55.5t-64 155.5zM850 201q0 -82 86 -82q99 0 117 114l26 162q2 10 2 31q0 82 -86 82q-103 0 -118 -113l-25 -164q-2 -12 -2 -30z" />
<glyph unicode="&#x26;" horiz-adv-x="1230" d="M39 330q0 145 71 255.5t224 200.5q-60 108 -60 218q0 178 110 279t304 101q169 0 283 -84q34 -26 6 -65l-62 -88q-23 -37 -63 -8q-71 47 -156 47q-86 0 -139 -46t-53 -128t67 -176l279 -396q57 84 125 226q17 41 61 26l109 -43q43 -18 24 -63q-99 -204 -194 -326 l141 -203q17 -25 8.5 -41t-37.5 -16h-172q-37 0 -57 29l-47 67q-161 -121 -371 -121q-186 0 -293.5 95.5t-107.5 259.5zM274 352q0 -81 54 -130.5t149 -49.5q110 0 217 90l-250 356q-170 -101 -170 -266z" />
<glyph unicode="'" horiz-adv-x="456" d="M205 895l41 420q3 45 49 45h125q25 0 36 -14t5 -37l-92 -420q-9 -37 -45 -37h-80q-42 0 -39 43z" />
<glyph unicode="(" horiz-adv-x="696" d="M141 406q0 146 37 300.5t127.5 325.5t224.5 307q21 21 50 21h116q17 0 24 -10t2 -26.5t-20 -35.5q-173 -224 -253 -458.5t-80 -456.5q0 -283 120 -508q12 -22 4.5 -35.5t-30.5 -13.5h-123q-35 0 -49 28q-150 259 -150 562z" />
<glyph unicode=")" horiz-adv-x="696" d="M-10 -169.5q-7 14.5 8 36.5q183 226 267.5 467t84.5 469q0 281 -121 508q-12 22 -4 35.5t31 13.5h123q35 0 49 -29q150 -259 150 -561q0 -234 -96.5 -484t-293.5 -450q-20 -20 -49 -20h-116q-26 0 -33 14.5z" />
<glyph unicode="*" horiz-adv-x="991" d="M139 1077l37 105q13 43 55 24l287 -131l-16 314q-3 45 43 45h106q48 0 39 -48l-51 -309l287 129q43 19 55 -26l31 -103q6 -20 -2.5 -34t-30.5 -17l-320 -65l205 -232q31 -35 -6 -61l-90 -64q-37 -25 -57 14l-144 273l-170 -275q-21 -37 -59 -12l-88 64q-37 26 -4 59 l225 236l-303 61q-45 9 -29 53z" />
<glyph unicode="+" d="M45 520l18 113q6 43 50 43h352l55 350q6 43 49 43h113q52 0 43 -51l-53 -342h342q52 0 43 -51l-19 -113q-6 -43 -49 -43h-350l-57 -352q-6 -43 -50 -43h-112q-52 0 -43 51l55 344h-344q-52 0 -43 51z" />
<glyph unicode="," horiz-adv-x="507" d="M8 -219q-26 26 4 49q89 79 115 170q-36 14 -56 44t-20 71q0 64 42.5 102.5t105.5 38.5q59 0 94 -37t35 -100q0 -91 -65.5 -199.5t-166.5 -185.5q-26 -23 -49 4z" />
<glyph unicode="-" horiz-adv-x="688" d="M59 504l19 121q6 43 49 43h471q52 0 43 -52l-18 -120q-6 -43 -50 -43h-471q-52 0 -43 51z" />
<glyph unicode="." horiz-adv-x="507" d="M49 106q0 64 44 107t106 43q59 0 95 -36.5t36 -94.5q0 -64 -44 -107t-106 -43q-59 0 -95 36.5t-36 94.5z" />
<glyph unicode="/" horiz-adv-x="743" d="M-29.5 13.5q-8.5 13.5 2.5 35.5l645 1280q13 31 48 31h122q25 0 33.5 -13.5t-2.5 -35.5l-645 -1280q-13 -31 -47 -31h-123q-25 0 -33.5 13.5z" />
<glyph unicode="0" d="M72 332q0 48 8 92l72 446q34 213 157.5 323t331.5 110q194 0 302 -93.5t108 -261.5q0 -42 -9 -92l-71 -448q-34 -213 -157 -323t-333 -110q-194 0 -301.5 93.5t-107.5 263.5zM307 356q0 -176 185 -176q209 0 247 242l70 436q4 40 4 60q0 180 -182 180q-212 0 -250 -242 l-68 -436q-6 -34 -6 -64z" />
<glyph unicode="1" d="M289 920q-21 38 16 63l412 277q27 18 61 18h103q52 0 43 -51l-189 -1184q-6 -43 -49 -43h-139q-52 0 -43 51l143 918l-237 -158q-43 -25 -66 14z" />
<glyph unicode="2" d="M55 51l17 113q3 31 30 55l557 475q86 72 120 127t34 123q0 71 -48 112.5t-128 41.5q-143 0 -262 -144q-31 -41 -66 -6l-80 80q-33 33 -4 66q179 209 441 209q175 0 278 -93.5t103 -253.5q0 -122 -55 -212t-187 -199l-408 -336v-4h482q52 0 43 -51l-19 -111 q-6 -43 -49 -43h-756q-52 0 -43 51z" />
<glyph unicode="3" d="M57 152q-25 36 9 65l84 80q35 35 67 -6q97 -111 266 -111q129 0 198 57t69 166q0 81 -61 118.5t-191 37.5h-56q-52 0 -43 51l17 103q6 43 49 43h51q155 0 223 45t68 147q0 70 -50.5 110t-138.5 40q-143 0 -270 -121q-37 -37 -65 2l-72 90q-26 38 6 66q179 168 434 168 q180 0 284.5 -88.5t104.5 -243.5q0 -235 -206 -316v-4q149 -76 149 -262q0 -195 -135 -304.5t-373 -109.5q-283 0 -418 177z" />
<glyph unicode="4" d="M31 324l22 133q2 27 27 55l672 739q24 27 57 27h152q52 0 43 -51l-119 -750h100q52 0 43 -51l-18 -111q-6 -43 -49 -43h-109l-37 -229q-6 -43 -49 -43h-139q-52 0 -43 51l34 221h-544q-52 0 -43 52zM313 477h338l74 455h-4z" />
<glyph unicode="5" d="M61 150q-24 38 9 67l88 82q36 29 65 -8q94 -111 264 -111q123 0 197 69.5t74 180.5q0 89 -56 142t-147 53q-119 0 -215 -68q-25 -20 -61 -14l-84 12q-48 9 -39 55l139 627q12 41 53 41h658q49 0 43 -51l-19 -111q-9 -43 -51 -43h-504l-65 -293h4q91 49 217 49 q162 0 262 -104t100 -274q0 -220 -138.5 -348t-375.5 -128q-282 0 -418 175z" />
<glyph unicode="6" d="M92 340q0 28 8 90l68 432q34 212 165 326.5t337 114.5q221 0 356 -113q35 -30 2 -68l-84 -92q-28 -32 -65 0q-83 68 -205 68q-115 0 -184.5 -64.5t-88.5 -185.5l-16 -100h4q104 90 268 90q154 0 245 -100t91 -269q0 -226 -134 -360t-361 -134q-188 0 -297 98.5 t-109 266.5zM328 358q0 -83 51 -130.5t139 -47.5q111 0 175.5 70.5t64.5 191.5q0 90 -48 140.5t-130 50.5q-97 0 -164 -61t-84 -166q-4 -32 -4 -48z" />
<glyph unicode="7" d="M156 903l55 332q6 43 49 43h834q49 0 43 -51l-21 -133q-5 -31 -22 -56l-641 -1007q-22 -31 -58 -31h-166q-29 0 -37 16t7 41l663 1016h-465l-28 -178q-6 -43 -50 -43h-120q-52 0 -43 51z" />
<glyph unicode="8" d="M43 324q0 126 65 215.5t185 134.5v4q-123 81 -123 237q0 180 125.5 284t341.5 104q196 0 303 -86t107 -242q0 -115 -53.5 -199.5t-155.5 -126.5v-4q149 -84 149 -262q0 -190 -134 -299t-366 -109q-211 0 -327.5 92t-116.5 257zM276 344q0 -79 58.5 -121.5t163.5 -42.5 q121 0 188.5 57t67.5 160q0 78 -56.5 120t-158.5 42q-122 0 -192.5 -57t-70.5 -158zM401 899q0 -68 49 -105.5t138 -37.5q105 0 166 50t61 140q0 73 -48.5 112.5t-139.5 39.5q-106 0 -166 -52.5t-60 -146.5z" />
<glyph unicode="9" d="M92 156l74 94q27 34 65 4q89 -74 220 -74q114 0 183 64.5t89 185.5l16 102h-4q-106 -92 -270 -92q-152 0 -244 99.5t-92 265.5q0 230 135 364t365 134q189 0 295 -98.5t106 -268.5q0 -42 -6 -88l-70 -432q-35 -212 -165 -326.5t-336 -114.5q-226 0 -357 115q-35 27 -4 66 zM365 836q0 -90 48 -140.5t130 -50.5q98 0 165.5 60.5t84.5 166.5q4 32 4 48q0 83 -50.5 130.5t-138.5 47.5q-115 0 -179 -70t-64 -192z" />
<glyph unicode=":" horiz-adv-x="507" d="M49 106q0 64 44 107t106 43q59 0 95 -36.5t36 -94.5q0 -64 -44 -107t-106 -43q-59 0 -95 36.5t-36 94.5zM166 840q0 64 43.5 106.5t105.5 42.5q59 0 95 -36.5t36 -94.5q0 -64 -43.5 -106.5t-105.5 -42.5q-59 0 -95 36.5t-36 94.5z" />
<glyph unicode=";" horiz-adv-x="507" d="M8 -219q-26 26 4 49q89 79 115 170q-36 14 -56 44t-20 71q0 64 42.5 102.5t105.5 38.5q59 0 94 -37t35 -100q0 -91 -65.5 -199.5t-166.5 -185.5q-26 -23 -49 4zM166 840q0 64 43.5 106.5t105.5 42.5q59 0 95 -36.5t36 -94.5q0 -64 -43.5 -106.5t-105.5 -42.5 q-59 0 -95 36.5t-36 94.5z" />
<glyph unicode="&#x3c;" d="M76 516l16 115q3 37 39 51l901 360q26 11 40.5 -0.5t10.5 -40.5l-18 -127q-6 -37 -41 -51l-664 -260v-4l574 -252q39 -15 33 -57l-21 -121q-3 -25 -18.5 -33t-38.5 2l-783 361q-36 14 -30 57z" />
<glyph unicode="=" d="M35 287l16 112q6 43 49 43h850q52 0 43 -51l-18 -112q-6 -43 -49 -43h-848q-52 0 -43 51zM109 752l18 112q6 43 49 43h848q52 0 43 -51l-18 -113q-6 -43 -50 -43h-847q-52 0 -43 52z" />
<glyph unicode="&#x3e;" d="M14 139l19 129q6 37 41 51l663 261v4l-573 252q-39 15 -33 57l21 121q3 25 18.5 33t38.5 -3l782 -360q37 -15 31 -57l-14 -115q-6 -37 -41 -51l-899 -361q-28 -10 -42.5 0.5t-11.5 38.5z" />
<glyph unicode="?" horiz-adv-x="942" d="M154 1110q-36 31 0 70q179 204 436 204q175 0 279 -90.5t104 -244.5q0 -140 -60 -230t-208 -164q-100 -50 -142 -93.5t-51 -104.5q-8 -49 -51 -49h-119q-51 0 -45 51l4 22q15 107 72.5 182t183.5 144q102 56 141 105.5t39 119.5q0 68 -45 108t-123 40q-144 0 -270 -144 q-31 -39 -66 -4zM213 106q0 64 43.5 107t105.5 43q58 0 95 -36t37 -93q0 -65 -43 -108.5t-107 -43.5q-59 0 -95 36.5t-36 94.5z" />
<glyph unicode="@" horiz-adv-x="1503" d="M84 459q0 80 11 163t38 175t68 175t106.5 159t147 131.5t195.5 88.5t247 33q143 0 251.5 -44.5t174.5 -124t98.5 -182t32.5 -226.5q0 -60 -7 -122t-22.5 -130.5t-44 -127.5t-67 -107t-95.5 -75.5t-126 -27.5q-137 0 -177 100h-4q-81 -100 -233 -100q-107 0 -170.5 56.5 t-63.5 156.5q0 127 77 194.5t231 67.5h145q6 35 6 60q0 61 -31.5 86.5t-95.5 25.5q-62 0 -135 -49q-38 -24 -55 12l-31 58q-18 35 14 57q103 68 232 68q132 0 202 -62.5t70 -179.5q0 -30 -6 -68l-33 -211q-4 -32 -4 -45q0 -82 74 -82q44 0 78 34.5t53 84.5t31 114.5t16 115 t4 94.5q0 93 -22 169.5t-68 137t-124.5 94t-184.5 33.5t-196 -29t-153.5 -77t-114 -114t-81.5 -136.5t-51.5 -148t-28.5 -144t-8 -129.5q0 -223 122.5 -348t350.5 -125q189 0 344 98q40 25 55 -16l27 -68q13 -37 -18 -55q-175 -103 -418 -103q-302 0 -467.5 163.5 t-165.5 451.5zM612 446q0 -84 103 -84q59 0 98.5 39t52.5 115l8 49h-112q-70 0 -110 -30.5t-40 -88.5z" />
<glyph unicode="A" horiz-adv-x="1216" d="M-23 15q-4 6 -4 15q0 11 7 25l614 1270q17 35 55 35h180q44 0 50 -43l211 -1266q1 -8 1 -14q0 -37 -44 -37h-154q-43 0 -49 43l-29 203h-487l-97 -211q-17 -35 -55 -35h-162q-28 0 -37 15zM422 455h364l-86 616h-4z" />
<glyph unicode="B" horiz-adv-x="1161" d="M76 51l200 1266q6 43 50 43h376q215 0 320.5 -76.5t105.5 -236.5q0 -281 -231 -357v-4q168 -70 168 -274q0 -216 -125 -314t-403 -98h-418q-44 0 -44 37q0 6 1 14zM344 213h219q133 0 195.5 53t62.5 164q0 78 -48.5 115t-149.5 37h-220zM436 795h185q135 0 196.5 49.5 t61.5 156.5q0 75 -49.5 110.5t-151.5 35.5h-184z" />
<glyph unicode="C" horiz-adv-x="1073" d="M90 369q0 43 10 108l68 426q74 481 545 481q147 0 251 -60t156 -177q6 -13 6 -24q0 -24 -28 -38l-115 -61q-13 -7 -24 -7q-23 0 -37 30q-67 124 -224 124q-242 0 -292 -303l-60 -379q-8 -47 -8 -86q0 -215 207 -215q156 0 256 140q15 24 35 24q14 0 30 -12l101 -74 q22 -14 22 -34q0 -14 -12 -31q-85 -117 -193 -171.5t-256 -54.5q-207 0 -322.5 103.5t-115.5 290.5z" />
<glyph unicode="D" horiz-adv-x="1212" d="M76 51l200 1266q6 43 50 43h401q219 0 333 -94t114 -275q0 -41 -11 -112l-67 -416q-38 -237 -173 -350t-386 -113h-418q-44 0 -44 37q0 6 1 14zM344 213h201q137 0 213.5 69t99.5 214l60 370q6 40 6 76q0 104 -56.5 154.5t-173.5 50.5h-200z" />
<glyph unicode="E" horiz-adv-x="1103" d="M76 51l200 1266q6 43 50 43h776q44 0 44 -37q0 -6 -1 -14l-19 -119q-6 -43 -49 -43h-583l-58 -352h486q44 0 45 -38q0 -7 -2 -14l-19 -118q-6 -43 -49 -43h-494l-59 -369h578q44 0 45 -37q0 -6 -2 -14l-21 -119q-6 -43 -49 -43h-776q-44 0 -44 37q0 6 1 14z" />
<glyph unicode="F" horiz-adv-x="1040" d="M76 51l200 1266q6 43 50 43h755q44 0 44 -37q0 -6 -1 -14l-18 -119q-6 -43 -49 -43h-563l-60 -369h465q44 0 44 -37q0 -6 -1 -14l-18 -119q-6 -43 -50 -43h-473l-84 -522q-6 -43 -49 -43h-149q-44 0 -44 37q0 6 1 14z" />
<glyph unicode="G" horiz-adv-x="1169" d="M90 369q0 43 10 108l68 426q74 481 557 481q152 0 262.5 -61t165.5 -176q5 -12 5 -22q0 -24 -28 -40l-116 -61q-14 -7 -25 -7q-23 0 -37 27q-79 127 -245 127q-252 0 -301 -303l-60 -379q-6 -47 -6 -86q0 -215 213 -215q126 0 198.5 77t98.5 235l6 45h-203q-44 0 -44 37 q0 6 1 14l19 119q6 43 49 43h395q44 0 44 -37q0 -6 -1 -14l-37 -238q-77 -494 -542 -494q-213 0 -330 103t-117 291z" />
<glyph unicode="H" horiz-adv-x="1275" d="M76 51l200 1266q6 43 50 43h149q44 0 44 -37q0 -6 -1 -14l-82 -514h490l84 522q6 43 49 43h149q44 0 44 -37q0 -6 -1 -14l-200 -1266q-6 -43 -50 -43h-149q-44 0 -44 37q0 6 1 14l84 531h-490l-86 -539q-6 -43 -49 -43h-149q-44 0 -44 37q0 6 1 14z" />
<glyph unicode="I" horiz-adv-x="544" d="M76 51l200 1266q6 43 50 43h149q44 0 45 -37q0 -6 -2 -14l-201 -1266q-6 -43 -49 -43h-149q-44 0 -44 37q0 6 1 14z" />
<glyph unicode="J" horiz-adv-x="1069" d="M2 190q-6 14 -6 25q0 23 24 39l107 74q15 10 28 10q21 0 38 -25q80 -125 227 -125q221 0 268 285l135 844q6 43 49 43h150q44 0 44 -37q0 -6 -1 -14l-137 -865q-74 -469 -508 -469q-146 0 -252.5 55.5t-165.5 159.5z" />
<glyph unicode="K" horiz-adv-x="1173" d="M76 51l200 1266q6 43 50 43h149q44 0 44 -37q0 -6 -1 -14l-84 -527h4l494 551q24 27 57 27h195q32 0 40 -17q2 -5 2 -9q0 -14 -16 -31l-573 -617l393 -629q15 -25 5.5 -41t-38.5 -16h-184q-38 0 -55 33l-348 590l-93 -580q-6 -43 -49 -43h-149q-44 0 -44 37q0 6 1 14z " />
<glyph unicode="L" horiz-adv-x="1028" d="M76 51l200 1266q6 43 50 43h149q44 0 44 -37q0 -6 -1 -14l-174 -1096h547q44 0 45 -37q0 -6 -2 -14l-21 -119q-6 -43 -49 -43h-745q-44 0 -44 37q0 6 1 14z" />
<glyph unicode="M" horiz-adv-x="1693" d="M76 51l200 1266q6 43 50 43h270q42 0 51 -43l170 -932h4l469 940q17 35 56 35h280q44 0 44 -37q0 -6 -1 -14l-201 -1266q-6 -43 -49 -43h-149q-44 0 -44 37q0 6 1 14l153 971h-4l-493 -987q-17 -35 -56 -35h-122q-43 0 -52 43l-180 981h-4l-156 -981q-6 -43 -49 -43h-145 q-44 0 -44 37q0 6 1 14z" />
<glyph unicode="N" horiz-adv-x="1273" d="M76 51l200 1266q6 43 50 43h184q41 0 55 -39l303 -891h4l140 887q6 43 49 43h145q44 0 44 -37q0 -6 -1 -14l-200 -1266q-6 -43 -50 -43h-163q-42 0 -56 39l-317 926h-4l-146 -922q-6 -43 -49 -43h-145q-44 0 -44 37q0 6 1 14z" />
<glyph unicode="O" horiz-adv-x="1212" d="M92 371q0 57 8 106l68 426q74 481 549 481q217 0 335.5 -103t118.5 -292q0 -57 -8 -106l-67 -426q-78 -482 -549 -482q-218 0 -336.5 103.5t-118.5 292.5zM340 403q0 -215 217 -215q128 0 202 75.5t99 228.5l60 378q8 44 8 91q0 210 -219 210q-128 0 -202 -75t-99 -228 l-60 -379q-6 -47 -6 -86z" />
<glyph unicode="P" horiz-adv-x="1128" d="M76 51l200 1266q6 43 50 43h381q219 0 328.5 -91.5t109.5 -279.5q0 -254 -136.5 -373.5t-426.5 -119.5h-193l-72 -453q-6 -43 -49 -43h-149q-44 0 -44 37q0 6 1 14zM424 709h184q149 0 219 63t70 197q0 91 -53.5 134.5t-163.5 43.5h-186z" />
<glyph unicode="Q" horiz-adv-x="1212" d="M92 371q0 57 8 106l68 426q74 481 549 481q217 0 335.5 -103t118.5 -292q0 -57 -8 -106l-67 -426q-62 -387 -381 -463q-2 -8 -2 -23q0 -49 28 -74.5t80 -25.5q50 0 109 27q15 9 27 9q23 0 34 -32l33 -92q5 -13 5 -24q0 -24 -25 -38q-95 -53 -213 -53q-157 0 -237 80 q-74 74 -74 205q0 12 1 24q-187 15 -288 117.5t-101 276.5zM340 403q0 -215 217 -215q128 0 202 75.5t99 228.5l60 378q8 44 8 91q0 210 -219 210q-128 0 -202 -75t-99 -228l-60 -379q-6 -47 -6 -86z" />
<glyph unicode="R" horiz-adv-x="1165" d="M76 51l200 1266q6 43 50 43h372q437 0 437 -365q0 -193 -83 -306.5t-255 -153.5l204 -480q10 -25 0 -40t-36 -15h-168q-39 0 -54 37l-180 475h-170l-76 -469q-6 -43 -49 -43h-149q-44 0 -44 37q0 6 1 14zM426 725h178q146 0 215.5 60t69.5 186q0 176 -215 176h-180z" />
<glyph unicode="S" horiz-adv-x="1058" d="M27 164q-11 16 -11 29q0 19 21 36l104 90q16 14 30 14q19 0 36 -22q105 -123 293 -123q112 0 181 61t69 159q0 64 -52 100.5t-184 60.5q-199 36 -283 118t-84 231q0 214 138.5 340t371.5 126q275 0 402 -157q12 -17 12 -31q0 -19 -20 -35l-107 -90q-14 -13 -29 -13 q-18 0 -36 21q-83 92 -234 92q-116 0 -184 -58.5t-68 -158.5q0 -66 52 -104t186 -62q195 -35 278.5 -116t83.5 -228q0 -217 -136.5 -343t-371.5 -126q-310 0 -458 189z" />
<glyph unicode="T" horiz-adv-x="1030" d="M145 1198l19 119q6 43 49 43h862q44 0 44 -37q0 -6 -1 -14l-20 -119q-6 -43 -49 -43h-312l-176 -1104q-6 -43 -49 -43h-150q-44 0 -44 37q0 6 1 14l175 1096h-306q-44 0 -44 37q0 6 1 14z" />
<glyph unicode="U" horiz-adv-x="1204" d="M113 354q0 56 8 105l135 858q6 43 49 43h150q44 0 44 -37q0 -6 -1 -14l-131 -838q-7 -54 -7 -84q0 -101 48.5 -150t148.5 -49q116 0 181.5 69.5t88.5 213.5l136 846q6 43 49 43h145q44 0 44 -37q0 -6 -1 -14l-137 -865q-74 -469 -520 -469q-206 0 -318 99t-112 280z" />
<glyph unicode="V" horiz-adv-x="1177" d="M178 1309q-1 8 -1 14q0 37 44 37h154q43 0 49 -43l135 -969h4l441 977q17 35 55 35h158q28 0 37 -15q4 -6 4 -15q0 -11 -7 -25l-596 -1270q-14 -35 -55 -35h-178q-43 0 -49 43z" />
<glyph unicode="W" horiz-adv-x="1753" d="M176 1311v6q0 43 45 43h162q46 0 49 -45l64 -924h4l387 932q15 37 53 37h125q46 0 49 -45l88 -924h4l371 932q15 37 53 37h160q26 0 36 -15q5 -8 6 -18q0 -10 -5 -22l-529 -1268q-15 -37 -53 -37h-180q-46 0 -49 45l-78 842h-4l-350 -850q-15 -37 -54 -37h-178 q-46 0 -49 45z" />
<glyph unicode="X" horiz-adv-x="1185" d="M-12 16q-3 5 -2 11q0 13 12 30l473 645l-254 603q-10 25 0.5 40t36.5 15h174q38 0 53 -37l164 -434l307 440q19 31 58 31h180q30 0 38 -17q3 -6 2 -12q0 -13 -11 -28l-447 -609l266 -639q10 -25 -0.5 -40t-36.5 -15h-172q-38 0 -53 37l-180 475l-336 -481 q-19 -31 -57 -31h-176q-31 0 -39 16z" />
<glyph unicode="Y" horiz-adv-x="1112" d="M150 1305q-5 13 -5 23t5 17q10 15 36 15h174q39 0 54 -37l186 -500l348 506q19 31 58 31h180q31 0 40 -16q2 -5 2 -12q0 -12 -11 -29l-533 -736l-84 -524q-6 -43 -49 -43h-150q-44 0 -44 37q0 6 1 14l86 541z" />
<glyph unicode="Z" horiz-adv-x="1081" d="M4 51l23 142q5 30 24 55l744 899h-535q-44 0 -44 37q0 6 1 14l19 119q6 43 49 43h790q44 0 45 -37q0 -6 -2 -14l-22 -142q-5 -29 -25 -55l-745 -899h577q44 0 45 -37q0 -6 -2 -14l-18 -119q-6 -43 -49 -43h-832q-44 0 -44 37q0 6 1 14z" />
<glyph unicode="[" horiz-adv-x="696" d="M63 -141l232 1464q6 37 45 37h360q45 0 39 -45l-16 -96q-6 -37 -43 -37h-184l-187 -1188h174q45 0 39 -43l-14 -98q-6 -37 -45 -37h-361q-45 0 -39 43z" />
<glyph unicode="\" horiz-adv-x="743" d="M176 1315q-9 45 37 45h117q37 0 43 -37l245 -1278q9 -45 -36 -45h-119q-37 0 -43 37z" />
<glyph unicode="]" horiz-adv-x="696" d="M-20 -139l16 96q6 37 43 37h184l187 1188h-174q-45 0 -39 43l14 98q6 37 45 37h360q45 0 39 -43l-231 -1464q-6 -37 -45 -37h-361q-44 0 -38 45z" />
<glyph unicode="^" d="M46.5 545.5q-8.5 17.5 8.5 40.5l488 663q20 29 57 29h117q38 0 53 -37l277 -657q9 -25 -1 -40.5t-36 -15.5h-127q-39 0 -54 37l-194 475l-350 -483q-20 -29 -58 -29h-143q-29 0 -37.5 17.5z" />
<glyph unicode="_" horiz-adv-x="1024" d="M-119 -229l21 131h1024l-21 -131h-1024z" />
<glyph unicode="`" horiz-adv-x="1024" d="M387 1467.5q8 13.5 33 13.5h141q33 0 49 -31l105 -244q9 -22 0.5 -34.5t-31.5 -12.5h-113q-32 0 -49 29l-131 244q-12 22 -4 35.5z" />
<glyph unicode="a" horiz-adv-x="942" d="M33 270q0 166 103.5 253t307.5 87h199q8 49 8 78q0 84 -43.5 123t-132.5 39q-93 0 -186 -66q-17 -13 -32 -13q-20 0 -34 26l-45 86q-7 14 -7 26q0 23 26 41q139 92 309 92q178 0 274.5 -82.5t96.5 -238.5q0 -33 -7 -84l-45 -281q-59 -381 -444 -381q-168 0 -258 76.5 t-90 218.5zM258 287q0 -58 36 -88.5t103 -30.5q90 0 141 53t68 162l10 61h-159q-96 0 -147.5 -40.5t-51.5 -116.5z" />
<glyph unicode="b" horiz-adv-x="1001" d="M84 291q0 39 6 82l164 1018q6 43 49 43h129q44 0 44 -38q0 -7 -1 -14l-65 -409h4q78 69 207 69q155 0 237 -79t82 -226q0 -48 -8 -92l-47 -289q-59 -381 -436 -381q-175 0 -270 82.5t-95 233.5zM311 315q0 -147 148 -147q89 0 139.5 53t67.5 162l39 254q6 37 6 68 q0 145 -148 145q-172 0 -207 -215l-39 -254q-6 -38 -6 -66z" />
<glyph unicode="c" horiz-adv-x="821" d="M61 299q0 20 9 90l41 258q64 395 438 395q170 0 270 -84q17 -13 17 -30q0 -16 -15 -35l-67 -80q-14 -18 -32 -18q-16 0 -34 14q-53 41 -133 41q-95 0 -150 -55t-75 -174l-35 -224q-6 -37 -6 -67q0 -84 42 -123t126 -39q74 0 147 57q18 12 33 12q20 0 33 -22l49 -80 q9 -16 9 -30q0 -20 -19 -35q-121 -95 -277 -95q-175 0 -273 84.5t-98 239.5z" />
<glyph unicode="d" horiz-adv-x="1001" d="M59 289q0 19 9 84l45 289q62 380 405 380q143 0 209 -90h4l72 439q6 43 49 43h129q44 0 44 -38q0 -7 -1 -14l-162 -1026q-29 -188 -139 -284.5t-297 -96.5q-175 0 -271 82.5t-96 231.5zM285 317q0 -149 149 -149q89 0 139.5 53t67.5 162l41 254q4 20 4 59q0 154 -145 154 q-90 0 -142 -53t-69 -162l-39 -254q-6 -35 -6 -64z" />
<glyph unicode="e" horiz-adv-x="942" d="M61 299q0 37 9 90l43 273q62 380 428 380q172 0 265 -82t93 -233q0 -39 -6 -82l-27 -164q-6 -43 -49 -43h-516l-6 -41q-6 -37 -6 -69q0 -84 44.5 -122t137.5 -38q100 0 184 72q18 14 34 14q20 0 34 -23l51 -81q9 -16 9 -30q0 -20 -19 -36q-136 -109 -309 -109 q-190 0 -292 82.5t-102 241.5zM326 606h348l4 31q6 37 6 68q0 145 -147 145q-88 0 -138 -52.5t-69 -162.5z" />
<glyph unicode="f" horiz-adv-x="694" d="M92 877l17 98q6 43 49 43h88l12 76q59 364 391 364q129 0 211 -39q27 -12 27 -35q0 -12 -8 -28l-54 -92q-13 -25 -35 -25q-11 0 -24 6q-46 21 -109 21q-72 0 -117 -45.5t-59 -130.5l-12 -72h244q44 0 44 -37q0 -6 -1 -14l-15 -99q-6 -43 -49 -43h-252l-125 -782 q-6 -43 -49 -43h-129q-44 0 -44 37q0 6 1 14l121 774h-80q-44 0 -44 38q0 6 1 14z" />
<glyph unicode="g" horiz-adv-x="1001" d="M33 -178l63 84q15 19 33 19q16 0 33 -15q84 -70 207 -70q189 0 217 191l8 49h-4q-75 -66 -199 -66q-155 0 -240 79.5t-85 225.5q0 49 8 93l39 250q62 380 436 380q175 0 270.5 -82t95.5 -231q0 -26 -8 -84l-100 -631q-28 -176 -140 -271t-296 -95q-214 0 -334 108 q-19 14 -19 32q0 16 15 34zM293 356q0 -149 149 -149q86 0 138 54.5t67 160.5l35 215q6 34 6 63q0 150 -149 150q-89 0 -138.5 -52.5t-66.5 -162.5l-35 -215q-6 -34 -6 -64z" />
<glyph unicode="h" horiz-adv-x="1019" d="M49 51l213 1340q6 43 49 43h129q44 0 44 -38q0 -7 -1 -14l-65 -409h4q81 69 209 69q147 0 225 -75.5t78 -216.5q0 -50 -8 -97l-97 -610q-6 -43 -49 -43h-129q-44 0 -44 37q0 6 1 14l94 594q7 40 7 64q0 141 -144 141q-163 0 -198 -207l-97 -600q-6 -43 -49 -43h-129 q-44 0 -44 37q0 6 1 14z" />
<glyph unicode="i" horiz-adv-x="471" d="M49 51l148 924q6 43 49 43h129q44 0 44 -37q0 -6 -1 -14l-148 -924q-6 -43 -49 -43h-129q-44 0 -44 37q0 6 1 14zM231 1309q0 63 40 103t100 40q57 0 91 -33.5t34 -89.5q0 -62 -41 -101.5t-101 -39.5q-55 0 -89 33.5t-34 87.5z" />
<glyph unicode="j" horiz-adv-x="471" d="M-164 -276l14 98q6 43 50 43q63 0 97 31t44 100l156 979q6 43 49 43h129q44 0 44 -37q0 -6 -1 -14l-154 -981q-49 -314 -348 -314h-37q-44 0 -44 41q0 5 1 11zM231 1309q0 63 40 103t100 40q57 0 91 -33.5t34 -89.5q0 -62 -41 -101.5t-101 -39.5q-55 0 -89 33.5t-34 87.5 z" />
<glyph unicode="k" horiz-adv-x="956" d="M49 51l213 1340q6 43 49 43h129q44 0 44 -38q0 -7 -1 -14l-127 -792h4l355 401q24 27 57 27h164q32 0 40 -17q2 -5 3 -10q0 -13 -16 -30l-408 -441l281 -463q15 -25 6 -41t-37 -16h-160q-38 0 -55 33l-250 446l-70 -436q-6 -43 -49 -43h-129q-44 0 -44 37q0 6 1 14z" />
<glyph unicode="l" horiz-adv-x="471" d="M49 51l213 1340q6 43 49 43h129q44 0 45 -38q0 -7 -2 -14l-213 -1339q-6 -43 -49 -43h-129q-44 0 -44 37q0 6 1 14z" />
<glyph unicode="m" horiz-adv-x="1533" d="M41 51l96 617q59 374 404 374q194 0 276 -118h4q100 118 289 118q161 0 249.5 -79t88.5 -224q0 -47 -8 -88l-97 -608q-6 -43 -49 -43h-129q-44 0 -44 37q0 6 1 14l95 596q6 34 6 64q0 139 -138 139q-79 0 -124 -49.5t-62 -153.5l-96 -604q-6 -43 -49 -43h-129 q-44 0 -44 37q0 6 1 14l94 596q6 34 6 64q0 139 -137 139q-79 0 -124.5 -50t-62.5 -153l-96 -604q-6 -43 -49 -43h-129q-44 0 -44 37q0 6 1 14z" />
<glyph unicode="n" horiz-adv-x="1009" d="M41 51l96 617q58 374 428 374q171 0 265 -79t94 -226q0 -19 -9 -84l-96 -610q-6 -43 -49 -43h-129q-44 0 -44 37q0 6 1 14l92 590q6 37 6 66q0 143 -141 143q-84 0 -133 -51.5t-66 -157.5l-94 -598q-6 -43 -49 -43h-129q-44 0 -44 37q0 6 1 14z" />
<glyph unicode="o" horiz-adv-x="976" d="M59 289q0 31 9 84l45 289q62 380 436 380q175 0 269.5 -82t94.5 -233q0 -39 -6 -82l-45 -289q-62 -381 -436 -381q-175 0 -271 82t-96 232zM287 317q0 -149 147 -149q89 0 140.5 53t68.5 162l39 254q6 34 6 63q0 150 -149 150q-89 0 -139.5 -53t-67.5 -162l-39 -254 q-6 -35 -6 -64z" />
<glyph unicode="p" horiz-adv-x="1001" d="M-10 -276l147 938q59 380 436 380q175 0 270 -82t95 -233q0 -39 -6 -82l-47 -289q-29 -189 -131.5 -285t-272.5 -96q-143 0 -209 91h-4l-57 -351q-6 -43 -49 -43h-129q-44 0 -44 38q0 6 1 14zM311 319q0 -74 38.5 -112.5t111.5 -38.5q89 0 138.5 52.5t66.5 162.5l41 254 q6 34 6 63q0 150 -150 150q-89 0 -139.5 -53t-67.5 -162l-39 -254q-6 -35 -6 -62z" />
<glyph unicode="q" horiz-adv-x="1001" d="M59 276q0 44 9 97l45 289q62 380 436 380q175 0 270.5 -82t95.5 -231q0 -26 -8 -84l-147 -930q-6 -43 -49 -43h-129q-44 0 -44 38q0 6 1 14l51 321h-4q-82 -70 -209 -70q-154 0 -236 78t-82 223zM285 319q0 -151 151 -151q86 0 138 54.5t67 160.5l41 254q6 34 6 63 q0 150 -149 150q-89 0 -139.5 -53t-67.5 -162l-41 -254q-6 -35 -6 -62z" />
<glyph unicode="r" horiz-adv-x="751" d="M41 51l96 615q31 190 128 283t267 93q144 0 236 -61q22 -14 22 -35q0 -14 -10 -31l-53 -86q-14 -22 -35 -22q-14 0 -30 10q-53 33 -117 33q-155 0 -185 -186l-98 -621q-6 -43 -49 -43h-129q-44 0 -44 37q0 6 1 14z" />
<glyph unicode="s" horiz-adv-x="849" d="M8 152l70 84q14 18 32 18q15 0 33 -14q87 -74 222 -74q92 0 140 34.5t48 100.5q0 45 -38 71t-136 44q-155 29 -220 90t-65 178q0 164 114 261t308 97q178 0 291 -77q20 -14 20 -33q0 -16 -14 -35l-63 -82q-14 -20 -33 -20q-15 0 -33 12q-73 45 -168 45t-146 -34.5 t-51 -98.5q0 -41 36.5 -64.5t129.5 -40.5q160 -29 226.5 -92t66.5 -186q0 -166 -111 -263.5t-300 -97.5q-228 0 -357 111q-16 14 -16 32q0 16 14 34z" />
<glyph unicode="t" horiz-adv-x="735" d="M92 877l17 98q6 43 49 43h88l37 223q6 43 49 43h129q44 0 44 -37q0 -6 -1 -14l-35 -215h244q44 0 45 -37q0 -6 -2 -14l-15 -99q-6 -43 -49 -43h-254l-80 -508q-2 -12 -2 -34q0 -115 127 -115q38 0 78 14q13 4 23 4q29 0 37 -32l20 -88q2 -9 2 -17q0 -32 -29 -45 q-72 -29 -163 -29q-154 0 -237 71t-83 204q0 36 6 80l78 495h-80q-44 0 -44 38q0 6 1 14z" />
<glyph unicode="u" horiz-adv-x="997" d="M82 281q0 35 6 79l98 615q6 43 50 43h129q44 0 44 -37q0 -6 -1 -14l-97 -607q-4 -20 -4 -57q0 -70 34.5 -102.5t107.5 -32.5q86 0 132.5 49t61.5 152l96 606q6 43 49 43h123q44 0 44 -37q0 -6 -1 -14l-98 -623q-59 -369 -422 -369q-169 0 -260.5 80t-91.5 226z" />
<glyph unicode="v" horiz-adv-x="946" d="M109 967q-1 8 -1 14q0 37 44 37h135q45 0 51 -43l92 -699h4l320 707q17 35 55 35h135q28 0 38 -15q4 -7 4 -15q0 -11 -7 -25l-449 -928q-14 -35 -55 -35h-162q-43 0 -49 43z" />
<glyph unicode="w" horiz-adv-x="1435" d="M111 969q-1 5 -1 10q0 39 46 39h131q46 0 49 -45l61 -654h4l287 664q14 35 55 35h101q45 0 51 -45l74 -647h4l272 655q15 37 53 37h134q26 0 36 -15q4 -7 4 -16q0 -11 -6 -24l-407 -928q-14 -35 -55 -35h-144q-45 0 -51 45l-70 592h-4l-260 -600q-15 -37 -55 -37h-144 q-45 0 -51 45z" />
<glyph unicode="x" horiz-adv-x="968" d="M-21 17q-3 5 -3 11q0 13 12 29l360 475l-190 431q-10 25 -0.5 40t35.5 15h149q38 0 53 -37l115 -295l211 301q19 31 57 31h150q29 0 37 -17q3 -5 3 -11q0 -13 -12 -29l-333 -439l206 -467q11 -25 1.5 -40t-35.5 -15h-148q-38 0 -53 37l-131 334l-240 -342 q-20 -29 -57 -29h-150q-29 0 -37 17z" />
<glyph unicode="y" horiz-adv-x="1019" d="M41 -178l63 84q15 19 33 19q16 0 33 -15q84 -70 207 -70q188 0 219 191l8 53h-4q-78 -72 -209 -72q-147 0 -225 77t-78 220q0 50 8 94l90 572q6 43 50 43h129q44 0 44 -37q0 -6 -1 -14l-89 -557q-6 -34 -6 -62q0 -143 146 -143q161 0 196 207l90 563q6 43 50 43h129 q44 0 44 -37q0 -6 -1 -14l-150 -953q-28 -175 -141 -270.5t-295 -95.5q-216 0 -336 108q-19 14 -19 32q0 16 15 34z" />
<glyph unicode="z" horiz-adv-x="886" d="M-4 51l18 121q5 31 27 55l537 598h-377q-44 0 -44 38q0 7 1 14l16 98q6 43 49 43h611q44 0 44 -40q0 -5 -1 -11l-19 -121q-5 -31 -27 -55l-536 -598h418q44 0 44 -38q0 -7 -1 -14l-17 -98q-6 -43 -49 -43h-651q-44 0 -44 40q0 5 1 11z" />
<glyph unicode="{" horiz-adv-x="716" d="M80 541l14 100q6 37 43 37q59 0 94 41t50 135l30 195q26 169 111.5 240t263.5 71h35q45 0 39 -43l-17 -98q-6 -37 -47 -37q-77 0 -115 -39t-53 -133l-28 -176q-17 -105 -66.5 -165.5t-138.5 -82.5v-4q133 -34 133 -176q0 -39 -4 -62l-29 -176q-6 -34 -6 -62 q0 -60 28.5 -86t88.5 -26q43 0 37 -43l-15 -98q-6 -37 -45 -37h-43q-142 0 -211 57t-69 174q0 36 6 80l29 195q6 38 6 67q0 109 -86 109q-41 0 -35 43z" />
<glyph unicode="|" horiz-adv-x="542" d="M51 -285l266 1682q6 37 45 37h103q45 0 39 -43l-266 -1682q-6 -37 -45 -37h-103q-45 0 -39 43z" />
<glyph unicode="}" horiz-adv-x="716" d="M-20 -141l16 98q6 37 47 37q77 0 115 39t53 133l29 176q17 105 66.5 165.5t137.5 82.5v4q-133 34 -133 176q0 38 4 61l29 177q6 34 6 61q0 60 -28.5 86.5t-88.5 26.5q-42 0 -36 43l14 98q6 37 45 37h43q142 0 211.5 -57.5t69.5 -174.5q0 -28 -7 -79l-28 -195 q-6 -37 -6 -68q0 -108 86 -108q40 0 34 -43l-14 -100q-6 -37 -43 -37q-59 0 -93.5 -41t-49.5 -135l-31 -195q-26 -169 -111.5 -240t-263.5 -71h-35q-44 0 -38 43z" />
<glyph unicode="~" d="M31 528q77 113 157.5 164t176.5 51q63 0 117 -18.5t118 -62.5q47 -32 75.5 -44t59.5 -12q50 0 90 28.5t84 88.5q27 37 66 12l84 -57q41 -26 12 -66q-79 -113 -159.5 -164t-176.5 -51q-61 0 -114.5 19t-118.5 63q-47 32 -76 44t-61 12q-50 0 -88.5 -28.5t-83.5 -88.5 q-27 -38 -68 -12l-82 57q-41 24 -12 65z" />
<glyph unicode="&#xa1;" horiz-adv-x="512" d="M70 51l80 520l100 353q9 28 39 28h63q36 0 33 -34l-10 -347l-84 -528q-6 -43 -49 -43h-129q-52 0 -43 51zM229 1235q0 64 44 106.5t108 42.5q58 0 93.5 -36t35.5 -93q0 -65 -43 -108t-107 -43q-58 0 -94.5 37t-36.5 94z" />
<glyph unicode="&#xa2;" d="M166 354q0 51 8 95l33 213q64 408 473 411l18 123q3 25 29 25h49q28 0 25 -29l-21 -125q133 -18 207 -82q33 -26 2 -65l-67 -82q-26 -33 -66 -4q-39 27 -106 36l-103 -649q75 12 129 60q19 17 36.5 14t29.5 -25l53 -88q22 -40 -10 -65q-121 -91 -271 -99l-20 -137 q-3 -24 -29 -24h-49q-27 0 -24 28l20 133q-167 12 -256.5 98.5t-89.5 237.5zM399 389q0 -147 146 -168l102 649q-93 -11 -145.5 -68t-69.5 -169l-26 -178q-7 -44 -7 -66z" />
<glyph unicode="&#xa3;" d="M86 51l18 113q5 31 29 55q87 75 123 136.5t45 156.5h-131q-43 0 -37 45l14 90q6 37 46 37h83q-2 6 -6 18.5t-6 18.5q-31 89 -31 158q0 195 125.5 309.5t339.5 114.5q127 0 226 -39.5t157 -114.5q27 -37 -10 -66l-92 -77q-35 -28 -61 8q-73 84 -220 84 q-106 0 -168.5 -63.5t-62.5 -172.5q0 -65 20 -133q1 -5 4 -13t5 -16l4 -16h323q43 0 37 -45l-14 -90q-6 -37 -45 -37h-289q-10 -100 -44 -170t-99 -133v-4h503q52 0 43 -51l-18 -111q-6 -43 -49 -43h-719q-52 0 -43 51z" />
<glyph unicode="&#xa4;" d="M55 268q-30 33 2 58l158 139q-25 64 -25 137q0 134 74 238l-96 104q-13 14 -12 29.5t16 27.5l86 78q32 29 57 -2l97 -110q77 41 174 41q113 0 205 -60l145 133q26 27 57 -4l72 -78q29 -32 -2 -57l-158 -137q27 -64 27 -146q0 -129 -74 -233l94 -102q13 -14 12 -30 t-16 -28l-86 -78q-32 -29 -57 2l-96 113q-83 -39 -174 -39q-117 0 -203 58l-148 -136q-26 -26 -57 4zM367 612q0 -77 49.5 -125.5t128.5 -48.5q90 0 151.5 62.5t61.5 154.5q0 78 -49.5 127t-128.5 49q-91 0 -152 -62.5t-61 -156.5z" />
<glyph unicode="&#xa5;" d="M70 256l12 84q3 35 39 35h280l21 129h-272q-41 0 -35 39l12 84q6 35 41 35h274l-260 561q-12 25 -2.5 40t37.5 15h158q38 0 53 -37l162 -391l289 399q20 29 57 29h164q31 0 39 -17t-11 -40l-432 -559h256q41 0 35 -39l-12 -84q-6 -35 -41 -35h-279l-20 -129h272 q39 0 33 -39l-12 -84q-3 -35 -39 -35h-279l-28 -174q-6 -43 -50 -43h-139q-52 0 -43 51l27 166h-275q-38 0 -32 39z" />
<glyph unicode="&#xa6;" horiz-adv-x="542" d="M51 -285l101 637q6 37 45 37h102q45 0 39 -43l-100 -637q-6 -37 -45 -37h-103q-45 0 -39 43zM215 762l102 635q6 37 45 37h103q45 0 39 -45l-103 -635q-6 -37 -45 -37h-102q-45 0 -39 45z" />
<glyph unicode="&#xa7;" horiz-adv-x="1124" d="M10 -184q-27 38 8 65l84 72q36 29 68 -8q95 -107 289 -107q114 0 182 52.5t68 136.5q0 57 -53.5 89t-194.5 52q-204 29 -290.5 99t-86.5 198q0 119 55.5 211t161.5 147v4q-96 63 -96 205q0 195 131 310.5t352 115.5q269 0 383 -141q28 -38 -8 -66l-82 -71q-34 -28 -70 8 q-75 78 -235 78q-107 0 -178.5 -53.5t-71.5 -135.5q0 -57 53.5 -89t194.5 -52q203 -29 289 -98t86 -197q0 -125 -59 -216t-173 -142v-4q113 -61 113 -207q0 -195 -131 -309.5t-353 -114.5q-303 0 -436 168zM307 522q0 -69 60 -107.5t213 -62.5q110 17 178.5 81t68.5 151 q0 72 -65.5 109t-233.5 57q-98 -20 -159.5 -83t-61.5 -145z" />
<glyph unicode="&#xa8;" horiz-adv-x="1024" d="M338 1309q0 59 35.5 97t93.5 38q52 0 84.5 -32t32.5 -83q0 -57 -37.5 -95t-93.5 -38q-52 0 -83.5 31.5t-31.5 81.5zM694 1313q0 57 37.5 94t93.5 37q52 0 84.5 -32t32.5 -83q0 -57 -37.5 -95t-93.5 -38q-52 0 -84.5 33t-32.5 84z" />
<glyph unicode="&#xa9;" horiz-adv-x="1556" d="M94 592q0 160 63.5 306.5t169.5 253t252.5 169.5t305.5 63q183 0 326.5 -79.5t222.5 -220t79 -316.5q0 -160 -63 -306.5t-169.5 -253t-252.5 -170t-305 -63.5q-137 0 -254.5 46.5t-199.5 128t-128.5 196t-46.5 246.5zM240 600q0 -220 136 -358t357 -138q169 0 315.5 89 t233 240.5t86.5 326.5q0 219 -136 357t-358 138q-169 0 -315.5 -89t-232.5 -240t-86 -326zM508 508q0 37 4 57l39 238q44 268 305 268q161 0 223 -121q15 -34 -16 -49l-59 -35q-30 -16 -52 15q-38 55 -106 55q-123 0 -144 -152l-32 -211q-4 -32 -4 -45q0 -104 100 -104 q73 0 129 65q26 29 51 7l47 -39q28 -24 4 -51q-89 -117 -241 -117q-118 0 -183 57.5t-65 161.5z" />
<glyph unicode="&#xaa;" horiz-adv-x="727" d="M82 709q0 264 315 264h142q6 37 6 51q0 113 -129 113q-70 0 -131 -43q-39 -24 -56 12l-36 72q-18 35 16 59q107 66 235 66q139 0 216 -65t77 -187q0 -35 -6 -72l-31 -205q-47 -295 -342 -295q-132 0 -204 60t-72 170zM276 725q0 -80 93 -80q61 0 95 36.5t46 113.5l6 36 h-104q-136 0 -136 -106z" />
<glyph unicode="&#xab;" horiz-adv-x="950" d="M51 479q-15 31 6 58l269 342q18 24 49 24h123q26 0 32.5 -14.5t-8.5 -34.5l-272 -356l156 -334q10 -22 1 -35.5t-32 -13.5h-113q-32 0 -47 30zM457 479q-15 31 6 58l268 342q18 24 49 24h123q26 0 33 -14.5t-8 -34.5l-273 -356l156 -334q10 -22 1 -35.5t-32 -13.5h-112 q-32 0 -47 30z" />
<glyph unicode="&#xac;" d="M63 633l19 112q6 43 49 43h901q52 0 43 -51l-82 -506q-6 -43 -49 -43h-113q-52 0 -43 52l56 342h-738q-52 0 -43 51z" />
<glyph unicode="&#xad;" horiz-adv-x="688" d="M59 504l19 121q6 43 49 43h471q52 0 43 -52l-18 -120q-6 -43 -50 -43h-471q-52 0 -43 51z" />
<glyph unicode="&#xae;" horiz-adv-x="1556" d="M94 592q0 160 63.5 306.5t169.5 253t252.5 169.5t305.5 63q183 0 326.5 -79.5t222.5 -220t79 -316.5q0 -160 -63 -306.5t-169.5 -253t-252.5 -170t-305 -63.5q-137 0 -254.5 46.5t-199.5 128t-128.5 196t-46.5 246.5zM240 600q0 -220 136 -358t357 -138q169 0 315.5 89 t233 240.5t86.5 326.5q0 219 -136 357t-358 138q-169 0 -315.5 -89t-232.5 -240t-86 -326zM508 342l108 682q7 33 41 33h211q120 0 183 -50t63 -147q0 -104 -49 -172.5t-141 -93.5l108 -248q16 -43 -28 -43h-99q-31 0 -41 29l-90 248h-74l-38 -244q-6 -33 -41 -33h-78 q-41 0 -35 39zM721 715h96q64 0 101.5 32.5t37.5 88.5q0 86 -106 86h-96z" />
<glyph unicode="&#xaf;" horiz-adv-x="1024" d="M348 1251l17 101q6 37 43 37h479q45 0 39 -43l-17 -101q-6 -37 -45 -37h-477q-45 0 -39 43z" />
<glyph unicode="&#xb0;" horiz-adv-x="741" d="M127 954q0 148 100 248.5t244 100.5q130 0 210.5 -81t80.5 -208q0 -147 -100.5 -247.5t-243.5 -100.5q-131 0 -211 80.5t-80 207.5zM293 963q0 -60 36.5 -98t96.5 -38q68 0 118 52t50 125q0 62 -35.5 99.5t-95.5 37.5q-70 0 -120 -52t-50 -126z" />
<glyph unicode="&#xb1;" d="M-16 51l18 113q6 43 49 43h338l55 352h-329q-49 0 -43 51l18 113q9 43 51 43h336l47 295q6 43 49 43h115q52 0 43 -51l-47 -287h332q52 0 43 -51l-19 -113q-6 -43 -49 -43h-340l-55 -352h330q52 0 43 -51l-19 -113q-6 -43 -49 -43h-874q-52 0 -43 51z" />
<glyph unicode="&#xb2;" horiz-adv-x="675" d="M131 791l10 63q6 28 27 47l326 285q79 71 79 133q0 40 -24.5 63t-67.5 23q-71 0 -137 -76q-28 -31 -57 -2l-45 47q-28 28 -2 60q105 114 258 114q109 0 173 -60t64 -163q0 -71 -32 -126t-115 -122l-226 -184v-4h256q45 0 39 -43l-10 -64q-6 -37 -43 -37h-436 q-43 0 -37 46z" />
<glyph unicode="&#xb3;" horiz-adv-x="675" d="M139 831q-24 30 4 58l45 43q27 27 58 -4q53 -56 145 -56q64 0 101.5 31.5t37.5 85.5q0 48 -32 69t-105 21h-14q-45 0 -39 43l8 58q6 37 45 37h13q85 0 124 25.5t39 80.5q0 38 -26.5 60t-73.5 22q-70 0 -139 -66q-34 -31 -58 4l-41 54q-26 32 5 57q108 94 251 94 q113 0 178.5 -56.5t65.5 -154.5q0 -147 -131 -190v-4q92 -48 92 -164q0 -118 -79 -184t-222 -66q-170 0 -252 102z" />
<glyph unicode="&#xb4;" horiz-adv-x="1024" d="M511 1173.5q-8 14.5 7 34.5l187 248q19 25 49 25h157q27 0 34 -14.5t-11 -36.5l-211 -248q-20 -23 -51 -23h-127q-26 0 -34 14.5z" />
<glyph unicode="&#xb5;" horiz-adv-x="1019" d="M-2 -276l199 1251q6 43 49 43h129q52 0 43 -51l-94 -594q-7 -35 -7 -60q0 -71 37 -108t107 -37q84 0 131.5 51t64.5 156l97 600q6 43 49 43h129q52 0 43 -51l-96 -617q-29 -186 -127 -280.5t-260 -94.5q-145 0 -211 91h-5l-57 -351q-6 -43 -49 -43h-129q-52 0 -43 52z " />
<glyph unicode="&#xb6;" horiz-adv-x="1177" d="M117 918q0 261 138 388.5t427 127.5h453q45 0 39 -43l-267 -1682q-6 -37 -45 -37h-94q-45 0 -39 43l244 1534h-197l-244 -1540q-6 -37 -45 -37h-94q-45 0 -39 43l135 856q-187 12 -279.5 97.5t-92.5 249.5z" />
<glyph unicode="&#xb7;" horiz-adv-x="507" d="M131 629q0 64 44 106.5t106 42.5q59 0 95 -36.5t36 -94.5q0 -64 -44 -106.5t-106 -42.5q-59 0 -95 36.5t-36 94.5z" />
<glyph unicode="&#xb8;" horiz-adv-x="1024" d="M205 -268l20 49q13 33 54 14q54 -24 90 -24q73 0 73 49q0 41 -80 41q-42 0 -28 41l49 139h117l-45 -123q60 -9 91.5 -41.5t31.5 -81.5q0 -72 -53 -109.5t-152 -37.5q-84 0 -152 33q-31 13 -16 51z" />
<glyph unicode="&#xb9;" horiz-adv-x="675" d="M291 1300q-19 36 12 58l236 160q21 16 51 16h55q45 0 39 -45l-115 -709q-6 -37 -45 -37h-75q-45 0 -39 43l84 527l-113 -76q-36 -22 -57 12z" />
<glyph unicode="&#xba;" horiz-adv-x="759" d="M104 727q0 21 7 61l34 222q47 293 338 293q137 0 213 -65t76 -181q0 -29 -6 -64l-33 -219q-47 -295 -338 -295q-138 0 -214.5 65.5t-76.5 182.5zM299 748q0 -103 102 -103q118 0 142 150l30 192q5 40 5 45q0 105 -103 105q-61 0 -95 -37t-46 -113l-31 -192q-4 -32 -4 -47 z" />
<glyph unicode="&#xbb;" horiz-adv-x="950" d="M12 129.5q-7 14.5 8 34.5l277 356l-160 334q-9 22 -0.5 35.5t31.5 13.5h113q31 0 47 -31l164 -331q15 -30 -7 -58l-268 -344q-18 -24 -49 -24h-123q-26 0 -33 14.5zM418 129.5q-7 14.5 8 34.5l276 356l-159 334q-9 22 -1 35.5t31 13.5h113q32 0 47 -31l164 -331 q15 -31 -6 -58l-268 -344q-18 -24 -50 -24h-122q-26 0 -33 14.5z" />
<glyph unicode="&#xbc;" horiz-adv-x="1638" d="M252 1044q-19 36 12 58l236 160q21 16 51 16h55q45 0 39 -45l-115 -709q-6 -37 -45 -37h-75q-45 0 -39 43l84 527l-113 -76q-36 -22 -57 12zM328.5 14.5q-7.5 14.5 9.5 34.5l987 1204q19 25 51 25h99q26 0 33.5 -14.5t-9.5 -34.5l-985 -1204q-19 -25 -51 -25h-101 q-26 0 -33.5 14.5zM961 209l14 80q7 32 22 47l383 432q20 23 52 23h84q44 0 38 -46l-71 -438h45q45 0 39 -43l-11 -63q-6 -37 -43 -37h-53l-20 -127q-6 -37 -43 -37h-78q-45 0 -39 45l20 119h-301q-44 0 -38 45zM1149 307h174l41 244h-4z" />
<glyph unicode="&#xbd;" horiz-adv-x="1638" d="M246.5 14.5q-7.5 14.5 9.5 34.5l987 1204q19 25 51 25h99q26 0 33.5 -14.5t-9.5 -34.5l-985 -1204q-19 -25 -51 -25h-100q-27 0 -34.5 14.5zM252 1044q-19 36 12 58l236 160q21 16 51 16h55q45 0 39 -45l-115 -709q-6 -37 -45 -37h-75q-45 0 -39 43l84 527l-113 -76 q-36 -22 -57 12zM977 47l10 64q6 28 27 47l325 284q44 39 62 69.5t18 63.5q0 40 -24.5 63.5t-67.5 23.5q-71 0 -137 -76q-28 -31 -57 -2l-46 47q-27 27 -2 59q106 115 258 115q109 0 173.5 -60t64.5 -163q0 -71 -32 -126t-115 -122l-226 -184v-5h256q45 0 39 -43l-10 -63 q-6 -37 -43 -37h-436q-43 0 -37 45z" />
<glyph unicode="&#xbe;" horiz-adv-x="1638" d="M100 575q-24 30 4 58l46 43q26 26 57 -4q53 -56 145 -56q65 0 102.5 31.5t37.5 85.5q0 47 -32.5 68.5t-105.5 21.5h-14q-45 0 -39 43l8 58q6 37 45 37h13q85 0 124 25.5t39 80.5q0 38 -26.5 60t-73.5 22q-70 0 -139 -66q-34 -31 -58 4l-40 54q-26 33 4 57q108 94 252 94 q113 0 178 -56.5t65 -154.5q0 -147 -131 -190v-4q92 -48 92 -164q0 -118 -79 -184t-222 -66q-170 0 -252 102zM326.5 14.5q-7.5 14.5 9.5 34.5l987 1204q19 25 51 25h99q26 0 33.5 -14.5t-9.5 -34.5l-985 -1204q-19 -25 -51 -25h-101q-26 0 -33.5 14.5zM961 209l14 80 q7 32 22 47l383 432q20 23 52 23h84q44 0 38 -46l-71 -438h45q45 0 39 -43l-11 -63q-6 -37 -43 -37h-53l-20 -127q-6 -37 -43 -37h-78q-45 0 -39 45l20 119h-301q-44 0 -38 45zM1149 307h174l41 244h-4z" />
<glyph unicode="&#xbf;" horiz-adv-x="942" d="M18 311q0 139 60.5 229.5t208.5 164.5q100 50 141.5 93.5t50.5 104.5q8 49 51 49h119q51 0 45 -51l-4 -22q-15 -107 -72.5 -182t-183.5 -144q-102 -56 -141 -105.5t-39 -119.5q0 -68 45 -108t123 -40q144 0 270 144q31 39 66 4l80 -78q36 -31 0 -70q-180 -205 -437 -205 q-175 0 -279 91t-104 245zM498 1233q0 65 43 108t106 43q59 0 95 -36.5t36 -94.5q0 -64 -43.5 -106.5t-105.5 -42.5q-58 0 -94.5 36t-36.5 93z" />
<glyph unicode="&#xc0;" horiz-adv-x="1216" d="M-23 15q-9 15 3 40l614 1270q17 35 55 35h180q44 0 50 -43l211 -1266q9 -51 -43 -51h-154q-43 0 -49 43l-29 203h-487l-97 -211q-17 -35 -55 -35h-162q-28 0 -37 15zM422 455h364l-86 616h-4zM534.5 1796.5q7.5 13.5 32.5 13.5h142q34 0 49 -30l104 -244q9 -22 0.5 -34.5 t-31.5 -12.5h-112q-32 0 -49 29l-131 243q-12 22 -4.5 35.5z" />
<glyph unicode="&#xc1;" horiz-adv-x="1216" d="M-23 15q-9 15 3 40l614 1270q17 35 55 35h180q44 0 50 -43l211 -1266q9 -51 -43 -51h-154q-43 0 -49 43l-29 203h-487l-97 -211q-17 -35 -55 -35h-162q-28 0 -37 15zM422 455h364l-86 616h-4zM658.5 1503.5q-7.5 14.5 7.5 34.5l186 248q18 24 49 24h158q27 0 33.5 -14.5 t-11.5 -36.5l-211 -248q-19 -22 -51 -22h-127q-26 0 -33.5 14.5z" />
<glyph unicode="&#xc2;" horiz-adv-x="1216" d="M-23 15q-9 15 3 40l614 1270q17 35 55 35h180q44 0 50 -43l211 -1266q9 -51 -43 -51h-154q-43 0 -49 43l-29 203h-487l-97 -211q-17 -35 -55 -35h-162q-28 0 -37 15zM422 455h364l-86 616h-4zM475 1503.5q-7 14.5 10 36.5l207 248q19 22 51 22h134q33 0 47 -28l127 -244 q11 -22 2.5 -35.5t-33.5 -13.5h-100q-33 0 -50 29l-71 137l-123 -144q-19 -22 -51 -22h-117q-26 0 -33 14.5z" />
<glyph unicode="&#xc3;" horiz-adv-x="1216" d="M-23 15q-9 15 3 40l614 1270q17 35 55 35h180q44 0 50 -43l211 -1266q9 -51 -43 -51h-154q-43 0 -49 43l-29 203h-487l-97 -211q-17 -35 -55 -35h-162q-28 0 -37 15zM422 455h364l-86 616h-4zM459 1542q57 234 227 234q38 0 68 -13.5t67 -46.5q13 -12 17.5 -15.5 t15.5 -11t20.5 -10t20.5 -2.5q47 0 74 70q11 33 45 33h65q20 0 29 -11.5t4 -31.5q-57 -236 -227 -236q-38 0 -68 14t-67 48q-44 39 -74 39q-48 0 -76 -72q-11 -33 -45 -33h-63q-20 0 -29 12.5t-4 32.5z" />
<glyph unicode="&#xc4;" horiz-adv-x="1216" d="M-23 15q-9 15 3 40l614 1270q17 35 55 35h180q44 0 50 -43l211 -1266q9 -51 -43 -51h-154q-43 0 -49 43l-29 203h-487l-97 -211q-17 -35 -55 -35h-162q-28 0 -37 15zM422 455h364l-86 616h-4zM485 1638q0 59 35.5 97.5t93.5 38.5q52 0 84.5 -32t32.5 -83q0 -57 -37.5 -95 t-93.5 -38q-52 0 -83.5 31t-31.5 81zM842 1642q0 57 37.5 94.5t93.5 37.5q52 0 84.5 -32t32.5 -83q0 -57 -38 -95t-94 -38q-52 0 -84 32.5t-32 83.5z" />
<glyph unicode="&#xc5;" horiz-adv-x="1216" d="M-23 15q-9 15 3 40l614 1270q17 35 55 35h180q44 0 50 -43l211 -1266q9 -51 -43 -51h-154q-43 0 -49 43l-29 203h-487l-97 -211q-17 -35 -55 -35h-162q-28 0 -37 15zM422 455h364l-86 616h-4zM608 1632q0 81 56.5 136t136.5 55q73 0 119.5 -47t46.5 -119q0 -77 -58 -132 t-135 -55q-72 0 -119 46.5t-47 115.5zM719 1638q0 -29 15.5 -45t43.5 -16q31 0 53.5 23t22.5 55q0 29 -16.5 45t-44.5 16q-31 0 -52.5 -23t-21.5 -55z" />
<glyph unicode="&#xc6;" horiz-adv-x="1779" d="M-59 16q-9 16 8 41l882 1272q19 31 58 31h889q52 0 43 -51l-19 -119q-6 -43 -49 -43h-584l-57 -352h485q52 0 43 -52l-18 -118q-6 -43 -49 -43h-494l-59 -369h575q52 0 43 -51l-18 -119q-6 -43 -49 -43h-776q-52 0 -43 51l30 195h-422l-145 -215q-19 -31 -57 -31h-178 q-30 0 -39 16zM500 455h315l100 620h-4z" />
<glyph unicode="&#xc7;" horiz-adv-x="1073" d="M90 369q0 43 10 108l68 426q74 481 545 481q147 0 251 -60t156 -177q18 -41 -22 -62l-115 -61q-40 -21 -61 23q-67 124 -224 124q-242 0 -292 -303l-60 -379q-8 -47 -8 -86q0 -215 207 -215q156 0 256 140q26 40 65 12l101 -74q39 -25 10 -65q-82 -112 -185 -166.5 t-243 -59.5l-21 -57q60 -9 91.5 -41.5t31.5 -81.5q0 -72 -53 -109.5t-152 -37.5q-83 0 -151 33q-31 13 -16 51l20 49q13 33 53 14q54 -24 90 -24q74 0 74 49q0 41 -80 41q-42 0 -28 41l28 80q-165 22 -255.5 122t-90.5 265z" />
<glyph unicode="&#xc8;" horiz-adv-x="1103" d="M76 51l200 1266q6 43 50 43h776q52 0 43 -51l-19 -119q-6 -43 -49 -43h-583l-58 -352h486q52 0 43 -52l-19 -118q-6 -43 -49 -43h-494l-59 -369h578q52 0 43 -51l-21 -119q-6 -43 -49 -43h-776q-52 0 -43 51zM510 1796.5q8 13.5 33 13.5h141q34 0 49 -30l105 -244 q9 -22 0.5 -34.5t-31.5 -12.5h-113q-32 0 -49 29l-131 243q-12 22 -4 35.5z" />
<glyph unicode="&#xc9;" horiz-adv-x="1103" d="M76 51l200 1266q6 43 50 43h776q52 0 43 -51l-19 -119q-6 -43 -49 -43h-583l-58 -352h486q52 0 43 -52l-19 -118q-6 -43 -49 -43h-494l-59 -369h578q52 0 43 -51l-21 -119q-6 -43 -49 -43h-776q-52 0 -43 51zM634 1503.5q-8 14.5 7 34.5l186 248q18 24 50 24h157 q27 0 34 -14.5t-11 -36.5l-211 -248q-19 -22 -51 -22h-127q-26 0 -34 14.5z" />
<glyph unicode="&#xca;" horiz-adv-x="1103" d="M76 51l200 1266q6 43 50 43h776q52 0 43 -51l-19 -119q-6 -43 -49 -43h-583l-58 -352h486q52 0 43 -52l-19 -118q-6 -43 -49 -43h-494l-59 -369h578q52 0 43 -51l-21 -119q-6 -43 -49 -43h-776q-52 0 -43 51zM450.5 1503.5q-6.5 14.5 10.5 36.5l207 248q19 22 51 22h133 q33 0 47 -28l127 -244q11 -22 2.5 -35.5t-33.5 -13.5h-100q-32 0 -49 29l-72 137l-123 -144q-19 -22 -51 -22h-117q-26 0 -32.5 14.5z" />
<glyph unicode="&#xcb;" horiz-adv-x="1103" d="M76 51l200 1266q6 43 50 43h776q52 0 43 -51l-19 -119q-6 -43 -49 -43h-583l-58 -352h486q52 0 43 -52l-19 -118q-6 -43 -49 -43h-494l-59 -369h578q52 0 43 -51l-21 -119q-6 -43 -49 -43h-776q-52 0 -43 51zM461 1638q0 59 35.5 97.5t93.5 38.5q52 0 84.5 -32t32.5 -83 q0 -57 -38 -95t-94 -38q-52 0 -83 31t-31 81zM817 1642q0 57 37.5 94.5t93.5 37.5q52 0 84.5 -32t32.5 -83q0 -57 -37.5 -95t-93.5 -38q-52 0 -84.5 32.5t-32.5 83.5z" />
<glyph unicode="&#xcc;" horiz-adv-x="544" d="M76 51l200 1266q6 43 50 43h149q52 0 43 -51l-201 -1266q-6 -43 -49 -43h-149q-52 0 -43 51zM198.5 1796.5q7.5 13.5 32.5 13.5h142q34 0 49 -30l104 -244q9 -22 1 -34.5t-31 -12.5h-113q-32 0 -49 29l-131 243q-12 22 -4.5 35.5z" />
<glyph unicode="&#xcd;" horiz-adv-x="544" d="M76 51l200 1266q6 43 50 43h149q52 0 43 -51l-201 -1266q-6 -43 -49 -43h-149q-52 0 -43 51zM322.5 1503.5q-7.5 14.5 7.5 34.5l186 248q18 24 49 24h158q27 0 33.5 -14.5t-11.5 -36.5l-210 -248q-19 -22 -52 -22h-127q-26 0 -33.5 14.5z" />
<glyph unicode="&#xce;" horiz-adv-x="544" d="M76 51l200 1266q6 43 50 43h149q52 0 43 -51l-201 -1266q-6 -43 -49 -43h-149q-52 0 -43 51zM139.5 1503.5q-6.5 14.5 10.5 36.5l206 248q19 22 52 22h133q33 0 47 -28l127 -244q11 -22 2.5 -35.5t-33.5 -13.5h-100q-32 0 -49 29l-72 137l-123 -144q-19 -22 -51 -22h-117 q-26 0 -32.5 14.5z" />
<glyph unicode="&#xcf;" horiz-adv-x="544" d="M76 51l200 1266q6 43 50 43h149q52 0 43 -51l-201 -1266q-6 -43 -49 -43h-149q-52 0 -43 51zM150 1638q0 59 35.5 97.5t93.5 38.5q52 0 84 -32t32 -83q0 -57 -37.5 -95t-93.5 -38q-52 0 -83 31t-31 81zM506 1642q0 57 37.5 94.5t93.5 37.5q52 0 84.5 -32t32.5 -83 q0 -57 -37.5 -95t-93.5 -38q-52 0 -84.5 32.5t-32.5 83.5z" />
<glyph unicode="&#xd0;" horiz-adv-x="1239" d="M68 637l18 115q6 39 45 39h88l84 526q6 43 49 43h402q219 0 332.5 -94t113.5 -275q0 -47 -10 -112l-68 -416q-38 -237 -173 -350t-386 -113h-418q-52 0 -43 51l86 539h-82q-47 0 -38 47zM371 213h200q137 0 214 69t100 214l59 370q6 40 6 76q0 104 -56 154.5t-173 50.5 h-201l-57 -356h194q48 0 39 -48l-18 -114q-6 -39 -45 -39h-203z" />
<glyph unicode="&#xd1;" horiz-adv-x="1273" d="M76 51l200 1266q6 43 50 43h184q41 0 55 -39l303 -891h4l140 887q6 43 49 43h145q52 0 43 -51l-200 -1266q-6 -43 -50 -43h-163q-42 0 -56 39l-317 926h-4l-146 -922q-6 -43 -49 -43h-145q-52 0 -43 51zM487 1542q57 234 228 234q38 0 68 -13.5t67 -46.5 q13 -12 17.5 -15.5t15.5 -11t20.5 -10t20.5 -2.5q46 0 73 70q11 33 45 33h66q20 0 29 -11.5t4 -31.5q-57 -236 -228 -236q-38 0 -68 14t-67 48q-26 23 -40.5 31t-32.5 8q-48 0 -76 -72q-11 -33 -45 -33h-64q-20 0 -29 12.5t-4 32.5z" />
<glyph unicode="&#xd2;" horiz-adv-x="1212" d="M92 371q0 57 8 106l68 426q74 481 549 481q217 0 335.5 -103t118.5 -292q0 -57 -8 -106l-67 -426q-78 -482 -549 -482q-218 0 -336.5 103.5t-118.5 292.5zM340 403q0 -215 217 -215q128 0 202 75.5t99 228.5l60 378q8 44 8 91q0 210 -219 210q-128 0 -202 -75t-99 -228 l-60 -379q-6 -47 -6 -86zM532.5 1796.5q7.5 13.5 32.5 13.5h142q34 0 49 -30l104 -244q9 -22 0.5 -34.5t-31.5 -12.5h-112q-32 0 -49 29l-131 243q-12 22 -4.5 35.5z" />
<glyph unicode="&#xd3;" horiz-adv-x="1212" d="M92 371q0 57 8 106l68 426q74 481 549 481q217 0 335.5 -103t118.5 -292q0 -57 -8 -106l-67 -426q-78 -482 -549 -482q-218 0 -336.5 103.5t-118.5 292.5zM340 403q0 -215 217 -215q128 0 202 75.5t99 228.5l60 378q8 44 8 91q0 210 -219 210q-128 0 -202 -75t-99 -228 l-60 -379q-6 -47 -6 -86zM656.5 1503.5q-7.5 14.5 7.5 34.5l186 248q18 24 49 24h158q27 0 33.5 -14.5t-11.5 -36.5l-211 -248q-19 -22 -51 -22h-127q-26 0 -33.5 14.5z" />
<glyph unicode="&#xd4;" horiz-adv-x="1212" d="M92 371q0 57 8 106l68 426q74 481 549 481q217 0 335.5 -103t118.5 -292q0 -57 -8 -106l-67 -426q-78 -482 -549 -482q-218 0 -336.5 103.5t-118.5 292.5zM340 403q0 -215 217 -215q128 0 202 75.5t99 228.5l60 378q8 44 8 91q0 210 -219 210q-128 0 -202 -75t-99 -228 l-60 -379q-6 -47 -6 -86zM473 1503.5q-7 14.5 10 36.5l207 248q19 22 51 22h133q34 0 48 -28l127 -244q11 -22 2.5 -35.5t-33.5 -13.5h-100q-33 0 -50 29l-71 137l-123 -144q-19 -22 -51 -22h-117q-26 0 -33 14.5z" />
<glyph unicode="&#xd5;" horiz-adv-x="1212" d="M92 371q0 57 8 106l68 426q74 481 549 481q217 0 335.5 -103t118.5 -292q0 -57 -8 -106l-67 -426q-78 -482 -549 -482q-218 0 -336.5 103.5t-118.5 292.5zM340 403q0 -215 217 -215q128 0 202 75.5t99 228.5l60 378q8 44 8 91q0 210 -219 210q-128 0 -202 -75t-99 -228 l-60 -379q-6 -47 -6 -86zM457 1542q57 234 227 234q38 0 68 -13.5t67 -46.5q13 -12 17.5 -15.5t15.5 -11t20.5 -10t20.5 -2.5q47 0 74 70q11 33 45 33h65q20 0 29 -11.5t4 -31.5q-57 -236 -227 -236q-38 0 -68 14t-67 48q-44 39 -74 39q-48 0 -76 -72q-11 -33 -45 -33h-64 q-20 0 -28.5 12t-3.5 33z" />
<glyph unicode="&#xd6;" horiz-adv-x="1212" d="M92 371q0 57 8 106l68 426q74 481 549 481q217 0 335.5 -103t118.5 -292q0 -57 -8 -106l-67 -426q-78 -482 -549 -482q-218 0 -336.5 103.5t-118.5 292.5zM340 403q0 -215 217 -215q128 0 202 75.5t99 228.5l60 378q8 44 8 91q0 210 -219 210q-128 0 -202 -75t-99 -228 l-60 -379q-6 -47 -6 -86zM483 1638q0 59 35.5 97.5t93.5 38.5q52 0 84.5 -32t32.5 -83q0 -57 -37.5 -95t-93.5 -38q-52 0 -83.5 31t-31.5 81zM840 1642q0 57 37.5 94.5t93.5 37.5q52 0 84 -32t32 -83q0 -57 -37.5 -95t-93.5 -38q-52 0 -84 32.5t-32 83.5z" />
<glyph unicode="&#xd7;" d="M43 195q-32 36 4 65l367 318l-262 307q-30 35 4 65l92 82q36 31 65 -6l262 -307l365 313q36 31 66 -4l71 -80q31 -36 -6 -65l-364 -318l260 -307q30 -35 -4 -65l-91 -80q-36 -32 -65 4l-264 307l-363 -313q-35 -30 -65 4z" />
<glyph unicode="&#xd8;" horiz-adv-x="1212" d="M45 119l74 90q-27 79 -27 162q0 57 8 106l68 426q74 481 549 481q193 0 309 -81l49 59q23 34 58 6l79 -70q33 -26 5 -57l-74 -88q28 -76 28 -164q0 -57 -8 -106l-67 -426q-78 -482 -549 -482q-193 0 -311 82l-50 -59q-23 -33 -57 -6l-80 69q-33 26 -4 58zM344 485h4 l524 633q-56 53 -165 53q-128 0 -202 -75t-99 -228zM391 244q53 -56 166 -56q128 0 202 75.5t99 228.5l62 385h-5z" />
<glyph unicode="&#xd9;" horiz-adv-x="1204" d="M113 354q0 56 8 105l135 858q6 43 49 43h150q52 0 43 -51l-131 -838q-7 -54 -7 -84q0 -101 48.5 -150t148.5 -49q116 0 181.5 69.5t88.5 213.5l136 846q6 43 49 43h145q52 0 43 -51l-137 -865q-74 -469 -520 -469q-206 0 -318 99t-112 280zM528 1796.5q8 13.5 33 13.5 h141q35 0 50 -30l104 -244q9 -22 0.5 -34.5t-31.5 -12.5h-112q-32 0 -49 29l-132 243q-12 22 -4 35.5z" />
<glyph unicode="&#xda;" horiz-adv-x="1204" d="M113 354q0 56 8 105l135 858q6 43 49 43h150q52 0 43 -51l-131 -838q-7 -54 -7 -84q0 -101 48.5 -150t148.5 -49q116 0 181.5 69.5t88.5 213.5l136 846q6 43 49 43h145q52 0 43 -51l-137 -865q-74 -469 -520 -469q-206 0 -318 99t-112 280zM652 1503.5q-8 14.5 7 34.5 l187 248q18 24 49 24h158q27 0 33.5 -14.5t-11.5 -36.5l-211 -248q-19 -22 -51 -22h-127q-26 0 -34 14.5z" />
<glyph unicode="&#xdb;" horiz-adv-x="1204" d="M113 354q0 56 8 105l135 858q6 43 49 43h150q52 0 43 -51l-131 -838q-7 -54 -7 -84q0 -101 48.5 -150t148.5 -49q116 0 181.5 69.5t88.5 213.5l136 846q6 43 49 43h145q52 0 43 -51l-137 -865q-74 -469 -520 -469q-206 0 -318 99t-112 280zM469 1503.5q-7 14.5 10 36.5 l207 248q19 22 51 22h133q34 0 48 -28l126 -244q11 -22 3 -35.5t-33 -13.5h-101q-32 0 -49 29l-71 137l-123 -144q-19 -22 -52 -22h-116q-26 0 -33 14.5z" />
<glyph unicode="&#xdc;" horiz-adv-x="1204" d="M113 354q0 56 8 105l135 858q6 43 49 43h150q52 0 43 -51l-131 -838q-7 -54 -7 -84q0 -101 48.5 -150t148.5 -49q116 0 181.5 69.5t88.5 213.5l136 846q6 43 49 43h145q52 0 43 -51l-137 -865q-74 -469 -520 -469q-206 0 -318 99t-112 280zM479 1638q0 59 35.5 97.5 t93.5 38.5q52 0 84.5 -32t32.5 -83q0 -57 -37.5 -95t-93.5 -38q-52 0 -83.5 31t-31.5 81zM836 1642q0 57 37.5 94.5t93.5 37.5q52 0 84 -32t32 -83q0 -57 -37.5 -95t-93.5 -38q-52 0 -84 32.5t-32 83.5z" />
<glyph unicode="&#xdd;" horiz-adv-x="1112" d="M150 1305q-10 25 0 40t36 15h174q39 0 54 -37l186 -500l348 506q19 31 58 31h180q31 0 39.5 -16t-8.5 -41l-533 -736l-84 -524q-6 -43 -49 -43h-150q-52 0 -43 51l86 541zM607 1503.5q-8 14.5 7 34.5l187 248q18 24 49 24h158q27 0 33.5 -14.5t-11.5 -36.5l-211 -248 q-19 -22 -51 -22h-127q-26 0 -34 14.5z" />
<glyph unicode="&#xde;" horiz-adv-x="1128" d="M76 51l200 1266q6 43 50 43h149q52 0 43 -51l-29 -176h183q436 0 436 -367q0 -256 -136 -377t-425 -121h-193l-37 -225q-6 -43 -49 -43h-149q-52 0 -43 51zM387 481h186q148 0 217.5 63t69.5 195q0 93 -54.5 137t-164.5 44h-184z" />
<glyph unicode="&#xdf;" horiz-adv-x="1134" d="M49 51l164 1036q28 175 148 273t307 98q175 0 273.5 -82.5t98.5 -230.5q0 -108 -47 -183t-162 -143q-66 -39 -90 -67.5t-24 -63.5q0 -30 24.5 -49.5t85.5 -34.5q119 -29 172.5 -94.5t53.5 -175.5q0 -170 -105 -264.5t-295 -94.5q-172 0 -286 66q-37 21 -15 63l47 91 q21 43 64 16q67 -43 182 -43q86 0 134 36.5t48 102.5q0 40 -27.5 65t-99.5 48q-109 35 -155.5 93t-46.5 155q0 101 44 171.5t152 137.5q71 44 99 79.5t28 78.5q0 61 -44.5 96t-121.5 35q-91 0 -148.5 -47.5t-70.5 -135.5l-166 -1040q-6 -43 -49 -43h-129q-52 0 -43 51z" />
<glyph unicode="&#xe0;" horiz-adv-x="942" d="M33 270q0 166 103.5 253t307.5 87h199q8 49 8 78q0 84 -43.5 123t-132.5 39q-93 0 -186 -66q-42 -31 -66 13l-45 86q-21 40 19 67q139 92 309 92q178 0 274.5 -82.5t96.5 -238.5q0 -33 -7 -84l-45 -281q-59 -381 -444 -381q-168 0 -258 76.5t-90 218.5zM258 287 q0 -58 36 -88.5t103 -30.5q90 0 141 53t68 162l10 61h-159q-96 0 -147.5 -40.5t-51.5 -116.5zM352 1467.5q8 13.5 33 13.5h141q34 0 49 -31l105 -244q9 -22 0.5 -34.5t-31.5 -12.5h-112q-33 0 -50 29l-131 244q-12 22 -4 35.5z" />
<glyph unicode="&#xe1;" horiz-adv-x="942" d="M33 270q0 166 103.5 253t307.5 87h199q8 49 8 78q0 84 -43.5 123t-132.5 39q-93 0 -186 -66q-42 -31 -66 13l-45 86q-21 40 19 67q139 92 309 92q178 0 274.5 -82.5t96.5 -238.5q0 -33 -7 -84l-45 -281q-59 -381 -444 -381q-168 0 -258 76.5t-90 218.5zM258 287 q0 -58 36 -88.5t103 -30.5q90 0 141 53t68 162l10 61h-159q-96 0 -147.5 -40.5t-51.5 -116.5zM476 1173.5q-8 14.5 7 34.5l187 248q19 25 49 25h158q27 0 33.5 -14.5t-11.5 -36.5l-211 -248q-20 -23 -51 -23h-127q-26 0 -34 14.5z" />
<glyph unicode="&#xe2;" horiz-adv-x="942" d="M33 270q0 166 103.5 253t307.5 87h199q8 49 8 78q0 84 -43.5 123t-132.5 39q-93 0 -186 -66q-42 -31 -66 13l-45 86q-21 40 19 67q139 92 309 92q178 0 274.5 -82.5t96.5 -238.5q0 -33 -7 -84l-45 -281q-59 -381 -444 -381q-168 0 -258 76.5t-90 218.5zM258 287 q0 -58 36 -88.5t103 -30.5q90 0 141 53t68 162l10 61h-159q-96 0 -147.5 -40.5t-51.5 -116.5zM293 1173.5q-7 14.5 10 36.5l207 248q20 23 51 23h133q32 0 47 -29l127 -244q11 -22 3 -35.5t-33 -13.5h-101q-32 0 -49 29l-72 137l-122 -143q-20 -23 -52 -23h-116 q-26 0 -33 14.5z" />
<glyph unicode="&#xe3;" horiz-adv-x="942" d="M33 270q0 166 103.5 253t307.5 87h199q8 49 8 78q0 84 -43.5 123t-132.5 39q-93 0 -186 -66q-42 -31 -66 13l-45 86q-21 40 19 67q139 92 309 92q178 0 274.5 -82.5t96.5 -238.5q0 -33 -7 -84l-45 -281q-59 -381 -444 -381q-168 0 -258 76.5t-90 218.5zM258 287 q0 -58 36 -88.5t103 -30.5q90 0 141 53t68 162l10 61h-159q-96 0 -147.5 -40.5t-51.5 -116.5zM276 1212q57 234 228 234q38 0 68 -13.5t67 -46.5q16 -14 23.5 -20t21.5 -12t29 -6q47 0 73 69q11 33 45 33h66q20 0 29 -11.5t4 -31.5q-57 -236 -228 -236q-38 0 -68 14t-67 48 q-26 23 -40.5 31t-32.5 8q-48 0 -76 -72q-11 -33 -45 -33h-64q-20 0 -29 12.5t-4 32.5z" />
<glyph unicode="&#xe4;" horiz-adv-x="942" d="M33 270q0 166 103.5 253t307.5 87h199q8 49 8 78q0 84 -43.5 123t-132.5 39q-93 0 -186 -66q-42 -31 -66 13l-45 86q-21 40 19 67q139 92 309 92q178 0 274.5 -82.5t96.5 -238.5q0 -33 -7 -84l-45 -281q-59 -381 -444 -381q-168 0 -258 76.5t-90 218.5zM258 287 q0 -58 36 -88.5t103 -30.5q90 0 141 53t68 162l10 61h-159q-96 0 -147.5 -40.5t-51.5 -116.5zM303 1309q0 59 35.5 97t93.5 38q52 0 84.5 -32t32.5 -83q0 -57 -37.5 -95t-93.5 -38q-52 0 -83.5 31.5t-31.5 81.5zM659 1313q0 57 38 94t94 37q52 0 84 -32t32 -83 q0 -57 -37.5 -95t-93.5 -38q-52 0 -84.5 33t-32.5 84z" />
<glyph unicode="&#xe5;" horiz-adv-x="942" d="M33 270q0 166 103.5 253t307.5 87h199q8 49 8 78q0 84 -43.5 123t-132.5 39q-93 0 -186 -66q-42 -31 -66 13l-45 86q-21 40 19 67q139 92 309 92q178 0 274.5 -82.5t96.5 -238.5q0 -33 -7 -84l-45 -281q-59 -381 -444 -381q-168 0 -258 76.5t-90 218.5zM258 287 q0 -58 36 -88.5t103 -30.5q90 0 141 53t68 162l10 61h-159q-96 0 -147.5 -40.5t-51.5 -116.5zM426 1303q0 81 56 135.5t136 54.5q73 0 119.5 -47t46.5 -119q0 -77 -57.5 -131.5t-134.5 -54.5q-72 0 -119 46.5t-47 115.5zM537 1309q0 -29 15.5 -45.5t43.5 -16.5q31 0 53.5 23 t22.5 55q0 29 -17 45t-45 16q-31 0 -52 -22.5t-21 -54.5z" />
<glyph unicode="&#xe6;" horiz-adv-x="1478" d="M33 270q0 164 103.5 251t307.5 87h199q8 52 8 82q0 84 -42.5 122t-131.5 38q-93 0 -188 -66q-45 -30 -66 13l-45 86q-21 40 15 65q140 94 301 94q223 0 292 -153h5q102 153 321 153q153 0 238.5 -83t85.5 -228q0 -39 -6 -86l-25 -160q-6 -43 -49 -43h-518l-7 -45 q-6 -37 -6 -67q0 -84 45 -123t140 -39q94 0 182 72q41 31 65 -9l54 -81q24 -38 -11 -66q-133 -109 -301 -109q-238 0 -309 158h-4q-103 -158 -336 -158q-147 0 -232 79t-85 216zM258 287q0 -119 139 -119q89 0 140.5 53t68.5 162l10 59h-157q-96 0 -148.5 -39.5 t-52.5 -115.5zM864 608h346l4 29q7 44 7 70q0 143 -144 143q-88 0 -139 -53t-70 -162z" />
<glyph unicode="&#xe7;" horiz-adv-x="821" d="M61 299q0 20 9 90l41 258q64 395 438 395q170 0 270 -84q33 -26 2 -65l-67 -80q-26 -33 -66 -4q-53 41 -133 41q-95 0 -150 -55t-75 -174l-35 -224q-6 -37 -6 -67q0 -84 42 -123t126 -39q74 0 147 57q43 29 66 -10l49 -80q22 -40 -10 -65q-121 -95 -277 -95h-4l-20 -57 q60 -9 91 -41.5t31 -81.5q0 -72 -52.5 -109.5t-151.5 -37.5q-84 0 -152 33q-31 13 -16 51l20 49q13 33 53 14q54 -24 91 -24q73 0 73 49q0 41 -80 41q-42 0 -28 41l30 84q-123 27 -189.5 106.5t-66.5 206.5z" />
<glyph unicode="&#xe8;" horiz-adv-x="942" d="M61 299q0 37 9 90l43 273q62 380 428 380q172 0 265 -82t93 -233q0 -39 -6 -82l-27 -164q-6 -43 -49 -43h-516l-6 -41q-6 -37 -6 -69q0 -84 44.5 -122t137.5 -38q100 0 184 72q42 31 68 -9l51 -81q23 -40 -10 -66q-136 -109 -309 -109q-190 0 -292 82.5t-102 241.5z M326 606h348l4 31q6 37 6 68q0 145 -147 145q-88 0 -138 -52.5t-69 -162.5zM358 1467.5q8 13.5 33 13.5h141q34 0 50 -31l104 -244q9 -22 0.5 -34.5t-31.5 -12.5h-112q-32 0 -49 29l-132 244q-12 22 -4 35.5z" />
<glyph unicode="&#xe9;" horiz-adv-x="942" d="M61 299q0 37 9 90l43 273q62 380 428 380q172 0 265 -82t93 -233q0 -39 -6 -82l-27 -164q-6 -43 -49 -43h-516l-6 -41q-6 -37 -6 -69q0 -84 44.5 -122t137.5 -38q100 0 184 72q42 31 68 -9l51 -81q23 -40 -10 -66q-136 -109 -309 -109q-190 0 -292 82.5t-102 241.5z M326 606h348l4 31q6 37 6 68q0 145 -147 145q-88 0 -138 -52.5t-69 -162.5zM482 1173.5q-8 14.5 7 34.5l187 248q19 25 49 25h158q27 0 33.5 -14.5t-11.5 -36.5l-211 -248q-20 -23 -51 -23h-127q-26 0 -34 14.5z" />
<glyph unicode="&#xea;" horiz-adv-x="942" d="M61 299q0 37 9 90l43 273q62 380 428 380q172 0 265 -82t93 -233q0 -39 -6 -82l-27 -164q-6 -43 -49 -43h-516l-6 -41q-6 -37 -6 -69q0 -84 44.5 -122t137.5 -38q100 0 184 72q42 31 68 -9l51 -81q23 -40 -10 -66q-136 -109 -309 -109q-190 0 -292 82.5t-102 241.5z M299 1173.5q-7 14.5 10 36.5l207 248q20 23 51 23h133q34 0 48 -29l126 -244q11 -22 3 -35.5t-33 -13.5h-101q-32 0 -49 29l-71 137l-123 -143q-20 -23 -51 -23h-117q-26 0 -33 14.5zM326 606h348l4 31q6 37 6 68q0 145 -147 145q-88 0 -138 -52.5t-69 -162.5z" />
<glyph unicode="&#xeb;" horiz-adv-x="942" d="M61 299q0 37 9 90l43 273q62 380 428 380q172 0 265 -82t93 -233q0 -39 -6 -82l-27 -164q-6 -43 -49 -43h-516l-6 -41q-6 -37 -6 -69q0 -84 44.5 -122t137.5 -38q100 0 184 72q42 31 68 -9l51 -81q23 -40 -10 -66q-136 -109 -309 -109q-190 0 -292 82.5t-102 241.5z M309 1309q0 59 35.5 97t93.5 38q52 0 84.5 -32t32.5 -83q0 -57 -37.5 -95t-93.5 -38q-52 0 -83.5 31.5t-31.5 81.5zM326 606h348l4 31q6 37 6 68q0 145 -147 145q-88 0 -138 -52.5t-69 -162.5zM666 1313q0 57 37.5 94t93.5 37q52 0 84 -32t32 -83q0 -57 -37.5 -95t-93.5 -38 q-52 0 -84 33t-32 84z" />
<glyph unicode="&#xec;" horiz-adv-x="471" d="M49 51l148 924q6 43 49 43h129q52 0 43 -51l-148 -924q-6 -43 -49 -43h-129q-52 0 -43 51zM110.5 1467.5q7.5 13.5 32.5 13.5h142q33 0 49 -31l104 -244q9 -22 1 -34.5t-31 -12.5h-113q-32 0 -49 29l-131 244q-12 22 -4.5 35.5z" />
<glyph unicode="&#xed;" horiz-adv-x="471" d="M49 51l148 924q6 43 49 43h129q52 0 43 -51l-148 -924q-6 -43 -49 -43h-129q-52 0 -43 51zM234.5 1173.5q-7.5 14.5 7.5 34.5l186 248q19 25 49 25h158q27 0 33.5 -14.5t-11.5 -36.5l-211 -248q-20 -23 -51 -23h-127q-26 0 -33.5 14.5z" />
<glyph unicode="&#xee;" horiz-adv-x="471" d="M49 51l148 924q6 43 49 43h129q52 0 43 -51l-148 -924q-6 -43 -49 -43h-129q-52 0 -43 51zM51 1173.5q-7 14.5 10 36.5l207 248q20 23 51 23h134q33 0 47 -29l127 -244q11 -22 2.5 -35.5t-33.5 -13.5h-100q-33 0 -50 29l-71 137l-123 -143q-20 -23 -51 -23h-117 q-26 0 -33 14.5z" />
<glyph unicode="&#xef;" horiz-adv-x="471" d="M49 51l148 924q6 43 49 43h129q52 0 43 -51l-148 -924q-6 -43 -49 -43h-129q-52 0 -43 51zM61 1309q0 59 35.5 97t93.5 38q52 0 84.5 -32t32.5 -83q0 -57 -37.5 -95t-93.5 -38q-52 0 -83.5 31.5t-31.5 81.5zM418 1313q0 57 37.5 94t93.5 37q52 0 84.5 -32t32.5 -83 q0 -57 -37.5 -95t-93.5 -38q-52 0 -84.5 33t-32.5 84z" />
<glyph unicode="&#xf0;" horiz-adv-x="991" d="M59 289q0 19 9 84l41 260q62 381 397 381q121 0 190 -78h4q-15 149 -100 225l-127 -92q-29 -22 -51 6l-27 35q-23 29 8 53l86 62q-55 22 -135 35q-50 6 -37 57l31 104q12 39 55 33q166 -24 279 -86l102 74q29 23 52 -6l26 -37q20 -29 -8 -51l-74 -54q146 -146 146 -424 q0 -97 -19 -227l-45 -287q-62 -381 -436 -381q-175 0 -271 82.5t-96 231.5zM287 317q0 -149 147 -149q89 0 139.5 53t67.5 162l35 223q6 34 6 64q0 151 -147 151q-173 0 -207 -215l-35 -225q-6 -35 -6 -64z" />
<glyph unicode="&#xf1;" horiz-adv-x="1009" d="M41 51l96 617q58 374 428 374q171 0 265 -79t94 -226q0 -19 -9 -84l-96 -610q-6 -43 -49 -43h-129q-52 0 -43 51l92 590q6 37 6 66q0 143 -141 143q-84 0 -133 -51.5t-66 -157.5l-94 -598q-6 -43 -49 -43h-129q-52 0 -43 51zM303 1212q57 234 227 234q68 0 136 -60 q16 -14 23 -19.5t21.5 -12t28.5 -6.5q48 0 74 69q11 33 45 33h66q42 0 32 -43q-57 -236 -227 -236q-38 0 -68 14t-67 48q-44 39 -74 39q-48 0 -76 -72q-11 -33 -45 -33h-63q-20 0 -29 12.5t-4 32.5z" />
<glyph unicode="&#xf2;" horiz-adv-x="976" d="M59 289q0 31 9 84l45 289q62 380 436 380q175 0 269.5 -82t94.5 -233q0 -39 -6 -82l-45 -289q-62 -381 -436 -381q-175 0 -271 82t-96 232zM287 317q0 -149 147 -149q89 0 140.5 53t68.5 162l39 254q6 34 6 63q0 150 -149 150q-89 0 -139.5 -53t-67.5 -162l-39 -254 q-6 -35 -6 -64zM362.5 1467.5q7.5 13.5 32.5 13.5h142q33 0 49 -31l104 -244q9 -22 0.5 -34.5t-31.5 -12.5h-112q-32 0 -49 29l-131 244q-12 22 -4.5 35.5z" />
<glyph unicode="&#xf3;" horiz-adv-x="976" d="M59 289q0 31 9 84l45 289q62 380 436 380q175 0 269.5 -82t94.5 -233q0 -39 -6 -82l-45 -289q-62 -381 -436 -381q-175 0 -271 82t-96 232zM287 317q0 -149 147 -149q89 0 140.5 53t68.5 162l39 254q6 34 6 63q0 150 -149 150q-89 0 -139.5 -53t-67.5 -162l-39 -254 q-6 -35 -6 -64zM486.5 1173.5q-7.5 14.5 7.5 34.5l186 248q19 25 49 25h158q27 0 33.5 -14.5t-11.5 -36.5l-211 -248q-20 -23 -51 -23h-127q-26 0 -33.5 14.5z" />
<glyph unicode="&#xf4;" horiz-adv-x="976" d="M59 289q0 31 9 84l45 289q62 380 436 380q175 0 269.5 -82t94.5 -233q0 -39 -6 -82l-45 -289q-62 -381 -436 -381q-175 0 -271 82t-96 232zM287 317q0 -149 147 -149q89 0 140.5 53t68.5 162l39 254q6 34 6 63q0 150 -149 150q-89 0 -139.5 -53t-67.5 -162l-39 -254 q-6 -35 -6 -64zM303 1173.5q-7 14.5 10 36.5l207 248q20 23 51 23h134q33 0 47 -29l127 -244q11 -22 2.5 -35.5t-33.5 -13.5h-100q-33 0 -50 29l-71 137l-123 -143q-20 -23 -51 -23h-117q-26 0 -33 14.5z" />
<glyph unicode="&#xf5;" horiz-adv-x="976" d="M59 289q0 31 9 84l45 289q62 380 436 380q175 0 269.5 -82t94.5 -233q0 -39 -6 -82l-45 -289q-62 -381 -436 -381q-175 0 -271 82t-96 232zM287 317q0 -149 147 -149q89 0 140.5 53t68.5 162l39 254q6 34 6 63q0 150 -149 150q-89 0 -139.5 -53t-67.5 -162l-39 -254 q-6 -35 -6 -64zM287 1212q57 234 227 234q38 0 68 -13.5t67 -46.5q16 -14 23.5 -20t21.5 -12t29 -6q48 0 74 69q11 33 45 33h65q20 0 29 -11.5t4 -31.5q-57 -236 -227 -236q-38 0 -68 14t-67 48q-44 39 -74 39q-48 0 -76 -72q-11 -33 -45 -33h-64q-20 0 -28.5 12t-3.5 33z " />
<glyph unicode="&#xf6;" horiz-adv-x="976" d="M59 289q0 31 9 84l45 289q62 380 436 380q175 0 269.5 -82t94.5 -233q0 -39 -6 -82l-45 -289q-62 -381 -436 -381q-175 0 -271 82t-96 232zM287 317q0 -149 147 -149q89 0 140.5 53t68.5 162l39 254q6 34 6 63q0 150 -149 150q-89 0 -139.5 -53t-67.5 -162l-39 -254 q-6 -35 -6 -64zM313 1309q0 59 35.5 97t93.5 38q52 0 84.5 -32t32.5 -83q0 -57 -37.5 -95t-93.5 -38q-52 0 -83.5 31.5t-31.5 81.5zM670 1313q0 57 37.5 94t93.5 37q52 0 84.5 -32t32.5 -83q0 -57 -38 -95t-94 -38q-52 0 -84 33t-32 84z" />
<glyph unicode="&#xf7;" d="M45 520l18 113q6 43 50 43h901q52 0 43 -51l-19 -113q-6 -43 -49 -43h-901q-52 0 -43 51zM348 154q0 65 42.5 105t105.5 40q58 0 92.5 -35t34.5 -92q0 -65 -42 -105t-106 -40q-58 0 -92.5 35t-34.5 92zM477 971q0 65 42.5 105t105.5 40q57 0 92 -34.5t35 -88.5 q0 -67 -40.5 -108t-105.5 -41q-58 0 -93.5 35t-35.5 92z" />
<glyph unicode="&#xf8;" horiz-adv-x="976" d="M29 111l49 57q-19 59 -19 121q0 31 9 84l45 289q62 380 436 380q146 0 237 -57l33 37q25 32 58 2l63 -59q30 -30 4 -58l-51 -57q20 -53 20 -123q0 -39 -6 -82l-45 -289q-62 -381 -436 -381q-148 0 -240 58l-32 -37q-25 -32 -58 -2l-63 59q-30 30 -4 58zM299 426h4 l340 393q-39 31 -104 31q-88 0 -138 -52.5t-69 -162.5zM330 199q39 -31 104 -31q89 0 140.5 53t68.5 162l33 211h-4z" />
<glyph unicode="&#xf9;" horiz-adv-x="997" d="M82 281q0 35 6 79l98 615q6 43 50 43h129q52 0 43 -51l-97 -607q-4 -20 -4 -57q0 -70 34.5 -102.5t107.5 -32.5q86 0 132.5 49t61.5 152l96 606q6 43 49 43h123q52 0 43 -51l-98 -623q-59 -369 -422 -369q-169 0 -260.5 80t-91.5 226zM373 1467.5q8 13.5 33 13.5h141 q33 0 49 -31l104 -244q9 -22 1 -34.5t-31 -12.5h-113q-32 0 -49 29l-131 244q-12 22 -4 35.5z" />
<glyph unicode="&#xfa;" horiz-adv-x="997" d="M82 281q0 35 6 79l98 615q6 43 50 43h129q52 0 43 -51l-97 -607q-4 -20 -4 -57q0 -70 34.5 -102.5t107.5 -32.5q86 0 132.5 49t61.5 152l96 606q6 43 49 43h123q52 0 43 -51l-98 -623q-59 -369 -422 -369q-169 0 -260.5 80t-91.5 226zM496.5 1173.5q-7.5 14.5 7.5 34.5 l186 248q19 25 49 25h158q27 0 34 -14.5t-11 -36.5l-211 -248q-20 -23 -52 -23h-127q-26 0 -33.5 14.5z" />
<glyph unicode="&#xfb;" horiz-adv-x="997" d="M82 281q0 35 6 79l98 615q6 43 50 43h129q52 0 43 -51l-97 -607q-4 -20 -4 -57q0 -70 34.5 -102.5t107.5 -32.5q86 0 132.5 49t61.5 152l96 606q6 43 49 43h123q52 0 43 -51l-98 -623q-59 -369 -422 -369q-169 0 -260.5 80t-91.5 226zM313.5 1173.5q-6.5 14.5 10.5 36.5 l206 248q20 23 52 23h133q33 0 47 -29l127 -244q11 -22 2.5 -35.5t-33.5 -13.5h-100q-32 0 -49 29l-72 137l-123 -143q-20 -23 -51 -23h-117q-26 0 -32.5 14.5z" />
<glyph unicode="&#xfc;" horiz-adv-x="997" d="M82 281q0 35 6 79l98 615q6 43 50 43h129q52 0 43 -51l-97 -607q-4 -20 -4 -57q0 -70 34.5 -102.5t107.5 -32.5q86 0 132.5 49t61.5 152l96 606q6 43 49 43h123q52 0 43 -51l-98 -623q-59 -369 -422 -369q-169 0 -260.5 80t-91.5 226zM324 1309q0 59 35.5 97t93.5 38 q52 0 84 -32t32 -83q0 -57 -37.5 -95t-93.5 -38q-52 0 -83 31.5t-31 81.5zM680 1313q0 57 37.5 94t93.5 37q52 0 84.5 -32t32.5 -83q0 -57 -37.5 -95t-93.5 -38q-52 0 -84.5 33t-32.5 84z" />
<glyph unicode="&#xfd;" horiz-adv-x="1019" d="M41 -178l63 84q29 36 66 4q84 -70 207 -70q188 0 219 191l8 53h-4q-78 -72 -209 -72q-147 0 -225 77t-78 220q0 50 8 94l90 572q6 43 50 43h129q52 0 43 -51l-89 -557q-6 -34 -6 -62q0 -143 146 -143q161 0 196 207l90 563q6 43 50 43h129q52 0 43 -51l-150 -953 q-28 -175 -141 -270.5t-295 -95.5q-216 0 -336 108q-35 27 -4 66zM503 1173.5q-8 14.5 7 34.5l186 248q19 25 49 25h158q27 0 34 -14.5t-11 -36.5l-211 -248q-20 -23 -51 -23h-127q-26 0 -34 14.5z" />
<glyph unicode="&#xfe;" horiz-adv-x="1009" d="M-4 -276l268 1667q6 43 49 43h129q52 0 43 -52l-65 -409h4q78 69 205 69q155 0 237 -78t82 -223q0 -49 -8 -96l-45 -289q-31 -189 -132.5 -285t-270.5 -96q-147 0 -213 93h-5l-57 -353q-6 -43 -49 -43h-129q-52 0 -43 52zM319 319q0 -74 38.5 -112.5t111.5 -38.5 q89 0 139.5 53t67.5 162l41 254q6 34 6 61q0 152 -152 152q-169 0 -204 -215l-41 -254q-7 -40 -7 -62z" />
<glyph unicode="&#xff;" horiz-adv-x="1019" d="M41 -178l63 84q29 36 66 4q84 -70 207 -70q188 0 219 191l8 53h-4q-78 -72 -209 -72q-147 0 -225 77t-78 220q0 50 8 94l90 572q6 43 50 43h129q52 0 43 -51l-89 -557q-6 -34 -6 -62q0 -143 146 -143q161 0 196 207l90 563q6 43 50 43h129q52 0 43 -51l-150 -953 q-28 -175 -141 -270.5t-295 -95.5q-216 0 -336 108q-35 27 -4 66zM330 1309q0 59 35.5 97t93.5 38q52 0 84 -32t32 -83q0 -57 -37.5 -95t-93.5 -38q-52 0 -83 31.5t-31 81.5zM686 1313q0 57 37.5 94t93.5 37q52 0 84.5 -32t32.5 -83q0 -57 -37.5 -95t-93.5 -38 q-52 0 -84.5 33t-32.5 84z" />
<glyph unicode="&#x152;" horiz-adv-x="1771" d="M92 369q0 58 8 110l66 416q38 238 174 351.5t387 113.5h1042q52 0 43 -51l-18 -119q-6 -43 -49 -43h-582l-57 -352h485q52 0 43 -52l-20 -118q-6 -43 -49 -43h-492l-59 -369h575q52 0 43 -51l-20 -119q-6 -43 -49 -43h-1026q-221 0 -333 93t-112 276zM340 418 q0 -104 56 -154.5t173 -50.5h201l150 934h-201q-137 0 -213.5 -69t-99.5 -214l-60 -370q-6 -41 -6 -76z" />
<glyph unicode="&#x153;" horiz-adv-x="1513" d="M59 285q0 35 9 88l45 289q62 380 413 380q226 0 297 -149h4q98 149 318 149q152 0 238.5 -83.5t86.5 -229.5q0 -41 -6 -84l-26 -164q-6 -43 -49 -43h-517l-6 -41q-6 -37 -6 -69q0 -86 44.5 -123t139.5 -37q97 0 185 72q41 31 65 -9l54 -81q22 -40 -11 -66 q-133 -109 -295 -109q-239 0 -315 158h-4q-98 -158 -320 -158q-163 0 -253.5 81.5t-90.5 228.5zM287 317q0 -149 147 -149q90 0 141 53t68 162l39 254q6 34 6 63q0 150 -149 150q-89 0 -139.5 -53t-67.5 -162l-39 -254q-6 -35 -6 -64zM901 606h346l4 31q6 34 6 63 q0 150 -147 150q-87 0 -137.5 -53t-67.5 -162z" />
<glyph unicode="&#x178;" horiz-adv-x="1112" d="M150 1305q-10 25 0 40t36 15h174q39 0 54 -37l186 -500l348 506q19 31 58 31h180q31 0 39.5 -16t-8.5 -41l-533 -736l-84 -524q-6 -43 -49 -43h-150q-52 0 -43 51l86 541zM434 1638q0 59 35.5 97.5t93.5 38.5q52 0 84.5 -32t32.5 -83q0 -57 -37.5 -95t-93.5 -38 q-52 0 -83.5 31t-31.5 81zM791 1642q0 57 37.5 94.5t93.5 37.5q52 0 84 -32t32 -83q0 -57 -37.5 -95t-93.5 -38q-52 0 -84 32.5t-32 83.5z" />
<glyph unicode="&#x2c6;" horiz-adv-x="1024" d="M327.5 1173.5q-6.5 14.5 10.5 36.5l207 248q20 23 51 23h133q33 0 47 -29l127 -244q11 -22 2.5 -35.5t-33.5 -13.5h-100q-32 0 -49 29l-72 137l-123 -143q-20 -23 -51 -23h-117q-26 0 -32.5 14.5z" />
<glyph unicode="&#x2dc;" horiz-adv-x="1024" d="M311 1212q57 234 228 234q38 0 68 -13.5t67 -46.5q16 -14 23.5 -20t21.5 -12t29 -6q47 0 73 69q11 33 45 33h66q20 0 29 -11.5t4 -31.5q-57 -236 -228 -236q-38 0 -68 14t-67 48q-44 39 -74 39q-47 0 -75 -72q-11 -33 -45 -33h-64q-20 0 -29 12.5t-4 32.5z" />
<glyph unicode="&#x2000;" horiz-adv-x="911" />
<glyph unicode="&#x2001;" horiz-adv-x="1823" />
<glyph unicode="&#x2002;" horiz-adv-x="911" />
<glyph unicode="&#x2003;" horiz-adv-x="1823" />
<glyph unicode="&#x2004;" horiz-adv-x="607" />
<glyph unicode="&#x2005;" horiz-adv-x="455" />
<glyph unicode="&#x2006;" horiz-adv-x="303" />
<glyph unicode="&#x2007;" horiz-adv-x="303" />
<glyph unicode="&#x2008;" horiz-adv-x="227" />
<glyph unicode="&#x2009;" horiz-adv-x="364" />
<glyph unicode="&#x200a;" horiz-adv-x="101" />
<glyph unicode="&#x2010;" horiz-adv-x="688" d="M59 504l19 121q6 43 49 43h471q52 0 43 -52l-18 -120q-6 -43 -50 -43h-471q-52 0 -43 51z" />
<glyph unicode="&#x2011;" horiz-adv-x="688" d="M59 504l19 121q6 43 49 43h471q52 0 43 -52l-18 -120q-6 -43 -50 -43h-471q-52 0 -43 51z" />
<glyph unicode="&#x2012;" horiz-adv-x="688" d="M59 504l19 121q6 43 49 43h471q52 0 43 -52l-18 -120q-6 -43 -50 -43h-471q-52 0 -43 51z" />
<glyph unicode="&#x2013;" horiz-adv-x="1024" d="M59 514l17 100q6 37 43 37h819q45 0 39 -43l-16 -100q-6 -37 -43 -37h-820q-45 0 -39 43z" />
<glyph unicode="&#x2014;" horiz-adv-x="1843" d="M59 514l17 100q6 37 43 37h1638q45 0 39 -43l-16 -100q-6 -37 -43 -37h-1639q-45 0 -39 43z" />
<glyph unicode="&#x2018;" horiz-adv-x="507" d="M190 991q0 91 65.5 199.5t166.5 185.5q27 21 49 -4l39 -43q26 -26 -4 -49q-89 -79 -115 -170q36 -14 56 -44t20 -71q0 -64 -42.5 -102.5t-105.5 -38.5q-59 0 -94 37t-35 100z" />
<glyph unicode="&#x2019;" horiz-adv-x="507" d="M186 909q-26 26 4 49q89 79 115 170q-36 14 -56 44t-20 71q0 64 42.5 102.5t105.5 38.5q59 0 94 -37t35 -100q0 -91 -65.5 -199.5t-166.5 -185.5q-26 -23 -49 4z" />
<glyph unicode="&#x201a;" horiz-adv-x="507" d="M8 -219q-26 26 4 49q89 79 115 170q-36 14 -56 44t-20 71q0 64 42.5 102.5t105.5 38.5q59 0 94 -37t35 -100q0 -91 -65.5 -199.5t-166.5 -185.5q-26 -23 -49 4z" />
<glyph unicode="&#x201c;" horiz-adv-x="897" d="M190 991q0 91 65.5 199.5t166.5 185.5q27 21 49 -4l39 -43q26 -26 -4 -49q-89 -79 -115 -170q36 -14 56 -44t20 -71q0 -64 -42.5 -102.5t-105.5 -38.5q-59 0 -94 37t-35 100zM580 991q0 92 65.5 200t165.5 185q27 21 49 -4l39 -43q26 -26 -4 -49q-89 -79 -115 -170 q36 -14 56 -44t20 -71q0 -64 -42 -102.5t-105 -38.5q-59 0 -94 37t-35 100z" />
<glyph unicode="&#x201d;" horiz-adv-x="897" d="M186 909q-26 26 4 49q89 79 115 170q-36 14 -56 44t-20 71q0 64 42.5 102.5t105.5 38.5q59 0 94 -37t35 -100q0 -91 -65.5 -199.5t-166.5 -185.5q-26 -23 -49 4zM575 909q-25 25 5 49q88 78 114 170q-36 14 -56 44t-20 71q0 64 42.5 102.5t105.5 38.5q59 0 94 -37 t35 -100q0 -92 -65.5 -200t-165.5 -185q-26 -23 -50 4z" />
<glyph unicode="&#x201e;" horiz-adv-x="897" d="M8 -219q-26 26 4 49q89 79 115 170q-36 14 -56 44t-20 71q0 64 42.5 102.5t105.5 38.5q59 0 94 -37t35 -100q0 -91 -65.5 -199.5t-166.5 -185.5q-26 -23 -49 4zM397 -219q-26 26 4 49q89 79 115 170q-36 14 -56 44t-20 71q0 64 42.5 102.5t105.5 38.5q59 0 94 -37 t35 -100q0 -91 -65.5 -199.5t-166.5 -185.5q-26 -23 -49 4z" />
<glyph unicode="&#x2022;" horiz-adv-x="1024" d="M242 584q0 124 89 212.5t212 88.5q115 0 189.5 -75.5t74.5 -188.5q0 -126 -87.5 -215t-211.5 -89q-114 0 -190 76.5t-76 190.5z" />
<glyph unicode="&#x2026;" horiz-adv-x="1843" d="M129 106q0 64 44 107t106 43q59 0 95 -36.5t36 -94.5q0 -64 -44 -107t-106 -43q-59 0 -95 36.5t-36 94.5zM717 106q0 64 43.5 107t105.5 43q59 0 95 -36.5t36 -94.5q0 -64 -43.5 -107t-105.5 -43q-59 0 -95 36.5t-36 94.5zM1305 106q0 64 43.5 107t105.5 43 q59 0 95 -36.5t36 -94.5q0 -64 -43.5 -107t-105.5 -43q-59 0 -95 36.5t-36 94.5z" />
<glyph unicode="&#x202f;" horiz-adv-x="364" />
<glyph unicode="&#x2039;" horiz-adv-x="546" d="M51 479q-15 31 6 58l269 342q18 24 49 24h123q26 0 32.5 -14.5t-8.5 -34.5l-272 -356l156 -334q10 -22 1 -35.5t-32 -13.5h-113q-32 0 -47 30z" />
<glyph unicode="&#x203a;" horiz-adv-x="546" d="M12 129.5q-7 14.5 8 34.5l277 356l-160 334q-9 22 -0.5 35.5t31.5 13.5h113q31 0 47 -31l164 -331q15 -30 -7 -58l-268 -344q-18 -24 -49 -24h-123q-26 0 -33 14.5z" />
<glyph unicode="&#x205f;" horiz-adv-x="455" />
<glyph unicode="&#x20ac;" d="M57 463l15 84q6 33 41 33h63l21 127h-62q-42 0 -33 41l15 79q6 33 41 33h63q68 443 494 443q133 0 232.5 -50t152.5 -143q21 -40 -21 -63l-104 -60q-36 -21 -64 17q-64 94 -209 94q-104 0 -164.5 -59t-82.5 -179h340q20 0 27.5 -11.5t0.5 -31.5l-32 -82q-11 -28 -43 -28 h-318l-20 -127h280q20 0 28 -11.5t1 -31.5l-33 -84q-10 -29 -41 -29h-260q-4 -23 -4 -62q0 -182 188 -182q138 0 228 111q30 38 65 8l88 -74q35 -27 8 -65q-139 -185 -417 -185q-188 0 -293 94.5t-105 260.5q0 44 9 94h-60q-41 0 -35 39z" />
<glyph unicode="&#x2122;" horiz-adv-x="1589" d="M147 1264l11 61q3 35 39 35h465q40 0 34 -39l-10 -64q-6 -32 -41 -32h-156l-88 -557q-7 -33 -41 -33h-81q-41 0 -35 39l88 551h-150q-41 0 -35 39zM711 674l102 653q7 33 41 33h152q32 0 38 -33l91 -459h4l235 465q15 27 45 27h162q41 0 35 -39l-103 -653q-7 -33 -40 -33 h-80q-41 0 -35 39l80 495h-4l-258 -507q-15 -27 -46 -27h-49q-33 0 -39 33l-100 487h-4l-78 -487q-6 -33 -41 -33h-74q-40 0 -34 39z" />
<glyph unicode="&#x25fc;" horiz-adv-x="1013" d="M0 0v1014h1014v-1014h-1014z" />
</font>
</defs>
</svg>
