<?xml version="1.0" standalone="no"?>
<!DOCTYPE svg PUBLIC "-//W3C//DTD SVG 1.1//EN" "http://www.w3.org/Graphics/SVG/1.1/DTD/svg11.dtd" >
<svg xmlns="http://www.w3.org/2000/svg">
<metadata></metadata>
<defs>
<font id="kiroitalic" horiz-adv-x="1083" >
<font-face units-per-em="2048" ascent="1577" descent="-471" />
<missing-glyph horiz-adv-x="440" />
<glyph unicode="&#xfb01;" horiz-adv-x="1060" d="M100 907l11 72q6 35 43 35h108l14 96q28 170 127.5 259t268.5 89q159 0 260 -72q27 -21 8 -53l-43 -61q-21 -30 -53 -8q-68 47 -174 47q-96 0 -153.5 -55.5t-72.5 -157.5l-14 -84h533q20 0 29.5 -11t6.5 -30l-149 -938q-6 -35 -43 -35h-90q-20 0 -30 11t-7 30l131 825 h-403l-132 -831q-6 -35 -43 -35h-90q-20 0 -30 11t-7 30l132 825h-101q-43 0 -37 41z" />
<glyph unicode="&#xfb02;" horiz-adv-x="1081" d="M100 907l11 72q6 35 43 35h106l14 86q28 173 131 265.5t273 92.5q141 0 240 -57q7 33 43 33h90q20 0 29.5 -11t6.5 -30l-215 -1358q-6 -35 -43 -35h-90q-20 0 -30 11t-7 30l189 1184q-79 86 -215 86q-95 0 -157 -60t-77 -164l-12 -73h246q43 0 37 -41l-11 -72 q-6 -35 -43 -35h-251l-132 -831q-6 -35 -43 -35h-90q-20 0 -30 11t-7 30l132 825h-101q-43 0 -37 41z" />
<glyph unicode="&#xfb03;" horiz-adv-x="1638" d="M100 907l11 72q6 35 43 35h108l10 65q26 173 130.5 266t275.5 93q83 0 157.5 -24.5t125.5 -65.5q98 110 288 110q159 0 260 -72q28 -22 9 -53l-43 -61q-22 -31 -54 -8q-68 47 -174 47q-96 0 -153 -55.5t-72 -157.5l-14 -84h532q20 0 30 -11t7 -30l-150 -938 q-6 -35 -43 -35h-90q-20 0 -30 11t-7 30l132 825h-404l-131 -831q-6 -35 -43 -35h-90q-20 0 -30 11t-7 30l131 825h-407l-132 -831q-6 -35 -43 -35h-90q-20 0 -30 11t-7 30l132 825h-101q-43 0 -37 41zM432 1014h408l14 96q9 56 27 102q-81 78 -205 78q-95 0 -158 -60 t-78 -163z" />
<glyph unicode="&#xfb04;" horiz-adv-x="1658" d="M100 907l11 72q6 35 43 35h108l10 65q26 173 130.5 266t275.5 93q83 0 159 -24.5t124 -65.5q104 110 294 110q141 0 240 -57q7 33 43 33h90q20 0 30 -11t7 -30l-215 -1358q-6 -35 -43 -35h-90q-20 0 -30 11t-7 30l188 1184q-79 86 -215 86q-94 0 -156 -60t-77 -164 l-12 -73h245q43 0 37 -41l-10 -72q-6 -35 -43 -35h-252l-131 -831q-6 -35 -43 -35h-90q-20 0 -30 11t-7 30l131 825h-407l-132 -831q-6 -35 -43 -35h-90q-20 0 -30 11t-7 30l132 825h-101q-43 0 -37 41zM432 1014h406l14 86q7 48 29 112q-81 78 -205 78q-95 0 -158 -60 t-78 -163z" />
<glyph horiz-adv-x="0" />
<glyph horiz-adv-x="682" />
<glyph unicode=" "  horiz-adv-x="440" />
<glyph unicode="&#x09;" horiz-adv-x="440" />
<glyph unicode="&#xa0;" horiz-adv-x="440" />
<glyph unicode="!" horiz-adv-x="481" d="M59 80q0 52 36 87.5t87 35.5q47 0 76 -30t29 -75q0 -53 -35.5 -88t-87.5 -35q-46 0 -75.5 29.5t-29.5 75.5zM172 401l27 369l86 555q6 35 43 35h88q43 0 37 -41l-86 -549l-93 -373q-6 -24 -30 -24h-43q-32 0 -29 28z" />
<glyph unicode="&#x22;" horiz-adv-x="772" d="M219 924l41 399q3 37 41 37h90q41 0 35 -43l-86 -399q-6 -29 -35 -29h-55q-34 0 -31 35zM561 924l41 399q3 37 41 37h90q41 0 35 -43l-86 -399q-6 -29 -35 -29h-55q-34 0 -31 35z" />
<glyph unicode="#" d="M31 420l22 67q9 29 41 29h162l96 287h-153q-18 0 -26 10.5t-3 28.5l23 67q9 29 40 29h164l105 311q12 29 41 29h69q19 0 27 -11t2 -28l-100 -301h235l105 311q12 29 41 29h69q19 0 27 -11t2 -28l-100 -301h151q18 0 26 -10.5t3 -28.5l-23 -68q-8 -28 -41 -28h-162 l-96 -287h154q18 0 26 -10.5t3 -28.5l-23 -67q-9 -29 -41 -29h-164l-117 -352q-12 -29 -41 -29h-71q-18 0 -26 10.5t-3 28.5l115 342h-236l-116 -352q-12 -29 -41 -29h-72q-18 0 -26 10.5t-3 28.5l115 342h-152q-38 0 -28 39zM399 516h236l96 287h-235z" />
<glyph unicode="$" d="M63 205q-18 30 11 53l71 53q32 26 54 -10q82 -113 243 -127l62 391q-176 21 -252 89.5t-76 199.5q0 177 118.5 287t319.5 121l19 118q3 29 33 29h53q15 0 22 -9t4 -24l-18 -119q205 -22 295 -155q22 -31 -10 -53l-70 -54q-30 -24 -55 11q-63 81 -185 96l-61 -393 q175 -22 250.5 -89t75.5 -196q0 -177 -118.5 -287t-318.5 -119l-20 -133q-3 -28 -33 -28h-53q-33 0 -27 32l21 129q-240 18 -355 187zM350 885q0 -64 42 -101.5t136 -56.5l60 377q-109 -12 -173.5 -71t-64.5 -148zM557 174q109 13 172.5 73t63.5 148q0 63 -42 99t-137 55z " />
<glyph unicode="%" horiz-adv-x="1296" d="M91.5 11q-5.5 11 6.5 26l998 1223q15 18 37 18h88q20 0 25 -11t-7 -26l-997 -1223q-15 -18 -37 -18h-88q-20 0 -25.5 11zM121 840q0 35 4 55l25 162q38 246 272 246q106 0 165.5 -53.5t59.5 -149.5q0 -36 -4 -56l-25 -161q-38 -248 -270 -248q-108 0 -167.5 53.5 t-59.5 151.5zM248 846q0 -49 25.5 -71.5t78.5 -22.5q61 0 94.5 34.5t45.5 108.5l24 156q4 28 4 39q0 50 -25 73t-77 23q-65 0 -97.5 -34.5t-44.5 -109.5l-24 -153q-4 -32 -4 -43zM688 180q0 36 4 56l25 161q38 246 272 246q106 0 165.5 -53.5t59.5 -149.5q0 -35 -4 -55 l-24 -162q-38 -248 -271 -248q-108 0 -167.5 53.5t-59.5 151.5zM815 186q0 -94 105 -94q61 0 94 35t45 109l24 155q4 28 4 39q0 50 -25 73t-77 23q-65 0 -97 -34t-44 -109l-25 -154q-4 -32 -4 -43z" />
<glyph unicode="&#x26;" horiz-adv-x="1210" d="M45 326q0 147 72.5 258t226.5 200q-65 113 -65 226q0 172 110.5 273t298.5 101q168 0 279 -90q28 -22 4 -53l-47 -63q-25 -32 -56 -7q-75 60 -176 60q-113 0 -177 -58.5t-64 -162.5q0 -89 86 -207l313 -422q90 126 154 274q15 38 49 23l75 -31q37 -12 21 -51 q-95 -212 -201 -348l150 -201q14 -20 7 -33.5t-32 -13.5h-125q-30 0 -47 25l-72 96q-171 -146 -395 -146q-179 0 -284 95.5t-105 255.5zM221 340q0 -93 64 -151t176 -58q145 0 274 117l-305 409q-108 -65 -158.5 -141.5t-50.5 -175.5z" />
<glyph unicode="'" horiz-adv-x="430" d="M219 924l41 399q3 37 41 37h90q41 0 35 -43l-86 -399q-6 -29 -35 -29h-55q-34 0 -31 35z" />
<glyph unicode="(" horiz-adv-x="673" d="M158 397q0 107 21.5 222.5t65.5 239t121 249t179 233.5q16 19 43 19h84q15 0 20 -8.5t0 -23t-18 -30.5q-177 -217 -261.5 -456.5t-84.5 -462.5q0 -293 129 -522q9 -19 2.5 -30t-27.5 -11h-84q-28 0 -43 24q-147 257 -147 557z" />
<glyph unicode=")" horiz-adv-x="673" d="M7 -153q5 14 18 30q177 216 261.5 456.5t84.5 463.5q0 293 -129 522q-20 41 24 41h84q27 0 43 -25q148 -259 148 -557q0 -107 -21.5 -222.5t-65.5 -239t-121 -249t-179 -233.5q-15 -18 -43 -18h-84q-15 0 -20 8.5t0 22.5z" />
<glyph unicode="*" horiz-adv-x="980" d="M143 1094l27 73q11 35 47 23l311 -135l-10 342q0 37 37 37h78q39 0 33 -39l-48 -336l318 131q37 15 47 -23l21 -73q9 -36 -27 -45l-340 -80l211 -256q24 -30 -6 -54l-64 -43q-32 -23 -51 13l-162 289l-190 -293q-19 -31 -51 -9l-60 43q-32 23 -6 52l238 260l-328 78 q-37 6 -25 45z" />
<glyph unicode="+" d="M47 532l12 82q6 35 43 35h383l60 385q6 35 43 35h78q42 0 36 -41l-59 -379h375q43 0 37 -41l-13 -82q-6 -34 -43 -34h-383l-59 -383q-6 -35 -43 -35h-78q-20 0 -30 11t-7 30l60 377h-375q-43 0 -37 40z" />
<glyph unicode="," horiz-adv-x="477" d="M23 -195q-17 20 4 37q82 68 102 152q-33 9 -51.5 33t-18.5 57q0 56 33.5 87.5t87.5 31.5q46 0 74.5 -30t28.5 -81q0 -84 -53 -172t-144 -156q-20 -17 -37 7z" />
<glyph unicode="-" horiz-adv-x="679" d="M63 518l13 86q6 35 43 35h477q43 0 37 -41l-12 -86q-6 -35 -43 -35h-478q-43 0 -37 41z" />
<glyph unicode="." horiz-adv-x="477" d="M57 80q0 52 36 87.5t87 35.5q47 0 76 -30t29 -75q0 -53 -35.5 -88t-87.5 -35q-46 0 -75.5 29.5t-29.5 75.5z" />
<glyph unicode="/" horiz-adv-x="729" d="M-22.5 11q-6.5 11 2.5 30l669 1294q13 25 41 25h86q22 0 29 -11t-2 -30l-670 -1294q-13 -25 -41 -25h-86q-22 0 -28.5 11z" />
<glyph unicode="0" d="M84 322q0 53 8 100l70 446q68 435 485 435q188 0 290.5 -90t102.5 -257q0 -53 -8 -100l-69 -444q-69 -437 -486 -437q-188 0 -290.5 90.5t-102.5 256.5zM262 346q0 -215 225 -215q130 0 204 73.5t97 223.5l68 424q6 43 6 80q0 215 -225 215q-130 0 -204 -73.5t-97 -223.5 l-68 -424q-6 -44 -6 -80z" />
<glyph unicode="1" d="M307 926q-18 35 12 53l426 285q22 14 50 14h67q20 0 30 -11t7 -30l-190 -1202q-6 -35 -43 -35h-97q-20 0 -30 11t-7 30l160 997l-293 -190q-32 -22 -53 12z" />
<glyph unicode="2" d="M61 41l11 80q3 27 24 45l580 493q106 91 146 156t40 148q0 86 -58 135t-155 49q-172 0 -301 -164q-24 -30 -55 -6l-60 53q-27 27 -4 55q85 106 199 162t244 56q167 0 266.5 -88.5t99.5 -241.5q0 -125 -54 -216.5t-191 -207.5l-465 -389v-4h542q20 0 30 -11t7 -30l-12 -80 q-6 -35 -43 -35h-756q-41 0 -35 41z" />
<glyph unicode="3" d="M68 156q-18 30 8 53l65 55q30 27 54 -8q92 -125 290 -125q153 0 235.5 70t82.5 196q0 189 -279 189h-80q-20 0 -29.5 11t-6.5 30l12 80q6 34 43 34h74q169 0 248 55t79 173q0 86 -59.5 132t-167.5 46q-174 0 -305 -137q-30 -30 -56 2l-51 61q-22 29 4 55q178 175 433 175 q175 0 276.5 -84.5t101.5 -233.5q0 -122 -59 -204t-172 -119v-5q82 -35 126 -104.5t44 -167.5q0 -192 -132 -301t-368 -109q-283 0 -411 181z" />
<glyph unicode="4" d="M43 330l16 94q3 27 23 47l727 786q18 21 47 21h105q20 0 29.5 -11t6.5 -30l-127 -793h115q20 0 29.5 -11.5t5.5 -31.5l-12 -77q-6 -35 -43 -35h-119l-39 -254q-6 -35 -43 -35h-96q-43 0 -37 41l39 248h-590q-20 0 -30 11t-7 30zM272 444h422l92 566h-4z" />
<glyph unicode="5" d="M68 156q-21 31 6 55l63 55q29 26 53 -8q95 -127 293 -127q149 0 236.5 82.5t87.5 220.5q0 107 -64.5 169.5t-173.5 62.5q-153 0 -264 -88q-24 -18 -51 -15l-57 10q-37 6 -31 45l141 625q8 35 43 35h658q20 0 29.5 -11t6.5 -30l-12 -80q-6 -35 -43 -35h-545l-82 -368h5 q109 67 256 67q161 0 261.5 -102t100.5 -268q0 -218 -136.5 -347t-371.5 -129q-281 0 -409 181z" />
<glyph unicode="6" d="M102 336q0 31 7 82l73 452q32 206 161 319.5t331 113.5q223 0 352 -129q24 -27 -2 -56l-66 -61q-26 -27 -55 2q-82 88 -229 88q-133 0 -214 -76t-104 -219l-22 -135h4q113 110 299 110q158 0 253 -100.5t95 -267.5q0 -218 -134 -351t-355 -133q-183 0 -288.5 98 t-105.5 263zM281 344q0 -100 61 -156.5t168 -56.5q136 0 216.5 85t80.5 228q0 106 -59 167t-160 61q-118 0 -200.5 -74t-102.5 -199q-4 -18 -4 -55z" />
<glyph unicode="7" d="M174 940l47 303q6 35 43 35h836q43 0 37 -41l-15 -98q-3 -23 -18 -45l-701 -1069q-19 -25 -47 -25h-116q-24 0 -31.5 13.5t4.5 33.5l715 1075h-561l-29 -188q-6 -35 -43 -35h-84q-43 0 -37 41z" />
<glyph unicode="8" d="M53 315q0 133 70 226t199 133v4q-68 38 -104 100.5t-36 141.5q0 180 122.5 281.5t336.5 101.5q190 0 294.5 -84t104.5 -234q0 -119 -59 -202.5t-170 -125.5v-4q168 -80 168 -268q0 -190 -132.5 -300t-361.5 -110q-205 0 -318.5 89.5t-113.5 250.5zM229 328 q0 -96 68 -146.5t195 -50.5q146 0 228.5 68t82.5 192q0 94 -67.5 144.5t-192.5 50.5q-146 0 -230 -68.5t-84 -189.5zM356 915q0 -83 61 -128.5t171 -45.5q130 0 204 61t74 169q0 86 -59 131t-172 45q-127 0 -203 -63t-76 -169z" />
<glyph unicode="9" d="M98 104q-25 28 0 56l60 63q26 27 55 -2q87 -90 238 -90q134 0 214 75.5t103 219.5l23 137h-5q-112 -112 -299 -112q-158 0 -253 100.5t-95 267.5q0 218 134.5 351t357.5 133q182 0 286.5 -97t104.5 -262q0 -40 -6 -84l-74 -452q-32 -206 -160.5 -319.5t-330.5 -113.5 q-227 0 -353 129zM317 834q0 -106 59.5 -167t160.5 -61q118 0 200.5 74t102.5 199q4 36 4 55q0 99 -61.5 156t-166.5 57q-141 0 -220 -84.5t-79 -228.5z" />
<glyph unicode=":" horiz-adv-x="477" d="M57 80q0 52 36 87.5t87 35.5q47 0 76 -30t29 -75q0 -53 -35.5 -88t-87.5 -35q-46 0 -75.5 29.5t-29.5 75.5zM180 848q0 52 36 87.5t87 35.5q47 0 76 -30t29 -75q0 -53 -35.5 -88t-87.5 -35q-46 0 -75.5 29.5t-29.5 75.5z" />
<glyph unicode=";" horiz-adv-x="477" d="M23 -195q-17 20 4 37q82 68 102 152q-33 9 -51.5 33t-18.5 57q0 56 33.5 87.5t87.5 31.5q46 0 74.5 -30t28.5 -81q0 -84 -53 -172t-144 -156q-20 -17 -37 7zM180 848q0 52 36 87.5t87 35.5q47 0 76 -30t29 -75q0 -53 -35.5 -88t-87.5 -35q-46 0 -75.5 29.5t-29.5 75.5z " />
<glyph unicode="&#x3c;" d="M84 532l12 80q3 31 33 43l907 383q23 9 34.5 0t8.5 -32l-12 -91q-3 -31 -33 -43l-741 -307v-4l637 -301q31 -16 26 -47l-12 -84q-3 -20 -16.5 -27t-32.5 2l-784 381q-30 15 -27 47z" />
<glyph unicode="=" d="M43 303l12 82q6 35 43 35h854q41 0 35 -41l-12 -80q-3 -37 -41 -37h-854q-43 0 -37 41zM115 764l12 82q6 35 43 35h854q43 0 37 -41l-12 -82q-6 -35 -43 -35h-854q-43 0 -37 41z" />
<glyph unicode="&#x3e;" d="M20 137l13 90q3 31 33 43l741 308v4l-637 301q-32 16 -27 47l13 84q3 20 16.5 26.5t32.5 -2.5l784 -381q30 -15 27 -47l-12 -80q-3 -31 -33 -43l-908 -383q-23 -9 -34.5 0t-8.5 33z" />
<glyph unicode="?" horiz-adv-x="929" d="M156 1112q-26 23 0 55q86 106 198.5 161.5t239.5 55.5q169 0 270 -89.5t101 -239.5q0 -136 -61.5 -226t-211.5 -167q-112 -58 -156 -108t-57 -122l-4 -24q-6 -35 -43 -35h-80q-43 0 -37 41l7 39q15 104 75 178.5t187 146.5q118 66 161 125t43 146q0 83 -55.5 131.5 t-152.5 48.5q-179 0 -312 -168q-27 -34 -57 -4zM231 80q0 52 36 87.5t87 35.5q47 0 76 -30t29 -75q0 -53 -35.5 -88t-87.5 -35q-46 0 -75.5 29.5t-29.5 75.5z" />
<glyph unicode="@" horiz-adv-x="1497" d="M94 451q0 80 11.5 163.5t38.5 176t68.5 176.5t106.5 161t146 133t193 89.5t243 33.5q136 0 240.5 -43t169.5 -120.5t98 -180.5t33 -229q0 -61 -6.5 -123.5t-21.5 -131.5t-42 -128.5t-64 -108t-92.5 -76.5t-123.5 -28t-111 30t-57 83h-4q-85 -113 -242 -113 q-108 0 -170 55.5t-62 151.5q0 127 78.5 197.5t229.5 70.5h170q6 41 6 72q0 73 -36.5 104t-109.5 31q-76 0 -155 -57q-28 -22 -47 6l-25 41q-15 28 8 45q104 80 238 80q128 0 194 -59.5t66 -174.5q0 -34 -6 -71l-37 -234q-4 -32 -4 -45q0 -98 86 -98q60 0 104.5 53.5 t66 135.5t31 155.5t9.5 136.5q0 136 -43 237t-139 161.5t-238 60.5q-111 0 -206 -30t-162 -80.5t-120.5 -119t-87 -142t-55.5 -155t-30.5 -151.5t-8.5 -137q0 -238 129 -368t369 -130q204 0 350 98q29 19 45 -12l25 -49q13 -29 -15 -45q-176 -105 -413 -105q-295 0 -457 160 t-162 447zM580 426q0 -96 125 -96q74 0 126 48t66 142l8 58h-145q-88 0 -134 -39t-46 -113z" />
<glyph unicode="A" horiz-adv-x="1202" d="M-16 12q-3 5 -3 13q0 9 5 20l637 1286q15 29 45 29h129q35 0 41 -35l231 -1282q1 -5 1 -10q0 -33 -36 -33h-106q-37 0 -43 35l-39 235h-557l-115 -241q-14 -29 -47 -29h-113q-23 0 -30 12zM367 432h454l-114 709h-5z" />
<glyph unicode="B" horiz-adv-x="1155" d="M88 41l203 1284q6 35 43 35h371q209 0 312 -75t103 -232q0 -290 -250 -361v-4q185 -68 185 -274q0 -217 -124 -315.5t-394 -98.5h-412q-20 0 -30 11q-8 8 -8 22q0 4 1 8zM291 162h264q162 0 238.5 64.5t76.5 199.5q0 94 -59 138t-182 44h-267zM387 770h229 q163 0 240.5 61.5t77.5 190.5q0 91 -60 133.5t-186 42.5h-231z" />
<glyph unicode="C" horiz-adv-x="1079" d="M100 362q0 52 9 111l67 426q78 485 539 485q309 0 403 -245q3 -10 3 -18q0 -22 -23 -34l-82 -36q-36 -15 -51 22q-66 150 -260 150q-295 0 -351 -355l-59 -383q-8 -49 -8 -102q0 -246 248 -246q192 0 305 166q22 32 53 10l72 -47q33 -20 10 -53q-84 -122 -193 -180 t-260 -58q-203 0 -312.5 100t-109.5 287z" />
<glyph unicode="D" horiz-adv-x="1210" d="M88 41l203 1284q6 35 43 35h399q213 0 322.5 -91.5t109.5 -271.5q0 -45 -10 -110l-68 -424q-37 -234 -172 -348.5t-378 -114.5h-412q-20 0 -30 11q-8 8 -8 22q0 4 1 8zM291 162h252q159 0 247.5 81t116.5 249l62 378q8 47 8 95q0 233 -266 233h-254z" />
<glyph unicode="E" horiz-adv-x="1101" d="M88 41l203 1284q6 35 43 35h772q36 0 36 -31q0 -5 -1 -10l-13 -84q-3 -37 -41 -37h-630l-70 -430h535q20 0 29.5 -11t6.5 -30l-14 -86q-6 -35 -43 -35h-539l-71 -444h624q20 0 30 -11t7 -30l-14 -86q-6 -35 -43 -35h-770q-20 0 -30 11q-8 8 -8 22q0 4 1 8z" />
<glyph unicode="F" horiz-adv-x="1034" d="M88 41l203 1284q6 35 43 35h751q36 0 36 -31q0 -5 -1 -10l-12 -84q-3 -37 -41 -37h-610l-72 -442h514q20 0 30 -11t7 -30l-14 -86q-6 -35 -43 -35h-519l-88 -559q-6 -35 -43 -35h-104q-20 0 -30 11q-8 8 -8 22q0 4 1 8z" />
<glyph unicode="G" horiz-adv-x="1165" d="M98 362q0 42 11 113l67 426q77 483 547 483q156 0 263.5 -62t156.5 -183q4 -11 4 -19q0 -23 -25 -33l-84 -36q-34 -15 -51 20q-76 152 -276 152q-153 0 -241 -88.5t-116 -268.5l-59 -379q-8 -49 -8 -100q0 -250 258 -250q152 0 236.5 87.5t115.5 271.5l12 73h-252 q-37 0 -37 31q0 5 1 10l12 86q6 35 43 35h391q20 0 30 -11t7 -30l-37 -223q-81 -492 -535 -492q-207 0 -320.5 100.5t-113.5 286.5z" />
<glyph unicode="H" horiz-adv-x="1275" d="M88 41l203 1284q6 35 43 35h104q20 0 30 -11t7 -30l-88 -549h582l88 555q6 35 43 35h104q20 0 30 -11q8 -8 8 -22q0 -4 -1 -8l-203 -1284q-6 -35 -43 -35h-104q-20 0 -30 11t-7 30l90 567h-582l-90 -573q-6 -35 -43 -35h-104q-20 0 -30 11q-8 8 -8 22q0 4 1 8z" />
<glyph unicode="I" horiz-adv-x="509" d="M88 41l203 1284q6 35 43 35h104q20 0 30 -11q8 -8 8 -22q0 -4 -1 -8l-203 -1284q-6 -35 -43 -35h-104q-20 0 -30 11q-8 8 -8 22q0 4 1 8z" />
<glyph unicode="J" horiz-adv-x="1064" d="M6 197q-5 11 -5 20q0 18 19 31l78 49q13 8 24 8q18 0 30 -22q82 -146 262 -146q269 0 321 334l135 854q6 35 43 35h103q38 0 38 -32q0 -4 -1 -9l-138 -875q-74 -469 -503 -469q-145 0 -248.5 57t-157.5 165z" />
<glyph unicode="K" horiz-adv-x="1148" d="M88 41l203 1284q6 35 43 35h104q38 0 38 -32q0 -4 -1 -9l-88 -557h4l578 577q21 21 49 21h143q26 0 32 -14q1 -3 1 -7q0 -12 -14 -26l-639 -625l456 -639q15 -20 8 -34.5t-30 -14.5h-133q-31 0 -47 25l-428 616l-95 -606q-6 -35 -43 -35h-104q-20 0 -30 11q-8 8 -8 22 q0 4 1 8z" />
<glyph unicode="L" horiz-adv-x="1021" d="M88 41l203 1284q6 35 43 35h104q20 0 30 -11t7 -30l-184 -1157h594q20 0 30 -11q8 -8 8 -22q0 -4 -1 -8l-15 -86q-6 -35 -43 -35h-739q-20 0 -30 11q-8 8 -8 22q0 4 1 8z" />
<glyph unicode="M" horiz-adv-x="1679" d="M88 41l203 1284q6 35 43 35h192q37 0 43 -35l226 -1057h4l551 1063q14 29 45 29h213q20 0 30 -11q8 -8 8 -22q0 -4 -1 -8l-203 -1284q-6 -35 -43 -35h-105q-20 0 -30 11t-7 30l166 1055h-4l-563 -1069q-15 -27 -45 -27h-98q-37 0 -43 35l-230 1069h-4l-168 -1069 q-6 -35 -43 -35h-100q-20 0 -30 11q-8 8 -8 22q0 4 1 8z" />
<glyph unicode="N" horiz-adv-x="1275" d="M88 41l203 1284q6 35 43 35h131q33 0 45 -31l389 -1007h4l158 1003q6 35 43 35h100q20 0 30 -11q8 -8 8 -22q0 -4 -1 -8l-203 -1284q-6 -35 -43 -35h-114q-33 0 -45 31l-402 1034h-4l-162 -1030q-6 -35 -43 -35h-100q-20 0 -30 11q-8 8 -8 22q0 4 1 8z" />
<glyph unicode="O" horiz-adv-x="1204" d="M100 367q0 51 9 106l67 426q78 485 541 485q212 0 327 -100t115 -287q0 -45 -10 -110l-68 -426q-78 -486 -540 -486q-212 0 -326.5 101.5t-114.5 290.5zM287 387q0 -250 262 -250q154 0 238.5 85t113.5 265l62 387q8 49 8 103q0 246 -260 246q-154 0 -241 -87.5 t-116 -267.5l-59 -383q-8 -47 -8 -98z" />
<glyph unicode="P" horiz-adv-x="1118" d="M88 41l203 1284q6 35 43 35h377q424 0 424 -354q0 -248 -133 -365t-414 -117h-240l-76 -489q-6 -35 -43 -35h-104q-20 0 -30 11q-8 8 -8 22q0 4 1 8zM375 686h231q177 0 259.5 73.5t82.5 229.5q0 108 -63.5 158.5t-194.5 50.5h-233z" />
<glyph unicode="Q" horiz-adv-x="1204" d="M100 365q0 49 9 108l67 426q78 485 541 485q212 0 327 -100t115 -287q0 -45 -10 -110l-68 -426q-65 -409 -405 -473q-2 -10 -2 -27q0 -129 131 -129q66 0 129 39q14 8 25 8q19 0 28 -24l29 -70q12 -35 -17 -53q-94 -58 -213 -58q-147 0 -222 68.5t-75 198.5q0 18 3 36 q-188 11 -290 111t-102 277zM287 387q0 -250 262 -250q154 0 238.5 85t113.5 265l62 387q8 49 8 103q0 246 -260 246q-154 0 -241.5 -87.5t-115.5 -267.5l-59 -383q-8 -47 -8 -98z" />
<glyph unicode="R" horiz-adv-x="1163" d="M88 41l203 1284q6 35 43 35h366q426 0 426 -352q0 -393 -362 -457l227 -506q9 -20 1.5 -32.5t-29.5 -12.5h-123q-33 0 -45 31l-213 506h-232l-78 -502q-6 -35 -43 -35h-104q-20 0 -30 11q-8 8 -8 22q0 4 1 8zM377 698h221q175 0 257.5 71.5t82.5 223.5q0 105 -63 155 t-193 50h-225z" />
<glyph unicode="S" horiz-adv-x="1048" d="M31 174q-8 12 -8 23q0 17 18 30l74 60q14 11 26 11q16 0 29 -19q106 -142 319 -142q140 0 223 71t83 191q0 79 -59.5 123.5t-209.5 73.5q-200 38 -283 116.5t-83 221.5q0 207 135 328.5t364 121.5q275 0 392 -167q9 -12 9 -24q0 -16 -18 -30l-75 -59q-13 -10 -25 -10 q-17 0 -31 20q-81 109 -260 109q-138 0 -222.5 -72t-84.5 -190q0 -83 59 -127.5t211 -73.5q200 -38 282.5 -115.5t82.5 -218.5q0 -207 -135.5 -329t-364.5 -122q-311 0 -448 199z" />
<glyph unicode="T" horiz-adv-x="1009" d="M154 1239l14 86q6 35 43 35h850q38 0 38 -32q0 -4 -1 -9l-13 -86q-6 -35 -43 -35h-335l-185 -1163q-6 -35 -43 -35h-104q-20 0 -30 11t-7 30l184 1157h-332q-20 0 -30 11q-7 8 -7 21q0 4 1 9z" />
<glyph unicode="U" horiz-adv-x="1204" d="M123 350q0 58 8 107l137 868q6 35 43 35h105q20 0 30 -11t7 -30l-136 -852q-8 -47 -8 -94q0 -236 242 -236q144 0 223 81.5t105 252.5l135 854q6 35 43 35h98q38 0 38 -32q0 -4 -1 -9l-137 -875q-74 -469 -514 -469q-200 0 -309 97t-109 278z" />
<glyph unicode="V" horiz-adv-x="1165" d="M184 1319q-1 4 -1 8q0 13 8 22q10 11 30 11h107q37 0 43 -35l168 -1065h4l508 1071q15 29 47 29h108q23 0 31 -12q4 -6 4 -13q0 -9 -6 -20l-619 -1286q-14 -29 -47 -29h-129q-37 0 -43 35z" />
<glyph unicode="W" horiz-adv-x="1746" d="M186 1319v6q0 35 37 35h115q38 0 41 -37l92 -1024h4l434 1030q12 31 45 31h95q38 0 41 -37l108 -1024h4l422 1030q12 31 45 31h117q22 0 30 -12q4 -6 5 -15q0 -8 -4 -18l-547 -1284q-12 -31 -45 -31h-133q-38 0 -41 37l-99 960h-4l-407 -966q-12 -31 -45 -31h-131 q-38 0 -41 37z" />
<glyph unicode="X" horiz-adv-x="1161" d="M-2 14q-2 4 -2 10q0 11 10 25l494 651l-271 615q-9 20 -1 32.5t30 12.5h121q33 0 45 -31l203 -491l362 497q19 25 49 25h127q25 0 31 -14q2 -4 2 -8q0 -11 -10 -25l-467 -619l285 -649q9 -20 1 -32.5t-30 -12.5h-121q-33 0 -45 31l-219 528l-389 -534q-19 -25 -49 -25 h-125q-25 0 -31 14z" />
<glyph unicode="Y" horiz-adv-x="1085" d="M154 1348q8 12 30 12h121q33 0 45 -31l232 -559l405 565q19 25 49 25h127q25 0 32 -14q2 -4 2 -9q0 -11 -9 -24l-541 -719l-88 -559q-6 -35 -43 -35h-104q-38 0 -38 32q0 4 1 9l88 563l-307 711q-5 11 -5 20q0 7 3 13z" />
<glyph unicode="Z" horiz-adv-x="1069" d="M6 41l14 100q3 25 21 47l821 1010h-600q-20 0 -30 11t-7 30l15 86q6 35 43 35h788q20 0 30 -11q8 -8 8 -22q0 -4 -1 -8l-16 -102q-3 -25 -21 -46l-821 -1009h641q38 0 38 -32q0 -4 -1 -9l-13 -86q-6 -35 -43 -35h-829q-38 0 -38 32q0 4 1 9z" />
<glyph unicode="[" horiz-adv-x="673" d="M78 -147l233 1474q3 33 37 33h336q39 0 33 -37l-10 -68q-6 -32 -39 -32h-207l-199 -1270h201q37 0 31 -37l-11 -68q-3 -32 -37 -32h-337q-37 0 -31 37z" />
<glyph unicode="\" horiz-adv-x="729" d="M184 1321q-9 39 31 39h82q31 0 37 -31l264 -1290q9 -39 -31 -39h-82q-30 0 -36 31z" />
<glyph unicode="]" horiz-adv-x="673" d="M-16 -147l10 67q3 33 37 33h207l198 1270h-198q-37 0 -31 37l10 67q3 33 37 33h338q37 0 31 -37l-234 -1475q-3 -32 -37 -32h-338q-36 0 -30 37z" />
<glyph unicode="^" d="M54 541.5q-7 13.5 7 33.5l510 678q17 25 47 25h82q32 0 45 -29l293 -676q9 -20 1.5 -32.5t-29.5 -12.5h-88q-33 0 -45 31l-234 545l-407 -551q-17 -25 -48 -25h-102q-25 0 -32 13.5z" />
<glyph unicode="_" horiz-adv-x="1024" d="M-115 -215l17 102h1024l-17 -102h-1024z" />
<glyph unicode="`" horiz-adv-x="1024" d="M418 1430q-19 40 24 40h99q29 0 41 -26l112 -246q17 -39 -24 -39h-80q-28 0 -39 23z" />
<glyph unicode="a" horiz-adv-x="933" d="M41 260q0 163 104.5 251.5t303.5 88.5h229l4 25q6 44 6 77q0 97 -50 143t-151 46q-113 0 -208 -76q-16 -12 -29 -12q-17 0 -29 20l-35 58q-18 30 13 55q137 102 311 102q170 0 261 -80t91 -233q0 -43 -8 -90l-45 -279q-59 -381 -434 -381q-159 0 -246.5 75t-87.5 210z M211 266q0 -143 176 -143q112 0 173 62.5t83 195.5l12 78h-200q-117 0 -180.5 -49.5t-63.5 -143.5z" />
<glyph unicode="b" horiz-adv-x="999" d="M98 283q0 39 6 86l164 1030q6 35 43 35h90q20 0 30 -11t7 -30l-71 -449h4q88 94 239 94q155 0 236.5 -77t81.5 -222q0 -45 -8 -92l-46 -291q-62 -381 -428 -381q-167 0 -257.5 80t-90.5 228zM270 301q0 -91 46 -134.5t139 -43.5q110 0 171 63t81 195l41 254q6 43 6 78 q0 178 -185 178q-214 0 -254 -258l-39 -254q-6 -43 -6 -78z" />
<glyph unicode="c" horiz-adv-x="829" d="M72 291q0 26 8 88l43 270q61 389 428 389q170 0 272 -92q13 -13 13 -26.5t-13 -28.5l-49 -53q-23 -26 -53 0q-58 53 -170 53q-111 0 -175.5 -65t-86.5 -203l-37 -234q-6 -40 -6 -76q0 -98 50 -144t150 -46q93 0 183 70q14 12 26 12q15 0 29 -19l35 -51q21 -31 -6 -55 q-123 -105 -287 -105q-169 0 -261.5 81t-92.5 235z" />
<glyph unicode="d" horiz-adv-x="999" d="M72 283q0 39 6 86l45 288q62 381 407 381q173 0 232 -112h4l76 473q6 35 43 35h90q20 0 30 -11q8 -8 8 -22q0 -4 -1 -8l-166 -1037q-62 -381 -426 -381q-167 0 -257.5 80t-90.5 228zM244 301q0 -91 45.5 -134.5t138.5 -43.5q112 0 172 62.5t80 195.5l41 254q6 41 6 74 q0 182 -182 182q-110 0 -172 -63t-84 -195l-39 -254q-6 -43 -6 -78z" />
<glyph unicode="e" horiz-adv-x="937" d="M72 287q0 48 8 92l43 278q62 381 422 381q163 0 251.5 -79t88.5 -226q0 -39 -6 -86l-25 -164q-6 -34 -43 -34h-551l-10 -60q-6 -44 -6 -76q0 -99 53 -144.5t164 -45.5q108 0 213 88q14 13 27 13q15 0 26 -19l37 -55q22 -31 -6 -56q-134 -119 -312 -119q-182 0 -278 79.5 t-96 232.5zM283 590h428l6 45q6 43 6 78q0 91 -45 134.5t-137 43.5q-109 0 -169.5 -62.5t-82.5 -195.5z" />
<glyph unicode="f" horiz-adv-x="675" d="M100 907l11 72q6 35 43 35h108l14 96q57 348 369 348q123 0 205 -43q20 -9 20 -27q0 -11 -6 -24l-33 -66q-17 -32 -49 -16q-57 29 -133 29q-85 0 -137.5 -55.5t-67.5 -157.5l-14 -84h277q37 0 37 -31q0 -5 -1 -10l-10 -72q-6 -35 -43 -35h-282l-132 -831q-6 -35 -43 -35 h-90q-20 0 -30 11t-7 30l132 825h-101q-38 0 -38 32q0 4 1 9z" />
<glyph unicode="g" horiz-adv-x="999" d="M37 -182l45 57q13 17 28 17q13 0 27 -13q90 -84 232 -84q108 0 172.5 59.5t81.5 170.5l12 75h-4q-86 -92 -234 -92q-155 0 -238 77t-83 222q0 50 8 94l41 256q59 381 426 381q168 0 259 -79t91 -226q0 -44 -8 -88l-102 -641q-26 -170 -136 -263t-286 -93q-210 0 -330 114 q-14 14 -14 28t12 28zM250 336q0 -180 184 -180q209 0 250 258l37 221q6 43 6 76q0 180 -184 180q-108 0 -169 -63.5t-83 -194.5l-35 -221q-6 -43 -6 -76z" />
<glyph unicode="h" horiz-adv-x="1021" d="M63 41l216 1358q6 35 43 35h90q20 0 30 -11t7 -30l-72 -447h4q86 92 237 92q149 0 228.5 -76t79.5 -217q0 -48 -8 -92l-99 -618q-6 -35 -43 -35h-90q-20 0 -30 11t-7 30l96 602q7 51 7 76q0 172 -179 172q-103 0 -163 -62t-80 -188l-97 -606q-6 -35 -43 -35h-90 q-20 0 -30 11q-8 8 -8 22q0 4 1 8z" />
<glyph unicode="i" horiz-adv-x="444" d="M61 41l150 938q6 35 43 35h90q20 0 30 -11t7 -30l-150 -938q-6 -35 -43 -35h-90q-20 0 -30 11q-8 8 -8 22q0 4 1 8zM242 1298q0 53 31.5 86t82.5 33q44 0 72.5 -27.5t28.5 -70.5q0 -52 -33.5 -84.5t-83.5 -32.5q-43 0 -70.5 27.5t-27.5 68.5z" />
<glyph unicode="j" horiz-adv-x="444" d="M-168 -287l10 72q6 35 43 35q142 0 166 153l160 1006q6 35 43 35h90q20 0 30 -11t7 -30l-160 -1006q-25 -149 -105 -222t-220 -73h-27q-38 0 -38 32q0 4 1 9zM242 1298q0 53 31.5 86t82.5 33q44 0 72.5 -27.5t28.5 -70.5q0 -52 -33.5 -84.5t-83.5 -32.5q-43 0 -70.5 27.5 t-27.5 68.5z" />
<glyph unicode="k" horiz-adv-x="921" d="M63 41l216 1358q6 35 43 35h90q20 0 30 -11t7 -30l-130 -811h5l413 411q21 21 49 21h121q26 0 32 -14q1 -3 1 -7q0 -12 -14 -26l-461 -451l334 -469q14 -20 7 -33.5t-32 -13.5h-110q-29 0 -48 25l-313 452l-70 -442q-6 -35 -43 -35h-90q-20 0 -30 11q-8 8 -8 22q0 4 1 8z " />
<glyph unicode="l" horiz-adv-x="446" d="M63 41l216 1358q6 35 43 35h90q20 0 30 -11q8 -8 8 -22q0 -4 -1 -8l-216 -1358q-6 -35 -43 -35h-90q-20 0 -30 11q-8 8 -8 22q0 4 1 8z" />
<glyph unicode="m" horiz-adv-x="1544" d="M53 41l99 625q59 372 393 372q209 0 278 -137h4q94 137 297 137q156 0 240 -76.5t84 -218.5q0 -26 -8 -88l-99 -620q-6 -35 -43 -35h-90q-20 0 -30 11t-7 30l97 604q6 44 6 76q0 87 -41 128.5t-125 41.5q-99 0 -155 -60t-76 -188l-95 -608q-6 -35 -43 -35h-90 q-20 0 -30 11t-7 30l97 604q6 43 6 78q0 86 -41.5 127t-126.5 41q-99 0 -154 -58.5t-74 -179.5l-96 -618q-6 -35 -43 -35h-90q-20 0 -30 11q-8 8 -8 22q0 4 1 8z" />
<glyph unicode="n" horiz-adv-x="1011" d="M53 41l99 625q59 372 419 372q164 0 253 -78t89 -223q0 -41 -6 -84l-98 -618q-6 -35 -43 -35h-90q-20 0 -30 11t-7 30l96 600q6 40 6 76q0 174 -178 174q-106 0 -166 -62t-80 -190l-94 -604q-6 -35 -43 -35h-90q-20 0 -30 11q-8 8 -8 22q0 4 1 8z" />
<glyph unicode="o" horiz-adv-x="972" d="M70 283q0 41 6 84l47 290q62 381 428 381q167 0 257.5 -79.5t90.5 -227.5q0 -37 -6 -84l-45 -293q-59 -379 -428 -379q-167 0 -258.5 80t-91.5 228zM244 301q0 -178 184 -178q110 0 171 63t81 195l41 254q6 43 6 78q0 178 -184 178q-108 0 -169 -63t-83 -195l-41 -254 q-6 -43 -6 -78z" />
<glyph unicode="p" horiz-adv-x="999" d="M2 -287l150 944q59 381 426 381q168 0 259 -79t91 -226q0 -41 -8 -88l-46 -289q-62 -381 -405 -381q-174 0 -233 115h-5l-61 -383q-6 -35 -43 -35h-88q-20 0 -30 11q-8 8 -8 22q0 4 1 8zM272 307q0 -184 187 -184q108 0 168 63t82 195l39 254q6 43 6 76q0 180 -185 180 q-108 0 -170 -63.5t-82 -194.5l-38 -254q-7 -47 -7 -72z" />
<glyph unicode="q" horiz-adv-x="999" d="M70 276q0 46 8 93l45 288q59 381 428 381q168 0 259 -79t91 -226q0 -44 -8 -88l-148 -938q-6 -35 -43 -35h-90q-20 0 -30 11t-7 30l58 357h-4q-89 -95 -240 -95q-155 0 -237 77.5t-82 223.5zM244 303q0 -92 46 -136t140 -44q209 0 250 258l41 254q6 43 6 76 q0 180 -184 180q-110 0 -172 -63.5t-82 -194.5l-39 -254q-6 -43 -6 -76z" />
<glyph unicode="r" horiz-adv-x="745" d="M53 41l101 633q29 183 123.5 273.5t257.5 90.5q132 0 229 -65q16 -11 16 -26q0 -12 -10 -27l-41 -60q-21 -30 -53 -8q-56 39 -137 39q-94 0 -146 -56t-71 -173l-99 -627q-6 -35 -43 -35h-90q-20 0 -30 11q-8 8 -8 22q0 4 1 8z" />
<glyph unicode="s" horiz-adv-x="845" d="M16 94q-13 13 -13 26.5t13 26.5l50 58q24 31 53 2q90 -84 246 -84q106 0 166.5 46.5t60.5 129.5q0 60 -44.5 91.5t-160.5 51.5q-154 26 -217.5 84t-63.5 168q0 160 110.5 252t301.5 92q177 0 285 -88q15 -12 15 -26q0 -12 -11 -27l-47 -59q-23 -28 -53 -4q-72 57 -191 57 q-113 0 -176.5 -46t-63.5 -128q0 -55 44 -84.5t153 -46.5q160 -24 225.5 -85t65.5 -177q0 -163 -106.5 -256t-292.5 -93q-233 0 -349 119z" />
<glyph unicode="t" horiz-adv-x="727" d="M100 907l11 72q6 35 43 35h106l37 235q6 35 43 35h90q20 0 30 -11t7 -30l-37 -229h277q37 0 37 -31q0 -4 -1 -10l-10 -72q-6 -35 -43 -35h-282l-89 -565q-4 -32 -4 -45q0 -65 35.5 -99t102.5 -34q45 0 98 24q14 6 24 6q20 0 27 -24l23 -66q9 -35 -21 -51 q-73 -37 -170 -37q-140 0 -215.5 65.5t-75.5 188.5q0 29 7 76l88 561h-101q-38 0 -38 32q0 4 1 9z" />
<glyph unicode="u" horiz-adv-x="999" d="M96 270q0 40 6 84l99 625q6 35 43 35h90q20 0 30 -11t7 -30l-97 -608q-6 -41 -6 -70q0 -89 43 -130.5t133 -41.5q105 0 162.5 57.5t77.5 181.5l96 617q6 35 43 35h86q20 0 30 -11q8 -8 8 -22q0 -4 -1 -8l-100 -631q-59 -367 -412 -367q-163 0 -250.5 76.5t-87.5 218.5z " />
<glyph unicode="v" horiz-adv-x="929" d="M117 971q-1 5 -1 10q0 33 36 33h98q37 0 43 -35l119 -772h4l370 778q14 29 48 29h98q22 0 30 -12q3 -6 4 -13q0 -9 -5 -20l-469 -940q-14 -29 -46 -29h-118q-35 0 -41 35z" />
<glyph unicode="w" horiz-adv-x="1415" d="M119 973q-1 5 -1 10q0 31 36 31h98q38 0 41 -37l82 -723h4l326 731q12 29 45 29h69q35 0 41 -37l94 -717h4l314 725q13 29 45 29h98q22 0 30 -12q4 -6 4 -14t-5 -19l-428 -940q-12 -29 -45 -29h-103q-35 0 -41 37l-86 655h-4l-301 -663q-12 -29 -45 -29h-102 q-35 0 -41 37z" />
<glyph unicode="x" horiz-adv-x="948" d="M-15 14q-2 4 -2 8q0 11 11 25l379 481l-207 441q-9 20 -0.5 32.5t31.5 12.5h104q33 0 45 -31l148 -342l260 348q17 25 47 25h106q26 0 33 -14q2 -4 2 -9q0 -11 -10 -24l-352 -447l225 -475q9 -20 0.5 -32.5t-31.5 -12.5h-104q-32 0 -45 29l-166 377l-287 -381 q-17 -25 -47 -25h-109q-25 0 -31 14z" />
<glyph unicode="y" horiz-adv-x="1021" d="M49 -182l45 57q13 17 28 17q14 0 28 -13q90 -84 231 -84q108 0 173.5 59.5t82.5 170.5l12 75h-4q-89 -92 -239 -92q-148 0 -227 75t-79 216q0 44 9 94l92 586q6 35 43 35h90q20 0 30 -11t7 -30l-90 -570q-7 -47 -7 -73q0 -174 179 -174q105 0 165 62t80 188l90 573 q6 35 43 35h91q20 0 30 -11q7 -8 7 -21q0 -4 -1 -9l-155 -969q-26 -170 -136 -263t-286 -93q-210 0 -330 114q-14 14 -14 28t12 28z" />
<glyph unicode="z" horiz-adv-x="874" d="M0 41l12 88q3 26 21 47l610 690h-438q-38 0 -38 32q0 4 1 9l10 72q6 35 43 35h606q20 0 30 -11q8 -8 8 -22q0 -4 -1 -8l-14 -88q-3 -25 -21 -47l-610 -691h479q38 0 38 -32q0 -4 -1 -9l-10 -71q-6 -35 -43 -35h-645q-38 0 -38 32q0 4 1 9z" />
<glyph unicode="{" horiz-adv-x="694" d="M92 557l10 66q3 17 11.5 24.5t25.5 7.5q124 0 152 181l37 231q25 159 106.5 226t247.5 67h23q38 0 32 -37l-10 -68q-3 -17 -13 -24.5t-32 -7.5q-85 0 -129 -42t-59 -141l-35 -215q-15 -103 -60.5 -160.5t-128.5 -76.5v-4q121 -35 121 -168q0 -30 -6 -64l-35 -215 q-6 -35 -6 -61q0 -65 33.5 -94t105.5 -29q37 0 31 -37l-10 -68q-3 -17 -11.5 -24.5t-25.5 -7.5h-31q-266 0 -266 217q0 33 6 73l37 232q6 38 6 63q0 60 -27.5 89.5t-74.5 29.5q-31 0 -25 37z" />
<glyph unicode="|" horiz-adv-x="540" d="M74 -293l268 1696q3 31 35 31h76q34 0 28 -35l-268 -1696q-3 -31 -35 -31h-76q-34 0 -28 35z" />
<glyph unicode="}" horiz-adv-x="694" d="M-16 -147l10 67q6 33 45 33q86 0 129.5 41.5t58.5 140.5l35 215q15 103 60.5 161t128.5 77v4q-121 35 -121 168q0 28 6 63l35 215q6 34 6 62q0 65 -33.5 94t-105.5 29q-37 0 -31 37l10 67q6 33 37 33h31q266 0 266 -217q0 -33 -6 -74l-37 -231q-6 -37 -6 -64 q0 -60 27.5 -89.5t74.5 -29.5q31 0 25 -37l-11 -65q-3 -18 -11 -25.5t-25 -7.5q-62 0 -99.5 -43t-52.5 -137l-37 -231q-25 -159 -106.5 -226t-247.5 -67h-23q-38 0 -32 37z" />
<glyph unicode="~" d="M37 522q72 105 149 152t170 47q59 0 111.5 -18.5t120.5 -63.5q56 -37 89.5 -50.5t72.5 -13.5q54 0 99 31.5t97 98.5q25 32 55 8l56 -41q30 -21 8 -56q-72 -105 -148 -151.5t-169 -46.5q-63 0 -116 19t-118 65q-50 35 -85 48t-75 13q-54 0 -100.5 -31t-97.5 -96 q-23 -33 -56 -10l-55 41q-29 20 -8 55z" />
<glyph unicode="&#xa1;" horiz-adv-x="481" d="M82 41l86 549l92 375q6 22 31 22h45q27 0 24 -26l-24 -371l-86 -555q-6 -35 -43 -35h-88q-43 0 -37 41zM248 1262q0 53 35.5 87.5t85.5 34.5q47 0 76.5 -29t29.5 -75q0 -52 -36 -87.5t-87 -35.5q-46 0 -75 30t-29 75z" />
<glyph unicode="&#xa2;" d="M168 346q0 48 8 92l37 230q32 199 142 300t304 105l19 119q3 29 33 29h55q15 0 22.5 -9t4.5 -24l-19 -121q137 -21 211 -92q27 -27 -2 -53l-51 -56q-23 -26 -53 0q-46 40 -127 52l-119 -746q80 10 158 76q32 29 53 -6l41 -60q21 -31 -6 -55q-121 -98 -271 -109l-20 -133 q-3 -28 -33 -28h-55q-32 0 -29 32l21 129q-157 14 -240.5 97.5t-83.5 230.5zM344 371q0 -90 42 -138.5t130 -60.5l119 748q-111 -10 -171.5 -78t-82.5 -203l-31 -193q-6 -40 -6 -75z" />
<glyph unicode="&#xa3;" d="M90 41l10 76q5 27 27 49q97 89 137.5 170.5t40.5 185.5h-135q-37 0 -31 37l11 74q3 33 36 33h97q-2 6 -4 13t-5 14.5t-4 11.5q-30 89 -30 172q0 195 124 310.5t334 115.5q126 0 222.5 -42t152.5 -120q22 -32 -10 -54l-68 -49q-29 -23 -55 9q-72 100 -244 100 q-127 0 -202.5 -75.5t-75.5 -203.5q0 -63 26 -151q9 -33 13 -51h360q37 0 31 -37l-10 -74q-3 -33 -37 -33h-328q0 -212 -164 -362v-4h555q20 0 30 -11t7 -30l-12 -80q-6 -35 -43 -35h-719q-43 0 -37 41z" />
<glyph unicode="&#xa4;" d="M59 248q-24 27 2 49l168 147q-34 67 -34 154q0 144 88 256l-105 119q-20 25 4 49l58 53q24 24 49 -4l106 -121q88 51 197 51q125 0 213 -69l162 143q25 20 49 -4l47 -51q24 -27 -2 -49l-168 -148q35 -68 35 -155q0 -145 -88 -254l104 -119q20 -25 -4 -49l-57 -53 q-24 -24 -49 4l-107 120q-90 -49 -197 -49q-123 0 -213 68l-161 -143q-26 -20 -50 4zM328 608q0 -92 58.5 -149.5t152.5 -57.5q108 0 183 74t75 184q0 92 -58.5 150.5t-152.5 58.5q-108 0 -183 -75t-75 -185z" />
<glyph unicode="&#xa5;" d="M82 264l12 74q6 31 39 31h299l23 145h-293q-39 0 -33 37l12 74q6 30 39 30h291l-276 578q-9 20 -2 32.5t30 12.5h111q32 0 45 -29l205 -463l352 467q17 25 47 25h117q26 0 32.5 -14t-8.5 -33l-456 -576h276q39 0 33 -37l-12 -73q-6 -31 -39 -31h-295l-23 -145h289 q39 0 33 -37l-12 -74q-6 -31 -39 -31h-293l-31 -192q-6 -35 -43 -35h-96q-20 0 -30 11t-7 30l31 186h-295q-39 0 -33 37z" />
<glyph unicode="&#xa6;" horiz-adv-x="540" d="M74 -293l102 651q3 31 35 31h76q34 0 28 -35l-102 -651q-3 -31 -35 -31h-76q-34 0 -28 35zM238 752l104 651q6 31 35 31h76q34 0 28 -35l-104 -651q-3 -31 -35 -31h-76q-34 0 -28 35z" />
<glyph unicode="&#xa7;" horiz-adv-x="1132" d="M20 -176q-21 30 9 53l59 47q30 23 53 -6q96 -125 316 -125q135 0 218 64.5t83 167.5q0 70 -60.5 106.5t-216.5 56.5q-208 26 -294.5 93.5t-86.5 195.5q0 120 61.5 212.5t178.5 144.5v4q-117 65 -117 209q0 189 128.5 300t346.5 111q263 0 373 -149q22 -32 -10 -54 l-62 -47q-29 -21 -53 9q-78 96 -258 96q-130 0 -214.5 -66.5t-84.5 -167.5q0 -72 61 -109t218 -57q204 -26 289 -91.5t85 -190.5q0 -129 -63 -222.5t-184 -138.5v-4q127 -62 127 -211q0 -186 -129 -296.5t-344 -110.5q-303 0 -429 176zM268 516q0 -86 70 -128.5t250 -65.5 q129 17 209 90.5t80 179.5q0 56 -28 89t-99 56t-209 43q-121 -19 -197 -91.5t-76 -172.5z" />
<glyph unicode="&#xa8;" horiz-adv-x="1024" d="M367 1300q0 47 31 79t77 32q41 0 67.5 -26.5t26.5 -67.5q0 -47 -31.5 -78t-76.5 -31q-42 0 -68 26t-26 66zM709 1303q0 47 30.5 77.5t75.5 30.5q43 0 69.5 -26.5t26.5 -67.5q0 -47 -31 -78t-77 -31q-41 0 -67.5 27t-26.5 68z" />
<glyph unicode="&#xa9;" horiz-adv-x="1568" d="M100 590q0 160 63.5 307t170 253.5t253 170t306.5 63.5q277 0 453 -173t176 -441q0 -160 -63.5 -307t-170 -254t-253 -170.5t-306.5 -63.5q-277 0 -453 173.5t-176 441.5zM219 594q0 -226 144 -369t372 -143q178 0 332 93t245 251t91 340q0 226 -144.5 369t-373.5 143 q-178 0 -331.5 -93t-244 -251t-90.5 -340zM520 504q0 26 6 61l37 238q44 268 301 268q164 0 226 -129q13 -26 -17 -39l-43 -22q-25 -14 -41 14q-40 70 -133 70q-147 0 -174 -181l-35 -211q-4 -36 -4 -51q0 -127 127 -127q87 0 148 80q19 26 43 8l38 -28q25 -19 7 -43 q-89 -123 -244 -123q-116 0 -179 56t-63 159z" />
<glyph unicode="&#xaa;" horiz-adv-x="718" d="M88 705q0 128 78.5 198t234.5 70h168l2 12q4 25 4 53q0 70 -36.5 103t-112.5 33q-77 0 -152 -58q-30 -24 -49 12l-28 52q-15 27 14 49q110 74 235 74q133 0 206 -63.5t73 -182.5q0 -39 -4 -62l-35 -219q-47 -293 -334 -293q-126 0 -195 58.5t-69 163.5zM238 713 q0 -101 122 -101q79 0 123 45.5t58 139.5l8 51h-137q-174 0 -174 -135z" />
<glyph unicode="&#xab;" horiz-adv-x="894" d="M59 481q-11 23 7 47l270 346q18 21 43 21h86q22 0 27.5 -12t-7.5 -31l-278 -354l162 -338q9 -19 2 -30t-27 -11h-78q-29 0 -41 24zM440 481q-12 23 6 47l271 346q18 21 43 21h86q22 0 27.5 -12t-7.5 -31l-278 -354l162 -338q9 -19 2 -30t-27 -11h-78q-29 0 -41 24z" />
<glyph unicode="&#xac;" d="M68 655l12 82q6 35 43 35h915q43 0 37 -41l-78 -500q-6 -34 -43 -34h-77q-20 0 -30 11t-7 30l59 376h-795q-42 0 -36 41z" />
<glyph unicode="&#xad;" horiz-adv-x="679" d="M63 518l13 86q6 35 43 35h477q43 0 37 -41l-12 -86q-6 -35 -43 -35h-478q-43 0 -37 41z" />
<glyph unicode="&#xae;" horiz-adv-x="1568" d="M100 590q0 160 63.5 307t170 253.5t253 170t306.5 63.5q277 0 453 -173t176 -441q0 -160 -63.5 -307t-170 -254t-253 -170.5t-306.5 -63.5q-277 0 -453 173.5t-176 441.5zM219 594q0 -226 144 -369t372 -143q178 0 332 93t245 251t91 340q0 226 -144.5 369t-373.5 143 q-178 0 -331.5 -93t-244 -251t-90.5 -340zM524 336l111 692q3 29 33 29h206q240 0 240 -191q0 -109 -51 -176.5t-148 -87.5l119 -262q7 -17 1 -27t-23 -10h-74q-24 0 -37 25l-102 264h-113l-43 -260q-3 -29 -33 -29h-59q-15 0 -22.5 9t-4.5 24zM702 698h117q172 0 172 152 q0 100 -129 100h-119z" />
<glyph unicode="&#xaf;" horiz-adv-x="1024" d="M362 1264l11 65q3 33 37 33h471q36 0 30 -37l-10 -68q-6 -30 -39 -30h-469q-37 0 -31 37z" />
<glyph unicode="&#xb0;" horiz-adv-x="731" d="M135 965q0 144 98.5 241t239.5 97q122 0 199.5 -78t77.5 -197q0 -145 -98.5 -242.5t-239.5 -97.5q-122 0 -199.5 78t-77.5 199zM272 969q0 -67 41 -107.5t107 -40.5q78 0 135 57.5t57 143.5q0 66 -40.5 106.5t-106.5 40.5q-79 0 -136 -57.5t-57 -142.5z" />
<glyph unicode="&#xb1;" d="M-14 41l12 80q6 37 41 37h885q43 0 37 -41l-13 -82q-6 -35 -43 -35h-885q-40 0 -34 41zM78 623l12 82q6 34 43 34h367l49 326q6 35 43 35h78q43 0 37 -41l-50 -320h361q43 0 37 -41l-13 -82q-6 -34 -43 -34h-368l-51 -324q-6 -35 -43 -35h-78q-43 0 -37 41l51 318h-358 q-43 0 -37 41z" />
<glyph unicode="&#xb2;" horiz-adv-x="675" d="M133 776l8 53q3 24 19 37l342 297q58 52 80 88.5t22 81.5q0 48 -30 75.5t-85 27.5q-89 0 -163 -90q-19 -26 -43 -5l-39 37q-20 20 -4 43q103 127 262 127q105 0 167 -58t62 -155q0 -75 -32.5 -129.5t-118.5 -126.5l-263 -219v-4h304q15 0 22 -9t4 -24l-8 -51 q-3 -29 -33 -29h-444q-32 0 -29 33z" />
<glyph unicode="&#xb3;" horiz-adv-x="675" d="M143 838q-18 21 4 43l37 34q24 21 43 -4q57 -69 170 -69q79 0 124.5 38.5t45.5 106.5q0 111 -157 111h-35q-32 0 -29 32l8 48q3 28 33 28h31q97 0 141.5 32t44.5 99q0 47 -32 73t-91 26q-90 0 -166 -76q-24 -24 -43 2l-34 41q-19 22 2 43q108 102 258 102 q108 0 170.5 -53.5t62.5 -146.5q0 -156 -141 -197v-4q104 -46 104 -166q0 -121 -79 -186.5t-220 -65.5q-169 0 -252 109z" />
<glyph unicode="&#xb4;" horiz-adv-x="1024" d="M534.5 1171q-5.5 12 6.5 29l196 250q17 20 43 20h109q23 0 29 -13t-9 -30l-215 -249q-19 -19 -41 -19h-92q-21 0 -26.5 12z" />
<glyph unicode="&#xb5;" horiz-adv-x="1021" d="M12 -287l199 1266q6 35 43 35h90q20 0 30 -11t7 -30l-96 -602q-6 -37 -6 -70q0 -178 180 -178q107 0 166.5 61t79.5 189l94 606q6 35 43 35h90q20 0 30 -11t7 -30l-101 -625q-59 -373 -389 -373q-168 0 -233 109h-4l-60 -377q-6 -35 -43 -35h-90q-20 0 -30 11t-7 30z" />
<glyph unicode="&#xb6;" horiz-adv-x="1167" d="M123 934q0 253 134 376.5t415 123.5h450q35 0 29 -35l-268 -1696q-3 -31 -35 -31h-72q-34 0 -28 35l249 1585h-241l-252 -1589q-3 -31 -35 -31h-72q-34 0 -28 35l141 891q-195 8 -291 90.5t-96 245.5z" />
<glyph unicode="&#xb7;" horiz-adv-x="477" d="M145 631q0 52 36 87.5t87 35.5q47 0 76 -30t29 -75q0 -53 -35.5 -88t-87.5 -35q-46 0 -75.5 29.5t-29.5 75.5z" />
<glyph unicode="&#xb8;" horiz-adv-x="1024" d="M207 -276l18 40q12 27 41 11q56 -25 103 -25q39 0 61.5 13t22.5 34q0 25 -22.5 34t-72.5 9q-15 0 -21.5 9t-0.5 24l57 154h94l-43 -121q63 -6 96 -36.5t33 -78.5q0 -69 -52 -106t-150 -37q-92 0 -154 35q-23 12 -10 41z" />
<glyph unicode="&#xb9;" horiz-adv-x="675" d="M303 1313q-16 26 8 41l250 168q18 12 37 12h45q15 0 22.5 -9t4.5 -24l-117 -729q-3 -29 -33 -29h-63q-15 0 -22.5 9t-4.5 24l92 584l-149 -100q-26 -17 -43 10z" />
<glyph unicode="&#xba;" horiz-adv-x="753" d="M115 723q0 31 6 65l35 222q47 293 329 293q132 0 204.5 -62.5t72.5 -177.5q0 -31 -6 -66l-35 -221q-47 -293 -332 -293q-131 0 -202.5 62.5t-71.5 177.5zM264 741q0 -129 131 -129q78 0 122 45.5t58 139.5l31 194q4 20 4 56q0 127 -131 127q-78 0 -121.5 -45.5 t-58.5 -139.5l-31 -194q-4 -36 -4 -54z" />
<glyph unicode="&#xbb;" horiz-adv-x="894" d="M21.5 131q-5.5 12 7.5 31l278 354l-162 338q-9 19 -2 30t27 11h78q28 0 41 -25l166 -340q12 -23 -6 -47l-271 -344q-17 -20 -43 -20h-86q-22 0 -27.5 12zM402.5 131q-5.5 12 7.5 31l278 354l-162 338q-9 19 -2 30t27 11h78q29 0 41 -25l166 -340q11 -23 -7 -47l-270 -344 q-17 -20 -43 -20h-86q-22 0 -27.5 12z" />
<glyph unicode="&#xbc;" horiz-adv-x="1630" d="M264 1057q-16 26 8 41l250 168q18 12 37 12h45q15 0 22.5 -9t4.5 -24l-117 -729q-3 -29 -33 -29h-63q-15 0 -22.5 9t-4.5 24l92 584l-149 -100q-26 -17 -43 10zM341.5 11q-5.5 11 6.5 26l1000 1223q15 18 36 18h82q20 0 25.5 -11t-6.5 -26l-1000 -1223q-15 -18 -36 -18 h-82q-20 0 -25.5 11zM961 207l10 65q3 19 18 37l420 465q14 17 37 17h70q15 0 22 -9t4 -24l-76 -471h62q31 0 28 -33l-8 -51q-3 -29 -32 -29h-66l-25 -145q-3 -29 -32 -29h-64q-15 0 -22 9t-4 24l22 141h-336q-15 0 -23 9t-5 24zM1114 287h227l52 309h-4z" />
<glyph unicode="&#xbd;" horiz-adv-x="1630" d="M259.5 11q-5.5 11 6.5 26l1000 1223q15 18 37 18h81q20 0 25.5 -11t-6.5 -26l-1000 -1223q-15 -18 -36 -18h-82q-20 0 -25.5 11zM264 1057q-16 26 8 41l250 168q18 12 37 12h45q15 0 22.5 -9t4.5 -24l-117 -729q-3 -29 -33 -29h-63q-15 0 -22.5 9t-4.5 24l92 584 l-149 -100q-26 -17 -43 10zM971 33l8 53q3 25 18 37l342 297q58 52 80.5 88.5t22.5 81.5q0 48 -30 75t-85 27q-90 0 -164 -90q-19 -25 -43 -4l-39 37q-20 20 -4 43q103 127 262 127q105 0 167.5 -58t62.5 -155q0 -75 -32.5 -129.5t-119.5 -126.5l-262 -219v-4h303 q15 0 22.5 -9t4.5 -24l-8 -51q-3 -29 -33 -29h-445q-31 0 -28 33z" />
<glyph unicode="&#xbe;" horiz-adv-x="1630" d="M104 582q-18 20 5 43l36 34q24 21 43 -4q57 -69 170 -69q79 0 124.5 38.5t45.5 106.5q0 111 -157 111h-35q-32 0 -29 32l8 48q3 28 33 28h31q97 0 141.5 32t44.5 99q0 47 -32 73t-91 26q-90 0 -166 -76q-24 -24 -43 2l-34 41q-19 22 2 43q108 102 258 102 q108 0 170.5 -53.5t62.5 -146.5q0 -156 -141 -197v-4q104 -46 104 -166q0 -121 -79 -186.5t-220 -65.5q-169 0 -252 109zM347.5 11q-5.5 11 6.5 26l1000 1223q15 18 37 18h82q20 0 25 -11t-7 -26l-999 -1223q-15 -18 -37 -18h-82q-20 0 -25.5 11zM961 207l10 65q3 19 18 37 l420 465q14 17 37 17h70q15 0 22 -9t4 -24l-76 -471h62q31 0 28 -33l-8 -51q-3 -29 -32 -29h-66l-25 -145q-3 -29 -32 -29h-64q-15 0 -22 9t-4 24l22 141h-336q-15 0 -23 9t-5 24zM1114 287h227l52 309h-4z" />
<glyph unicode="&#xbf;" horiz-adv-x="929" d="M18 305q0 136 61.5 226t211.5 167q112 58 156 108t57 122l4 24q6 35 43 35h80q43 0 37 -41l-6 -39q-15 -104 -75 -178.5t-188 -146.5q-118 -66 -161 -125t-43 -146q0 -83 55.5 -131.5t152.5 -48.5q179 0 312 168q27 34 57 4l55 -55q26 -23 0 -55q-86 -106 -198.5 -162 t-239.5 -56q-169 0 -270 89.5t-101 240.5zM524 1262q0 53 35.5 87.5t87.5 34.5q46 0 75.5 -29t29.5 -75q0 -52 -36 -87.5t-87 -35.5q-47 0 -76 30t-29 75z" />
<glyph unicode="&#xc0;" horiz-adv-x="1202" d="M-16 12.5q-7 12.5 2 32.5l637 1286q15 29 45 29h129q35 0 41 -35l231 -1282q6 -43 -35 -43h-106q-37 0 -43 35l-39 235h-557l-115 -241q-14 -29 -47 -29h-113q-23 0 -30 12.5zM367 432h454l-114 709h-5zM557 1793q7 11 27 11h98q29 0 41 -26l113 -246q8 -17 1.5 -28 t-26.5 -11h-80q-27 0 -39 23l-133 247q-9 19 -2 30z" />
<glyph unicode="&#xc1;" horiz-adv-x="1202" d="M-16 12.5q-7 12.5 2 32.5l637 1286q15 29 45 29h129q35 0 41 -35l231 -1282q6 -43 -35 -43h-106q-37 0 -43 35l-39 235h-557l-115 -241q-14 -29 -47 -29h-113q-23 0 -30 12.5zM367 432h454l-114 709h-5zM675.5 1505q-5.5 12 6.5 29l197 250q17 20 43 20h108 q23 0 29.5 -13t-8.5 -30l-215 -250q-18 -18 -41 -18h-93q-21 0 -26.5 12z" />
<glyph unicode="&#xc2;" horiz-adv-x="1202" d="M-16 12.5q-7 12.5 2 32.5l637 1286q15 29 45 29h129q35 0 41 -35l231 -1282q6 -43 -35 -43h-106q-37 0 -43 35l-39 235h-557l-115 -241q-14 -29 -47 -29h-113q-23 0 -30 12.5zM367 432h454l-114 709h-5zM493 1505q-5 12 9 29l213 250q17 20 43 20h92q29 0 41 -24 l131 -248q9 -17 2.5 -28t-25.5 -11h-75q-26 0 -39 23l-90 170l-150 -175q-18 -18 -41 -18h-84q-22 0 -27 12z" />
<glyph unicode="&#xc3;" horiz-adv-x="1202" d="M-16 12.5q-7 12.5 2 32.5l637 1286q15 29 45 29h129q35 0 41 -35l231 -1282q6 -43 -35 -43h-106q-37 0 -43 35l-39 235h-557l-115 -241q-14 -29 -47 -29h-113q-23 0 -30 12.5zM367 432h454l-114 709h-5zM469 1550q28 103 80.5 156t126.5 53q38 0 66 -13.5t69 -49.5 q31 -27 45.5 -36t34.5 -9q59 0 86 84q9 26 35 26h51q17 0 24.5 -10t2.5 -27q-29 -102 -82 -155t-125 -53q-39 0 -70 14.5t-68 48.5q-31 28 -45 36.5t-34 8.5q-59 0 -86 -84q-9 -27 -35 -27h-49q-17 0 -24.5 10t-2.5 27z" />
<glyph unicode="&#xc4;" horiz-adv-x="1202" d="M-16 12.5q-7 12.5 2 32.5l637 1286q15 29 45 29h129q35 0 41 -35l231 -1282q6 -43 -35 -43h-106q-37 0 -43 35l-39 235h-557l-115 -241q-14 -29 -47 -29h-113q-23 0 -30 12.5zM367 432h454l-114 709h-5zM508 1634q0 47 31 79t77 32q41 0 68 -26.5t27 -67.5q0 -47 -32 -78 t-77 -31q-42 0 -68 26t-26 66zM850 1636q0 47 30.5 78t75.5 31q43 0 70 -26.5t27 -67.5q0 -47 -31.5 -78t-77.5 -31q-41 0 -67.5 26.5t-26.5 67.5z" />
<glyph unicode="&#xc5;" horiz-adv-x="1202" d="M-16 12.5q-7 12.5 2 32.5l637 1286q15 29 45 29h129q35 0 41 -35l231 -1282q6 -43 -35 -43h-106q-37 0 -43 35l-39 235h-557l-115 -241q-14 -29 -47 -29h-113q-23 0 -30 12.5zM367 432h454l-114 709h-5zM610 1632q0 78 54.5 131.5t130.5 53.5q67 0 111 -43.5t44 -108.5 q0 -78 -53.5 -131t-128.5 -53q-69 0 -113.5 43t-44.5 108zM702 1638q0 -32 18.5 -49.5t51.5 -17.5q36 0 61 25t25 63q0 30 -19.5 48.5t-50.5 18.5q-36 0 -61 -25t-25 -63z" />
<glyph unicode="&#xc6;" horiz-adv-x="1792" d="M-52 13.5q-7 13.5 7 33.5l938 1288q17 25 49 25h852q43 0 37 -41l-12 -86q-6 -35 -43 -35h-631l-70 -430h537q20 0 30 -11t7 -30l-15 -86q-6 -35 -43 -35h-540l-72 -444h627q20 0 29.5 -11t6.5 -30l-14 -86q-6 -35 -43 -35h-772q-20 0 -30 11t-7 30l37 229h-485 l-176 -245q-16 -25 -48 -25h-124q-25 0 -32 13.5zM444 432h394l114 713h-4z" />
<glyph unicode="&#xc7;" horiz-adv-x="1079" d="M100 362q0 52 9 111l67 426q78 485 539 485q309 0 403 -245q12 -36 -20 -52l-82 -36q-36 -15 -51 22q-66 150 -260 150q-295 0 -351 -355l-59 -383q-8 -49 -8 -102q0 -246 248 -246q192 0 305 166q22 32 53 10l72 -47q33 -20 10 -53q-80 -118 -184 -176t-248 -62l-25 -69 q63 -6 96 -36.5t33 -78.5q0 -69 -52.5 -106t-150.5 -37q-91 0 -153 35q-23 12 -10 41l18 40q12 27 41 11q56 -25 102 -25q39 0 61.5 13t22.5 34q0 25 -22 34t-72 9q-15 0 -21.5 9t-0.5 24l39 107q-168 17 -258.5 115t-90.5 267z" />
<glyph unicode="&#xc8;" horiz-adv-x="1101" d="M88 41l203 1284q6 35 43 35h772q41 0 35 -41l-13 -84q-3 -37 -41 -37h-630l-70 -430h535q20 0 29.5 -11t6.5 -30l-14 -86q-6 -35 -43 -35h-539l-71 -444h624q20 0 30 -11t7 -30l-14 -86q-6 -35 -43 -35h-770q-20 0 -30 11t-7 30zM544.5 1793q6.5 11 26.5 11h99 q29 0 41 -26l112 -246q17 -39 -24 -39h-80q-27 0 -39 23l-133 247q-9 19 -2.5 30z" />
<glyph unicode="&#xc9;" horiz-adv-x="1101" d="M88 41l203 1284q6 35 43 35h772q41 0 35 -41l-13 -84q-3 -37 -41 -37h-630l-70 -430h535q20 0 29.5 -11t6.5 -30l-14 -86q-6 -35 -43 -35h-539l-71 -444h624q20 0 30 -11t7 -30l-14 -86q-6 -35 -43 -35h-770q-20 0 -30 11t-7 30zM663.5 1505q-5.5 12 6.5 29l196 250 q17 20 43 20h109q23 0 29 -13t-9 -30l-215 -250q-18 -18 -41 -18h-92q-21 0 -26.5 12z" />
<glyph unicode="&#xca;" horiz-adv-x="1101" d="M88 41l203 1284q6 35 43 35h772q41 0 35 -41l-13 -84q-3 -37 -41 -37h-630l-70 -430h535q20 0 29.5 -11t6.5 -30l-14 -86q-6 -35 -43 -35h-539l-71 -444h624q20 0 30 -11t7 -30l-14 -86q-6 -35 -43 -35h-770q-20 0 -30 11t-7 30zM480.5 1505q-5.5 12 8.5 29l213 250 q17 20 43 20h93q29 0 41 -24l131 -248q9 -17 2.5 -28t-25.5 -11h-76q-26 0 -39 23l-90 170l-149 -175q-18 -18 -41 -18h-84q-22 0 -27.5 12z" />
<glyph unicode="&#xcb;" horiz-adv-x="1101" d="M88 41l203 1284q6 35 43 35h772q41 0 35 -41l-13 -84q-3 -37 -41 -37h-630l-70 -430h535q20 0 29.5 -11t6.5 -30l-14 -86q-6 -35 -43 -35h-539l-71 -444h624q20 0 30 -11t7 -30l-14 -86q-6 -35 -43 -35h-770q-20 0 -30 11t-7 30zM496 1634q0 47 31 79t77 32 q41 0 67.5 -26.5t26.5 -67.5q0 -47 -31.5 -78t-76.5 -31q-42 0 -68 26t-26 66zM838 1636q0 47 30.5 78t75.5 31q43 0 69.5 -26.5t26.5 -67.5q0 -47 -31 -78t-77 -31q-41 0 -67.5 26.5t-26.5 67.5z" />
<glyph unicode="&#xcc;" horiz-adv-x="509" d="M88 41l203 1284q6 35 43 35h104q20 0 30 -11t7 -30l-203 -1284q-6 -35 -43 -35h-104q-20 0 -30 11t-7 30zM209 1793q7 11 27 11h98q29 0 41 -26l112 -246q17 -39 -24 -39h-80q-27 0 -39 23l-133 247q-9 19 -2 30z" />
<glyph unicode="&#xcd;" horiz-adv-x="509" d="M88 41l203 1284q6 35 43 35h104q20 0 30 -11t7 -30l-203 -1284q-6 -35 -43 -35h-104q-20 0 -30 11t-7 30zM327.5 1505q-5.5 12 6.5 29l196 250q17 20 43 20h109q23 0 29 -13t-9 -30l-215 -250q-18 -18 -41 -18h-92q-21 0 -26.5 12z" />
<glyph unicode="&#xce;" horiz-adv-x="509" d="M88 41l203 1284q6 35 43 35h104q20 0 30 -11t7 -30l-203 -1284q-6 -35 -43 -35h-104q-20 0 -30 11t-7 30zM145 1505q-5 12 9 29l213 250q17 20 43 20h92q29 0 41 -24l131 -248q9 -17 2.5 -28t-25.5 -11h-76q-25 0 -38 23l-91 170l-149 -175q-18 -18 -41 -18h-84 q-22 0 -27 12z" />
<glyph unicode="&#xcf;" horiz-adv-x="509" d="M88 41l203 1284q6 35 43 35h104q20 0 30 -11t7 -30l-203 -1284q-6 -35 -43 -35h-104q-20 0 -30 11t-7 30zM160 1634q0 47 31 79t77 32q41 0 67.5 -26.5t26.5 -67.5q0 -47 -31.5 -78t-76.5 -31q-42 0 -68 26t-26 66zM502 1636q0 47 30.5 78t75.5 31q43 0 70 -26.5 t27 -67.5q0 -47 -31.5 -78t-77.5 -31q-41 0 -67.5 26.5t-26.5 67.5z" />
<glyph unicode="&#xd0;" horiz-adv-x="1232" d="M70 649l12 86q6 35 43 35h100l88 555q6 35 43 35h400q213 0 322.5 -91.5t109.5 -271.5q0 -45 -10 -110l-68 -424q-37 -234 -172 -348.5t-379 -114.5h-412q-20 0 -29.5 11t-6.5 30l90 567h-95q-42 0 -36 41zM313 162h252q159 0 248 81t117 249l61 378q8 47 8 95 q0 233 -266 233h-254l-67 -428h235q20 0 30 -11t7 -30l-14 -86q-6 -35 -43 -35h-242z" />
<glyph unicode="&#xd1;" horiz-adv-x="1275" d="M88 41l203 1284q6 35 43 35h131q33 0 45 -31l389 -1007h4l158 1003q6 35 43 35h100q20 0 30 -11t7 -30l-203 -1284q-6 -35 -43 -35h-114q-33 0 -45 31l-402 1034h-4l-162 -1030q-6 -35 -43 -35h-100q-20 0 -30 11t-7 30zM506 1550q28 103 80.5 156t126.5 53 q38 0 66 -13.5t69 -49.5q31 -27 45.5 -36t34.5 -9q59 0 86 84q9 26 35 26h51q36 0 26 -37q-59 -208 -206 -208q-39 0 -70 14.5t-68 48.5q-31 27 -45.5 36t-34.5 9q-59 0 -86 -84q-9 -27 -34 -27h-50q-36 0 -26 37z" />
<glyph unicode="&#xd2;" horiz-adv-x="1204" d="M100 367q0 51 9 106l67 426q78 485 541 485q212 0 327 -100t115 -287q0 -45 -10 -110l-68 -426q-78 -486 -540 -486q-212 0 -326.5 101.5t-114.5 290.5zM287 387q0 -250 262 -250q154 0 238.5 85t113.5 265l62 387q8 49 8 103q0 246 -260 246q-154 0 -241 -87.5 t-116 -267.5l-59 -383q-8 -47 -8 -98zM557 1793q7 11 27 11h98q29 0 41 -26l113 -246q8 -17 1.5 -28t-26.5 -11h-80q-27 0 -39 23l-133 247q-9 19 -2 30z" />
<glyph unicode="&#xd3;" horiz-adv-x="1204" d="M100 367q0 51 9 106l67 426q78 485 541 485q212 0 327 -100t115 -287q0 -45 -10 -110l-68 -426q-78 -486 -540 -486q-212 0 -326.5 101.5t-114.5 290.5zM287 387q0 -250 262 -250q154 0 238.5 85t113.5 265l62 387q8 49 8 103q0 246 -260 246q-154 0 -241 -87.5 t-116 -267.5l-59 -383q-8 -47 -8 -98zM675.5 1505q-5.5 12 6.5 29l197 250q17 20 43 20h108q23 0 29.5 -13t-8.5 -30l-215 -250q-18 -18 -41 -18h-93q-21 0 -26.5 12z" />
<glyph unicode="&#xd4;" horiz-adv-x="1204" d="M100 367q0 51 9 106l67 426q78 485 541 485q212 0 327 -100t115 -287q0 -45 -10 -110l-68 -426q-78 -486 -540 -486q-212 0 -326.5 101.5t-114.5 290.5zM287 387q0 -250 262 -250q154 0 238.5 85t113.5 265l62 387q8 49 8 103q0 246 -260 246q-154 0 -241 -87.5 t-116 -267.5l-59 -383q-8 -47 -8 -98zM493 1505q-5 12 9 29l213 250q17 20 43 20h92q29 0 41 -24l131 -248q9 -17 2.5 -28t-25.5 -11h-75q-26 0 -39 23l-90 170l-150 -175q-18 -18 -41 -18h-84q-22 0 -27 12z" />
<glyph unicode="&#xd5;" horiz-adv-x="1204" d="M100 367q0 51 9 106l67 426q78 485 541 485q212 0 327 -100t115 -287q0 -45 -10 -110l-68 -426q-78 -486 -540 -486q-212 0 -326.5 101.5t-114.5 290.5zM287 387q0 -250 262 -250q154 0 238.5 85t113.5 265l62 387q8 49 8 103q0 246 -260 246q-154 0 -241 -87.5 t-116 -267.5l-59 -383q-8 -47 -8 -98zM469 1550q28 103 80.5 156t126.5 53q38 0 66 -13.5t69 -49.5q31 -27 45.5 -36t34.5 -9q59 0 86 84q9 26 35 26h51q17 0 24.5 -10t2.5 -27q-29 -102 -82 -155t-125 -53q-39 0 -70 14.5t-68 48.5q-31 28 -45 36.5t-34 8.5q-59 0 -86 -84 q-9 -27 -35 -27h-49q-17 0 -24.5 10t-2.5 27z" />
<glyph unicode="&#xd6;" horiz-adv-x="1204" d="M100 367q0 51 9 106l67 426q78 485 541 485q212 0 327 -100t115 -287q0 -45 -10 -110l-68 -426q-78 -486 -540 -486q-212 0 -326.5 101.5t-114.5 290.5zM287 387q0 -250 262 -250q154 0 238.5 85t113.5 265l62 387q8 49 8 103q0 246 -260 246q-154 0 -241 -87.5 t-116 -267.5l-59 -383q-8 -47 -8 -98zM508 1634q0 47 31 79t77 32q41 0 68 -26.5t27 -67.5q0 -47 -32 -78t-77 -31q-42 0 -68 26t-26 66zM850 1636q0 47 30.5 78t75.5 31q43 0 70 -26.5t27 -67.5q0 -47 -31.5 -78t-77.5 -31q-41 0 -67.5 26.5t-26.5 67.5z" />
<glyph unicode="&#xd7;" d="M47 178q-25 29 4 55l395 342l-284 338q-25 28 4 54l65 55q31 25 54 -4l284 -336l396 342q30 27 55 -4l47 -55q24 -31 -2 -54l-397 -344l284 -338q25 -28 -4 -53l-63 -55q-30 -26 -54 4l-286 336l-393 -342q-28 -24 -56 4z" />
<glyph unicode="&#xd8;" horiz-adv-x="1204" d="M53 90l80 98q-33 84 -33 179q0 51 9 106l67 426q78 485 541 485q205 0 321 -96l60 74q25 29 53 4l49 -43q25 -25 4 -53l-80 -96q35 -78 35 -177q0 -45 -10 -110l-68 -426q-78 -486 -540 -486q-206 0 -320 97l-61 -74q-26 -29 -54 -4l-49 43q-25 25 -4 53zM287 379h4 l631 768q-64 76 -211 76q-154 0 -241 -87.5t-116 -267.5l-59 -383q-8 -47 -8 -98v-8zM338 215q63 -78 211 -78q154 0 238.5 85t113.5 265l62 387q8 49 8 103v4h-4z" />
<glyph unicode="&#xd9;" horiz-adv-x="1204" d="M123 350q0 58 8 107l137 868q6 35 43 35h105q20 0 30 -11t7 -30l-136 -852q-8 -47 -8 -94q0 -236 242 -236q144 0 223 81.5t105 252.5l135 854q6 35 43 35h98q43 0 37 -41l-137 -875q-74 -469 -514 -469q-200 0 -309 97t-109 278zM559 1793q7 11 27 11h98q29 0 41 -26 l113 -246q8 -17 1.5 -28t-26.5 -11h-80q-27 0 -39 23l-133 247q-9 19 -2 30z" />
<glyph unicode="&#xda;" horiz-adv-x="1204" d="M123 350q0 58 8 107l137 868q6 35 43 35h105q20 0 30 -11t7 -30l-136 -852q-8 -47 -8 -94q0 -236 242 -236q144 0 223 81.5t105 252.5l135 854q6 35 43 35h98q43 0 37 -41l-137 -875q-74 -469 -514 -469q-200 0 -309 97t-109 278zM677.5 1505q-5.5 12 6.5 29l197 250 q17 20 43 20h108q23 0 29.5 -13t-8.5 -30l-215 -250q-18 -18 -41 -18h-92q-22 0 -27.5 12z" />
<glyph unicode="&#xdb;" horiz-adv-x="1204" d="M123 350q0 58 8 107l137 868q6 35 43 35h105q20 0 30 -11t7 -30l-136 -852q-8 -47 -8 -94q0 -236 242 -236q144 0 223 81.5t105 252.5l135 854q6 35 43 35h98q43 0 37 -41l-137 -875q-74 -469 -514 -469q-200 0 -309 97t-109 278zM495 1505q-5 12 9 29l213 250 q17 20 43 20h92q29 0 41 -24l131 -248q9 -17 2.5 -28t-25.5 -11h-75q-26 0 -39 23l-90 170l-150 -175q-18 -18 -41 -18h-84q-22 0 -27 12z" />
<glyph unicode="&#xdc;" horiz-adv-x="1204" d="M123 350q0 58 8 107l137 868q6 35 43 35h105q20 0 30 -11t7 -30l-136 -852q-8 -47 -8 -94q0 -236 242 -236q144 0 223 81.5t105 252.5l135 854q6 35 43 35h98q43 0 37 -41l-137 -875q-74 -469 -514 -469q-200 0 -309 97t-109 278zM510 1634q0 47 31 79t77 32 q41 0 68 -26.5t27 -67.5q0 -47 -32 -78t-77 -31q-42 0 -68 26t-26 66zM852 1636q0 47 30.5 78t75.5 31q43 0 70 -26.5t27 -67.5q0 -47 -31.5 -78t-77.5 -31q-41 0 -67.5 26.5t-26.5 67.5z" />
<glyph unicode="&#xdd;" horiz-adv-x="1085" d="M154.5 1347.5q7.5 12.5 29.5 12.5h121q33 0 45 -31l232 -559l405 565q19 25 49 25h127q25 0 32 -13.5t-7 -33.5l-541 -719l-88 -559q-6 -35 -43 -35h-104q-43 0 -37 41l88 563l-307 711q-9 20 -1.5 32.5zM616.5 1505q-5.5 12 6.5 29l196 250q17 20 43 20h109q23 0 29 -13 t-9 -30l-215 -250q-18 -18 -41 -18h-92q-21 0 -26.5 12z" />
<glyph unicode="&#xde;" horiz-adv-x="1118" d="M88 41l203 1284q6 35 43 35h104q20 0 30 -11t7 -30l-33 -201h230q214 0 320 -88t106 -270q0 -246 -133 -361.5t-416 -115.5h-238l-39 -248q-6 -35 -43 -35h-104q-20 0 -30 11t-7 30zM336 444h231q177 0 260.5 74t83.5 230q0 107 -64.5 157.5t-195.5 50.5h-233z" />
<glyph unicode="&#xdf;" horiz-adv-x="1130" d="M63 41l168 1059q26 169 143.5 263.5t301.5 94.5q166 0 261 -78.5t95 -216.5q0 -105 -46.5 -175t-160.5 -136q-78 -45 -107.5 -81t-29.5 -83q0 -39 26.5 -61t102.5 -45q121 -35 171 -94t50 -166q0 -163 -103 -255t-286 -92q-194 0 -303 86q-29 26 -6 56l43 59q22 27 55 4 q72 -57 207 -57q103 0 163 48t60 130q0 54 -33.5 87t-119.5 61q-109 35 -154 86t-45 141q0 95 44 159.5t155 129.5q87 51 118 90.5t31 97.5q0 75 -52 116.5t-146 41.5q-110 0 -179 -56.5t-86 -162.5l-168 -1057q-6 -35 -43 -35h-90q-20 0 -30 11t-7 30z" />
<glyph unicode="&#xe0;" horiz-adv-x="933" d="M41 260q0 163 104.5 251.5t303.5 88.5h229l4 25q6 44 6 77q0 97 -50 143t-151 46q-113 0 -208 -76q-36 -28 -58 8l-35 58q-18 30 13 55q137 102 311 102q170 0 261 -80t91 -233q0 -43 -8 -90l-45 -279q-59 -381 -434 -381q-159 0 -246.5 75t-87.5 210zM211 266 q0 -143 176 -143q112 0 173 62.5t83 195.5l12 78h-200q-117 0 -180.5 -49.5t-63.5 -143.5zM379 1459.5q7 10.5 27 10.5h98q29 0 41 -26l112 -246q17 -39 -24 -39h-80q-27 0 -39 23l-133 248q-9 19 -2 29.5z" />
<glyph unicode="&#xe1;" horiz-adv-x="933" d="M41 260q0 163 104.5 251.5t303.5 88.5h229l4 25q6 44 6 77q0 97 -50 143t-151 46q-113 0 -208 -76q-36 -28 -58 8l-35 58q-18 30 13 55q137 102 311 102q170 0 261 -80t91 -233q0 -43 -8 -90l-45 -279q-59 -381 -434 -381q-159 0 -246.5 75t-87.5 210zM211 266 q0 -143 176 -143q112 0 173 62.5t83 195.5l12 78h-200q-117 0 -180.5 -49.5t-63.5 -143.5zM497.5 1171q-5.5 12 6.5 29l196 250q17 20 43 20h109q23 0 29 -13t-9 -30l-215 -249q-19 -19 -41 -19h-92q-21 0 -26.5 12z" />
<glyph unicode="&#xe2;" horiz-adv-x="933" d="M41 260q0 163 104.5 251.5t303.5 88.5h229l4 25q6 44 6 77q0 97 -50 143t-151 46q-113 0 -208 -76q-36 -28 -58 8l-35 58q-18 30 13 55q137 102 311 102q170 0 261 -80t91 -233q0 -43 -8 -90l-45 -279q-59 -381 -434 -381q-159 0 -246.5 75t-87.5 210zM211 266 q0 -143 176 -143q112 0 173 62.5t83 195.5l12 78h-200q-117 0 -180.5 -49.5t-63.5 -143.5zM315 1171q-5 12 9 29l213 250q17 20 43 20h92q29 0 41 -24l131 -248q9 -17 2.5 -28t-25.5 -11h-76q-25 0 -38 23l-91 170l-149 -174q-19 -19 -41 -19h-84q-22 0 -27 12z" />
<glyph unicode="&#xe3;" horiz-adv-x="933" d="M41 260q0 163 104.5 251.5t303.5 88.5h229l4 25q6 44 6 77q0 97 -50 143t-151 46q-113 0 -208 -76q-36 -28 -58 8l-35 58q-18 30 13 55q137 102 311 102q170 0 261 -80t91 -233q0 -43 -8 -90l-45 -279q-59 -381 -434 -381q-159 0 -246.5 75t-87.5 210zM211 266 q0 -143 176 -143q112 0 173 62.5t83 195.5l12 78h-200q-117 0 -180.5 -49.5t-63.5 -143.5zM291 1217q28 102 80.5 155t126.5 53q38 0 66 -13.5t69 -49.5q31 -27 45.5 -36t34.5 -9q59 0 86 84q9 26 35 26h51q35 0 26 -36q-29 -103 -81.5 -156t-124.5 -53q-39 0 -70 14.5 t-68 48.5q-31 27 -45.5 36t-34.5 9q-59 0 -86 -84q-9 -26 -34 -26h-50q-36 0 -26 37z" />
<glyph unicode="&#xe4;" horiz-adv-x="933" d="M41 260q0 163 104.5 251.5t303.5 88.5h229l4 25q6 44 6 77q0 97 -50 143t-151 46q-113 0 -208 -76q-36 -28 -58 8l-35 58q-18 30 13 55q137 102 311 102q170 0 261 -80t91 -233q0 -43 -8 -90l-45 -279q-59 -381 -434 -381q-159 0 -246.5 75t-87.5 210zM211 266 q0 -143 176 -143q112 0 173 62.5t83 195.5l12 78h-200q-117 0 -180.5 -49.5t-63.5 -143.5zM330 1300q0 47 31 79t77 32q41 0 67.5 -26.5t26.5 -67.5q0 -47 -31.5 -78t-76.5 -31q-42 0 -68 26t-26 66zM672 1303q0 47 30.5 77.5t75.5 30.5q43 0 69.5 -26.5t26.5 -67.5 q0 -47 -31 -78t-77 -31q-41 0 -67.5 27t-26.5 68z" />
<glyph unicode="&#xe5;" horiz-adv-x="933" d="M41 260q0 163 104.5 251.5t303.5 88.5h229l4 25q6 44 6 77q0 97 -50 143t-151 46q-113 0 -208 -76q-36 -28 -58 8l-35 58q-18 30 13 55q137 102 311 102q170 0 261 -80t91 -233q0 -43 -8 -90l-45 -279q-59 -381 -434 -381q-159 0 -246.5 75t-87.5 210zM211 266 q0 -143 176 -143q112 0 173 62.5t83 195.5l12 78h-200q-117 0 -180.5 -49.5t-63.5 -143.5zM432 1298q0 79 54 132t130 53q67 0 111.5 -43.5t44.5 -108.5q0 -78 -53.5 -131t-128.5 -53q-69 0 -113.5 43t-44.5 108zM524 1305q0 -32 19 -50t51 -18q36 0 61 25t25 63 q0 31 -19.5 49.5t-50.5 18.5q-36 0 -61 -25t-25 -63z" />
<glyph unicode="&#xe6;" horiz-adv-x="1503" d="M41 258q0 163 103 250.5t302 87.5h232l4 29q6 44 6 80q0 96 -48.5 141t-150.5 45q-119 0 -217 -78q-32 -25 -53 10l-35 58q-18 30 11 53q139 104 307 104q236 0 295 -170h4q101 170 332 170q152 0 234.5 -79t82.5 -222q0 -28 -8 -90l-25 -158q-6 -34 -43 -34h-551 l-10 -66q-6 -43 -6 -78q0 -98 53.5 -143t163.5 -45q108 0 213 88q32 29 53 -6l37 -55q22 -31 -6 -56q-131 -119 -307 -119q-253 0 -314 172h-4q-102 -172 -344 -172q-146 0 -228.5 75.5t-82.5 207.5zM211 264q0 -141 174 -141q112 0 174 62.5t84 195.5l12 74h-204 q-117 0 -178.5 -48.5t-61.5 -142.5zM844 596h428l6 39q8 44 8 82q0 89 -43.5 131.5t-134.5 42.5q-109 0 -172.5 -63t-85.5 -195z" />
<glyph unicode="&#xe7;" horiz-adv-x="829" d="M72 291q0 26 8 88l43 270q61 389 428 389q170 0 272 -92q26 -26 0 -55l-49 -53q-23 -26 -53 0q-58 53 -170 53q-111 0 -175.5 -65t-86.5 -203l-37 -234q-6 -40 -6 -76q0 -98 50 -144t150 -46q93 0 183 70q31 28 55 -7l35 -51q21 -31 -6 -55q-123 -105 -287 -105l-25 -69 q63 -6 96 -36.5t33 -78.5q0 -69 -52 -106t-150 -37q-92 0 -154 35q-23 12 -10 41l18 40q12 27 41 11q56 -25 103 -25q39 0 61.5 13t22.5 34q0 25 -22.5 34t-72.5 9q-15 0 -21.5 9t-0.5 24l41 109q-126 22 -194 100.5t-68 208.5z" />
<glyph unicode="&#xe8;" horiz-adv-x="937" d="M72 287q0 48 8 92l43 278q62 381 422 381q163 0 251.5 -79t88.5 -226q0 -39 -6 -86l-25 -164q-6 -34 -43 -34h-551l-10 -60q-6 -44 -6 -76q0 -99 53 -144.5t164 -45.5q108 0 213 88q32 29 53 -6l37 -55q22 -31 -6 -56q-134 -119 -312 -119q-182 0 -278 79.5t-96 232.5z M283 590h428l6 45q6 43 6 78q0 91 -45 134.5t-137 43.5q-109 0 -169.5 -62.5t-82.5 -195.5zM387 1459.5q7 10.5 27 10.5h98q29 0 41 -26l113 -246q8 -17 1.5 -28t-26.5 -11h-80q-27 0 -39 23l-133 248q-9 19 -2 29.5z" />
<glyph unicode="&#xe9;" horiz-adv-x="937" d="M72 287q0 48 8 92l43 278q62 381 422 381q163 0 251.5 -79t88.5 -226q0 -39 -6 -86l-25 -164q-6 -34 -43 -34h-551l-10 -60q-6 -44 -6 -76q0 -99 53 -144.5t164 -45.5q108 0 213 88q32 29 53 -6l37 -55q22 -31 -6 -56q-134 -119 -312 -119q-182 0 -278 79.5t-96 232.5z M283 590h428l6 45q6 43 6 78q0 91 -45 134.5t-137 43.5q-109 0 -169.5 -62.5t-82.5 -195.5zM505.5 1171q-5.5 12 6.5 29l197 250q17 20 43 20h108q23 0 29.5 -13t-8.5 -30l-215 -249q-19 -19 -41 -19h-93q-21 0 -26.5 12z" />
<glyph unicode="&#xea;" horiz-adv-x="937" d="M72 287q0 48 8 92l43 278q62 381 422 381q163 0 251.5 -79t88.5 -226q0 -39 -6 -86l-25 -164q-6 -34 -43 -34h-551l-10 -60q-6 -44 -6 -76q0 -99 53 -144.5t164 -45.5q108 0 213 88q32 29 53 -6l37 -55q22 -31 -6 -56q-134 -119 -312 -119q-182 0 -278 79.5t-96 232.5z M283 590h428l6 45q6 43 6 78q0 91 -45 134.5t-137 43.5q-109 0 -169.5 -62.5t-82.5 -195.5zM323 1171q-5 12 9 29l213 250q17 20 43 20h92q29 0 41 -24l131 -248q9 -17 2.5 -28t-25.5 -11h-75q-26 0 -39 23l-90 170l-150 -174q-19 -19 -41 -19h-84q-22 0 -27 12z" />
<glyph unicode="&#xeb;" horiz-adv-x="937" d="M72 287q0 48 8 92l43 278q62 381 422 381q163 0 251.5 -79t88.5 -226q0 -39 -6 -86l-25 -164q-6 -34 -43 -34h-551l-10 -60q-6 -44 -6 -76q0 -99 53 -144.5t164 -45.5q108 0 213 88q32 29 53 -6l37 -55q22 -31 -6 -56q-134 -119 -312 -119q-182 0 -278 79.5t-96 232.5z M283 590h428l6 45q6 43 6 78q0 91 -45 134.5t-137 43.5q-109 0 -169.5 -62.5t-82.5 -195.5zM338 1300q0 47 31 79t77 32q41 0 68 -26.5t27 -67.5q0 -47 -32 -78t-77 -31q-42 0 -68 26t-26 66zM680 1303q0 47 30.5 77.5t75.5 30.5q43 0 70 -26.5t27 -67.5q0 -47 -31.5 -78 t-77.5 -31q-41 0 -67.5 27t-26.5 68z" />
<glyph unicode="&#xec;" horiz-adv-x="444" d="M61 41l150 938q6 35 43 35h90q20 0 30 -11t7 -30l-150 -938q-6 -35 -43 -35h-90q-20 0 -30 11t-7 30zM125 1459.5q7 10.5 27 10.5h98q29 0 41 -26l112 -246q17 -39 -24 -39h-80q-27 0 -39 23l-133 248q-9 19 -2 29.5z" />
<glyph unicode="&#xed;" horiz-adv-x="444" d="M61 41l150 938q6 35 43 35h90q20 0 30 -11t7 -30l-150 -938q-6 -35 -43 -35h-90q-20 0 -30 11t-7 30zM243.5 1171q-5.5 12 6.5 29l196 250q17 20 43 20h109q23 0 29 -13t-9 -30l-215 -249q-19 -19 -41 -19h-92q-21 0 -26.5 12z" />
<glyph unicode="&#xee;" horiz-adv-x="444" d="M61 41l150 938q6 35 43 35h90q20 0 30 -11t7 -30l-150 -938q-6 -35 -43 -35h-90q-20 0 -30 11t-7 30zM61 1171q-5 12 9 29l213 250q17 20 43 20h92q29 0 41 -24l131 -248q9 -17 2.5 -28t-25.5 -11h-75q-26 0 -39 23l-91 170l-149 -174q-19 -19 -41 -19h-84q-22 0 -27 12z " />
<glyph unicode="&#xef;" horiz-adv-x="444" d="M61 41l150 938q6 35 43 35h90q20 0 30 -11t7 -30l-150 -938q-6 -35 -43 -35h-90q-20 0 -30 11t-7 30zM76 1300q0 47 31 79t77 32q41 0 68 -26.5t27 -67.5q0 -47 -32 -78t-77 -31q-42 0 -68 26t-26 66zM418 1303q0 47 30.5 77.5t75.5 30.5q43 0 70 -26.5t27 -67.5 q0 -47 -31.5 -78t-77.5 -31q-41 0 -67.5 27t-26.5 68z" />
<glyph unicode="&#xf0;" horiz-adv-x="989" d="M72 283q0 39 6 86l43 270q62 379 401 379q149 0 219 -98h4q-6 176 -90 266l-139 -96q-30 -20 -49 8l-35 51q-18 27 10 49l93 66v4q-71 24 -164 39q-20 1 -29 14t-4 33l18 73q9 35 45 29q173 -21 287 -88l103 72q29 22 49 -8l34 -52q18 -27 -10 -49l-69 -49 q120 -135 120 -393q0 -114 -20 -240l-47 -293q-62 -381 -428 -381q-167 0 -257.5 80t-90.5 228zM244 301q0 -91 45.5 -134.5t138.5 -43.5q110 0 171 63t81 195l37 233q6 40 6 72q0 184 -182 184q-110 0 -171 -62.5t-83 -195.5l-37 -233q-6 -43 -6 -78z" />
<glyph unicode="&#xf1;" horiz-adv-x="1011" d="M53 41l99 625q59 372 419 372q164 0 253 -78t89 -223q0 -41 -6 -84l-98 -618q-6 -35 -43 -35h-90q-20 0 -30 11t-7 30l96 600q6 40 6 76q0 174 -178 174q-106 0 -166 -62t-80 -190l-94 -604q-6 -35 -43 -35h-90q-20 0 -30 11t-7 30zM322 1217q56 208 206 208 q38 0 67 -13.5t69 -49.5q31 -28 45 -36.5t34 -8.5q59 0 86 84q9 26 35 26h51q36 0 27 -36q-29 -103 -82 -156t-125 -53q-39 0 -69 14t-68 49q-31 27 -45.5 36t-34.5 9q-59 0 -86 -84q-9 -26 -35 -26h-49q-36 0 -26 37z" />
<glyph unicode="&#xf2;" horiz-adv-x="972" d="M70 283q0 41 6 84l47 290q62 381 428 381q167 0 257.5 -79.5t90.5 -227.5q0 -37 -6 -84l-45 -293q-59 -379 -428 -379q-167 0 -258.5 80t-91.5 228zM244 301q0 -178 184 -178q110 0 171 63t81 195l41 254q6 43 6 78q0 178 -184 178q-108 0 -169 -63t-83 -195l-41 -254 q-6 -43 -6 -78zM389 1459.5q7 10.5 27 10.5h98q29 0 41 -26l113 -246q8 -17 1.5 -28t-26.5 -11h-80q-27 0 -39 23l-133 248q-9 19 -2 29.5z" />
<glyph unicode="&#xf3;" horiz-adv-x="972" d="M70 283q0 41 6 84l47 290q62 381 428 381q167 0 257.5 -79.5t90.5 -227.5q0 -37 -6 -84l-45 -293q-59 -379 -428 -379q-167 0 -258.5 80t-91.5 228zM244 301q0 -178 184 -178q110 0 171 63t81 195l41 254q6 43 6 78q0 178 -184 178q-108 0 -169 -63t-83 -195l-41 -254 q-6 -43 -6 -78zM507.5 1171q-5.5 12 6.5 29l197 250q17 20 43 20h108q23 0 29.5 -13t-8.5 -30l-215 -249q-19 -19 -41 -19h-92q-22 0 -27.5 12z" />
<glyph unicode="&#xf4;" horiz-adv-x="972" d="M70 283q0 41 6 84l47 290q62 381 428 381q167 0 257.5 -79.5t90.5 -227.5q0 -37 -6 -84l-45 -293q-59 -379 -428 -379q-167 0 -258.5 80t-91.5 228zM244 301q0 -178 184 -178q110 0 171 63t81 195l41 254q6 43 6 78q0 178 -184 178q-108 0 -169 -63t-83 -195l-41 -254 q-6 -43 -6 -78zM325 1171q-5 12 9 29l213 250q17 20 43 20h92q29 0 41 -24l131 -248q9 -17 2.5 -28t-25.5 -11h-75q-26 0 -39 23l-90 170l-150 -174q-19 -19 -41 -19h-84q-22 0 -27 12z" />
<glyph unicode="&#xf5;" horiz-adv-x="972" d="M70 283q0 41 6 84l47 290q62 381 428 381q167 0 257.5 -79.5t90.5 -227.5q0 -37 -6 -84l-45 -293q-59 -379 -428 -379q-167 0 -258.5 80t-91.5 228zM244 301q0 -178 184 -178q110 0 171 63t81 195l41 254q6 43 6 78q0 178 -184 178q-108 0 -169 -63t-83 -195l-41 -254 q-6 -43 -6 -78zM301 1217q28 102 80.5 155t126.5 53q38 0 66 -13.5t69 -49.5q31 -27 45.5 -36t34.5 -9q59 0 86 84q9 26 35 26h51q36 0 27 -36q-29 -103 -82 -156t-125 -53q-39 0 -69 14t-68 49q-31 27 -45.5 36t-34.5 9q-59 0 -86 -84q-9 -26 -35 -26h-49q-17 0 -24.5 10 t-2.5 27z" />
<glyph unicode="&#xf6;" horiz-adv-x="972" d="M70 283q0 41 6 84l47 290q62 381 428 381q167 0 257.5 -79.5t90.5 -227.5q0 -37 -6 -84l-45 -293q-59 -379 -428 -379q-167 0 -258.5 80t-91.5 228zM244 301q0 -178 184 -178q110 0 171 63t81 195l41 254q6 43 6 78q0 178 -184 178q-108 0 -169 -63t-83 -195l-41 -254 q-6 -43 -6 -78zM340 1300q0 47 31.5 79t77.5 32q41 0 67.5 -26.5t26.5 -67.5q0 -47 -32 -78t-77 -31q-42 0 -68 26t-26 66zM682 1303q0 47 30.5 77.5t75.5 30.5q43 0 70 -26.5t27 -67.5q0 -47 -31.5 -78t-77.5 -31q-41 0 -67.5 27t-26.5 68z" />
<glyph unicode="&#xf7;" d="M47 532l12 82q6 35 43 35h916q43 0 37 -41l-13 -82q-6 -34 -43 -34h-915q-43 0 -37 40zM377 154q0 52 34.5 86t84.5 34q45 0 73.5 -28.5t28.5 -71.5q0 -52 -34.5 -86.5t-84.5 -34.5q-46 0 -74 28.5t-28 72.5zM506 969q0 52 34.5 86.5t84.5 34.5q45 0 73.5 -29t28.5 -72 q0 -52 -34.5 -86.5t-84.5 -34.5q-46 0 -74 28.5t-28 72.5z" />
<glyph unicode="&#xf8;" horiz-adv-x="972" d="M39 90l53 64q-22 58 -22 129q0 41 6 84l47 290q62 381 428 381q154 0 240 -65l38 45q24 28 50 2l51 -47q24 -21 2 -49l-55 -64q22 -61 22 -129q0 -37 -6 -84l-45 -293q-59 -379 -428 -379q-153 0 -240 66l-39 -45q-24 -27 -49 -2l-51 47q-24 21 -2 49zM244 336h4l434 510 q-45 45 -139 45q-108 0 -169 -63t-83 -195l-41 -254q-6 -37 -6 -43zM289 168q45 -45 139 -45q109 0 169.5 62.5t82.5 195.5l41 254q6 30 6 43h-4z" />
<glyph unicode="&#xf9;" horiz-adv-x="999" d="M96 270q0 40 6 84l99 625q6 35 43 35h90q20 0 30 -11t7 -30l-97 -608q-6 -41 -6 -70q0 -89 43 -130.5t133 -41.5q105 0 162.5 57.5t77.5 181.5l96 617q6 35 43 35h86q20 0 30 -11t7 -30l-100 -631q-59 -367 -412 -367q-163 0 -250.5 76.5t-87.5 218.5zM406 1430 q-19 40 24 40h98q29 0 41 -26l113 -246q8 -17 1.5 -28t-26.5 -11h-79q-28 0 -39 23z" />
<glyph unicode="&#xfa;" horiz-adv-x="999" d="M96 270q0 40 6 84l99 625q6 35 43 35h90q20 0 30 -11t7 -30l-97 -608q-6 -41 -6 -70q0 -89 43 -130.5t133 -41.5q105 0 162.5 57.5t77.5 181.5l96 617q6 35 43 35h86q20 0 30 -11t7 -30l-100 -631q-59 -367 -412 -367q-163 0 -250.5 76.5t-87.5 218.5zM521.5 1171 q-5.5 12 6.5 29l197 250q17 20 43 20h109q23 0 29 -13t-9 -30l-215 -249q-19 -19 -41 -19h-92q-22 0 -27.5 12z" />
<glyph unicode="&#xfb;" horiz-adv-x="999" d="M96 270q0 40 6 84l99 625q6 35 43 35h90q20 0 30 -11t7 -30l-97 -608q-6 -41 -6 -70q0 -89 43 -130.5t133 -41.5q105 0 162.5 57.5t77.5 181.5l96 617q6 35 43 35h86q20 0 30 -11t7 -30l-100 -631q-59 -367 -412 -367q-163 0 -250.5 76.5t-87.5 218.5zM339.5 1171 q-5.5 12 8.5 29l213 250q17 20 43 20h92q29 0 41 -24l131 -248q9 -17 3 -28t-25 -11h-76q-26 0 -39 23l-90 170l-149 -174q-19 -19 -41 -19h-84q-22 0 -27.5 12z" />
<glyph unicode="&#xfc;" horiz-adv-x="999" d="M96 270q0 40 6 84l99 625q6 35 43 35h90q20 0 30 -11t7 -30l-97 -608q-6 -41 -6 -70q0 -89 43 -130.5t133 -41.5q105 0 162.5 57.5t77.5 181.5l96 617q6 35 43 35h86q20 0 30 -11t7 -30l-100 -631q-59 -367 -412 -367q-163 0 -250.5 76.5t-87.5 218.5zM354 1300 q0 47 31.5 79t77.5 32q41 0 67.5 -26.5t26.5 -67.5q0 -47 -31.5 -78t-76.5 -31q-42 0 -68.5 26t-26.5 66zM696 1303q0 47 31 77.5t76 30.5q43 0 69.5 -26.5t26.5 -67.5q0 -47 -31 -78t-77 -31q-41 0 -68 27t-27 68z" />
<glyph unicode="&#xfd;" horiz-adv-x="1021" d="M49 -182l45 57q25 31 56 4q90 -84 231 -84q108 0 173.5 59.5t82.5 170.5l12 75h-4q-89 -92 -239 -92q-148 0 -227 75t-79 216q0 44 9 94l92 586q6 35 43 35h90q20 0 30 -11t7 -30l-90 -570q-7 -47 -7 -73q0 -174 179 -174q105 0 165 62t80 188l90 573q6 35 43 35h91 q20 0 29.5 -11t6.5 -30l-155 -969q-26 -170 -136 -263t-286 -93q-210 0 -330 114q-26 26 -2 56zM528.5 1171q-5.5 12 6.5 29l196 250q17 20 43 20h109q23 0 29 -13t-9 -30l-215 -249q-19 -19 -41 -19h-92q-21 0 -26.5 12z" />
<glyph unicode="&#xfe;" horiz-adv-x="1009" d="M8 -287l268 1686q6 35 43 35h91q20 0 29.5 -11t6.5 -30l-71 -449h4q88 94 242 94q153 0 235 -77t82 -220q0 -50 -8 -94l-45 -291q-62 -381 -406 -381q-173 0 -235 117h-4l-62 -385q-6 -35 -43 -35h-90q-20 0 -30 11t-7 30zM281 307q0 -184 186 -184q109 0 169.5 63 t82.5 195l41 254q6 43 6 76q0 92 -46 136t-140 44q-213 0 -254 -258l-39 -254q-6 -41 -6 -72z" />
<glyph unicode="&#xff;" horiz-adv-x="1021" d="M49 -182l45 57q25 31 56 4q90 -84 231 -84q108 0 173.5 59.5t82.5 170.5l12 75h-4q-89 -92 -239 -92q-148 0 -227 75t-79 216q0 44 9 94l92 586q6 35 43 35h90q20 0 30 -11t7 -30l-90 -570q-7 -47 -7 -73q0 -174 179 -174q105 0 165 62t80 188l90 573q6 35 43 35h91 q20 0 29.5 -11t6.5 -30l-155 -969q-26 -170 -136 -263t-286 -93q-210 0 -330 114q-26 26 -2 56zM360 1300q0 47 31.5 79t77.5 32q41 0 67.5 -26.5t26.5 -67.5q0 -47 -31.5 -78t-76.5 -31q-42 0 -68.5 26t-26.5 66zM702 1303q0 47 31 77.5t76 30.5q43 0 69.5 -26.5 t26.5 -67.5q0 -47 -31 -78t-77 -31q-41 0 -68 27t-27 68z" />
<glyph unicode="&#x152;" horiz-adv-x="1806" d="M98 367q0 39 11 110l67 424q37 232 172 345.5t379 113.5h1081q43 0 37 -41l-12 -86q-6 -35 -43 -35h-633l-70 -430h537q43 0 37 -41l-12 -86q-6 -35 -43 -35h-543l-72 -444h627q43 0 37 -41l-13 -86q-6 -35 -43 -35h-1069q-212 0 -322 93.5t-110 273.5zM287 397 q0 -120 65.5 -177.5t200.5 -57.5h254l166 1036h-252q-160 0 -250.5 -81.5t-116.5 -248.5l-59 -379q-8 -44 -8 -92z" />
<glyph unicode="&#x153;" horiz-adv-x="1542" d="M70 281q0 39 6 86l47 290q62 381 414 381q240 0 299 -168h4q98 168 327 168q152 0 237 -80t85 -225q0 -39 -6 -86l-27 -164q-6 -34 -43 -34h-551l-10 -60q-6 -43 -6 -78q0 -100 52.5 -144t164.5 -44q109 0 209 86q31 28 55 -6l39 -56q22 -28 -6 -53q-131 -119 -301 -119 q-253 0 -318 175h-4q-99 -175 -331 -175q-161 0 -248.5 79t-87.5 227zM244 301q0 -178 184 -178q109 0 169.5 62.5t82.5 195.5l41 254q6 43 6 78q0 178 -184 178q-108 0 -169 -63t-83 -195l-41 -254q-6 -43 -6 -78zM885 590h428l6 45q6 43 6 78q0 91 -45 134.5t-137 43.5 q-108 0 -169 -63t-83 -195z" />
<glyph unicode="&#x178;" horiz-adv-x="1085" d="M154.5 1347.5q7.5 12.5 29.5 12.5h121q33 0 45 -31l232 -559l405 565q19 25 49 25h127q25 0 32 -13.5t-7 -33.5l-541 -719l-88 -559q-6 -35 -43 -35h-104q-43 0 -37 41l88 563l-307 711q-9 20 -1.5 32.5zM449 1634q0 47 31 79t77 32q41 0 67.5 -26.5t26.5 -67.5 q0 -47 -31.5 -78t-76.5 -31q-42 0 -68 26t-26 66zM791 1636q0 47 30.5 78t75.5 31q43 0 69.5 -26.5t26.5 -67.5q0 -47 -31 -78t-77 -31q-41 0 -67.5 26.5t-26.5 67.5z" />
<glyph unicode="&#x2c6;" horiz-adv-x="1024" d="M353.5 1171q-5.5 12 8.5 29l213 250q17 20 43 20h93q29 0 41 -24l131 -248q9 -17 2.5 -28t-25.5 -11h-76q-26 0 -39 23l-90 170l-149 -174q-19 -19 -41 -19h-84q-22 0 -27.5 12z" />
<glyph unicode="&#x2dc;" horiz-adv-x="1024" d="M328 1217q28 102 80.5 155t126.5 53q38 0 66 -13.5t69 -49.5q31 -27 45.5 -36t34.5 -9q59 0 86 84q9 26 34 26h52q35 0 26 -36q-29 -103 -82 -156t-125 -53q-39 0 -69 14t-68 49q-31 27 -45.5 36t-34.5 9q-59 0 -86 -84q-9 -26 -35 -26h-49q-36 0 -26 37z" />
<glyph unicode="&#x2000;" horiz-adv-x="908" />
<glyph unicode="&#x2001;" horiz-adv-x="1817" />
<glyph unicode="&#x2002;" horiz-adv-x="908" />
<glyph unicode="&#x2003;" horiz-adv-x="1817" />
<glyph unicode="&#x2004;" horiz-adv-x="605" />
<glyph unicode="&#x2005;" horiz-adv-x="454" />
<glyph unicode="&#x2006;" horiz-adv-x="302" />
<glyph unicode="&#x2007;" horiz-adv-x="302" />
<glyph unicode="&#x2008;" horiz-adv-x="227" />
<glyph unicode="&#x2009;" horiz-adv-x="363" />
<glyph unicode="&#x200a;" horiz-adv-x="100" />
<glyph unicode="&#x2010;" horiz-adv-x="679" d="M63 518l13 86q6 35 43 35h477q43 0 37 -41l-12 -86q-6 -35 -43 -35h-478q-43 0 -37 41z" />
<glyph unicode="&#x2011;" horiz-adv-x="679" d="M63 518l13 86q6 35 43 35h477q43 0 37 -41l-12 -86q-6 -35 -43 -35h-478q-43 0 -37 41z" />
<glyph unicode="&#x2012;" horiz-adv-x="679" d="M63 518l13 86q6 35 43 35h477q43 0 37 -41l-12 -86q-6 -35 -43 -35h-478q-43 0 -37 41z" />
<glyph unicode="&#x2013;" horiz-adv-x="1024" d="M66 526l10 68q3 33 37 33h831q37 0 31 -37l-10 -68q-3 -33 -37 -33h-832q-36 0 -30 37z" />
<glyph unicode="&#x2014;" horiz-adv-x="1843" d="M66 526l10 68q3 33 37 33h1650q37 0 31 -37l-10 -68q-3 -33 -37 -33h-1651q-36 0 -30 37z" />
<glyph unicode="&#x2018;" horiz-adv-x="477" d="M213 1051q0 84 53 171.5t144 155.5q20 17 36 -6l27 -35q17 -20 -4 -37q-82 -68 -102 -151q32 -9 50.5 -32.5t18.5 -57.5q0 -56 -33.5 -87.5t-87.5 -31.5q-46 0 -74 30t-28 81z" />
<glyph unicode="&#x2019;" horiz-adv-x="477" d="M211 987q-17 20 4 37q82 68 102 152q-32 9 -50.5 32.5t-18.5 57.5q0 56 33.5 87t87.5 31q46 0 74 -29.5t28 -80.5q0 -84 -53 -172t-144 -156q-20 -17 -36 6z" />
<glyph unicode="&#x201a;" horiz-adv-x="477" d="M23 -195q-17 20 4 37q82 68 102 152q-33 9 -51.5 33t-18.5 57q0 56 33.5 87.5t87.5 31.5q46 0 74.5 -30t28.5 -81q0 -84 -53 -172t-144 -156q-20 -17 -37 7z" />
<glyph unicode="&#x201c;" horiz-adv-x="839" d="M213 1051q0 84 53 171.5t144 155.5q20 17 36 -6l27 -35q17 -20 -4 -37q-82 -68 -102 -151q32 -9 50.5 -32.5t18.5 -57.5q0 -56 -33.5 -87.5t-87.5 -31.5q-46 0 -74 30t-28 81zM575 1051q0 84 53 171.5t144 155.5q21 17 37 -6l27 -35q16 -19 -5 -37q-82 -68 -102 -151 q33 -9 51.5 -33t18.5 -57q0 -56 -33.5 -87.5t-87.5 -31.5q-46 0 -74.5 30t-28.5 81z" />
<glyph unicode="&#x201d;" horiz-adv-x="839" d="M211 987q-17 20 4 37q82 68 102 152q-32 9 -50.5 32.5t-18.5 57.5q0 56 33.5 87t87.5 31q46 0 74 -29.5t28 -80.5q0 -84 -53 -172t-144 -156q-20 -17 -36 6zM573 987q-16 19 5 37q82 68 102 152q-33 9 -51.5 33t-18.5 57q0 56 33.5 87t87.5 31q46 0 74.5 -30t28.5 -80 q0 -84 -53 -172t-144 -156q-21 -17 -37 6z" />
<glyph unicode="&#x201e;" horiz-adv-x="839" d="M23 -195q-17 20 4 37q82 68 102 152q-33 9 -51.5 33t-18.5 57q0 56 33.5 87.5t87.5 31.5q46 0 74.5 -30t28.5 -81q0 -84 -53 -172t-144 -156q-20 -17 -37 7zM385 -195q-17 20 4 37q83 69 103 152q-33 9 -51.5 33t-18.5 57q0 56 33.5 87.5t87.5 31.5q46 0 74 -30t28 -81 q0 -85 -52.5 -172.5t-143.5 -155.5q-20 -17 -37 7z" />
<glyph unicode="&#x2022;" horiz-adv-x="1024" d="M264 580q0 117 83 198.5t198 81.5q104 0 172.5 -69.5t68.5 -172.5q0 -116 -82 -198t-196 -82q-104 0 -174 69.5t-70 172.5z" />
<glyph unicode="&#x2026;" horiz-adv-x="1843" d="M160 80q0 52 36 87.5t87 35.5q46 0 75 -30t29 -75q0 -53 -35.5 -88t-87.5 -35q-46 0 -75 29.5t-29 75.5zM741 80q0 52 36 87.5t87 35.5q47 0 76 -30t29 -75q0 -53 -35.5 -88t-87.5 -35q-46 0 -75.5 29.5t-29.5 75.5zM1321 80q0 52 36 87.5t87 35.5q46 0 75 -30t29 -75 q0 -53 -35.5 -88t-87.5 -35q-46 0 -75 29.5t-29 75.5z" />
<glyph unicode="&#x202f;" horiz-adv-x="363" />
<glyph unicode="&#x2039;" horiz-adv-x="514" d="M59 481q-11 23 7 47l270 346q18 21 43 21h86q22 0 27.5 -12t-7.5 -31l-278 -354l162 -338q9 -19 2 -30t-27 -11h-78q-29 0 -41 24z" />
<glyph unicode="&#x203a;" horiz-adv-x="514" d="M21.5 131q-5.5 12 7.5 31l278 354l-162 338q-9 19 -2 30t27 11h78q28 0 41 -25l166 -340q12 -23 -6 -47l-271 -344q-17 -20 -43 -20h-86q-22 0 -27.5 12z" />
<glyph unicode="&#x205f;" horiz-adv-x="454" />
<glyph unicode="&#x20ac;" d="M63 467l13 72q3 32 37 32h69l23 146h-64q-38 0 -32 37l12 71q3 33 37 33h69q35 220 158.5 332.5t327.5 112.5q133 0 232.5 -53t146.5 -150q15 -35 -19 -53l-76 -41q-33 -17 -51 18q-69 123 -244 123q-250 0 -296 -289h395q41 0 28 -41l-28 -74q-9 -26 -39 -26h-381 l-23 -146h336q42 0 29 -41l-29 -73q-9 -27 -39 -27h-321q-6 -44 -6 -78q0 -221 229 -221q166 0 270 135q25 36 54 10l63 -51q29 -23 8 -53q-144 -197 -415 -197q-182 0 -283.5 92.5t-101.5 262.5q0 53 8 100h-64q-39 0 -33 37z" />
<glyph unicode="&#x2122;" horiz-adv-x="1574" d="M152 1284l8 47q6 29 33 29h464q15 0 23.5 -9t5.5 -24l-8 -47q-6 -29 -33 -29h-174l-94 -587q-3 -29 -33 -29h-59q-15 0 -22.5 9t-4.5 24l92 583h-170q-15 0 -23 9t-5 24zM711 668l104 663q3 29 33 29h119q26 0 32 -27l117 -518h4l283 522q11 23 37 23h127q15 0 22 -9 t4 -24l-104 -663q-3 -29 -33 -29h-59q-15 0 -22.5 9t-4.5 24l86 542h-4l-301 -553q-11 -22 -37 -22h-41q-27 0 -33 27l-122 538h-5l-88 -536q-3 -29 -32 -29h-56q-15 0 -22 9t-4 24z" />
<glyph unicode="&#x25fc;" horiz-adv-x="1013" d="M0 0v1014h1014v-1014h-1014z" />
</font>
</defs>
</svg>
