<?xml version="1.0" standalone="no"?>
<!DOCTYPE svg PUBLIC "-//W3C//DTD SVG 1.1//EN" "http://www.w3.org/Graphics/SVG/1.1/DTD/svg11.dtd" >
<svg xmlns="http://www.w3.org/2000/svg">
<metadata></metadata>
<defs>
<font id="kirolight_italic" horiz-adv-x="1083" >
<font-face units-per-em="2048" ascent="1577" descent="-471" />
<missing-glyph horiz-adv-x="440" />
<glyph unicode="&#xfb01;" horiz-adv-x="1038" d="M106 934l9 47q3 29 32 29h125l19 112q26 164 121.5 250t255.5 86q151 0 256 -78q22 -19 4 -43l-31 -39q-17 -23 -43 -4q-71 56 -188 56q-213 0 -252 -240l-17 -100h541q15 0 22.5 -9t4.5 -24l-150 -948q-3 -29 -33 -29h-63q-15 0 -22.5 9t-4.5 24l137 868h-448l-139 -872 q-3 -29 -33 -29h-64q-15 0 -22 9t-4 24l137 868h-123q-15 0 -22.5 9t-4.5 24z" />
<glyph unicode="&#xfb02;" horiz-adv-x="1058" d="M106 934l9 47q3 29 32 29h125l17 98q27 168 126 259t261 91q149 0 252 -69l2 16q3 29 33 29h63q15 0 22.5 -9t4.5 -24l-217 -1372q-3 -29 -33 -29h-64q-15 0 -22 9t-4 24l194 1224q-36 40 -98 66.5t-135 26.5q-107 0 -174 -66t-88 -188l-15 -86h283q15 0 22.5 -9t4.5 -24 l-9 -47q-3 -29 -32 -29h-285l-139 -872q-3 -29 -33 -29h-64q-15 0 -22 9t-4 24l137 868h-123q-15 0 -22.5 9t-4.5 24z" />
<glyph unicode="&#xfb03;" horiz-adv-x="1613" d="M106 934l9 47q3 29 32 29h125l13 77q26 167 127 259t264 92q167 0 282 -99q96 119 287 119q151 0 256 -78q22 -19 4 -43l-30 -39q-17 -23 -43 -4q-71 56 -189 56q-213 0 -252 -240l-16 -100h541q15 0 22 -9t4 -24l-149 -948q-3 -29 -33 -29h-64q-15 0 -22 9t-4 24 l137 868h-449l-139 -872q-3 -29 -33 -29h-63q-15 0 -22.5 9t-4.5 24l138 868h-453l-139 -872q-3 -29 -33 -29h-64q-15 0 -22 9t-4 24l137 868h-123q-15 0 -22.5 9t-4.5 24zM397 1010h453l18 112q9 59 31 115q-79 92 -225 92q-108 0 -177.5 -66.5t-88.5 -187.5z" />
<glyph unicode="&#xfb04;" horiz-adv-x="1634" d="M106 934l9 47q3 29 32 29h125l13 77q26 167 127 259t264 92q84 0 159.5 -28t125.5 -73q102 121 292 121q149 0 252 -69l2 16q3 29 33 29h64q15 0 22 -9t4 -24l-217 -1372q-3 -29 -33 -29h-63q-15 0 -22.5 9t-4.5 24l195 1224q-36 40 -98.5 66.5t-135.5 26.5 q-107 0 -174 -66t-88 -188l-14 -86h282q15 0 22.5 -9t4.5 -24l-8 -47q-3 -29 -33 -29h-285l-139 -872q-3 -29 -33 -29h-63q-15 0 -22.5 9t-4.5 24l138 868h-453l-139 -872q-3 -29 -33 -29h-64q-15 0 -22 9t-4 24l137 868h-123q-15 0 -22.5 9t-4.5 24zM397 1010h453l16 98 q12 71 35 127q-81 94 -227 94q-108 0 -177.5 -66.5t-88.5 -187.5z" />
<glyph horiz-adv-x="0" />
<glyph horiz-adv-x="682" />
<glyph unicode=" "  horiz-adv-x="440" />
<glyph unicode="&#x09;" horiz-adv-x="440" />
<glyph unicode="&#xa0;" horiz-adv-x="440" />
<glyph unicode="!" horiz-adv-x="454" d="M66 59q0 41 30 70t70 29q37 0 60.5 -23.5t23.5 -58.5q0 -43 -28.5 -72t-71.5 -29q-37 0 -60.5 23.5t-23.5 60.5zM170 365l35 391l92 575q3 29 33 29h63q15 0 22.5 -9t4.5 -24l-90 -571l-86 -396q-3 -18 -23 -18h-33q-21 0 -18 23z" />
<glyph unicode="&#x22;" horiz-adv-x="724" d="M229 946l41 385q3 29 33 29h64q35 0 28 -33l-80 -385q-3 -22 -26 -22h-35q-12 0 -19 7t-6 19zM547 946l41 385q3 29 33 29h63q36 0 29 -33l-80 -385q-3 -22 -27 -22h-35q-27 0 -24 26z" />
<glyph unicode="#" d="M33 430l16 47q10 23 33 23h186l107 319h-176q-35 0 -25 33l14 45q9 25 33 25h189l110 331q7 25 33 25h47q34 0 25 -31l-109 -325h277l110 331q7 25 33 25h47q34 0 25 -31l-109 -325h176q15 0 22 -9t3 -24l-17 -47q-10 -23 -32 -23h-187l-106 -319h176q15 0 21.5 -9 t2.5 -24l-16 -47q-10 -23 -33 -23h-184l-125 -374q-7 -23 -33 -23h-49q-15 0 -22 8.5t-2 22.5l122 366h-274l-125 -374q-7 -23 -33 -23h-49q-15 0 -22 8.5t-2 22.5l122 366h-176q-15 0 -21.5 9t-2.5 24zM375 500h276l107 319h-277z" />
<glyph unicode="$" d="M70 211q-16 25 10 41l49 35q24 18 43 -11q82 -130 264 -145l74 457q-173 22 -248.5 87t-75.5 189q0 170 116 276.5t314 116.5l19 127q3 25 29 25h59q28 0 25 -29l-21 -123q207 -18 295 -165q15 -24 -8 -41l-51 -35q-24 -18 -43 10q-66 104 -209 119l-74 -459 q171 -20 246 -85t75 -189q0 -171 -116 -278t-312 -116l-20 -137q-3 -24 -29 -24h-59q-28 0 -25 28l23 133q-238 20 -350 193zM315 883q0 -77 49.5 -120.5t161.5 -60.5l72 445q-131 -12 -207 -83t-76 -181zM549 131q131 12 206.5 83t75.5 181q0 77 -50.5 119t-162.5 57z" />
<glyph unicode="%" horiz-adv-x="1282" d="M100 10q-5 10 6 23l1002 1229q13 16 35 16h59q18 0 23 -10t-6 -23l-1004 -1229q-11 -16 -33 -16h-59q-18 0 -23 10zM125 842q0 37 4 57l27 158q41 246 266 246q104 0 161.5 -53t57.5 -150q0 -17 -4 -53l-25 -158q-20 -123 -87.5 -185.5t-178.5 -62.5q-105 0 -163 52.5 t-58 148.5zM225 846q0 -59 29.5 -86t93.5 -27q76 0 114 39t52 127l25 150q4 36 4 49q0 59 -30.5 85.5t-94.5 26.5q-76 0 -114 -39t-52 -127l-23 -147q-4 -36 -4 -51zM682 176q0 37 4 57l27 158q41 246 266 246q104 0 161.5 -53t57.5 -150q0 -17 -4 -53l-25 -158 q-20 -123 -87.5 -185.5t-178.5 -62.5q-105 0 -163 52.5t-58 148.5zM782 180q0 -59 29.5 -85.5t93.5 -26.5q76 0 114 38.5t52 126.5l25 150q4 36 4 49q0 59 -30.5 86t-94.5 27q-76 0 -114 -39t-52 -127l-23 -148q-4 -36 -4 -51z" />
<glyph unicode="&#x26;" horiz-adv-x="1193" d="M49 319q0 147 72 258.5t231 204.5q-69 115 -69 228q0 174 108 274t297 100q83 0 156 -25t123 -69q21 -18 0 -43l-35 -41q-20 -22 -45 0q-72 66 -199 66t-202.5 -69.5t-75.5 -186.5q0 -115 98 -242l346 -442q98 135 170 317q14 31 41 19l51 -21q29 -13 17 -41 q-93 -225 -205 -370l155 -199q11 -15 6 -26t-24 -11h-88q-22 0 -37 18l-96 123q-172 -166 -414 -166q-176 0 -278.5 93.5t-102.5 250.5zM178 330q0 -110 72.5 -176t198.5 -66q175 0 323 148l-356 454q-238 -139 -238 -360z" />
<glyph unicode="'" horiz-adv-x="407" d="M229 946l41 385q3 29 33 29h64q35 0 28 -33l-80 -385q-3 -22 -26 -22h-35q-12 0 -19 7t-6 19z" />
<glyph unicode="(" horiz-adv-x="655" d="M170 387q0 115 20 231.5t63.5 240.5t120 249t181.5 235q14 17 37 17h55q19 0 19 -15.5t-17 -35.5q-124 -148 -206 -318.5t-115 -319t-33 -290.5q0 -299 133 -533q16 -32 -20 -32h-56q-23 0 -35 18q-147 246 -147 553z" />
<glyph unicode=")" horiz-adv-x="655" d="M18 -168.5q0 15.5 17 35.5q124 148 206 318.5t115 319t33 290.5q0 298 -133 532q-16 33 20 33h56q22 0 35 -19q147 -246 147 -553q0 -115 -20 -231.5t-63.5 -240.5t-120 -249t-181.5 -235q-13 -16 -37 -16h-55q-19 0 -19 15.5z" />
<glyph unicode="*" horiz-adv-x="972" d="M147 1108l19 49q10 30 39 17l332 -132l-2 361q0 31 30 31h53q32 0 29 -33l-43 -357l338 130q32 13 41 -19l14 -47q9 -30 -22 -39l-357 -92l218 -279q20 -23 -7 -43l-45 -30q-26 -19 -43 8l-178 305l-209 -305q-18 -27 -43 -8l-41 30q-23 17 -4 43l246 281l-344 90 q-30 9 -21 39z" />
<glyph unicode="+" d="M51 547l8 53q3 29 33 29h412l65 411q3 29 33 29h53q15 0 22.5 -9t4.5 -24l-64 -407h408q15 0 22.5 -9t4.5 -24l-9 -53q-3 -29 -32 -29h-412l-65 -412q-3 -28 -33 -28h-53q-33 0 -27 32l63 408h-407q-15 0 -22.5 9t-4.5 24z" />
<glyph unicode="," horiz-adv-x="450" d="M31 -182q-12 15 4 28q71 58 96 144q-29 6 -46 26.5t-17 51.5q0 40 27.5 65t68.5 25q36 0 59 -22.5t23 -61.5q0 -64 -44.5 -143.5t-123.5 -139.5q-16 -13 -29 4z" />
<glyph unicode="-" horiz-adv-x="675" d="M66 528l10 60q3 28 33 28h491q33 0 27 -32l-11 -60q-3 -28 -32 -28h-490q-31 0 -28 32z" />
<glyph unicode="." horiz-adv-x="450" d="M66 59q0 41 30 70t70 29q37 0 60.5 -23.5t23.5 -58.5q0 -43 -28.5 -72t-71.5 -29q-37 0 -60.5 23.5t-23.5 60.5z" />
<glyph unicode="/" horiz-adv-x="718" d="M-16.5 10q-5.5 10 2.5 25l690 1304q9 21 33 21h59q17 0 22.5 -10t-2.5 -25l-690 -1305q-9 -20 -32 -20h-60q-17 0 -22.5 10z" />
<glyph unicode="0" d="M92 317q0 56 8 105l70 444q68 437 479 437q185 0 285 -88.5t100 -253.5q0 -56 -8 -105l-70 -442q-68 -439 -479 -439q-185 0 -285 88.5t-100 253.5zM221 334q0 -246 262 -246q151 0 234.5 85t111.5 261l66 414q8 47 8 94q0 248 -260 248q-152 0 -236 -84.5t-112 -259.5 l-66 -416q-8 -47 -8 -96z" />
<glyph unicode="1" d="M322 932q-15 27 10 43l434 289q20 14 41 14h45q15 0 22.5 -9t4.5 -24l-193 -1216q-3 -29 -33 -29h-67q-15 0 -22.5 9t-4.5 24l170 1073l-340 -225q-26 -19 -43 8z" />
<glyph unicode="2" d="M66 33l8 53q3 25 18 37l608 520q115 98 159 169.5t44 164.5q0 101 -65 157t-179 56q-206 0 -337 -184q-19 -25 -43 -7l-39 33q-22 19 -7 43q82 110 196 169t245 59q165 0 261.5 -86t96.5 -234q0 -125 -57 -215.5t-205 -216.5l-516 -436v-2h614q32 0 29 -33l-8 -51 q-3 -29 -33 -29h-762q-31 0 -28 33z" />
<glyph unicode="3" d="M76 162q-15 24 8 43l41 31q28 19 45 -7q93 -141 317 -141q174 0 268.5 80.5t94.5 224.5q0 217 -301 217h-103q-31 0 -28 33l8 51q3 29 33 29h92q360 0 360 262q0 98 -67.5 151.5t-190.5 53.5q-198 0 -338 -152q-21 -25 -43 0l-34 39q-22 23 0 45q172 181 432 181 q172 0 271 -82t99 -224q0 -129 -64.5 -213t-189.5 -118v-2q92 -31 142.5 -102t50.5 -173q0 -195 -131.5 -304.5t-364.5 -109.5q-288 0 -407 187z" />
<glyph unicode="4" d="M55 334l11 67q7 24 18 35l772 826q16 16 37 16h74q15 0 22 -9t4 -24l-131 -831h125q15 0 22.5 -9t4.5 -24l-8 -51q-3 -29 -33 -29h-129l-43 -272q-3 -29 -33 -29h-68q-15 0 -22 9t-4 24l41 268h-633q-15 0 -22.5 9t-4.5 24zM223 414h510l105 659h-2z" />
<glyph unicode="5" d="M70 162q-15 24 8 43l41 31q27 20 45 -7q93 -141 319 -141q167 0 266 95.5t99 256.5q0 121 -72 190.5t-196 69.5q-182 0 -306 -106q-15 -15 -38 -12l-37 6q-31 3 -25 35l141 628q6 27 33 27h664q35 0 28 -33l-10 -51q-3 -29 -33 -29h-579l-96 -436h2q122 84 288 84 q163 0 265 -100t102 -264q0 -217 -135.5 -345.5t-366.5 -128.5q-285 0 -407 187z" />
<glyph unicode="6" d="M111 326q0 38 6 82l76 471q32 202 158 313t325 111q229 0 350 -146q18 -21 -4 -43l-43 -39q-24 -18 -43 4q-92 111 -262 111q-151 0 -241.5 -85.5t-115.5 -248.5l-28 -180h2q119 141 334 141q160 0 256 -98.5t96 -263.5q0 -217 -131.5 -348.5t-351.5 -131.5 q-176 0 -279.5 95.5t-103.5 255.5zM240 332q0 -114 70.5 -179t193.5 -65q157 0 249.5 97t92.5 259q0 121 -67.5 191t-184.5 70q-134 0 -230 -85.5t-118 -224.5q-6 -35 -6 -63z" />
<glyph unicode="7" d="M188 971l45 278q3 29 33 29h844q15 0 22.5 -9t4.5 -24l-11 -67q-3 -20 -14 -37l-752 -1121q-11 -20 -36 -20h-80q-19 0 -25 11t4 26l762 1128h-645l-31 -198q-3 -29 -33 -29h-61q-15 0 -22.5 9t-4.5 24z" />
<glyph unicode="8" d="M59 309q0 142 76 237t215 130v2q-76 36 -118 100t-42 148q0 173 123 275t332 102q185 0 288 -81.5t103 -224.5q0 -126 -65.5 -211.5t-186.5 -121.5v-2q91 -37 140 -108t49 -169q0 -194 -130.5 -302t-359.5 -108q-201 0 -312.5 88.5t-111.5 245.5zM188 317 q0 -110 77 -169.5t222 -59.5q167 0 262 81t95 222q0 104 -77.5 161.5t-219.5 57.5q-167 0 -263 -78t-96 -215zM319 922q0 -94 69.5 -146.5t199.5 -52.5q149 0 234 69.5t85 192.5q0 99 -69 152t-199 53q-146 0 -233 -72.5t-87 -195.5z" />
<glyph unicode="9" d="M98 121q-19 22 2 43l41 41q23 23 43 -4q94 -113 267 -113q150 0 240.5 87.5t117.5 250.5l29 176h-2q-119 -141 -334 -141q-159 0 -255.5 98t-96.5 262q0 219 131 350.5t352 131.5q177 0 280 -95t103 -256q0 -38 -6 -82l-76 -469q-32 -202 -159 -314t-324 -112 q-229 0 -353 146zM281 834q0 -121 66.5 -191t182.5 -70q135 0 231.5 84.5t121.5 225.5q6 34 6 61q0 115 -71.5 180.5t-194.5 65.5q-161 0 -251.5 -96.5t-90.5 -259.5z" />
<glyph unicode=":" horiz-adv-x="450" d="M66 59q0 41 30 70t70 29q37 0 60.5 -23.5t23.5 -58.5q0 -43 -28.5 -72t-71.5 -29q-37 0 -60.5 23.5t-23.5 60.5zM193 858q0 41 30 69.5t70 28.5q37 0 60.5 -23.5t23.5 -58.5q0 -43 -29 -71.5t-72 -28.5q-37 0 -60 23.5t-23 60.5z" />
<glyph unicode=";" horiz-adv-x="450" d="M31 -182q-12 15 4 28q71 58 96 144q-29 6 -46 26.5t-17 51.5q0 40 27.5 65t68.5 25q36 0 59 -22.5t23 -61.5q0 -64 -44.5 -143.5t-123.5 -139.5q-16 -13 -29 4zM193 858q0 41 30 69.5t70 28.5q37 0 60.5 -23.5t23.5 -58.5q0 -43 -29 -71.5t-72 -28.5q-37 0 -60 23.5 t-23 60.5z" />
<glyph unicode="&#x3c;" d="M90 545l6 55q3 23 27 35l924 403q17 7 26 0t6 -26l-8 -62q-3 -23 -27 -35l-808 -350l692 -346q23 -12 20 -39l-8 -55q-6 -37 -39 -21l-792 402q-22 13 -19 39z" />
<glyph unicode="=" d="M49 317l8 54q3 28 33 28h866q33 0 27 -32l-8 -54q-3 -28 -33 -28h-866q-33 0 -27 32zM121 776l8 53q3 29 33 29h866q15 0 22.5 -9t4.5 -24l-8 -53q-3 -29 -33 -29h-864q-32 0 -29 33z" />
<glyph unicode="&#x3e;" d="M23 131l8 62q2 22 26 34l809 351l-692 346q-23 12 -20 39l8 55q6 36 39 20l790 -401q24 -12 21 -39l-8 -55q-3 -23 -27 -35l-922 -402q-17 -8 -26 -1t-6 26z" />
<glyph unicode="?" horiz-adv-x="921" d="M158 1157q83 110 196.5 168.5t243.5 58.5q164 0 261 -86.5t97 -232.5q0 -138 -59.5 -226.5t-214.5 -170.5q-119 -63 -169.5 -120.5t-61.5 -137.5l-7 -39q-3 -29 -32 -29h-56q-31 0 -28 33l8 53q15 105 75 180t189 146q128 70 177.5 138t49.5 167q0 100 -63.5 156.5 t-177.5 56.5q-98 0 -186 -49t-154 -140q-18 -24 -43 -6l-41 37q-22 19 -4 43zM248 59q0 41 30 70t70 29q37 0 60.5 -23.5t23.5 -58.5q0 -43 -28.5 -72t-71.5 -29q-37 0 -60.5 23.5t-23.5 60.5z" />
<glyph unicode="@" horiz-adv-x="1490" d="M100 444q0 81 11.5 165.5t39.5 178t69.5 178t106.5 161.5t145.5 133.5t192 90t240.5 33.5q256 0 391.5 -154t135.5 -415q0 -72 -8.5 -146t-32 -158t-60 -148.5t-98.5 -107t-141 -42.5q-69 0 -111 34t-51 93h-2q-41 -61 -106.5 -93t-143.5 -32q-109 0 -169 53t-60 148 q0 125 79.5 194.5t229.5 69.5h186q8 55 8 92q0 81 -38.5 117.5t-120.5 36.5q-95 0 -175 -70q-21 -18 -36 2l-23 31q-16 22 4 39q104 86 242 86q124 0 188 -59.5t64 -170.5q0 -32 -6 -73l-41 -252q-4 -32 -4 -45q0 -54 24 -83.5t70 -29.5q68 0 117 58.5t72.5 147.5t33.5 167 t10 145q0 220 -111 348.5t-325 128.5q-115 0 -213 -31.5t-168 -84t-125.5 -124t-90.5 -148.5t-58 -162t-32 -158.5t-9 -143.5q0 -246 133.5 -379t382.5 -133q206 0 366 103q25 16 35 -8l17 -39q10 -23 -11 -35q-174 -109 -415 -109q-289 0 -449 158t-160 442zM549 420 q0 -117 147 -117q83 0 143.5 54t78.5 163l12 72h-170q-101 0 -156 -43.5t-55 -128.5z" />
<glyph unicode="A" horiz-adv-x="1189" d="M-12 37l659 1300q11 23 37 23h88q29 0 35 -27l248 -1300q1 -5 1 -10q0 -23 -30 -23h-70q-29 0 -32 29l-50 266h-614l-137 -272q-9 -23 -35 -23h-78q-27 0 -27 18q0 8 5 19zM317 412h535l-145 788h-2z" />
<glyph unicode="B" horiz-adv-x="1153" d="M98 33l205 1298q3 29 33 29h371q204 0 305.5 -73.5t101.5 -227.5q0 -148 -68 -242.5t-200 -124.5v-2q203 -60 203 -276q0 -213 -124.5 -313.5t-387.5 -100.5h-412q-15 0 -23 9q-5 6 -5 16q0 4 1 8zM244 117h305q189 0 277.5 73.5t88.5 229.5q0 110 -69.5 161.5 t-212.5 51.5h-307zM344 750h268q189 0 278 69.5t89 218.5q0 105 -70 155t-215 50h-272z" />
<glyph unicode="C" horiz-adv-x="1087" d="M106 352q0 40 11 119l67 426q74 487 531 487q316 0 401 -251q3 -8 3 -14q0 -18 -21 -25l-58 -23q-27 -12 -39 19q-67 178 -292 178q-168 0 -266 -99t-130 -299l-59 -383q-10 -72 -10 -118q0 -277 284 -277q221 0 344 195q17 27 43 10l52 -33q24 -15 8 -43 q-82 -126 -193 -186t-264 -60q-200 0 -306 96.5t-106 280.5z" />
<glyph unicode="D" horiz-adv-x="1208" d="M98 33l205 1298q3 29 33 29h403q206 0 313 -91t107 -268q0 -45 -10 -110l-70 -430q-37 -232 -170.5 -346.5t-371.5 -114.5h-412q-15 0 -23 9q-5 6 -5 16q0 4 1 8zM244 117h297q178 0 278 91.5t131 280.5l64 385q10 62 10 105q0 134 -74.5 199t-226.5 65h-301z" />
<glyph unicode="E" horiz-adv-x="1101" d="M98 33l205 1298q3 29 33 29h774q29 0 29 -28v-5l-9 -55q-3 -29 -32 -29h-676l-78 -498h580q32 0 26 -32l-8 -56q-3 -28 -33 -28h-583l-82 -512h669q15 0 22.5 -9t4.5 -24l-8 -55q-3 -29 -33 -29h-774q-15 0 -23 9q-5 6 -5 16q0 4 1 8z" />
<glyph unicode="F" horiz-adv-x="1028" d="M98 33l205 1298q3 29 33 29h754q28 0 28 -27v-6l-8 -55q-3 -29 -33 -29h-655l-80 -506h561q33 0 27 -32l-10 -56q-3 -28 -33 -28h-563l-95 -592q-3 -29 -32 -29h-72q-15 0 -23 9q-5 6 -5 16q0 4 1 8z" />
<glyph unicode="G" horiz-adv-x="1165" d="M106 356q0 40 11 115l67 426q74 487 539 487q158 0 264 -63.5t150 -187.5q2 -7 2 -13q0 -18 -21 -28l-55 -23q-27 -12 -39 18q-75 181 -309 181q-172 0 -271 -99t-131 -301l-59 -379q-10 -68 -10 -114q0 -283 295 -283q173 0 268.5 99t128.5 305l16 96h-295q-15 0 -22 9 t-4 24l8 55q3 29 33 29h393q15 0 22.5 -9t4.5 -24l-33 -209q-77 -492 -531 -492q-203 0 -312.5 98t-109.5 283z" />
<glyph unicode="H" horiz-adv-x="1275" d="M98 33l205 1298q3 29 33 29h72q15 0 22 -9t4 -24l-90 -579h668l92 583q3 29 33 29h71q14 0 22 -9q5 -6 6 -16q0 -4 -1 -8l-205 -1298q-3 -29 -33 -29h-71q-15 0 -22.5 9t-4.5 24l94 598h-667l-97 -602q-3 -29 -32 -29h-72q-15 0 -23 9q-5 6 -5 16q0 4 1 8z" />
<glyph unicode="I" horiz-adv-x="477" d="M98 33l205 1298q3 29 33 29h72q15 0 22 -9q5 -6 5 -16q0 -4 -1 -8l-205 -1298q-3 -29 -32 -29h-72q-15 0 -23 9q-5 6 -5 16q0 4 1 8z" />
<glyph unicode="J" horiz-adv-x="1060" d="M8 203q-4 9 -4 16q0 15 16 25l52 32q29 16 43 -12q87 -172 293 -172q159 0 249 93.5t119 285.5l135 860q3 29 33 29h72q15 0 22 -9q5 -6 5 -16q0 -3 -1 -8l-137 -883q-71 -469 -499 -469q-292 0 -398 228z" />
<glyph unicode="K" horiz-adv-x="1126" d="M98 33l205 1298q3 29 33 29h72q15 0 22 -9t4 -24l-92 -588l666 607q17 14 39 14h96q23 0 27 -12q1 -3 1 -6q0 -9 -12 -19l-700 -635l516 -651q12 -15 7 -26t-24 -11h-92q-22 0 -37 18l-499 637l-101 -626q-3 -29 -32 -29h-72q-15 0 -23 9q-5 6 -5 16q0 4 1 8z" />
<glyph unicode="L" horiz-adv-x="1017" d="M98 33l205 1298q3 29 33 29h72q15 0 22 -9t4 -24l-190 -1210h639q29 0 29 -23q0 -5 -1 -10l-10 -55q-3 -29 -33 -29h-743q-15 0 -23 9q-5 6 -5 16q0 4 1 8z" />
<glyph unicode="M" horiz-adv-x="1667" d="M98 33l205 1298q3 29 33 29h133q27 0 33 -27l278 -1143l631 1147q11 23 37 23h149q15 0 23 -9q5 -6 5 -16q0 -4 -1 -8l-205 -1298q-3 -29 -33 -29h-71q-15 0 -22.5 9t-4.5 24l182 1151h-2l-651 -1164q-11 -20 -37 -20h-53q-27 0 -33 27l-284 1157h-2l-183 -1155 q-3 -29 -32 -29h-68q-15 0 -23 9q-5 6 -5 16q0 4 1 8z" />
<glyph unicode="N" horiz-adv-x="1275" d="M98 33l205 1298q3 29 33 29h88q28 0 37 -25l469 -1112h2l176 1108q3 29 33 29h67q14 0 22 -9q5 -6 6 -16q0 -4 -1 -8l-205 -1298q-3 -29 -33 -29h-77q-28 0 -37 25l-477 1130h-3l-178 -1126q-3 -29 -32 -29h-68q-15 0 -23 9q-5 6 -5 16q0 4 1 8z" />
<glyph unicode="O" horiz-adv-x="1198" d="M106 356q0 40 11 115l67 426q74 487 533 487q208 0 319 -97.5t111 -282.5q0 -47 -10 -115l-68 -426q-74 -488 -532 -488q-208 0 -319.5 98t-111.5 283zM244 375q0 -283 299 -283q172 0 268 98t129 299l59 383q11 75 11 113q0 144 -74 213.5t-223 69.5q-173 0 -271 -98.5 t-129 -299.5l-59 -383q-10 -68 -10 -112z" />
<glyph unicode="P" horiz-adv-x="1107" d="M98 33l205 1298q3 29 33 29h377q415 0 415 -340q0 -243 -129.5 -357t-406.5 -114h-281l-82 -520q-3 -29 -32 -29h-72q-15 0 -23 9q-5 6 -5 16q0 4 1 8zM330 666h274q201 0 296 83.5t95 260.5q0 119 -73 176t-222 57h-278z" />
<glyph unicode="Q" horiz-adv-x="1198" d="M106 358q0 42 11 113l67 426q74 487 533 487q208 0 319 -97.5t111 -282.5q0 -47 -10 -115l-68 -426q-65 -427 -424 -479q-4 -32 -4 -45q0 -70 37 -107t108 -37q82 0 156 51q30 20 43 -10l25 -53q13 -26 -11 -41q-94 -64 -217 -64q-131 0 -202.5 67t-71.5 192q0 24 2 38 q-194 6 -299 105t-105 278zM244 375q0 -283 299 -283q172 0 268 98t129 299l59 383q11 75 11 113q0 144 -74 213.5t-223 69.5q-173 0 -271 -98.5t-129 -299.5l-59 -383q-10 -68 -10 -112z" />
<glyph unicode="R" horiz-adv-x="1161" d="M98 33l205 1298q3 29 33 29h364q418 0 418 -338q0 -202 -93.5 -314t-289.5 -141l252 -530q8 -17 1.5 -27t-25.5 -10h-80q-25 0 -35 23l-244 534h-291l-84 -528q-3 -29 -32 -29h-72q-15 0 -23 9q-5 6 -5 16q0 4 1 8zM332 674h262q200 0 294.5 81t94.5 253q0 121 -72.5 178 t-222.5 57h-266z" />
<glyph unicode="S" horiz-adv-x="1038" d="M33 180q-6 9 -6 18q0 13 14 25l51 39q27 20 43 -8q104 -162 346 -162q159 0 254.5 82.5t95.5 220.5q0 93 -64.5 143.5t-231.5 82.5q-202 38 -284.5 111.5t-82.5 213.5q0 200 133.5 319t357.5 119q277 0 385 -178q6 -10 6 -18q0 -13 -16 -23l-53 -37q-24 -18 -43 11 q-82 129 -285 129q-158 0 -255 -84t-97 -219q0 -95 65 -145.5t232 -82.5q202 -38 283.5 -111t81.5 -212q0 -200 -133 -319.5t-357 -119.5q-315 0 -440 205z" />
<glyph unicode="T" horiz-adv-x="991" d="M162 1276l8 55q3 29 33 29h852q15 0 22 -9q5 -6 5 -16q0 -4 -1 -8l-8 -55q-3 -29 -33 -29h-360l-193 -1214q-3 -29 -32 -29h-72q-15 0 -22.5 9t-4.5 24l191 1210h-359q-15 0 -22 9q-5 6 -5 16q0 4 1 8z" />
<glyph unicode="U" horiz-adv-x="1204" d="M131 344q0 46 10 111l138 876q3 29 32 29h72q15 0 22.5 -9t4.5 -24l-136 -860q-8 -52 -8 -105q0 -270 281 -270q163 0 253.5 92.5t121.5 286.5l137 860q3 29 33 29h67q15 0 23 -9q5 -6 5 -16q0 -4 -1 -8l-137 -883q-71 -469 -510 -469q-196 0 -302 95t-106 274z" />
<glyph unicode="V" horiz-adv-x="1153" d="M190 1327q-1 5 -1 10q0 23 30 23h74q27 0 33 -29l198 -1141h2l564 1147q12 23 34 23h76q28 0 28 -19q0 -8 -5 -18l-645 -1300q-9 -23 -35 -23h-86q-30 0 -33 29z" />
<glyph unicode="W" horiz-adv-x="1740" d="M193 1327v6q0 27 28 27h80q30 0 33 -29l115 -1110h2l479 1116q10 23 35 23h67q30 0 33 -29l125 -1108h2l475 1114q10 23 35 23h82q17 0 23 -10q3 -5 3 -11q0 -7 -4 -16l-561 -1300q-10 -23 -35 -23h-92q-30 0 -33 29l-122 1061h-2l-459 -1067q-10 -23 -35 -23h-90 q-30 0 -33 29z" />
<glyph unicode="X" horiz-adv-x="1140" d="M4 11q-2 3 -2 7q0 8 8 19l512 661l-286 625q-7 17 -1 27t23 10h84q25 0 35 -23l235 -534l408 538q16 19 37 19h90q19 0 25 -11q2 -3 1 -7q0 -8 -8 -19l-487 -627l303 -659q7 -17 0.5 -27t-23.5 -10h-84q-24 0 -34 23l-252 569l-434 -574q-15 -18 -37 -18h-88 q-19 0 -25 11z" />
<glyph unicode="Y" horiz-adv-x="1067" d="M159 1350q6 10 23 10h84q25 0 35 -23l264 -600l457 604q16 19 37 19h90q20 0 25 -11q1 -3 1 -7q0 -8 -8 -19l-553 -713l-92 -581q-3 -29 -33 -29h-71q-15 0 -22.5 9t-4.5 24l90 581l-321 709q-4 9 -4 16q0 6 3 11z" />
<glyph unicode="Z" horiz-adv-x="1060" d="M6 33l10 69q7 25 17 37l893 1104h-664q-15 0 -22 9t-4 24l8 55q3 29 32 29h795q15 0 23 -9q5 -6 5 -16q0 -4 -1 -8l-11 -70q-7 -26 -16 -36l-895 -1104h709q15 0 22 -9t4 -24l-8 -55q-3 -29 -33 -29h-835q-29 0 -29 28v5z" />
<glyph unicode="[" horiz-adv-x="655" d="M86 -154l236 1487q3 27 30 27h322q13 0 20.5 -8.5t5.5 -22.5l-8 -45q-3 -27 -30 -27h-228l-211 -1339h221q30 0 27 -31l-6 -45q-3 -26 -31 -26h-321q-14 0 -21 8.5t-6 21.5z" />
<glyph unicode="\" horiz-adv-x="718" d="M190 1329q-3 14 4.5 22.5t22.5 8.5h53q27 0 33 -25l283 -1304q3 -14 -4.5 -22.5t-22.5 -8.5h-53q-27 0 -33 25z" />
<glyph unicode="]" horiz-adv-x="655" d="M-16 -154l6 45q3 27 30 27h230l211 1339h-223q-13 0 -21 8.5t-6 22.5l8 45q3 27 31 27h319q13 0 21 -8.5t6 -22.5l-236 -1487q-3 -26 -30 -26h-320q-29 0 -26 30z" />
<glyph unicode="^" d="M59 539q-5 11 7 26l530 695q15 18 37 18h59q25 0 35 -23l309 -690q7 -17 1 -27t-23 -10h-62q-24 0 -34 23l-267 600l-461 -604q-16 -19 -36 -19h-70q-20 0 -25 11z" />
<glyph unicode="_" horiz-adv-x="1024" d="M-111 -203l13 78h1024l-13 -78h-1024z" />
<glyph unicode="`" horiz-adv-x="1024" d="M432 1454.5q6 9.5 23 9.5h69q24 0 33 -20l123 -252q6 -13 0 -22t-21 -9h-55q-22 0 -31 19l-139 250q-8 15 -2 24.5z" />
<glyph unicode="a" horiz-adv-x="929" d="M47 246q0 162 105.5 251t302.5 89h254l6 41q8 62 8 86q0 109 -56.5 161t-170.5 52q-119 0 -228 -95q-24 -21 -43 5l-30 41q-19 26 6 45q138 112 311 112q163 0 250.5 -79t87.5 -228q0 -48 -8 -92l-45 -283q-29 -190 -134 -283.5t-292 -93.5q-155 0 -239.5 71.5 t-84.5 199.5zM172 254q0 -82 54.5 -126t154.5 -44q131 0 201.5 71.5t93.5 223.5l16 102h-235q-138 0 -211.5 -57.5t-73.5 -169.5z" />
<glyph unicode="b" horiz-adv-x="997" d="M109 274q0 29 8 91l166 1040q3 29 32 29h64q15 0 22.5 -9t4.5 -24l-78 -490h2q92 123 272 123q154 0 236 -76t82 -219q0 -43 -9 -92l-47 -291q-59 -381 -418 -381q-163 0 -250 77t-87 222zM238 293q0 -209 215 -209q128 0 197.5 71.5t94.5 223.5l41 254q7 54 7 84 q0 209 -218 209q-246 0 -292 -295l-39 -254q-6 -47 -6 -84z" />
<glyph unicode="c" horiz-adv-x="837" d="M80 283q0 43 8 90l43 276q59 385 420 385q176 0 274 -98q10 -12 10.5 -23t-10.5 -22l-34 -35q-21 -22 -43 0q-70 70 -197 70q-130 0 -202 -72.5t-97 -228.5l-39 -242q-6 -43 -6 -82q0 -111 57 -164t172 -53q118 0 209 88q25 25 45 -2l29 -37q19 -22 -2 -43 q-127 -115 -297 -115q-163 0 -251.5 79t-88.5 229z" />
<glyph unicode="d" horiz-adv-x="997" d="M80 274q0 29 8 91l45 290q29 188 132 283.5t276 95.5q195 0 254 -135h2l82 506q3 29 32 29h64q15 0 22 -9q5 -6 5 -16q0 -4 -1 -8l-165 -1045q-59 -381 -418 -381q-163 0 -250.5 77t-87.5 222zM207 293q0 -107 54 -158t163 -51q128 0 198 71.5t95 223.5l39 254q6 47 6 84 q0 209 -213 209q-128 0 -199 -71.5t-96 -223.5l-41 -254q-6 -47 -6 -84z" />
<glyph unicode="e" horiz-adv-x="929" d="M80 281q0 28 8 90l45 284q62 379 412 379q160 0 246 -76.5t86 -222.5q0 -18 -9 -88l-24 -153q-3 -29 -33 -29h-584l-12 -82q-8 -47 -8 -86q0 -110 60 -161.5t184 -51.5q123 0 233 104q22 26 43 -2l29 -39q19 -22 -2 -43q-132 -129 -314 -129q-174 0 -267 78t-93 228z M246 569h491l11 64q8 44 8 88q0 105 -53.5 155t-161.5 50q-126 0 -196.5 -71.5t-90.5 -223.5z" />
<glyph unicode="f" horiz-adv-x="661" d="M106 934l9 47q3 29 32 29h125l19 112q54 336 350 336q123 0 203 -45q15 -9 15 -24q0 -9 -5 -19l-25 -43q-16 -25 -38 -12q-62 35 -148 35q-97 0 -152.5 -60t-76.5 -180l-17 -100h310q15 0 22 -9t4 -24l-8 -47q-3 -29 -33 -29h-311l-139 -872q-3 -29 -33 -29h-64 q-15 0 -22 9t-4 24l137 868h-123q-15 0 -23 9q-5 6 -5 16q0 4 1 8z" />
<glyph unicode="g" horiz-adv-x="997" d="M43 -190l31 38q9 12 22 12.5t23 -10.5q90 -94 250 -94q123 0 196 68t94 194l17 109h-2q-88 -123 -271 -123q-154 0 -236.5 75.5t-82.5 219.5q0 50 8 94l41 262q62 379 420 379q164 0 251 -77t87 -224q0 -44 -8 -88l-103 -647q-26 -167 -133 -258.5t-278 -91.5 q-216 0 -326 119q-10 10 -10 20.5t10 22.5zM213 322q0 -209 215 -209q244 0 291 297l37 225q6 47 6 84q0 207 -215 207q-128 0 -198 -71.5t-95 -223.5l-35 -225q-6 -46 -6 -84z" />
<glyph unicode="h" horiz-adv-x="1024" d="M76 33l217 1372q3 29 33 29h63q15 0 22.5 -9t4.5 -24l-76 -486h2q90 119 268 119q149 0 229.5 -75t80.5 -214q0 -43 -9 -92l-100 -624q-3 -29 -33 -29h-63q-15 0 -22.5 9t-4.5 24l96 608q7 54 7 84q0 201 -211 201q-120 0 -190 -71.5t-93 -215.5l-98 -610q-3 -29 -33 -29 h-64q-15 0 -22 9q-5 6 -5 16q0 4 1 8z" />
<glyph unicode="i" horiz-adv-x="423" d="M76 33l149 948q3 29 33 29h64q15 0 22 -9t4 -24l-149 -948q-3 -29 -33 -29h-64q-15 0 -22 9q-5 6 -5 16q0 4 1 8zM252 1292q0 42 26.5 68t65.5 26q34 0 57 -21.5t23 -53.5q0 -41 -27 -69t-67 -28q-34 0 -56 22t-22 56z" />
<glyph unicode="j" horiz-adv-x="421" d="M-168 -295l8 47q6 29 33 29q162 0 188 172l164 1028q3 29 33 29h64q15 0 22 -9t4 -24l-162 -1026q-46 -279 -307 -279h-18q-15 0 -23 9q-7 7 -7 17q0 3 1 7zM252 1292q0 42 26.5 68t65.5 26q34 0 57 -21.5t23 -53.5q0 -41 -27 -69t-67 -28q-34 0 -56 22t-22 56z" />
<glyph unicode="k" horiz-adv-x="892" d="M76 33l217 1372q3 29 33 29h63q15 0 22.5 -9t4.5 -24l-131 -838l473 432q18 15 39 15h86q23 0 27 -12q1 -3 1 -6q0 -9 -12 -19l-506 -457l377 -479q11 -15 6 -26t-24 -11h-82q-22 0 -37 18l-361 469l-73 -458q-3 -29 -33 -29h-64q-15 0 -22 9q-5 6 -5 16q0 4 1 8z" />
<glyph unicode="l" horiz-adv-x="423" d="M76 33l217 1372q3 29 33 29h63q15 0 23 -9q5 -6 5 -16q0 -4 -1 -8l-217 -1372q-3 -29 -33 -29h-64q-15 0 -22 9q-5 6 -5 16q0 4 1 8z" />
<glyph unicode="m" horiz-adv-x="1552" d="M63 33l101 633q59 368 385 368q218 0 280 -155h2q88 155 306 155q150 0 230.5 -74.5t80.5 -214.5q0 -43 -8 -90l-101 -626q-3 -29 -32 -29h-64q-15 0 -22 9t-4 24l96 612q8 44 8 84q0 197 -197 197q-115 0 -178 -68.5t-86 -214.5l-96 -614q-3 -29 -33 -29h-63 q-15 0 -22.5 9t-4.5 24l96 612q8 44 8 86q0 195 -198 195q-115 0 -178 -68.5t-86 -214.5l-97 -614q-3 -29 -32 -29h-64q-14 0 -22 9q-5 6 -6 16q0 4 1 8z" />
<glyph unicode="n" horiz-adv-x="1011" d="M63 33l101 631q29 186 130.5 278t280.5 92q159 0 245.5 -75.5t86.5 -217.5q0 -26 -8 -88l-98 -624q-3 -29 -33 -29h-63q-15 0 -22.5 9t-4.5 24l94 608q8 47 8 86q0 102 -53 150.5t-160 48.5q-123 0 -191 -69.5t-91 -217.5l-99 -610q-3 -29 -32 -29h-64q-14 0 -22 9 q-5 6 -6 16q0 4 1 8z" />
<glyph unicode="o" horiz-adv-x="968" d="M78 274q0 47 8 88l47 293q62 379 420 379q163 0 250.5 -76.5t87.5 -222.5q0 -44 -8 -88l-47 -293q-59 -379 -418 -379q-164 0 -252 77t-88 222zM207 293q0 -107 54 -158t163 -51q127 0 196.5 71.5t94.5 223.5l39 254q8 44 8 88q0 205 -215 205q-129 0 -198.5 -71.5 t-94.5 -223.5l-41 -254q-6 -47 -6 -84z" />
<glyph unicode="p" horiz-adv-x="997" d="M12 -295l150 950q59 379 420 379q164 0 251 -77t87 -224q0 -39 -9 -88l-47 -291q-59 -379 -403 -379q-196 0 -258 140h-2l-66 -414q-3 -29 -33 -29h-63q-15 0 -23 9q-5 6 -5 16q0 4 1 8zM236 297q0 -213 217 -213q129 0 197 71.5t93 225.5l43 254q7 54 7 84 q0 207 -218 207q-128 0 -198.5 -71.5t-93.5 -223.5l-41 -254q-6 -43 -6 -80z" />
<glyph unicode="q" horiz-adv-x="997" d="M78 270q0 51 8 95l47 290q62 379 420 379q164 0 251 -77t87 -224q0 -44 -8 -88l-150 -944q-3 -29 -33 -29h-63q-32 0 -29 33l62 391h-2q-89 -121 -271 -121q-156 0 -237.5 75.5t-81.5 219.5zM207 293q0 -107 54 -158t163 -51q244 0 291 297l41 254q6 47 6 84 q0 207 -215 207q-129 0 -198.5 -71.5t-94.5 -223.5l-41 -254q-6 -47 -6 -84z" />
<glyph unicode="r" horiz-adv-x="743" d="M63 33l103 647q28 178 119.5 266t251.5 88q136 0 225 -67q13 -10 13 -22q0 -10 -9 -23l-31 -39q-19 -25 -43 -4q-58 47 -153 47q-109 0 -168.5 -62.5t-81.5 -197.5l-103 -637q-3 -29 -32 -29h-64q-14 0 -22 9q-5 6 -6 16q0 4 1 8z" />
<glyph unicode="s" horiz-adv-x="843" d="M18 102q-9 10 -9 21t11 22l37 39q21 24 43 -2q89 -98 265 -98q122 0 193 57.5t71 155.5q0 70 -50 106t-178 56q-157 24 -220.5 79.5t-63.5 161.5q0 154 108 244t293 90q177 0 281 -90q12 -12 12 -23t-10 -22l-35 -39q-18 -24 -43 -2q-74 68 -207 68q-129 0 -201.5 -55.5 t-72.5 -153.5q0 -64 47.5 -98t169.5 -52q161 -24 228 -83t67 -171q0 -157 -105 -247.5t-287 -90.5q-235 0 -344 127z" />
<glyph unicode="t" horiz-adv-x="720" d="M106 934l9 47q3 29 32 29h125l39 245q3 29 33 29h64q15 0 22 -9t4 -24l-37 -241h310q15 0 22 -9q5 -6 5 -16q0 -4 -1 -8l-8 -47q-3 -29 -33 -29h-313l-96 -614q-4 -36 -4 -54q0 -149 159 -149q62 0 115 35q30 18 43 -13l18 -43q10 -29 -12 -43q-74 -45 -182 -45 q-129 0 -198.5 62t-69.5 178q0 33 6 70l96 616h-121q-15 0 -23 9q-5 6 -5 16q0 4 1 8z" />
<glyph unicode="u" horiz-adv-x="999" d="M106 268q0 31 7 82l102 631q3 29 33 29h63q15 0 22.5 -9t4.5 -24l-96 -617q-9 -52 -9 -81q0 -195 207 -195q124 0 191 67t90 211l98 619q3 29 33 29h59q15 0 23 -9q5 -6 5 -16q0 -4 -1 -8l-100 -637q-56 -365 -404 -365q-159 0 -243.5 75.5t-84.5 217.5z" />
<glyph unicode="v" horiz-adv-x="915" d="M121 977q-1 5 -1 10q0 23 30 23h67q27 0 33 -29l147 -827h2l418 833q11 23 35 23h72q19 0 25 -10q2 -4 2 -9q0 -8 -5 -18l-489 -950q-11 -23 -37 -23h-78q-29 0 -35 27z" />
<glyph unicode="w" horiz-adv-x="1398" d="M123 977v5q0 28 29 28h67q30 0 33 -29l98 -795h2l363 801q10 23 35 23h57q30 0 33 -29l104 -791h2l354 797q10 23 35 23h70q17 0 23 -10q3 -5 3 -11q0 -7 -4 -16l-436 -950q-10 -23 -35 -23h-73q-30 0 -33 29l-100 762h-2l-349 -768q-10 -23 -34 -23h-76q-30 0 -33 29z " />
<glyph unicode="x" horiz-adv-x="931" d="M-9 11q-1 3 -1 7q0 9 8 19l393 487l-219 449q-16 37 23 37h71q26 0 35 -23l178 -383l305 387q16 19 37 19h72q20 0 25 -11q1 -3 1 -7q0 -9 -8 -19l-366 -453l239 -483q16 -37 -22 -37h-72q-26 0 -35 23l-196 417l-330 -422q-15 -18 -37 -18h-76q-20 0 -25 11z" />
<glyph unicode="y" horiz-adv-x="1024" d="M57 -190l31 38q9 12 22 12.5t23 -10.5q90 -94 252 -94q122 0 196 68t93 194l16 103h-2q-88 -117 -268 -117q-149 0 -229 74.5t-80 214.5q0 48 8 92l96 596q3 29 33 29h63q15 0 22.5 -9t4.5 -24l-92 -580q-6 -47 -6 -82q0 -202 211 -202q122 0 191.5 71t92.5 215l92 582 q3 29 33 29h64q15 0 22 -9q5 -6 5 -16q0 -3 -1 -8l-155 -979q-26 -166 -133.5 -258t-278.5 -92q-216 0 -326 119q-10 10 -10 20.5t10 22.5z" />
<glyph unicode="z" horiz-adv-x="864" d="M2 33l10 61q3 20 17 37l661 770h-487q-15 0 -22.5 9t-4.5 24l8 47q3 29 33 29h608q15 0 23 -9q5 -6 5 -16q0 -4 -1 -8l-10 -62q-3 -19 -17 -36l-661 -770h528q32 0 29 -33l-8 -47q-3 -29 -33 -29h-651q-15 0 -23 9q-5 6 -5 16q0 4 1 8z" />
<glyph unicode="{" horiz-adv-x="675" d="M98 567l8 45q6 27 31 27q70 0 109.5 42.5t54.5 137.5l41 262q23 150 101 214.5t235 64.5h16q30 0 27 -27l-8 -49q-3 -27 -33 -27h-2q-98 0 -147 -43.5t-66 -146.5l-41 -248q-17 -102 -59.5 -158t-116.5 -75v-2q110 -30 110 -158q0 -32 -6 -66l-41 -249q-4 -23 -4 -60 q0 -72 37.5 -102.5t122.5 -30.5q28 0 25 -31l-7 -45q-3 -26 -30 -26h-23q-128 0 -190 50t-62 154q0 32 6 72l41 260q6 34 6 62q0 123 -112 123q-29 0 -23 30z" />
<glyph unicode="|" horiz-adv-x="540" d="M92 -297l270 1704q3 27 31 27h47q13 0 21 -8.5t6 -22.5l-270 -1704q-3 -27 -31 -27h-47q-13 0 -21 8.5t-6 22.5z" />
<glyph unicode="}" horiz-adv-x="675" d="M-18 -158l8 49q3 27 33 27h2q98 0 147 44t66 147l41 247q17 102 59.5 158.5t116.5 75.5v2q-111 30 -111 158q0 30 6 65l41 250q4 23 4 59q0 72 -37 102.5t-122 30.5q-28 0 -25 31l6 45q3 27 31 27h22q128 0 190 -50.5t62 -154.5q0 -31 -6 -72l-41 -260q-6 -35 -6 -61 q0 -123 113 -123q28 0 22 -31l-8 -45q-6 -26 -31 -26q-70 0 -109.5 -42.5t-54.5 -138.5l-41 -262q-23 -150 -100.5 -214t-234.5 -64h-17q-29 0 -26 26z" />
<glyph unicode="~" d="M43 514q73 99 145.5 145t159.5 46q63 0 115.5 -19t120.5 -68q54 -38 92.5 -53.5t79.5 -15.5q60 0 112 33t107 108q18 27 43 8l39 -30q24 -18 6 -43q-75 -100 -148 -145.5t-159 -45.5q-64 0 -116.5 18.5t-119.5 65.5q-59 41 -95 56.5t-77 15.5q-61 0 -111.5 -33.5 t-109.5 -110.5q-19 -25 -43 -4l-37 29q-22 19 -4 43z" />
<glyph unicode="&#xa1;" horiz-adv-x="454" d="M92 33l90 571l86 395q3 19 23 19h31q23 0 20 -23l-37 -391l-90 -575q-3 -29 -33 -29h-63q-15 0 -22.5 9t-4.5 24zM260 1284q0 43 28.5 71.5t71.5 28.5q37 0 60.5 -23.5t23.5 -60.5q0 -41 -30 -69.5t-70 -28.5q-37 0 -60.5 23.5t-23.5 58.5z" />
<glyph unicode="&#xa2;" d="M170 338q0 48 8 92l39 242q31 195 138 294t296 105l19 125q3 25 28 25h60q27 0 24 -29l-20 -125q142 -18 221 -100q19 -22 0 -41l-37 -39q-22 -23 -47 2q-52 55 -154 67l-131 -825q108 14 191 94q23 23 43 -4l31 -41q19 -22 -5 -43q-116 -105 -278 -119l-21 -137 q-3 -24 -28 -24h-60q-27 0 -24 28l20 133q-152 14 -232.5 96t-80.5 224zM299 356q0 -103 50 -157.5t153 -65.5l131 825q-130 -9 -200 -84.5t-95 -228.5l-33 -205q-6 -46 -6 -84z" />
<glyph unicode="&#xa3;" d="M92 33l8 55q3 20 21 35q103 94 146.5 181.5t43.5 197.5q0 21 -2 35h-137q-33 0 -27 32l9 49q3 29 32 29h103q-1 10 -15 51q-30 91 -30 174q0 197 122.5 314t331.5 117q128 0 224.5 -43.5t148.5 -126.5q16 -25 -10 -41l-47 -33q-26 -16 -43 10q-38 59 -109.5 90t-165.5 31 q-151 0 -239 -87.5t-88 -236.5q0 -51 24 -149q2 -8 9 -32t10 -38h401q15 0 22.5 -9t4.5 -24l-9 -49q-3 -28 -32 -28h-373q2 -14 2 -37q0 -116 -43 -205.5t-133 -179.5v-2h610q15 0 22.5 -9t4.5 -24l-8 -51q-3 -29 -33 -29h-727q-32 0 -29 33z" />
<glyph unicode="&#xa4;" d="M59 233q-19 22 4 41l177 154q-41 71 -41 166q0 160 98 272l-113 131q-18 19 2 39l39 37q22 19 41 -4l115 -131q95 61 213 61q134 0 225 -79l174 153q19 19 39 -2l33 -37q19 -19 -4 -39l-176 -155q43 -73 43 -172q0 -151 -101 -267l113 -131q18 -18 -2 -39l-39 -36 q-22 -19 -41 4l-115 133q-94 -60 -213 -60q-131 0 -223 76l-176 -153q-19 -19 -39 2zM299 604q0 -104 65.5 -168.5t170.5 -64.5q122 0 207 84.5t85 208.5q0 104 -66.5 169.5t-170.5 65.5q-121 0 -206 -85.5t-85 -209.5z" />
<glyph unicode="&#xa5;" d="M96 299l8 49q3 25 29 25h324l28 176h-317q-28 0 -25 29l9 49q3 24 28 24h312l-289 590q-16 37 22 37h76q26 0 35 -23l239 -518l408 523q15 18 37 18h82q20 0 25 -11t-7 -26l-475 -590h299q28 0 25 -28l-8 -50q-3 -24 -29 -24h-320l-26 -176h311q28 0 25 -29l-9 -49 q-3 -25 -28 -25h-316l-39 -241q-3 -29 -32 -29h-68q-15 0 -22.5 9t-4.5 24l37 237h-319q-28 0 -25 29z" />
<glyph unicode="&#xa6;" horiz-adv-x="540" d="M92 -297l105 659q3 27 30 27h47q13 0 21 -8.5t6 -22.5l-104 -659q-3 -27 -31 -27h-47q-13 0 -21 8.5t-6 22.5zM256 748l106 659q3 27 31 27h47q13 0 21 -8.5t6 -22.5l-107 -660q-3 -26 -30 -26h-47q-13 0 -21 8.5t-6 22.5z" />
<glyph unicode="&#xa7;" horiz-adv-x="1138" d="M27 -170q-17 26 10 43l41 29q26 17 43 -6q100 -142 336 -142q152 0 246 75.5t94 195.5q0 78 -65.5 118t-233.5 60q-210 24 -296.5 89t-86.5 191q0 129 67 222.5t193 140.5v2q-137 53 -137 209q0 184 126.5 292.5t340.5 108.5q261 0 368 -155q19 -26 -8 -43l-43 -31 q-25 -19 -43 8q-79 113 -283 113q-149 0 -243.5 -75t-94.5 -194q0 -81 66.5 -122.5t237.5 -61.5q205 -23 290.5 -86t85.5 -186q0 -132 -69.5 -226.5t-200.5 -140.5v-2q71 -27 110.5 -76.5t39.5 -134.5q0 -181 -128 -289t-339 -108q-304 0 -424 182zM238 510 q0 -96 76.5 -143.5t273.5 -67.5q146 12 238 92.5t92 202.5q0 63 -30.5 100.5t-110.5 63.5t-230 45q-137 -18 -223 -97t-86 -196z" />
<glyph unicode="&#xa8;" horiz-adv-x="1024" d="M391 1292q0 38 25 64t63 26q34 0 56 -20.5t22 -52.5q0 -38 -26 -64t-64 -26q-34 0 -55 20.5t-21 52.5zM719 1292q0 38 25 64t63 26q34 0 56 -20.5t22 -52.5q0 -38 -26 -64t-64 -26q-34 0 -55 20.5t-21 52.5z" />
<glyph unicode="&#xa9;" horiz-adv-x="1579" d="M109 588q0 161 63 308t169.5 254t253 170.5t306.5 63.5q182 0 325.5 -79t222.5 -218.5t79 -314.5q0 -161 -63.5 -308t-170 -254.5t-253 -171t-306.5 -63.5q-275 0 -450.5 173t-175.5 440zM201 594q0 -235 150 -385t390 -150q139 0 267.5 57t222 152.5t149.5 226t56 271.5 q0 234 -150.5 384t-390.5 150q-139 0 -267 -57t-221.5 -152t-149.5 -225.5t-56 -271.5zM530 502q0 23 7 63l36 238q44 268 295 268q173 0 226 -133q9 -22 -13 -33l-39 -16q-21 -9 -30 12q-41 86 -150 86q-85 0 -133 -50.5t-63 -152.5l-35 -211q-4 -20 -4 -57 q0 -143 147 -143q102 0 170 96q14 20 35 6l31 -22q18 -15 4 -35q-86 -129 -248 -129q-113 0 -174.5 55.5t-61.5 157.5z" />
<glyph unicode="&#xaa;" horiz-adv-x="712" d="M92 698q0 127 80 195t234 68h188l4 30q4 23 4 60q0 81 -41 118t-127 37q-93 0 -168 -65q-25 -22 -41 4l-22 35q-16 22 10 41q109 82 236 82q128 0 197 -61t69 -177q0 -43 -4 -66l-35 -221q-23 -146 -103.5 -218.5t-224.5 -72.5q-123 0 -189.5 55.5t-66.5 155.5zM203 705 q0 -59 39 -90t112 -31q94 0 145 52.5t68 162.5l11 67h-168q-98 0 -152.5 -42t-54.5 -119z" />
<glyph unicode="&#xab;" horiz-adv-x="849" d="M63 485q-9 22 5 39l276 350q14 17 37 17h55q19 0 24.5 -10.5t-5.5 -24.5l-283 -358l168 -344q7 -15 0.5 -25t-21.5 -10h-53q-24 0 -33 20zM424 485q-10 23 4 39l277 350q14 17 36 17h56q18 0 23.5 -10.5t-5.5 -24.5l-283 -358l168 -344q7 -15 1 -25t-21 -10h-53 q-24 0 -33 20z" />
<glyph unicode="&#xac;" d="M72 678l8 53q3 29 33 29h934q15 0 22 -9t4 -24l-78 -494q-3 -28 -32 -28h-54q-15 0 -22 9t-4 24l63 407h-846q-31 0 -28 33z" />
<glyph unicode="&#xad;" horiz-adv-x="675" d="M66 528l10 60q3 28 33 28h491q33 0 27 -32l-11 -60q-3 -28 -32 -28h-490q-31 0 -28 32z" />
<glyph unicode="&#xae;" horiz-adv-x="1579" d="M109 588q0 161 63 308t169.5 254t253 170.5t306.5 63.5q182 0 325.5 -79t222.5 -218.5t79 -314.5q0 -161 -63.5 -308t-170 -254.5t-253 -171t-306.5 -63.5q-275 0 -450.5 173t-175.5 440zM201 594q0 -235 150 -385t390 -150q139 0 267.5 57t222 152.5t149.5 226t56 271.5 q0 234 -150.5 384t-390.5 150q-139 0 -267 -57t-221.5 -152t-149.5 -225.5t-56 -271.5zM537 330l112 704q3 23 27 23h205q235 0 235 -189q0 -107 -54 -173t-155 -83l129 -278q6 -12 1.5 -21.5t-19.5 -9.5h-53q-19 0 -29 19l-121 282h-141l-43 -278q-3 -23 -27 -23h-45 q-25 0 -22 27zM688 688h133q199 0 199 172q0 113 -150 113h-137z" />
<glyph unicode="&#xaf;" horiz-adv-x="1024" d="M371 1270l6 45q3 26 31 26h466q14 0 22 -8.5t5 -21.5l-8 -45q-3 -27 -31 -27h-465q-29 0 -26 31z" />
<glyph unicode="&#xb0;" horiz-adv-x="722" d="M141 971q0 140 98 236t234 96q118 0 192 -74t74 -189q0 -142 -95.5 -237.5t-233.5 -95.5q-119 0 -194 74t-75 190zM250 973q0 -72 46 -117t120 -45q89 0 152 65.5t63 159.5q0 72 -46 117t-118 45q-90 0 -153.5 -65t-63.5 -160z" />
<glyph unicode="&#xb1;" d="M-14 33l8 53q3 29 33 29h901q15 0 22 -9t4 -24l-8 -53q-3 -29 -33 -29h-899q-31 0 -28 33zM80 621l10 53q3 28 33 28h393l57 365q3 29 33 29h53q15 0 22.5 -9t4.5 -24l-55 -361h389q35 0 29 -32l-11 -54q-3 -28 -32 -28h-394l-57 -365q-3 -28 -33 -28h-53q-33 0 -27 32 l56 361h-389q-36 0 -29 33z" />
<glyph unicode="&#xb2;" horiz-adv-x="675" d="M137 772l6 35q3 20 17 31l350 309q68 60 94.5 101.5t26.5 94.5q0 54 -36 85.5t-99 31.5q-113 0 -183 -96q-18 -24 -39 -6l-26 22q-21 15 -6 37q106 131 264 131q101 0 161 -55.5t60 -149.5q0 -77 -32.5 -132t-121.5 -130l-292 -247v-3h337q28 0 25 -28l-6 -35 q-3 -25 -29 -25h-446q-28 0 -25 29z" />
<glyph unicode="&#xb3;" horiz-adv-x="675" d="M147 840q-15 21 5 37l26 22q21 18 37 -4q57 -78 186 -78q91 0 144 45.5t53 124.5q0 125 -174 125h-47q-28 0 -25 29l4 30q3 25 29 25h43q207 0 207 147q0 57 -37 87t-106 30q-105 0 -185 -80q-21 -21 -37 -2l-24 29q-16 19 2 37q104 104 256 104q105 0 167 -52t62 -142 q0 -78 -39 -129t-114 -70v-2q114 -46 114 -172q0 -120 -78.5 -186t-216.5 -66q-170 0 -252 111z" />
<glyph unicode="&#xb4;" horiz-adv-x="1024" d="M550 1170.5q-4 9.5 7 23.5l203 254q13 16 37 16h75q19 0 24 -10t-7 -24l-221 -254q-12 -15 -33 -15h-64q-17 0 -21 9.5z" />
<glyph unicode="&#xb5;" horiz-adv-x="1024" d="M25 -295l200 1276q3 29 33 29h64q15 0 22 -9t4 -24l-96 -608q-6 -44 -6 -80q0 -205 211 -205q123 0 191 69.5t91 217.5l99 610q3 29 32 29h64q15 0 22.5 -9t4.5 -24l-99 -631q-59 -371 -393 -371q-192 0 -254 131h-2l-66 -405q-3 -29 -32 -29h-64q-15 0 -22 9t-4 24z" />
<glyph unicode="&#xb6;" horiz-adv-x="1157" d="M127 946q0 246 133.5 367t405.5 121h446q28 0 25 -29l-271 -1708q-3 -25 -28 -25h-52q-27 0 -24 29l258 1628h-281l-256 -1632q-3 -25 -28 -25h-52q-27 0 -24 29l145 922q-201 5 -299 84t-98 239z" />
<glyph unicode="&#xb7;" horiz-adv-x="450" d="M156 633q0 41 30 69.5t70 28.5q37 0 60.5 -23.5t23.5 -58.5q0 -43 -28.5 -71.5t-71.5 -28.5q-37 0 -60.5 23.5t-23.5 60.5z" />
<glyph unicode="&#xb8;" horiz-adv-x="1024" d="M217 -281l16 35q9 22 33 8q58 -30 103 -30q102 0 102 63q0 47 -90 47h-19q-14 0 -19 8t-1 21l53 143h84l-43 -116q63 -6 96 -34.5t33 -74.5q0 -67 -51 -104t-143 -37q-85 0 -146 39q-17 11 -8 32z" />
<glyph unicode="&#xb9;" horiz-adv-x="675" d="M311 1315q-13 23 8 37l256 172q13 10 33 10h29q28 0 25 -29l-119 -737q-3 -25 -29 -25h-43q-28 0 -25 29l101 631l-182 -123q-22 -16 -37 8z" />
<glyph unicode="&#xba;" horiz-adv-x="749" d="M121 721q0 33 6 67l35 222q47 293 325 293q126 0 195.5 -61t69.5 -173q0 -24 -7 -68l-32 -223q-44 -291 -326 -291q-128 0 -197 60t-69 174zM233 733q0 -149 158 -149q93 0 143.5 52.5t69.5 162.5l31 192q6 35 6 62q0 153 -160 153q-93 0 -143.5 -53t-67.5 -164l-30 -194 q-7 -40 -7 -62z" />
<glyph unicode="&#xbb;" horiz-adv-x="849" d="M29.5 129.5q-5.5 10.5 5.5 24.5l282 360l-170 342q-7 15 -0.5 25t21.5 10h53q24 0 33 -21l172 -344q10 -23 -4 -39l-277 -352q-13 -16 -36 -16h-56q-18 0 -23.5 10.5zM389.5 129.5q-5.5 10.5 5.5 24.5l283 360l-170 342q-7 15 -1 25t21 10h54q23 0 32 -21l172 -344 q10 -23 -4 -39l-276 -352q-13 -16 -37 -16h-55q-19 0 -24.5 10.5z" />
<glyph unicode="&#xbc;" horiz-adv-x="1624" d="M272 1059q-13 22 9 37l256 172q12 10 32 10h29q28 0 25 -29l-119 -737q-3 -25 -29 -25h-43q-27 0 -24 29l100 631l-182 -123q-22 -16 -37 8zM354 10q-5 10 6 23l1002 1229q13 16 35 16h55q18 0 22.5 -10t-6.5 -23l-1001 -1229q-13 -16 -35 -16h-55q-18 0 -23 10zM963 209 l8 47q3 19 14 33l447 487q12 15 32 15h47q28 0 25 -29l-80 -494h66q27 0 24 -28l-4 -35q-3 -25 -29 -25h-71l-25 -155q-3 -25 -28 -25h-43q-28 0 -25 29l25 151h-359q-27 0 -24 29zM1085 268h275l59 373h-2z" />
<glyph unicode="&#xbd;" horiz-adv-x="1624" d="M272 1059q-13 22 9 37l256 172q12 10 32 10h29q28 0 25 -29l-119 -737q-3 -25 -29 -25h-43q-27 0 -24 29l100 631l-182 -123q-22 -16 -37 8zM272.5 10q-4.5 10 6.5 23l1001 1229q13 16 35 16h55q18 0 22.5 -10t-6.5 -23l-1001 -1229q-13 -16 -35 -16h-55q-18 0 -22.5 10z M969 29l6 34q4 21 16 31l350 309q68 60 94.5 102t26.5 95q0 54 -36 85.5t-99 31.5q-112 0 -182 -96q-18 -25 -39 -7l-27 23q-21 15 -6 37q106 131 264 131q101 0 161.5 -55.5t60.5 -149.5q0 -77 -32.5 -132t-121.5 -130l-293 -248v-2h338q28 0 25 -29l-7 -34q-3 -25 -28 -25 h-447q-27 0 -24 29z" />
<glyph unicode="&#xbe;" horiz-adv-x="1624" d="M109 584q-15 21 4 37l26 22q21 18 37 -4q57 -78 186 -78q91 0 144 45.5t53 124.5q0 125 -174 125h-47q-28 0 -25 29l4 30q3 25 29 25h43q207 0 207 147q0 57 -37 87t-106 30q-105 0 -185 -80q-21 -21 -37 -2l-24 29q-16 19 2 37q104 104 256 104q105 0 167 -52t62 -142 q0 -78 -39 -129t-114 -70v-2q114 -46 114 -172q0 -120 -78.5 -186t-216.5 -66q-169 0 -251 111zM364.5 10q-4.5 10 6.5 23l1001 1229q13 16 35 16h55q18 0 23 -10t-6 -23l-1002 -1229q-13 -16 -35 -16h-55q-18 0 -22.5 10zM963 209l8 47q3 19 14 33l447 487q12 15 32 15h47 q28 0 25 -29l-80 -494h66q27 0 24 -28l-4 -35q-3 -25 -29 -25h-71l-25 -155q-3 -25 -28 -25h-43q-28 0 -25 29l25 151h-359q-27 0 -24 29zM1085 268h275l59 373h-2z" />
<glyph unicode="&#xbf;" horiz-adv-x="921" d="M23 295q0 138 59.5 226.5t214.5 170.5q119 63 169.5 120.5t61.5 137.5l7 39q3 29 32 29h56q31 0 28 -33l-8 -53q-15 -105 -75 -180t-189 -146q-128 -70 -177.5 -138t-49.5 -167q0 -100 63.5 -156.5t177.5 -56.5q98 0 186 48.5t154 139.5q19 25 43 7l41 -37q22 -19 4 -43 q-83 -110 -196.5 -169t-243.5 -59q-164 0 -261 87t-97 233zM547 1284q0 43 28.5 71.5t71.5 28.5q37 0 60.5 -23.5t23.5 -60.5q0 -41 -30 -69.5t-70 -28.5q-37 0 -60.5 23.5t-23.5 58.5z" />
<glyph unicode="&#xc0;" horiz-adv-x="1189" d="M-12 37l659 1300q11 23 37 23h88q29 0 35 -27l248 -1300q7 -33 -29 -33h-70q-29 0 -32 29l-50 266h-614l-137 -272q-9 -23 -35 -23h-78q-38 0 -22 37zM317 412h535l-145 788h-2zM569 1792q6 10 23 10h70q23 0 32 -20l123 -252q6 -14 0.5 -22.5t-20.5 -8.5h-56 q-21 0 -30 19l-140 249q-8 15 -2 25z" />
<glyph unicode="&#xc1;" horiz-adv-x="1189" d="M-12 37l659 1300q11 23 37 23h88q29 0 35 -27l248 -1300q7 -33 -29 -33h-70q-29 0 -32 29l-50 266h-614l-137 -272q-9 -23 -35 -23h-78q-38 0 -22 37zM317 412h535l-145 788h-2zM687.5 1508.5q-4.5 9.5 6.5 23.5l203 254q13 16 37 16h76q19 0 23.5 -11t-7.5 -24 l-221 -254q-11 -14 -33 -14h-63q-17 0 -21.5 9.5z" />
<glyph unicode="&#xc2;" horiz-adv-x="1189" d="M-12 37l659 1300q11 23 37 23h88q29 0 35 -27l248 -1300q7 -33 -29 -33h-70q-29 0 -32 29l-50 266h-614l-137 -272q-9 -23 -35 -23h-78q-38 0 -22 37zM317 412h535l-145 788h-2zM508.5 1508.5q-4.5 9.5 7.5 23.5l215 254q13 16 35 16h65q24 0 33 -20l133 -252 q7 -14 2 -22.5t-20 -8.5h-51q-22 0 -31 19l-104 192l-172 -197q-11 -14 -33 -14h-58q-17 0 -21.5 9.5z" />
<glyph unicode="&#xc3;" horiz-adv-x="1189" d="M-12 37l659 1300q11 23 37 23h88q29 0 35 -27l248 -1300q7 -33 -29 -33h-70q-29 0 -32 29l-50 266h-614l-137 -272q-9 -23 -35 -23h-78q-38 0 -22 37zM317 412h535l-145 788h-2zM481 1559q24 90 74 137t117 47q37 0 66.5 -15t62.5 -51q46 -49 86 -49q64 0 98 94 q7 23 29 23h35q14 0 20 -9t2 -24q-26 -92 -75 -139t-115 -47q-37 0 -66 14t-65 51q-27 28 -45 38.5t-41 10.5q-64 0 -99 -92q-9 -24 -30 -24h-31q-32 0 -23 35z" />
<glyph unicode="&#xc4;" horiz-adv-x="1189" d="M-12 37l659 1300q11 23 37 23h88q29 0 35 -27l248 -1300q7 -33 -29 -33h-70q-29 0 -32 29l-50 266h-614l-137 -272q-9 -23 -35 -23h-78q-38 0 -22 37zM317 412h535l-145 788h-2zM528 1630q0 38 25 64t63 26q34 0 56 -20.5t22 -52.5q0 -38 -26 -64.5t-64 -26.5 q-34 0 -55 21t-21 53zM856 1630q0 38 25 64t63 26q34 0 56 -20.5t22 -52.5q0 -38 -26 -64.5t-64 -26.5q-34 0 -55 21t-21 53z" />
<glyph unicode="&#xc5;" horiz-adv-x="1189" d="M-12 37l659 1300q11 23 37 23h88q29 0 35 -27l248 -1300q7 -33 -29 -33h-70q-29 0 -32 29l-50 266h-614l-137 -272q-9 -23 -35 -23h-78q-38 0 -22 37zM317 412h535l-145 788h-2zM614 1636q0 73 51.5 124.5t125.5 51.5q65 0 107 -41.5t42 -105.5q0 -75 -51 -125.5 t-125 -50.5q-65 0 -107.5 41.5t-42.5 105.5zM705 1638q0 -26 17.5 -43.5t45.5 -17.5q31 0 56.5 25.5t25.5 60.5q0 26 -18.5 43.5t-47.5 17.5q-31 0 -55 -25.5t-24 -60.5z" />
<glyph unicode="&#xc6;" horiz-adv-x="1802" d="M-52 11q-5 11 7 26l989 1304q16 19 37 19h831q15 0 22.5 -9t4.5 -24l-8 -55q-3 -29 -33 -29h-676l-78 -498h582q33 0 27 -32l-11 -56q-3 -28 -32 -28h-584l-82 -512h672q15 0 22 -9t4 -24l-8 -55q-3 -29 -32 -29h-777q-15 0 -22 9t-4 24l41 262h-535l-207 -277 q-15 -18 -37 -18h-88q-20 0 -25 11zM391 412h467l125 792h-2z" />
<glyph unicode="&#xc7;" horiz-adv-x="1087" d="M106 352q0 40 11 119l67 426q74 487 531 487q316 0 401 -251q10 -29 -18 -39l-58 -23q-27 -12 -39 19q-67 178 -292 178q-168 0 -266 -99t-130 -299l-59 -383q-10 -72 -10 -118q0 -277 284 -277q221 0 344 195q17 27 43 10l52 -33q24 -15 8 -43q-78 -122 -183.5 -182 t-250.5 -64l-29 -77q63 -6 96 -34.5t33 -74.5q0 -67 -51 -104t-144 -37q-84 0 -145 39q-17 11 -8 32l16 35q9 22 33 8q58 -30 102 -30q53 0 78 17.5t25 45.5q0 47 -90 47h-19q-14 0 -19 8t-1 21l39 106q-171 14 -261 109.5t-90 265.5z" />
<glyph unicode="&#xc8;" horiz-adv-x="1101" d="M98 33l205 1298q3 29 33 29h774q32 0 29 -33l-9 -55q-3 -29 -32 -29h-676l-78 -498h580q32 0 26 -32l-8 -56q-3 -28 -33 -28h-583l-82 -512h669q15 0 22.5 -9t4.5 -24l-8 -55q-3 -29 -33 -29h-774q-15 0 -22.5 9t-4.5 24zM563 1792q6 10 23 10h69q24 0 33 -20l123 -252 q6 -14 0.5 -22.5t-20.5 -8.5h-56q-21 0 -30 19l-140 249q-8 15 -2 25z" />
<glyph unicode="&#xc9;" horiz-adv-x="1101" d="M98 33l205 1298q3 29 33 29h774q32 0 29 -33l-9 -55q-3 -29 -32 -29h-676l-78 -498h580q32 0 26 -32l-8 -56q-3 -28 -33 -28h-583l-82 -512h669q15 0 22.5 -9t4.5 -24l-8 -55q-3 -29 -33 -29h-774q-15 0 -22.5 9t-4.5 24zM681 1508.5q-4 9.5 7 23.5l203 254q13 16 37 16 h76q19 0 23.5 -11t-7.5 -24l-221 -254q-11 -14 -33 -14h-64q-17 0 -21 9.5z" />
<glyph unicode="&#xca;" horiz-adv-x="1101" d="M98 33l205 1298q3 29 33 29h774q32 0 29 -33l-9 -55q-3 -29 -32 -29h-676l-78 -498h580q32 0 26 -32l-8 -56q-3 -28 -33 -28h-583l-82 -512h669q15 0 22.5 -9t4.5 -24l-8 -55q-3 -29 -33 -29h-774q-15 0 -22.5 9t-4.5 24zM502.5 1508.5q-4.5 9.5 7.5 23.5l215 254 q13 16 35 16h65q24 0 33 -20l133 -252q7 -14 2 -22.5t-20 -8.5h-51q-22 0 -31 19l-105 192l-172 -197q-11 -14 -32 -14h-58q-17 0 -21.5 9.5z" />
<glyph unicode="&#xcb;" horiz-adv-x="1101" d="M98 33l205 1298q3 29 33 29h774q32 0 29 -33l-9 -55q-3 -29 -32 -29h-676l-78 -498h580q32 0 26 -32l-8 -56q-3 -28 -33 -28h-583l-82 -512h669q15 0 22.5 -9t4.5 -24l-8 -55q-3 -29 -33 -29h-774q-15 0 -22.5 9t-4.5 24zM522 1630q0 38 25 64t63 26q34 0 56 -20.5 t22 -52.5q0 -38 -26 -64.5t-64 -26.5q-34 0 -55 21t-21 53zM850 1630q0 38 25 64t63 26q34 0 56 -20.5t22 -52.5q0 -38 -26 -64.5t-64 -26.5q-34 0 -55 21t-21 53z" />
<glyph unicode="&#xcc;" horiz-adv-x="477" d="M98 33l205 1298q3 29 33 29h72q15 0 22 -9t4 -24l-205 -1298q-3 -29 -32 -29h-72q-15 0 -22.5 9t-4.5 24zM210.5 1792q5.5 10 22.5 10h70q24 0 33 -20l123 -252q6 -13 0 -22t-21 -9h-55q-21 0 -31 19l-139 249q-8 15 -2.5 25z" />
<glyph unicode="&#xcd;" horiz-adv-x="477" d="M98 33l205 1298q3 29 33 29h72q15 0 22 -9t4 -24l-205 -1298q-3 -29 -32 -29h-72q-15 0 -22.5 9t-4.5 24zM329 1508.5q-4 9.5 7 23.5l203 254q13 16 36 16h76q19 0 24 -11t-7 -24l-222 -254q-11 -14 -32 -14h-64q-17 0 -21 9.5z" />
<glyph unicode="&#xce;" horiz-adv-x="477" d="M98 33l205 1298q3 29 33 29h72q15 0 22 -9t4 -24l-205 -1298q-3 -29 -32 -29h-72q-15 0 -22.5 9t-4.5 24zM150.5 1508.5q-4.5 9.5 7.5 23.5l215 254q13 16 35 16h65q24 0 33 -20l133 -252q7 -14 2 -22.5t-20 -8.5h-52q-21 0 -30 19l-105 192l-172 -197q-11 -14 -33 -14 h-57q-17 0 -21.5 9.5z" />
<glyph unicode="&#xcf;" horiz-adv-x="477" d="M98 33l205 1298q3 29 33 29h72q15 0 22 -9t4 -24l-205 -1298q-3 -29 -32 -29h-72q-15 0 -22.5 9t-4.5 24zM170 1630q0 38 25 64t63 26q34 0 56 -20.5t22 -52.5q0 -38 -26 -64.5t-64 -26.5q-34 0 -55 21t-21 53zM498 1630q0 38 25 64t63 26q34 0 56 -20.5t22 -52.5 q0 -38 -26.5 -64.5t-64.5 -26.5q-33 0 -54 21t-21 53z" />
<glyph unicode="&#xd0;" horiz-adv-x="1228" d="M76 664l8 55q3 29 33 29h114l93 583q3 29 32 29h404q206 0 313 -91t107 -268q0 -38 -11 -110l-69 -430q-37 -231 -171 -346t-372 -115h-412q-15 0 -22 9t-4 24l94 598h-111q-15 0 -22 9t-4 24zM264 117h297q178 0 278.5 91.5t131.5 280.5l63 385q10 62 10 105 q0 134 -74.5 199t-226.5 65h-301l-77 -495h282q15 0 22.5 -9t4.5 -24l-8 -56q-3 -28 -33 -28h-287z" />
<glyph unicode="&#xd1;" horiz-adv-x="1275" d="M98 33l205 1298q3 29 33 29h88q28 0 37 -25l469 -1112h2l176 1108q3 29 33 29h67q15 0 22.5 -9t4.5 -24l-205 -1298q-3 -29 -33 -29h-77q-28 0 -37 25l-477 1130h-3l-178 -1126q-3 -29 -32 -29h-68q-15 0 -22.5 9t-4.5 24zM524 1559q24 90 74 137t117 47q37 0 66.5 -15 t62.5 -51q46 -49 86 -49q64 0 98 94q7 23 29 23h35q14 0 20 -9t2 -24q-26 -92 -75 -139t-115 -47q-37 0 -66 14t-65 51q-27 28 -45 38.5t-41 10.5q-64 0 -99 -92q-9 -24 -30 -24h-31q-32 0 -23 35z" />
<glyph unicode="&#xd2;" horiz-adv-x="1198" d="M106 356q0 40 11 115l67 426q74 487 533 487q208 0 319 -97.5t111 -282.5q0 -47 -10 -115l-68 -426q-74 -488 -532 -488q-208 0 -319.5 98t-111.5 283zM244 375q0 -283 299 -283q172 0 268 98t129 299l59 383q11 75 11 113q0 144 -74 213.5t-223 69.5q-173 0 -271 -98.5 t-129 -299.5l-59 -383q-10 -68 -10 -112zM573 1792q6 10 23 10h70q23 0 32 -20l123 -252q6 -14 0.5 -22.5t-20.5 -8.5h-56q-21 0 -30 19l-140 249q-8 15 -2 25z" />
<glyph unicode="&#xd3;" horiz-adv-x="1198" d="M106 356q0 40 11 115l67 426q74 487 533 487q208 0 319 -97.5t111 -282.5q0 -47 -10 -115l-68 -426q-74 -488 -532 -488q-208 0 -319.5 98t-111.5 283zM244 375q0 -283 299 -283q172 0 268 98t129 299l59 383q11 75 11 113q0 144 -74 213.5t-223 69.5q-173 0 -271 -98.5 t-129 -299.5l-59 -383q-10 -68 -10 -112zM691.5 1508.5q-4.5 9.5 6.5 23.5l203 254q13 16 37 16h76q19 0 23.5 -11t-7.5 -24l-221 -254q-11 -14 -33 -14h-63q-17 0 -21.5 9.5z" />
<glyph unicode="&#xd4;" horiz-adv-x="1198" d="M106 356q0 40 11 115l67 426q74 487 533 487q208 0 319 -97.5t111 -282.5q0 -47 -10 -115l-68 -426q-74 -488 -532 -488q-208 0 -319.5 98t-111.5 283zM244 375q0 -283 299 -283q172 0 268 98t129 299l59 383q11 75 11 113q0 144 -74 213.5t-223 69.5q-173 0 -271 -98.5 t-129 -299.5l-59 -383q-10 -68 -10 -112zM513 1508.5q-5 9.5 7 23.5l215 254q13 16 35 16h66q23 0 32 -20l133 -252q7 -14 2 -22.5t-20 -8.5h-51q-22 0 -31 19l-104 192l-172 -197q-11 -14 -33 -14h-57q-17 0 -22 9.5z" />
<glyph unicode="&#xd5;" horiz-adv-x="1198" d="M106 356q0 40 11 115l67 426q74 487 533 487q208 0 319 -97.5t111 -282.5q0 -47 -10 -115l-68 -426q-74 -488 -532 -488q-208 0 -319.5 98t-111.5 283zM244 375q0 -283 299 -283q172 0 268 98t129 299l59 383q11 75 11 113q0 144 -74 213.5t-223 69.5q-173 0 -271 -98.5 t-129 -299.5l-59 -383q-10 -68 -10 -112zM485 1559q24 90 74 137t117 47q37 0 66.5 -15t62.5 -51q46 -49 86 -49q64 0 98 94q7 23 29 23h35q14 0 20 -9t2 -24q-26 -92 -75 -139t-115 -47q-37 0 -66 14t-65 51q-27 28 -45 38.5t-41 10.5q-64 0 -99 -92q-9 -24 -30 -24h-31 q-32 0 -23 35z" />
<glyph unicode="&#xd6;" horiz-adv-x="1198" d="M106 356q0 40 11 115l67 426q74 487 533 487q208 0 319 -97.5t111 -282.5q0 -47 -10 -115l-68 -426q-74 -488 -532 -488q-208 0 -319.5 98t-111.5 283zM244 375q0 -283 299 -283q172 0 268 98t129 299l59 383q11 75 11 113q0 144 -74 213.5t-223 69.5q-173 0 -271 -98.5 t-129 -299.5l-59 -383q-10 -68 -10 -112zM532 1630q0 38 25.5 64t63.5 26q34 0 55.5 -20.5t21.5 -52.5q0 -38 -26 -64.5t-64 -26.5q-34 0 -55 21t-21 53zM860 1630q0 38 25 64t63 26q34 0 56 -20.5t22 -52.5q0 -38 -26 -64.5t-64 -26.5q-34 0 -55 21t-21 53z" />
<glyph unicode="&#xd7;" d="M47 168q-22 25 2 43l424 364l-303 359q-20 23 0 43l49 41q24 21 41 -2l305 -361l422 363q24 18 41 -2l35 -39q21 -24 -2 -45l-422 -365l303 -360q18 -21 -4 -43l-43 -39q-23 -19 -43 4l-305 358l-420 -362q-22 -22 -43 2z" />
<glyph unicode="&#xd8;" horiz-adv-x="1198" d="M57 70l86 104q-37 75 -37 182q0 40 11 115l67 426q74 487 533 487q215 0 327 -106l70 86q20 23 41 2l39 -35q20 -20 2 -41l-86 -104q37 -75 37 -182q0 -47 -10 -115l-68 -426q-74 -488 -532 -488q-215 0 -328 107l-70 -86q-20 -23 -41 -2l-39 35q-20 20 -2 41zM244 375 q0 -24 4 -70h2l708 869q-73 94 -245 94q-173 0 -271 -98.5t-129 -299.5l-59 -383q-10 -68 -10 -112zM297 188q68 -96 246 -96q172 0 268 98t129 299l59 383q11 75 11 113q0 24 -4 70h-2z" />
<glyph unicode="&#xd9;" horiz-adv-x="1204" d="M131 344q0 46 10 111l138 876q3 29 32 29h72q15 0 22.5 -9t4.5 -24l-136 -860q-8 -52 -8 -105q0 -270 281 -270q163 0 253.5 92.5t121.5 286.5l137 860q3 29 33 29h67q15 0 22.5 -9t4.5 -24l-137 -883q-71 -469 -510 -469q-196 0 -302 95t-106 274zM575.5 1792 q5.5 10 22.5 10h70q23 0 32 -20l123 -252q6 -14 0.5 -22.5t-20.5 -8.5h-55q-22 0 -31 19l-139 249q-8 15 -2.5 25z" />
<glyph unicode="&#xda;" horiz-adv-x="1204" d="M131 344q0 46 10 111l138 876q3 29 32 29h72q15 0 22.5 -9t4.5 -24l-136 -860q-8 -52 -8 -105q0 -270 281 -270q163 0 253.5 92.5t121.5 286.5l137 860q3 29 33 29h67q15 0 22.5 -9t4.5 -24l-137 -883q-71 -469 -510 -469q-196 0 -302 95t-106 274zM693.5 1508.5 q-4.5 9.5 6.5 23.5l203 254q13 16 37 16h76q19 0 23.5 -11t-7.5 -24l-221 -254q-11 -14 -33 -14h-63q-17 0 -21.5 9.5z" />
<glyph unicode="&#xdb;" horiz-adv-x="1204" d="M131 344q0 46 10 111l138 876q3 29 32 29h72q15 0 22.5 -9t4.5 -24l-136 -860q-8 -52 -8 -105q0 -270 281 -270q163 0 253.5 92.5t121.5 286.5l137 860q3 29 33 29h67q15 0 22.5 -9t4.5 -24l-137 -883q-71 -469 -510 -469q-196 0 -302 95t-106 274zM515 1508.5 q-5 9.5 7 23.5l215 254q13 16 35 16h66q23 0 32 -20l134 -252q7 -14 1.5 -22.5t-20.5 -8.5h-51q-22 0 -31 19l-104 192l-172 -197q-11 -14 -33 -14h-57q-17 0 -22 9.5z" />
<glyph unicode="&#xdc;" horiz-adv-x="1204" d="M131 344q0 46 10 111l138 876q3 29 32 29h72q15 0 22.5 -9t4.5 -24l-136 -860q-8 -52 -8 -105q0 -270 281 -270q163 0 253.5 92.5t121.5 286.5l137 860q3 29 33 29h67q15 0 22.5 -9t4.5 -24l-137 -883q-71 -469 -510 -469q-196 0 -302 95t-106 274zM535 1630q0 38 25 64 t63 26q34 0 55.5 -20.5t21.5 -52.5q0 -38 -26 -64.5t-64 -26.5q-34 0 -54.5 21t-20.5 53zM862 1630q0 38 25 64t63 26q34 0 56 -20.5t22 -52.5q0 -38 -26 -64.5t-64 -26.5q-34 0 -55 21t-21 53z" />
<glyph unicode="&#xdd;" horiz-adv-x="1067" d="M159 1350q6 10 23 10h84q25 0 35 -23l264 -600l457 604q16 19 37 19h90q20 0 25 -11t-7 -26l-553 -713l-92 -581q-3 -29 -33 -29h-71q-15 0 -22.5 9t-4.5 24l90 581l-321 709q-7 17 -1 27zM624 1508.5q-4 9.5 7 23.5l203 254q13 16 36 16h76q19 0 24 -11t-7 -24 l-222 -254q-11 -14 -32 -14h-64q-17 0 -21 9.5z" />
<glyph unicode="&#xde;" horiz-adv-x="1107" d="M98 33l205 1298q3 29 33 29h72q15 0 22 -9t4 -24l-35 -221h273q208 0 311.5 -84t103.5 -258q0 -242 -129.5 -355.5t-406.5 -113.5h-279l-43 -266q-3 -29 -32 -29h-72q-15 0 -22.5 9t-4.5 24zM291 412h274q199 0 293 82.5t94 257.5q0 121 -72.5 179t-222.5 58h-276z" />
<glyph unicode="&#xdf;" horiz-adv-x="1126" d="M76 33l170 1075q26 166 140.5 258t295.5 92q161 0 252.5 -74t91.5 -206q0 -101 -47 -170.5t-160 -130.5q-87 -46 -120 -87.5t-33 -99.5q0 -46 31 -74t112 -49q120 -32 170.5 -90.5t50.5 -161.5q0 -161 -101 -250.5t-284 -89.5q-211 0 -315 107q-20 20 0 43l32 39 q20 24 44 0q80 -80 239 -80q121 0 190.5 58t69.5 159q0 63 -36 99.5t-134 68.5q-109 35 -152.5 83.5t-43.5 133.5q0 91 44 153.5t154 121.5q94 51 132 98.5t38 114.5q0 83 -61 129.5t-170 46.5q-129 0 -208 -65t-99 -189l-170 -1067q-3 -29 -33 -29h-64q-15 0 -22 9t-4 24z " />
<glyph unicode="&#xe0;" horiz-adv-x="929" d="M47 246q0 162 105.5 251t302.5 89h254l6 41q8 62 8 86q0 109 -56.5 161t-170.5 52q-119 0 -228 -95q-24 -21 -43 5l-30 41q-19 26 6 45q138 112 311 112q163 0 250.5 -79t87.5 -228q0 -48 -8 -92l-45 -283q-29 -190 -134 -283.5t-292 -93.5q-155 0 -239.5 71.5 t-84.5 199.5zM172 254q0 -82 54.5 -126t154.5 -44q131 0 201.5 71.5t93.5 223.5l16 102h-235q-138 0 -211.5 -57.5t-73.5 -169.5zM393 1454.5q6 9.5 23 9.5h69q24 0 33 -20l123 -252q6 -14 0.5 -22.5t-20.5 -8.5h-56q-21 0 -30 19l-140 250q-8 15 -2 24.5z" />
<glyph unicode="&#xe1;" horiz-adv-x="929" d="M47 246q0 162 105.5 251t302.5 89h254l6 41q8 62 8 86q0 109 -56.5 161t-170.5 52q-119 0 -228 -95q-24 -21 -43 5l-30 41q-19 26 6 45q138 112 311 112q163 0 250.5 -79t87.5 -228q0 -48 -8 -92l-45 -283q-29 -190 -134 -283.5t-292 -93.5q-155 0 -239.5 71.5 t-84.5 199.5zM172 254q0 -82 54.5 -126t154.5 -44q131 0 201.5 71.5t93.5 223.5l16 102h-235q-138 0 -211.5 -57.5t-73.5 -169.5zM511 1170.5q-4 9.5 7 23.5l203 254q13 16 37 16h76q19 0 23.5 -10t-7.5 -24l-221 -254q-12 -15 -33 -15h-64q-17 0 -21 9.5z" />
<glyph unicode="&#xe2;" horiz-adv-x="929" d="M47 246q0 162 105.5 251t302.5 89h254l6 41q8 62 8 86q0 109 -56.5 161t-170.5 52q-119 0 -228 -95q-24 -21 -43 5l-30 41q-19 26 6 45q138 112 311 112q163 0 250.5 -79t87.5 -228q0 -48 -8 -92l-45 -283q-29 -190 -134 -283.5t-292 -93.5q-155 0 -239.5 71.5 t-84.5 199.5zM172 254q0 -82 54.5 -126t154.5 -44q131 0 201.5 71.5t93.5 223.5l16 102h-235q-138 0 -211.5 -57.5t-73.5 -169.5zM332.5 1170.5q-4.5 9.5 7.5 23.5l215 254q13 16 35 16h65q24 0 33 -20l133 -252q7 -14 2 -22.5t-20 -8.5h-51q-22 0 -31 19l-105 192 l-172 -196q-12 -15 -32 -15h-58q-17 0 -21.5 9.5z" />
<glyph unicode="&#xe3;" horiz-adv-x="929" d="M47 246q0 162 105.5 251t302.5 89h254l6 41q8 62 8 86q0 109 -56.5 161t-170.5 52q-119 0 -228 -95q-24 -21 -43 5l-30 41q-19 26 6 45q138 112 311 112q163 0 250.5 -79t87.5 -228q0 -48 -8 -92l-45 -283q-29 -190 -134 -283.5t-292 -93.5q-155 0 -239.5 71.5 t-84.5 199.5zM172 254q0 -82 54.5 -126t154.5 -44q131 0 201.5 71.5t93.5 223.5l16 102h-235q-138 0 -211.5 -57.5t-73.5 -169.5zM305 1221q24 90 74 137t117 47q37 0 66.5 -15t62.5 -51q46 -49 86 -49q64 0 98 94q7 23 29 23h34q14 0 20.5 -9t2.5 -24q-26 -92 -75 -139 t-115 -47q-37 0 -67 14t-65 51q-27 28 -45 39t-41 11q-63 0 -98 -93q-9 -24 -31 -24h-30q-32 0 -23 35z" />
<glyph unicode="&#xe4;" horiz-adv-x="929" d="M47 246q0 162 105.5 251t302.5 89h254l6 41q8 62 8 86q0 109 -56.5 161t-170.5 52q-119 0 -228 -95q-24 -21 -43 5l-30 41q-19 26 6 45q138 112 311 112q163 0 250.5 -79t87.5 -228q0 -48 -8 -92l-45 -283q-29 -190 -134 -283.5t-292 -93.5q-155 0 -239.5 71.5 t-84.5 199.5zM172 254q0 -82 54.5 -126t154.5 -44q131 0 201.5 71.5t93.5 223.5l16 102h-235q-138 0 -211.5 -57.5t-73.5 -169.5zM352 1292q0 38 25 64t63 26q34 0 56 -20.5t22 -52.5q0 -38 -26 -64t-64 -26q-34 0 -55 20.5t-21 52.5zM680 1292q0 38 25 64t63 26 q34 0 56 -20.5t22 -52.5q0 -38 -26 -64t-64 -26q-34 0 -55 20.5t-21 52.5z" />
<glyph unicode="&#xe5;" horiz-adv-x="929" d="M47 246q0 162 105.5 251t302.5 89h254l6 41q8 62 8 86q0 109 -56.5 161t-170.5 52q-119 0 -228 -95q-24 -21 -43 5l-30 41q-19 26 6 45q138 112 311 112q163 0 250.5 -79t87.5 -228q0 -48 -8 -92l-45 -283q-29 -190 -134 -283.5t-292 -93.5q-155 0 -239.5 71.5 t-84.5 199.5zM172 254q0 -82 54.5 -126t154.5 -44q131 0 201.5 71.5t93.5 223.5l16 102h-235q-138 0 -211.5 -57.5t-73.5 -169.5zM438 1298q0 74 51.5 125.5t124.5 51.5q65 0 107.5 -42t42.5 -106q0 -75 -51 -125.5t-125 -50.5q-65 0 -107.5 41.5t-42.5 105.5zM528 1300 q0 -26 18 -43.5t46 -17.5q31 0 56.5 25.5t25.5 60.5q0 26 -18.5 43.5t-47.5 17.5q-31 0 -55.5 -25.5t-24.5 -60.5z" />
<glyph unicode="&#xe6;" horiz-adv-x="1517" d="M47 246q0 160 104 247t300 87h258l8 47q8 47 8 92q0 107 -54 157t-167 50q-122 0 -236 -95q-24 -21 -43 5l-30 41q-18 23 4 45q138 112 313 112q244 0 297 -188h2q99 188 342 188q150 0 230.5 -77t80.5 -218q0 -48 -8 -92l-24 -143q-3 -29 -33 -29h-584l-14 -92 q-8 -44 -8 -84q0 -111 60.5 -163t184.5 -52q130 0 234 104q24 24 43 -2l31 -39q16 -22 -5 -43q-132 -129 -311 -129q-262 0 -319 195h-2q-95 -195 -351 -195q-146 0 -228.5 72.5t-82.5 198.5zM172 248q0 -81 53.5 -122.5t155.5 -41.5q129 0 200.5 72t94.5 223l16 96h-237 q-136 0 -209.5 -58t-73.5 -169zM831 580h496l8 53q8 47 8 94q0 102 -50.5 150.5t-155.5 48.5q-128 0 -200 -71.5t-97 -223.5z" />
<glyph unicode="&#xe7;" horiz-adv-x="837" d="M80 283q0 43 8 90l43 276q59 385 420 385q176 0 274 -98q21 -24 0 -45l-34 -35q-21 -22 -43 0q-70 70 -197 70q-130 0 -202 -72.5t-97 -228.5l-39 -242q-6 -43 -6 -82q0 -111 57 -164t172 -53q118 0 209 88q25 25 45 -2l29 -37q19 -22 -2 -43q-124 -112 -289 -115 l-29 -77q63 -6 96 -34.5t33 -74.5q0 -67 -51 -104t-143 -37q-85 0 -146 39q-17 11 -8 32l17 35q9 21 32 8q58 -30 103 -30q102 0 102 63q0 47 -90 47h-18q-14 0 -19.5 8t-1.5 21l41 109q-128 17 -197 94.5t-69 208.5z" />
<glyph unicode="&#xe8;" horiz-adv-x="929" d="M80 281q0 28 8 90l45 284q62 379 412 379q160 0 246 -76.5t86 -222.5q0 -18 -9 -88l-24 -153q-3 -29 -33 -29h-584l-12 -82q-8 -47 -8 -86q0 -110 60 -161.5t184 -51.5q123 0 233 104q22 26 43 -2l29 -39q19 -22 -2 -43q-132 -129 -314 -129q-174 0 -267 78t-93 228z M246 569h491l11 64q8 44 8 88q0 105 -53.5 155t-161.5 50q-126 0 -196.5 -71.5t-90.5 -223.5zM403.5 1454.5q5.5 9.5 22.5 9.5h70q23 0 32 -20l123 -252q6 -14 0.5 -22.5t-20.5 -8.5h-56q-21 0 -30 19l-139 250q-8 15 -2.5 24.5z" />
<glyph unicode="&#xe9;" horiz-adv-x="929" d="M80 281q0 28 8 90l45 284q62 379 412 379q160 0 246 -76.5t86 -222.5q0 -18 -9 -88l-24 -153q-3 -29 -33 -29h-584l-12 -82q-8 -47 -8 -86q0 -110 60 -161.5t184 -51.5q123 0 233 104q22 26 43 -2l29 -39q19 -22 -2 -43q-132 -129 -314 -129q-174 0 -267 78t-93 228z M246 569h491l11 64q8 44 8 88q0 105 -53.5 155t-161.5 50q-126 0 -196.5 -71.5t-90.5 -223.5zM521.5 1170.5q-4.5 9.5 6.5 23.5l203 254q13 16 37 16h76q19 0 23.5 -10t-7.5 -24l-221 -254q-12 -15 -33 -15h-63q-17 0 -21.5 9.5z" />
<glyph unicode="&#xea;" horiz-adv-x="929" d="M80 281q0 28 8 90l45 284q62 379 412 379q160 0 246 -76.5t86 -222.5q0 -18 -9 -88l-24 -153q-3 -29 -33 -29h-584l-12 -82q-8 -47 -8 -86q0 -110 60 -161.5t184 -51.5q123 0 233 104q22 26 43 -2l29 -39q19 -22 -2 -43q-132 -129 -314 -129q-174 0 -267 78t-93 228z M246 569h491l11 64q8 44 8 88q0 105 -53.5 155t-161.5 50q-126 0 -196.5 -71.5t-90.5 -223.5zM343 1170.5q-5 9.5 7 23.5l215 254q13 16 35 16h66q23 0 32 -20l133 -252q7 -14 2 -22.5t-20 -8.5h-51q-22 0 -31 19l-104 192l-172 -196q-12 -15 -33 -15h-57q-17 0 -22 9.5z " />
<glyph unicode="&#xeb;" horiz-adv-x="929" d="M80 281q0 28 8 90l45 284q62 379 412 379q160 0 246 -76.5t86 -222.5q0 -18 -9 -88l-24 -153q-3 -29 -33 -29h-584l-12 -82q-8 -47 -8 -86q0 -110 60 -161.5t184 -51.5q123 0 233 104q22 26 43 -2l29 -39q19 -22 -2 -43q-132 -129 -314 -129q-174 0 -267 78t-93 228z M246 569h491l11 64q8 44 8 88q0 105 -53.5 155t-161.5 50q-126 0 -196.5 -71.5t-90.5 -223.5zM362 1292q0 38 25.5 64t63.5 26q34 0 55.5 -20.5t21.5 -52.5q0 -38 -26 -64t-64 -26q-34 0 -55 20.5t-21 52.5zM690 1292q0 38 25 64t63 26q34 0 56 -20.5t22 -52.5 q0 -38 -26 -64t-64 -26q-34 0 -55 20.5t-21 52.5z" />
<glyph unicode="&#xec;" horiz-adv-x="423" d="M76 33l149 948q3 29 33 29h64q15 0 22 -9t4 -24l-149 -948q-3 -29 -33 -29h-64q-15 0 -22 9t-4 24zM131 1454.5q6 9.5 23 9.5h69q24 0 33 -20l123 -252q6 -13 0 -22t-21 -9h-55q-21 0 -31 19l-139 250q-8 15 -2 24.5z" />
<glyph unicode="&#xed;" horiz-adv-x="423" d="M76 33l149 948q3 29 33 29h64q15 0 22 -9t4 -24l-149 -948q-3 -29 -33 -29h-64q-15 0 -22 9t-4 24zM249 1170.5q-4 9.5 7 23.5l203 254q13 16 37 16h75q19 0 24 -10t-7 -24l-221 -254q-12 -15 -33 -15h-64q-17 0 -21 9.5z" />
<glyph unicode="&#xee;" horiz-adv-x="423" d="M70.5 1170.5q-4.5 9.5 7.5 23.5l215 254q13 16 35 16h65q24 0 33 -20l133 -252q7 -14 2 -22.5t-20 -8.5h-52q-21 0 -30 19l-105 192l-172 -196q-12 -15 -32 -15h-58q-17 0 -21.5 9.5zM76 33l149 948q3 29 33 29h64q15 0 22 -9t4 -24l-149 -948q-3 -29 -33 -29h-64 q-15 0 -22 9t-4 24z" />
<glyph unicode="&#xef;" horiz-adv-x="423" d="M76 33l149 948q3 29 33 29h64q15 0 22 -9t4 -24l-149 -948q-3 -29 -33 -29h-64q-15 0 -22 9t-4 24zM90 1292q0 38 25 64t63 26q34 0 56 -20.5t22 -52.5q0 -38 -26 -64t-64 -26q-34 0 -55 20.5t-21 52.5zM418 1292q0 38 25 64t63 26q34 0 56 -20.5t22 -52.5q0 -38 -26 -64 t-64 -26q-34 0 -55 20.5t-21 52.5z" />
<glyph unicode="&#xf0;" horiz-adv-x="987" d="M80 274q0 29 8 91l43 278q59 379 404 379q177 0 247 -125h2v10q0 220 -104 324l-139 -101q-25 -16 -41 9l-25 39q-16 23 6 39l109 77q-87 41 -211 56q-34 3 -27 36l10 48q6 27 35 24q182 -21 297 -90l117 86q25 18 41 -8l25 -39q16 -23 -7 -39l-92 -65q129 -135 129 -400 q0 -111 -20 -237l-51 -310q-62 -381 -418 -381q-163 0 -250.5 77t-87.5 222zM207 293q0 -107 54 -158t163 -51q128 0 198 71.5t95 223.5l37 242q6 43 6 81q0 211 -215 211q-128 0 -198 -71.5t-95 -223.5l-39 -241q-6 -47 -6 -84z" />
<glyph unicode="&#xf1;" horiz-adv-x="1011" d="M63 33l101 631q29 186 130.5 278t280.5 92q159 0 245.5 -75.5t86.5 -217.5q0 -26 -8 -88l-98 -624q-3 -29 -33 -29h-63q-15 0 -22.5 9t-4.5 24l94 608q8 47 8 86q0 102 -53 150.5t-160 48.5q-123 0 -191 -69.5t-91 -217.5l-99 -610q-3 -29 -32 -29h-64q-15 0 -22.5 9 t-4.5 24zM340 1221q24 90 73.5 137t116.5 47q37 0 66.5 -15t62.5 -51q46 -49 86 -49q65 0 99 94q7 23 28 23h35q14 0 20.5 -9t2.5 -24q-26 -91 -75 -138.5t-116 -47.5q-37 0 -66 14t-65 51q-27 28 -45 39t-41 11q-63 0 -98 -93q-9 -24 -31 -24h-31q-31 0 -22 35z" />
<glyph unicode="&#xf2;" horiz-adv-x="968" d="M78 274q0 47 8 88l47 293q62 379 420 379q163 0 250.5 -76.5t87.5 -222.5q0 -44 -8 -88l-47 -293q-59 -379 -418 -379q-164 0 -252 77t-88 222zM207 293q0 -107 54 -158t163 -51q127 0 196.5 71.5t94.5 223.5l39 254q8 44 8 88q0 205 -215 205q-129 0 -198.5 -71.5 t-94.5 -223.5l-41 -254q-6 -47 -6 -84zM405.5 1454.5q5.5 9.5 22.5 9.5h70q23 0 32 -20l123 -252q6 -14 0.5 -22.5t-20.5 -8.5h-55q-22 0 -31 19l-139 250q-8 15 -2.5 24.5z" />
<glyph unicode="&#xf3;" horiz-adv-x="968" d="M78 274q0 47 8 88l47 293q62 379 420 379q163 0 250.5 -76.5t87.5 -222.5q0 -44 -8 -88l-47 -293q-59 -379 -418 -379q-164 0 -252 77t-88 222zM207 293q0 -107 54 -158t163 -51q127 0 196.5 71.5t94.5 223.5l39 254q8 44 8 88q0 205 -215 205q-129 0 -198.5 -71.5 t-94.5 -223.5l-41 -254q-6 -47 -6 -84zM523.5 1170.5q-4.5 9.5 6.5 23.5l203 254q13 16 37 16h76q19 0 23.5 -10t-7.5 -24l-221 -254q-12 -15 -33 -15h-63q-17 0 -21.5 9.5z" />
<glyph unicode="&#xf4;" horiz-adv-x="968" d="M78 274q0 47 8 88l47 293q62 379 420 379q163 0 250.5 -76.5t87.5 -222.5q0 -44 -8 -88l-47 -293q-59 -379 -418 -379q-164 0 -252 77t-88 222zM207 293q0 -107 54 -158t163 -51q127 0 196.5 71.5t94.5 223.5l39 254q8 44 8 88q0 205 -215 205q-129 0 -198.5 -71.5 t-94.5 -223.5l-41 -254q-6 -47 -6 -84zM345 1170.5q-5 9.5 7 23.5l215 254q13 16 35 16h66q23 0 32 -20l134 -252q7 -14 1.5 -22.5t-20.5 -8.5h-51q-22 0 -31 19l-104 192l-172 -196q-12 -15 -33 -15h-57q-17 0 -22 9.5z" />
<glyph unicode="&#xf5;" horiz-adv-x="968" d="M78 274q0 47 8 88l47 293q62 379 420 379q163 0 250.5 -76.5t87.5 -222.5q0 -44 -8 -88l-47 -293q-59 -379 -418 -379q-164 0 -252 77t-88 222zM207 293q0 -107 54 -158t163 -51q127 0 196.5 71.5t94.5 223.5l39 254q8 44 8 88q0 205 -215 205q-129 0 -198.5 -71.5 t-94.5 -223.5l-41 -254q-6 -47 -6 -84zM317 1221q24 90 74 137t117 47q37 0 66.5 -15t62.5 -51q46 -49 86 -49q64 0 98 94q7 23 29 23h35q14 0 20 -9t2 -24q-26 -92 -75 -139t-115 -47q-37 0 -66 14t-65 51q-27 28 -45 39t-41 11q-64 0 -99 -93q-9 -24 -30 -24h-31 q-32 0 -23 35z" />
<glyph unicode="&#xf6;" horiz-adv-x="968" d="M78 274q0 47 8 88l47 293q62 379 420 379q163 0 250.5 -76.5t87.5 -222.5q0 -44 -8 -88l-47 -293q-59 -379 -418 -379q-164 0 -252 77t-88 222zM207 293q0 -107 54 -158t163 -51q127 0 196.5 71.5t94.5 223.5l39 254q8 44 8 88q0 205 -215 205q-129 0 -198.5 -71.5 t-94.5 -223.5l-41 -254q-6 -47 -6 -84zM365 1292q0 38 25 64t63 26q34 0 55.5 -20.5t21.5 -52.5q0 -38 -26 -64t-64 -26q-34 0 -54.5 20.5t-20.5 52.5zM692 1292q0 38 25 64t63 26q34 0 56 -20.5t22 -52.5q0 -38 -26 -64t-64 -26q-34 0 -55 20.5t-21 52.5z" />
<glyph unicode="&#xf7;" d="M51 547l8 53q3 29 33 29h934q15 0 22.5 -9t4.5 -24l-9 -53q-3 -29 -32 -29h-934q-15 0 -22.5 9t-4.5 24zM399 156q0 41 28 68.5t69 27.5q35 0 58.5 -22.5t23.5 -57.5q0 -42 -29 -69t-70 -27q-35 0 -57.5 23t-22.5 57zM528 971q0 41 28 68.5t69 27.5q35 0 58.5 -22.5 t23.5 -57.5q0 -42 -29 -69t-70 -27q-35 0 -57.5 23t-22.5 57z" />
<glyph unicode="&#xf8;" horiz-adv-x="968" d="M45 66l59 69q-26 59 -26 139q0 26 8 88l47 293q62 379 420 379q160 0 248 -76l47 56q20 23 41 2l33 -31q21 -18 2 -41l-60 -70q27 -58 27 -139q0 -44 -8 -88l-47 -293q-59 -379 -418 -379q-162 0 -250 76l-47 -55q-20 -23 -41 -2l-33 31q-21 18 -2 41zM207 260h2l512 602 q-55 64 -174 64q-129 0 -198.5 -71.5t-94.5 -223.5l-41 -254q-6 -47 -6 -84v-33zM250 147q51 -63 174 -63q127 0 196.5 71.5t94.5 223.5l39 254q8 52 8 106v11h-2z" />
<glyph unicode="&#xf9;" horiz-adv-x="999" d="M106 268q0 31 7 82l102 631q3 29 33 29h63q15 0 22.5 -9t4.5 -24l-96 -617q-9 -52 -9 -81q0 -195 207 -195q124 0 191 67t90 211l98 619q3 29 33 29h59q15 0 22.5 -9t4.5 -24l-100 -637q-56 -365 -404 -365q-159 0 -243.5 75.5t-84.5 217.5zM421.5 1454.5 q5.5 9.5 22.5 9.5h70q24 0 33 -20l123 -252q6 -13 0 -22t-21 -9h-55q-22 0 -31 19l-139 250q-8 15 -2.5 24.5z" />
<glyph unicode="&#xfa;" horiz-adv-x="999" d="M106 268q0 31 7 82l102 631q3 29 33 29h63q15 0 22.5 -9t4.5 -24l-96 -617q-9 -52 -9 -81q0 -195 207 -195q124 0 191 67t90 211l98 619q3 29 33 29h59q15 0 22.5 -9t4.5 -24l-100 -637q-56 -365 -404 -365q-159 0 -243.5 75.5t-84.5 217.5zM540 1170.5q-4 9.5 7 23.5 l203 254q13 16 36 16h76q19 0 24 -10t-7 -24l-222 -254q-12 -15 -32 -15h-64q-17 0 -21 9.5z" />
<glyph unicode="&#xfb;" horiz-adv-x="999" d="M106 268q0 31 7 82l102 631q3 29 33 29h63q15 0 22.5 -9t4.5 -24l-96 -617q-9 -52 -9 -81q0 -195 207 -195q124 0 191 67t90 211l98 619q3 29 33 29h59q15 0 22.5 -9t4.5 -24l-100 -637q-56 -365 -404 -365q-159 0 -243.5 75.5t-84.5 217.5zM361.5 1170.5 q-4.5 9.5 7.5 23.5l215 254q13 16 34 16h66q24 0 33 -20l133 -252q7 -14 1.5 -22.5t-20.5 -8.5h-51q-20 0 -30 19l-105 192l-172 -196q-12 -15 -33 -15h-57q-17 0 -21.5 9.5z" />
<glyph unicode="&#xfc;" horiz-adv-x="999" d="M106 268q0 31 7 82l102 631q3 29 33 29h63q15 0 22.5 -9t4.5 -24l-96 -617q-9 -52 -9 -81q0 -195 207 -195q124 0 191 67t90 211l98 619q3 29 33 29h59q15 0 22.5 -9t4.5 -24l-100 -637q-56 -365 -404 -365q-159 0 -243.5 75.5t-84.5 217.5zM381 1292q0 38 25 64t63 26 q34 0 56 -20.5t22 -52.5q0 -38 -26 -64t-64 -26q-34 0 -55 20.5t-21 52.5zM709 1292q0 38 25 64t63 26q34 0 55.5 -20.5t21.5 -52.5q0 -38 -26 -64t-64 -26q-34 0 -54.5 20.5t-20.5 52.5z" />
<glyph unicode="&#xfd;" horiz-adv-x="1024" d="M57 -190l31 38q9 12 22 12.5t23 -10.5q90 -94 252 -94q122 0 196 68t93 194l16 103h-2q-88 -117 -268 -117q-149 0 -229 74.5t-80 214.5q0 48 8 92l96 596q3 29 33 29h63q15 0 22.5 -9t4.5 -24l-92 -580q-6 -47 -6 -82q0 -202 211 -202q122 0 191.5 71t92.5 215l92 582 q3 29 33 29h64q15 0 22 -9t4 -24l-155 -979q-26 -166 -133.5 -258t-278.5 -92q-216 0 -326 119q-20 20 0 43zM546 1170.5q-4 9.5 7 23.5l203 254q13 16 37 16h75q19 0 24 -10t-7 -24l-221 -254q-12 -15 -33 -15h-64q-17 0 -21 9.5z" />
<glyph unicode="&#xfe;" horiz-adv-x="1009" d="M25 -295l268 1700q3 29 33 29h63q15 0 22.5 -9t4.5 -24l-76 -488h2q89 121 270 121q155 0 237.5 -76t82.5 -219q0 -48 -8 -92l-47 -293q-59 -379 -406 -379q-193 0 -256 138h-2l-66 -412q-3 -29 -32 -29h-64q-15 0 -22 9t-4 24zM248 293q0 -104 55.5 -156.5t161.5 -52.5 q127 0 196.5 72t92.5 225l41 254q8 41 8 86q0 205 -217 205q-245 0 -291 -295l-39 -254q-8 -47 -8 -84z" />
<glyph unicode="&#xff;" horiz-adv-x="1024" d="M57 -190l31 38q9 12 22 12.5t23 -10.5q90 -94 252 -94q122 0 196 68t93 194l16 103h-2q-88 -117 -268 -117q-149 0 -229 74.5t-80 214.5q0 48 8 92l96 596q3 29 33 29h63q15 0 22.5 -9t4.5 -24l-92 -580q-6 -47 -6 -82q0 -202 211 -202q122 0 191.5 71t92.5 215l92 582 q3 29 33 29h64q15 0 22 -9t4 -24l-155 -979q-26 -166 -133.5 -258t-278.5 -92q-216 0 -326 119q-20 20 0 43zM387 1292q0 38 25 64t63 26q34 0 56 -20.5t22 -52.5q0 -38 -26 -64t-64 -26q-34 0 -55 20.5t-21 52.5zM715 1292q0 38 25 64t63 26q34 0 56 -20.5t22 -52.5 q0 -38 -26 -64t-64 -26q-34 0 -55 20.5t-21 52.5z" />
<glyph unicode="&#x152;" horiz-adv-x="1832" d="M106 358q0 38 11 113l67 428q37 232 171 346.5t372 114.5h1116q15 0 22.5 -9t4.5 -24l-8 -55q-3 -29 -33 -29h-676l-78 -498h582q32 0 26 -32l-10 -56q-3 -28 -33 -28h-583l-82 -512h672q15 0 22 -9t4 -24l-8 -55q-3 -29 -33 -29h-1106q-207 0 -313.5 90.5t-106.5 267.5z M246 383q0 -136 72 -201t223 -65h301l178 1126h-297q-177 0 -278 -92t-132 -281l-59 -383q-8 -52 -8 -104z" />
<glyph unicode="&#x153;" horiz-adv-x="1558" d="M78 272q0 46 8 90l47 293q62 379 410 379q248 0 305 -188h2q92 188 336 188q152 0 235.5 -78t83.5 -221q0 -47 -8 -88l-27 -153q-3 -29 -32 -29h-584l-12 -82q-8 -44 -8 -88q0 -111 60 -161t185 -50q65 0 119.5 25t110.5 79q25 25 45 -2l28 -39q19 -22 -2 -43 q-132 -129 -307 -129q-265 0 -321 193h-2q-91 -193 -342 -193q-158 0 -244 76.5t-86 220.5zM207 293q0 -107 54 -158t163 -51q127 0 196.5 71.5t94.5 223.5l39 254q8 44 8 88q0 205 -215 205q-129 0 -198.5 -71.5t-94.5 -223.5l-41 -254q-6 -47 -6 -84zM870 569h494l10 64 q8 44 8 88q0 205 -213 205q-127 0 -197.5 -72.5t-92.5 -224.5z" />
<glyph unicode="&#x178;" horiz-adv-x="1067" d="M159 1350q6 10 23 10h84q25 0 35 -23l264 -600l457 604q16 19 37 19h90q20 0 25 -11t-7 -26l-553 -713l-92 -581q-3 -29 -33 -29h-71q-15 0 -22.5 9t-4.5 24l90 581l-321 709q-7 17 -1 27zM465 1630q0 38 25 64t63 26q34 0 56 -20.5t22 -52.5q0 -38 -26 -64.5t-64 -26.5 q-34 0 -55 21t-21 53zM793 1630q0 38 25 64t63 26q34 0 55.5 -20.5t21.5 -52.5q0 -38 -26 -64.5t-64 -26.5q-34 0 -54.5 21t-20.5 53z" />
<glyph unicode="&#x2c6;" horiz-adv-x="1024" d="M373.5 1170.5q-4.5 9.5 7.5 23.5l215 254q13 16 35 16h65q24 0 33 -20l133 -252q7 -14 2 -22.5t-20 -8.5h-51q-21 0 -31 19l-105 192l-172 -196q-12 -15 -32 -15h-58q-17 0 -21.5 9.5z" />
<glyph unicode="&#x2dc;" horiz-adv-x="1024" d="M344 1221q24 90 74 137t117 47q37 0 66.5 -15t62.5 -51q46 -49 86 -49q64 0 98 94q7 23 29 23h34q14 0 20.5 -9t2.5 -24q-26 -91 -75 -138.5t-116 -47.5q-37 0 -66 14t-65 51q-27 28 -45 39t-41 11q-63 0 -98 -93q-9 -24 -31 -24h-30q-32 0 -23 35z" />
<glyph unicode="&#x2000;" horiz-adv-x="906" />
<glyph unicode="&#x2001;" horiz-adv-x="1812" />
<glyph unicode="&#x2002;" horiz-adv-x="906" />
<glyph unicode="&#x2003;" horiz-adv-x="1812" />
<glyph unicode="&#x2004;" horiz-adv-x="604" />
<glyph unicode="&#x2005;" horiz-adv-x="453" />
<glyph unicode="&#x2006;" horiz-adv-x="302" />
<glyph unicode="&#x2007;" horiz-adv-x="302" />
<glyph unicode="&#x2008;" horiz-adv-x="226" />
<glyph unicode="&#x2009;" horiz-adv-x="362" />
<glyph unicode="&#x200a;" horiz-adv-x="100" />
<glyph unicode="&#x2010;" horiz-adv-x="675" d="M66 528l10 60q3 28 33 28h491q33 0 27 -32l-11 -60q-3 -28 -32 -28h-490q-31 0 -28 32z" />
<glyph unicode="&#x2011;" horiz-adv-x="675" d="M66 528l10 60q3 28 33 28h491q33 0 27 -32l-11 -60q-3 -28 -32 -28h-490q-31 0 -28 32z" />
<glyph unicode="&#x2012;" horiz-adv-x="675" d="M66 528l10 60q3 28 33 28h491q33 0 27 -32l-11 -60q-3 -28 -32 -28h-490q-31 0 -28 32z" />
<glyph unicode="&#x2013;" horiz-adv-x="1024" d="M66 537l8 43q3 26 30 26h844q13 0 21 -8.5t6 -22.5l-8 -43q-3 -26 -31 -26h-844q-13 0 -20.5 8.5t-5.5 22.5z" />
<glyph unicode="&#x2014;" horiz-adv-x="1843" d="M66 537l8 43q3 26 30 26h1663q13 0 21 -8.5t6 -22.5l-8 -43q-3 -26 -31 -26h-1663q-13 0 -20.5 8.5t-5.5 22.5z" />
<glyph unicode="&#x2018;" horiz-adv-x="450" d="M231 1098q0 64 44.5 143t123.5 139q16 13 29 -4l18 -22q13 -16 -4 -29q-71 -58 -96 -143q30 -6 47 -27t17 -51q0 -40 -28 -65t-69 -25q-36 0 -59 22.5t-23 61.5z" />
<glyph unicode="&#x2019;" horiz-adv-x="450" d="M225 1044q-13 16 4 29q72 59 97 144q-30 6 -47 26.5t-17 50.5q0 40 27.5 65t68.5 25q36 0 59 -22.5t23 -61.5q0 -64 -44.5 -143t-123.5 -139q-15 -12 -28 4z" />
<glyph unicode="&#x201a;" horiz-adv-x="450" d="M31 -182q-12 15 4 28q71 58 96 144q-29 6 -46 26.5t-17 51.5q0 40 27.5 65t68.5 25q36 0 59 -22.5t23 -61.5q0 -64 -44.5 -143.5t-123.5 -139.5q-16 -13 -29 4z" />
<glyph unicode="&#x201c;" horiz-adv-x="790" d="M231 1098q0 64 44.5 143t123.5 139q16 13 29 -4l18 -22q13 -16 -4 -29q-71 -58 -96 -143q30 -6 47 -27t17 -51q0 -40 -28 -65t-69 -25q-36 0 -59 22.5t-23 61.5zM569 1098q0 64 44.5 143t123.5 139q16 13 29 -4l18 -22q13 -16 -4 -29q-71 -58 -96 -143q30 -6 47 -27 t17 -51q0 -40 -28 -65t-69 -25q-36 0 -59 22.5t-23 61.5z" />
<glyph unicode="&#x201d;" horiz-adv-x="790" d="M225 1044q-13 16 4 29q72 59 97 144q-30 6 -47 26.5t-17 50.5q0 40 27.5 65t68.5 25q36 0 59 -22.5t23 -61.5q0 -64 -44.5 -143t-123.5 -139q-15 -12 -28 4zM563 1044q-13 16 4 29q72 59 97 144q-30 6 -47 26.5t-17 50.5q0 40 27.5 65t68.5 25q36 0 59 -22.5t23 -61.5 q0 -64 -44.5 -143t-123.5 -139q-15 -12 -28 4z" />
<glyph unicode="&#x201e;" horiz-adv-x="790" d="M31 -182q-12 15 4 28q71 58 96 144q-29 6 -46 26.5t-17 51.5q0 40 27.5 65t68.5 25q36 0 59 -22.5t23 -61.5q0 -64 -44.5 -143.5t-123.5 -139.5q-16 -13 -29 4zM369 -182q-12 15 4 28q71 58 96 144q-29 6 -46 26.5t-17 51.5q0 40 27.5 65t68.5 25q36 0 59 -22.5t23 -61.5 q0 -64 -44.5 -143.5t-123.5 -139.5q-16 -13 -29 4z" />
<glyph unicode="&#x2022;" horiz-adv-x="1024" d="M283 578q0 108 78.5 185t185.5 77q95 0 159 -64t64 -158q0 -109 -77.5 -186.5t-184.5 -77.5q-98 0 -161.5 64t-63.5 160z" />
<glyph unicode="&#x2026;" horiz-adv-x="1843" d="M188 59q0 41 30.5 70t70.5 29q37 0 60.5 -23.5t23.5 -58.5q0 -43 -29 -72t-72 -29q-37 0 -60.5 23.5t-23.5 60.5zM762 59q0 41 30 70t70 29q37 0 60.5 -23.5t23.5 -58.5q0 -43 -28.5 -72t-71.5 -29q-37 0 -60.5 23.5t-23.5 60.5zM1335 59q0 41 30.5 70t70.5 29 q37 0 60.5 -23.5t23.5 -58.5q0 -43 -29 -72t-72 -29q-37 0 -60.5 23.5t-23.5 60.5z" />
<glyph unicode="&#x202f;" horiz-adv-x="362" />
<glyph unicode="&#x2039;" horiz-adv-x="487" d="M63 485q-9 22 5 39l276 350q14 17 37 17h55q19 0 24.5 -10.5t-5.5 -24.5l-283 -358l168 -344q7 -15 0.5 -25t-21.5 -10h-53q-24 0 -33 20z" />
<glyph unicode="&#x203a;" horiz-adv-x="487" d="M29.5 129.5q-5.5 10.5 5.5 24.5l282 360l-170 342q-7 15 -0.5 25t21.5 10h53q24 0 33 -21l172 -344q10 -23 -4 -39l-277 -352q-13 -16 -36 -16h-56q-18 0 -23.5 10.5z" />
<glyph unicode="&#x205f;" horiz-adv-x="453" />
<glyph unicode="&#x20ac;" d="M68 477l8 49q3 25 28 25h80l31 190h-78q-28 0 -22 29l8 49q3 25 29 25h79l5 22q32 214 152.5 325.5t322.5 111.5q133 0 230.5 -55.5t143.5 -157.5q12 -27 -16 -41l-53 -25q-29 -13 -41 12q-32 75 -103 114.5t-170 39.5q-288 0 -342 -346h451q15 0 20.5 -9t-0.5 -22 l-20 -51q-9 -21 -31 -21h-436l-31 -190h387q15 0 21.5 -8.5t1.5 -22.5l-16 -49q-8 -22 -31 -22h-379q-8 -52 -8 -107q0 -130 64.5 -192t193.5 -62q191 0 305 164q16 26 41 8l45 -33q24 -18 8 -43q-143 -209 -414 -209q-179 0 -277.5 90.5t-98.5 256.5q0 51 8 98l4 29h-76 q-27 0 -24 28z" />
<glyph unicode="&#x2122;" horiz-adv-x="1562" d="M158 1305l4 30q3 25 28 25h463q28 0 25 -29l-4 -31q-3 -24 -29 -24h-186l-99 -617q-3 -24 -28 -24h-41q-28 0 -25 29l99 612h-183q-27 0 -24 29zM709 664l106 671q3 25 29 25h84q23 0 30 -23l144 -567l323 571q9 19 31 19h98q28 0 25 -29l-106 -672q-3 -24 -29 -24h-43 q-28 0 -25 29l97 585h-3l-340 -596q-9 -18 -30 -18h-29q-25 0 -31 22l-145 582h-2l-94 -580q-3 -24 -29 -24h-37q-27 0 -24 29z" />
<glyph unicode="&#x25fc;" horiz-adv-x="1013" d="M0 0v1014h1014v-1014h-1014z" />
</font>
</defs>
</svg>
