<?xml version="1.0" standalone="no"?>
<!DOCTYPE svg PUBLIC "-//W3C//DTD SVG 1.1//EN" "http://www.w3.org/Graphics/SVG/1.1/DTD/svg11.dtd" >
<svg xmlns="http://www.w3.org/2000/svg">
<metadata></metadata>
<defs>
<font id="kirolight" horiz-adv-x="1083" >
<font-face units-per-em="2048" ascent="1577" descent="-471" />
<missing-glyph horiz-adv-x="440" />
<glyph unicode="&#xfb01;" horiz-adv-x="1038" d="M39 932v47q0 31 31 31h123v108q0 162 88 251t251 89q157 0 259 -76q23 -20 6 -43l-29 -41q-18 -24 -45 -4q-78 56 -184 56q-109 0 -165.5 -61.5t-56.5 -176.5v-102h543q31 0 31 -31v-948q0 -31 -31 -31h-63q-31 0 -31 31v870h-449v-870q0 -31 -30 -31h-64q-30 0 -30 31 v870h-123q-31 0 -31 31z" />
<glyph unicode="&#xfb02;" horiz-adv-x="1058" d="M39 932v47q0 31 31 31h123v94q0 166 92 260t256 94q146 0 245 -63v8q0 31 31 31h64q30 0 30 -31v-1372q0 -31 -30 -31h-64q-31 0 -31 31v1222q-38 41 -101.5 69t-137.5 28q-107 0 -168.5 -67t-61.5 -185v-88h283q31 0 31 -31v-47q0 -31 -31 -31h-283v-870q0 -31 -30 -31 h-64q-30 0 -30 31v870h-123q-31 0 -31 31z" />
<glyph unicode="&#xfb03;" horiz-adv-x="1613" d="M39 932v47q0 31 31 31h123v73q0 166 92 260.5t256 94.5q172 0 290 -99q89 119 279 119q156 0 258 -76q23 -20 6 -43l-28 -41q-18 -25 -46 -4q-78 56 -184 56q-109 0 -165 -61.5t-56 -176.5v-102h543q30 0 30 -31v-948q0 -31 -30 -31h-64q-31 0 -31 31v870h-448v-870 q0 -31 -31 -31h-63q-31 0 -31 31v870h-453v-870q0 -31 -30 -31h-64q-30 0 -30 31v870h-123q-31 0 -31 31zM317 1010h453v108q0 62 12 111q-89 100 -235 100q-107 0 -168.5 -67t-61.5 -185v-67z" />
<glyph unicode="&#xfb04;" horiz-adv-x="1634" d="M39 932v47q0 31 31 31h123v73q0 166 92 260.5t256 94.5q176 0 295 -103q91 123 282 123q147 0 246 -63v8q0 31 31 31h63q31 0 31 -31v-1372q0 -31 -31 -31h-63q-31 0 -31 31v1222q-38 41 -102 69t-138 28q-107 0 -168 -67t-61 -185v-88h283q30 0 30 -31v-47 q0 -31 -30 -31h-283v-870q0 -31 -31 -31h-63q-31 0 -31 31v870h-453v-870q0 -31 -30 -31h-64q-30 0 -30 31v870h-123q-31 0 -31 31zM317 1010h453v94q0 68 14 123q-92 102 -237 102q-107 0 -168.5 -67t-61.5 -185v-67z" />
<glyph horiz-adv-x="0" />
<glyph horiz-adv-x="682" />
<glyph unicode=" "  horiz-adv-x="440" />
<glyph unicode="&#x09;" horiz-adv-x="440" />
<glyph unicode="&#xa0;" horiz-adv-x="440" />
<glyph unicode="!" horiz-adv-x="454" d="M137 66q0 40 26 66t64 26q40 0 66 -26t26 -66q0 -38 -26.5 -64.5t-65.5 -26.5q-38 0 -64 26.5t-26 64.5zM166 756v573q0 31 31 31h63q31 0 31 -31v-573l-25 -394q-3 -20 -22 -20h-31q-20 0 -23 20z" />
<glyph unicode="&#x22;" horiz-adv-x="724" d="M141 1329q-3 31 29 31h66q31 0 28 -31l-16 -385q-3 -24 -27 -24h-35q-23 0 -26 24zM459 1329q-3 31 28 31h66q32 0 29 -31l-17 -385q-3 -24 -26 -24h-35q-24 0 -27 24z" />
<glyph unicode="#" d="M45 428l8 45q3 27 31 27h186l56 319h-183q-13 0 -20 8.5t-4 22.5l8 45q3 27 31 27h186l57 329q3 27 31 27h49q14 0 21 -9t4 -22l-55 -325h276l57 329q3 27 31 27h49q14 0 21 -9t4 -22l-58 -325h181q13 0 20 -8.5t4 -22.5l-8 -45q-3 -27 -31 -27h-182l-57 -319h180 q14 0 21 -9t4 -22l-9 -45q-3 -27 -30 -27h-185l-65 -370q-3 -27 -31 -27h-47q-14 0 -21 9t-4 22l64 366h-277l-65 -370q-3 -27 -31 -27h-49q-14 0 -21 9t-4 22l64 366h-182q-14 0 -21 9t-4 22zM377 500h276l56 319h-277z" />
<glyph unicode="$" d="M117 209q-18 24 4 43l43 39q23 20 43 -6q106 -136 289 -154v453q-199 23 -284 100t-85 229q0 145 101.5 240t267.5 107v122q0 27 26 27h60q26 0 26 -27v-125q210 -18 320 -161q18 -24 -4 -43l-43 -37q-23 -20 -43 6q-82 105 -230 123v-455q199 -23 284 -99.5t85 -225.5 q0 -145 -101.5 -241t-267.5 -106v-135q0 -26 -26 -26h-60q-26 0 -26 26v135q-251 20 -379 191zM256 915q0 -91 56.5 -140.5t183.5 -69.5v442q-110 -12 -175 -74.5t-65 -157.5zM608 131q110 12 175 74.5t65 156.5q0 90 -56 138.5t-184 68.5v-438z" />
<glyph unicode="%" horiz-adv-x="1282" d="M68 893v158q0 122 61.5 187t179.5 65q117 0 179.5 -65t62.5 -187v-158q0 -123 -62.5 -187.5t-179.5 -64.5q-118 0 -179.5 64.5t-61.5 187.5zM166 899q0 -88 34 -127t109 -39t109.5 39.5t34.5 126.5v148q0 86 -34.5 124.5t-109.5 38.5t-109 -38.5t-34 -124.5v-148z M178.5 10q-5.5 10 3.5 23l809 1229q13 16 33 16h57q17 0 22 -10t-3 -23l-811 -1229q-13 -16 -33 -16h-55q-17 0 -22.5 10zM733 227v158q0 122 62 187t180 65q117 0 179.5 -65t62.5 -187v-158q0 -123 -62.5 -187.5t-179.5 -64.5q-118 0 -180 64.5t-62 187.5zM831 233 q0 -87 34.5 -126t109.5 -39t109 39t34 126v148q0 86 -34 125t-109 39t-109.5 -39t-34.5 -125v-148z" />
<glyph unicode="&#x26;" horiz-adv-x="1193" d="M74 365q0 125 57.5 225t175.5 186q-106 138 -106 271q0 159 94.5 248t259.5 89q177 0 287 -88q25 -19 6 -45l-33 -45q-20 -26 -45 -4q-86 70 -205 70q-112 0 -173.5 -59t-61.5 -166q0 -68 32 -131t103 -140l416 -444q66 116 118 305q9 31 37 25l58 -15q32 -6 22 -39 q-65 -225 -151 -366l192 -205q14 -13 9 -25t-25 -12h-86q-23 0 -39 16l-121 129q-148 -170 -389 -170q-200 0 -316 106.5t-116 283.5zM203 369q0 -126 83 -203.5t228 -77.5q173 0 297 145l-428 455q-180 -131 -180 -319z" />
<glyph unicode="'" horiz-adv-x="407" d="M141 1329q-3 31 29 31h66q31 0 28 -31l-16 -385q-3 -24 -27 -24h-35q-23 0 -26 24z" />
<glyph unicode="(" horiz-adv-x="655" d="M172 588q0 203 62.5 398t187.5 357q14 17 37 17h55q18 0 22.5 -10t-6.5 -25q-116 -163 -173.5 -352.5t-57.5 -384.5t58 -385t173 -353q11 -15 6.5 -24.5t-22.5 -9.5h-55q-24 0 -37 16q-124 162 -187 357t-63 399z" />
<glyph unicode=")" horiz-adv-x="655" d="M118.5 -174.5q-4.5 9.5 6.5 24.5q115 163 173 353t58 385t-57.5 384.5t-173.5 352.5q-11 15 -6.5 25t22.5 10h56q22 0 36 -17q125 -162 187.5 -357t62.5 -398q0 -204 -63 -399t-187 -357q-13 -16 -36 -16h-56q-18 0 -22.5 9.5z" />
<glyph unicode="*" horiz-adv-x="972" d="M63 1108l15 47q10 32 39 19l336 -130l-23 359q-1 13 7 22t22 9h55q14 0 22 -9t7 -22l-23 -359l336 130q29 13 39 -19l14 -47q9 -30 -20 -39l-348 -92l229 -279q18 -25 -6 -43l-41 -30q-27 -18 -43 8l-193 307l-194 -307q-16 -26 -43 -8l-43 30q-24 18 -6 43l231 279 l-348 92q-30 9 -21 39z" />
<glyph unicode="+" d="M43 545v53q0 31 31 31h409v409q0 31 31 31h53q31 0 31 -31v-409h410q30 0 30 -31v-53q0 -31 -30 -31h-410v-410q0 -30 -31 -30h-53q-31 0 -31 30v410h-409q-31 0 -31 31z" />
<glyph unicode="," horiz-adv-x="450" d="M135 72q0 39 25.5 62.5t64.5 23.5q41 0 66.5 -28t25.5 -77q0 -73 -35 -142t-94 -118q-17 -14 -30 2l-19 21q-12 14 2 28q60 54 72 144q-35 5 -56.5 27.5t-21.5 56.5z" />
<glyph unicode="-" horiz-adv-x="675" d="M61 526v60q0 30 31 30h492q30 0 30 -30v-60q0 -30 -30 -30h-492q-31 0 -31 30z" />
<glyph unicode="." horiz-adv-x="450" d="M135 66q0 40 26 66t64 26q40 0 66 -26t26 -66q0 -38 -26.5 -64.5t-65.5 -26.5q-38 0 -64 26.5t-26 64.5z" />
<glyph unicode="/" horiz-adv-x="718" d="M59 33l488 1304q10 23 33 23h57q15 0 21.5 -9t0.5 -24l-487 -1304q-10 -23 -33 -23h-57q-15 0 -22 9t-1 24z" />
<glyph unicode="0" d="M113 418v444q0 215 109.5 328t318.5 113q211 0 320.5 -113t109.5 -328v-444q0 -217 -109.5 -330t-320.5 -113q-209 0 -318.5 113t-109.5 330zM242 432q0 -174 74 -259t225 -85q154 0 227.5 84.5t73.5 259.5v416q0 174 -74 258t-227 84q-151 0 -225 -84.5t-74 -257.5v-416 z" />
<glyph unicode="1" d="M250 934q-16 25 8 43l389 289q18 12 37 12h47q31 0 31 -31v-1216q0 -31 -31 -31h-67q-31 0 -31 31v1083l-309 -229q-25 -18 -43 6z" />
<glyph unicode="2" d="M141 31v55q0 22 17 39l510 506q95 95 130.5 161.5t35.5 151.5q0 115 -76.5 180.5t-208.5 65.5q-201 0 -305 -178q-19 -29 -43 -11l-45 29q-26 16 -11 43q63 110 169.5 170t238.5 60q189 0 299.5 -96.5t110.5 -262.5q0 -110 -46.5 -197t-156.5 -194l-449 -440h623 q31 0 31 -31v-51q0 -31 -31 -31h-762q-31 0 -31 31z" />
<glyph unicode="3" d="M129 160q-18 21 4 43l41 37q24 21 43 -4q118 -148 336 -148q152 0 235.5 70t83.5 198q0 126 -87.5 190t-256.5 64h-102q-31 0 -31 31v51q0 31 31 31h92q320 0 320 227q0 114 -77 177t-218 63q-201 0 -316 -148q-19 -25 -43 -4l-41 37q-18 21 -2 43q147 185 408 185 q196 0 307 -92t111 -255q0 -105 -54 -177t-153 -105v-2q116 -34 178.5 -117t62.5 -207q0 -175 -117.5 -274t-324.5 -99q-288 0 -430 185z" />
<glyph unicode="4" d="M82 332v69q0 20 12 37l637 822q15 18 37 18h78q31 0 31 -31v-833h127q30 0 30 -31v-51q0 -31 -30 -31h-127v-270q0 -31 -31 -31h-68q-30 0 -30 31v270h-635q-31 0 -31 31zM223 414h525v678h-3z" />
<glyph unicode="5" d="M121 160q-16 23 4 43l41 39q24 21 43 -4q120 -150 340 -150q147 0 231 83t84 226q0 140 -84.5 222.5t-228.5 82.5q-180 0 -289 -106q-18 -15 -41 -12l-37 4q-31 3 -28 35l41 626q3 29 32 29h664q31 0 31 -31v-51q0 -31 -31 -31h-584l-28 -444h2q117 94 292 94 q189 0 303.5 -114.5t114.5 -303.5q0 -194 -118.5 -308t-319.5 -114q-289 0 -434 185z" />
<glyph unicode="6" d="M131 397v475q0 201 115 316t315 115q234 0 367 -142q20 -23 0 -43l-41 -43q-23 -23 -45 0q-106 115 -271 115q-152 0 -231.5 -85t-79.5 -247v-186h2q48 68 131 106.5t189 38.5q187 0 298 -113.5t111 -304.5q0 -192 -117.5 -308t-312.5 -116q-197 0 -313.5 114.5 t-116.5 307.5zM260 397q0 -142 81.5 -225.5t219.5 -83.5t219.5 83.5t81.5 225.5q0 141 -81.5 224.5t-219.5 83.5q-136 0 -218.5 -84t-82.5 -224z" />
<glyph unicode="7" d="M113 969v278q0 31 30 31h846q31 0 31 -31v-69q0 -20 -8 -39l-572 -1116q-12 -23 -37 -23h-75q-39 0 -23 37l582 1128h-651v-196q0 -31 -31 -31h-62q-30 0 -30 31z" />
<glyph unicode="8" d="M86 348q0 118 61.5 200.5t174.5 119.5v2q-98 39 -150.5 111.5t-52.5 174.5q0 163 112 255t310 92q199 0 310.5 -92t111.5 -255q0 -102 -53 -175.5t-150 -108.5v-2q114 -38 175.5 -121t61.5 -201q0 -177 -120 -275t-336 -98q-215 0 -335 98t-120 275zM215 356 q0 -127 86 -197.5t240 -70.5q156 0 241.5 70t85.5 198q0 120 -86 187t-241 67q-154 0 -240 -67t-86 -187zM248 950q0 -107 77.5 -167t215.5 -60q137 0 215 60t78 167q0 114 -77 177t-216 63t-216 -63t-77 -177z" />
<glyph unicode="9" d="M92 879q0 192 117.5 308t312.5 116q196 0 312 -114t116 -308v-475q0 -201 -114.5 -316t-315.5 -115q-231 0 -364 142q-18 21 0 43l41 43q23 23 45 0q103 -115 268 -115q151 0 231 85.5t80 246.5v186h-2q-48 -69 -129.5 -107t-187.5 -38q-188 0 -299 113.5t-111 304.5z M221 881q0 -141 81.5 -224.5t219.5 -83.5q134 0 216.5 84.5t82.5 223.5q0 142 -81 225.5t-218 83.5q-138 0 -219.5 -83.5t-81.5 -225.5z" />
<glyph unicode=":" horiz-adv-x="450" d="M135 66q0 40 26 66t64 26q40 0 66 -26t26 -66q0 -38 -26.5 -64.5t-65.5 -26.5q-38 0 -64 26.5t-26 64.5zM135 864q0 40 26 66t64 26q40 0 66 -26t26 -66q0 -38 -26 -64t-66 -26q-38 0 -64 26t-26 64z" />
<glyph unicode=";" horiz-adv-x="450" d="M135 72q0 39 25.5 62.5t64.5 23.5q41 0 66.5 -28t25.5 -77q0 -73 -35 -142t-94 -118q-17 -14 -30 2l-19 21q-12 14 2 28q60 54 72 144q-35 5 -56.5 27.5t-21.5 56.5zM135 864q0 40 26 66t64 26q40 0 66 -26t26 -66q0 -38 -26 -64t-66 -26q-38 0 -64 26t-26 64z" />
<glyph unicode="&#x3c;" d="M82 543v57q0 27 22 35l857 403q36 16 36 -24v-60q0 -26 -22 -34l-748 -349l748 -348q22 -8 22 -35v-61q0 -18 -9.5 -24t-26.5 1l-857 404q-22 8 -22 35z" />
<glyph unicode="=" d="M78 315v54q0 30 31 30h864q31 0 31 -30v-54q0 -30 -31 -30h-864q-31 0 -31 30zM78 774v53q0 31 31 31h864q31 0 31 -31v-53q0 -31 -31 -31h-864q-31 0 -31 31z" />
<glyph unicode="&#x3e;" d="M84 129v59q0 27 22 35l748 348l-748 349q-22 8 -22 34v62q0 17 10 23t27 -1l856 -403q22 -8 22 -35v-57q0 -27 -22 -35l-856 -404q-17 -7 -27 -0.5t-10 25.5z" />
<glyph unicode="?" horiz-adv-x="921" d="M55 1155q66 110 172 169.5t238 59.5q189 0 298 -97t109 -263q0 -119 -51 -200t-174 -152q-102 -60 -142 -117.5t-40 -138.5v-43q0 -31 -31 -31h-55q-31 0 -31 31v51q0 105 46.5 178t160.5 143q106 66 147 128.5t41 150.5q0 116 -75 182t-205 66q-201 0 -307 -180 q-18 -30 -43 -11l-47 31q-26 16 -11 43zM317 66q0 40 26.5 66t64.5 26q40 0 66 -26t26 -66q0 -38 -26 -64.5t-66 -26.5q-38 0 -64.5 26.5t-26.5 64.5z" />
<glyph unicode="@" horiz-adv-x="1490" d="M94 573q0 381 187.5 596t517.5 215q191 0 327.5 -89.5t203.5 -243.5t67 -357q0 -236 -66.5 -358.5t-197.5 -122.5q-70 0 -115.5 33.5t-63.5 93.5h-2q-33 -61 -95 -93t-140 -32q-123 0 -191.5 62t-68.5 172q0 108 72.5 169.5t203.5 61.5h182v18q0 119 -46.5 173.5 t-145.5 54.5q-96 0 -168 -66q-20 -20 -37 0l-22 27q-17 20 2 39q91 88 233 88q141 0 213 -76t72 -223v-256q0 -71 30 -114.5t87 -43.5q163 0 163 397q0 177 -55 310t-169.5 210.5t-276.5 77.5q-286 0 -443 -189t-157 -532q0 -306 154.5 -474.5t434.5 -168.5q210 0 357 101 q22 16 35 -10l16 -33q10 -23 -10 -37q-157 -109 -402 -109q-323 0 -504.5 192.5t-181.5 536.5zM557 449q0 -146 172 -146q83 0 134.5 53.5t51.5 161.5v74h-172q-89 0 -137.5 -36.5t-48.5 -106.5z" />
<glyph unicode="A" horiz-adv-x="1189" d="M61 35l455 1300q9 25 35 25h88q26 0 35 -25l454 -1300q3 -7 3 -13q1 -7 -3 -12q-6 -10 -24 -10h-78q-26 0 -35 25l-96 284h-604l-96 -284q-9 -25 -35 -25h-74q-17 0 -24 10q-4 5 -4 12q0 6 3 13zM332 426h524l-262 770h-2z" />
<glyph unicode="B" horiz-adv-x="1153" d="M172 31v1298q0 31 31 31h372q235 0 345 -84.5t110 -265.5q0 -248 -217 -314v-2q130 -31 192 -112.5t62 -221.5q0 -186 -110 -273t-345 -87h-409q-31 0 -31 31zM305 117h305q167 0 245.5 62.5t78.5 195.5t-78.5 195.5t-245.5 62.5h-305v-516zM305 750h270q167 0 244.5 59 t77.5 186q0 129 -77.5 188.5t-244.5 59.5h-270v-493z" />
<glyph unicode="C" horiz-adv-x="1087" d="M121 467v426q0 241 119 366t348 125q308 0 430 -249q4 -8 4 -16q0 -15 -18 -25l-52 -29q-29 -13 -41 14q-97 189 -323 189q-334 0 -334 -398v-381q0 -200 82.5 -298.5t251.5 -98.5q226 0 323 189q12 27 41 14l52 -29q18 -10 18 -25q0 -7 -4 -16q-122 -250 -430 -250 q-229 0 -348 125.5t-119 366.5z" />
<glyph unicode="D" horiz-adv-x="1208" d="M172 31v1298q0 31 31 31h407q236 0 356.5 -117.5t120.5 -347.5v-430q0 -230 -120.5 -347.5t-356.5 -117.5h-407q-31 0 -31 31zM305 117h299q179 0 264.5 90.5t85.5 279.5v385q0 189 -86 280t-264 91h-299v-1126z" />
<glyph unicode="E" horiz-adv-x="1101" d="M172 31v1298q0 31 31 31h774q31 0 31 -31v-55q0 -31 -31 -31h-672v-498h582q31 0 31 -30v-56q0 -30 -31 -30h-582v-512h672q31 0 31 -31v-55q0 -31 -31 -31h-774q-31 0 -31 31z" />
<glyph unicode="F" horiz-adv-x="1028" d="M172 31v1298q0 31 31 31h753q31 0 31 -31v-55q0 -31 -31 -31h-651v-506h561q31 0 31 -30v-56q0 -30 -31 -30h-561v-590q0 -31 -31 -31h-71q-31 0 -31 31z" />
<glyph unicode="G" horiz-adv-x="1165" d="M121 467v426q0 241 121.5 366t355.5 125q314 0 440 -249q13 -26 -14 -41l-51 -29q-28 -13 -43 14q-97 189 -332 189q-173 0 -258.5 -98.5t-85.5 -299.5v-381q0 -201 85 -299t257 -98q173 0 257.5 99.5t84.5 302.5v98h-297q-31 0 -31 31v55q0 31 31 31h393q31 0 31 -31 v-207q0 -243 -119.5 -369.5t-351.5 -126.5q-231 0 -352 125.5t-121 366.5z" />
<glyph unicode="H" horiz-adv-x="1275" d="M172 31v1298q0 31 31 31h71q31 0 31 -31v-581h666v581q0 31 30 31h72q31 0 31 -31v-1298q0 -31 -31 -31h-72q-30 0 -30 31v600h-666v-600q0 -31 -31 -31h-71q-31 0 -31 31z" />
<glyph unicode="I" horiz-adv-x="477" d="M172 31v1298q0 31 31 31h71q31 0 31 -31v-1298q0 -31 -31 -31h-71q-31 0 -31 31z" />
<glyph unicode="J" horiz-adv-x="1060" d="M53 201q-6 9 -6 18q0 13 14 23l50 37q12 9 23.5 6t19.5 -17q105 -176 311 -176q160 0 237.5 93.5t77.5 285.5v858q0 31 31 31h72q30 0 30 -31v-878q0 -233 -112.5 -354.5t-329.5 -121.5q-285 0 -418 226z" />
<glyph unicode="K" horiz-adv-x="1126" d="M172 31v1298q0 31 31 31h71q31 0 31 -31v-604l574 618q14 17 36 17h97q20 0 25 -12t-9 -25l-596 -631l619 -655q9 -9 9 -18q0 -3 -2 -7q-4 -12 -24 -12h-102q-24 0 -39 18l-588 629v-616q0 -31 -31 -31h-71q-31 0 -31 31z" />
<glyph unicode="L" horiz-adv-x="1015" d="M172 31v1298q0 31 31 31h71q31 0 31 -31v-1212h641q31 0 31 -31v-55q0 -31 -31 -31h-743q-31 0 -31 31z" />
<glyph unicode="M" horiz-adv-x="1667" d="M172 31v1298q0 31 31 31h139q28 0 37 -25l455 -1142l452 1142q9 25 37 25h141q31 0 31 -31v-1298q0 -31 -31 -31h-71q-31 0 -31 31v1143h-2l-457 -1149q-9 -25 -37 -25h-67q-28 0 -37 25l-459 1155h-2v-1149q0 -31 -31 -31h-67q-31 0 -31 31z" />
<glyph unicode="N" horiz-adv-x="1275" d="M172 31v1298q0 31 31 31h90q25 0 37 -21l643 -1101h2v1091q0 31 31 31h67q31 0 31 -31v-1298q0 -31 -31 -31h-76q-25 0 -36 20l-658 1123h-2v-1112q0 -31 -31 -31h-67q-31 0 -31 31z" />
<glyph unicode="O" horiz-adv-x="1198" d="M121 467v426q0 241 121.5 366t355.5 125q235 0 357 -125t122 -366v-426q0 -241 -122 -366.5t-357 -125.5q-233 0 -355 125.5t-122 366.5zM254 489q0 -201 85.5 -299t258.5 -98q175 0 260.5 98t85.5 299v381q0 201 -85.5 299.5t-260.5 98.5q-173 0 -258.5 -98.5 t-85.5 -299.5v-381z" />
<glyph unicode="P" horiz-adv-x="1107" d="M172 31v1298q0 31 31 31h379q243 0 358 -98.5t115 -307.5t-115 -307t-358 -98h-277v-518q0 -31 -31 -31h-71q-31 0 -31 31zM305 666h275q177 0 258.5 68.5t81.5 219.5q0 150 -81.5 219.5t-258.5 69.5h-275v-577z" />
<glyph unicode="Q" horiz-adv-x="1198" d="M121 467v426q0 241 121.5 366t355.5 125q235 0 357 -125t122 -366v-426q0 -205 -89 -327t-261 -154q9 -191 176 -191q84 0 154 51q28 19 43 -8l26 -51q5 -9 5 -18q0 -14 -15 -25q-92 -66 -211 -66q-141 0 -222.5 76t-90.5 221q-230 2 -350.5 127.5t-120.5 364.5zM254 489 q0 -201 85.5 -299t258.5 -98q175 0 260.5 98t85.5 299v381q0 201 -85.5 299.5t-260.5 98.5q-173 0 -258.5 -98.5t-85.5 -299.5v-381z" />
<glyph unicode="R" horiz-adv-x="1161" d="M172 31v1298q0 31 31 31h366q243 0 359 -97.5t116 -301.5q0 -169 -78 -266t-239 -126l336 -532q5 -9 5 -17q0 -5 -2 -9q-6 -11 -24 -11h-90q-26 0 -37 20l-325 537h-285v-526q0 -31 -31 -31h-71q-31 0 -31 31zM305 674h264q177 0 258.5 68t81.5 216q0 147 -82 216 t-258 69h-264v-569z" />
<glyph unicode="S" horiz-adv-x="1038" d="M82 180q-6 9 -6 18q0 13 12 25l43 39q25 22 45 -4q126 -166 371 -166q138 0 219.5 72t81.5 194q0 110 -73 168t-261 90q-230 39 -324 126.5t-94 256.5q0 173 117.5 279t310.5 106q273 0 410 -174q17 -23 -6 -43l-49 -39q-23 -20 -43 7q-103 133 -306 133 q-138 0 -219.5 -72.5t-81.5 -194.5q0 -112 74.5 -172t263.5 -90q226 -36 320 -124.5t94 -254.5q0 -173 -117.5 -279t-310.5 -106q-313 0 -471 205z" />
<glyph unicode="T" horiz-adv-x="991" d="M39 1274v55q0 31 31 31h852q30 0 30 -31v-55q0 -31 -30 -31h-359v-1212q0 -31 -31 -31h-71q-31 0 -31 31v1212h-360q-31 0 -31 31z" />
<glyph unicode="U" horiz-adv-x="1204" d="M147 451v878q0 31 31 31h72q31 0 31 -31v-860q0 -192 79.5 -284.5t243.5 -92.5t244 92.5t80 284.5v860q0 31 30 31h68q31 0 31 -31v-878q0 -233 -116.5 -354.5t-338.5 -121.5t-338.5 121.5t-116.5 354.5z" />
<glyph unicode="V" horiz-adv-x="1153" d="M61 1325q-2 8 -2 14q0 21 27 21h78q26 0 35 -25l379 -1145h2l381 1145q9 25 34 25h72q27 0 27 -21q0 -6 -2 -14l-437 -1296q-9 -29 -39 -29h-79q-30 0 -39 29z" />
<glyph unicode="W" horiz-adv-x="1740" d="M63 1325q-2 7 -2 13q0 22 27 22h82q27 0 33 -27l297 -1122h2l303 1120q6 29 37 29h61q31 0 37 -29l303 -1120h2l297 1122q6 27 33 27h78q26 0 26 -22q0 -6 -2 -13l-354 -1294q-7 -31 -37 -31h-90q-30 0 -37 31l-287 1061h-2l-288 -1061q-7 -31 -37 -31h-92q-30 0 -37 31z " />
<glyph unicode="X" horiz-adv-x="1140" d="M82 11q-2 4 -2 9q0 8 6 17l399 657l-381 629q-9 15 -3 26t24 11h88q25 0 37 -21l323 -544l322 544q12 21 37 21h82q18 0 23.5 -11t-3.5 -26l-381 -627l402 -659q5 -9 5 -17q0 -5 -2 -9q-6 -11 -24 -11h-88q-26 0 -37 20l-342 578l-342 -578q-11 -20 -37 -20h-82 q-18 0 -24 11z" />
<glyph unicode="Y" horiz-adv-x="1062" d="M24 1349q5 11 23 11h88q25 0 37 -21l363 -612l362 612q12 21 37 21h82q18 0 24 -11q2 -4 2 -9q0 -8 -6 -17l-438 -723v-569q0 -31 -31 -31h-71q-31 0 -31 31v569l-438 723q-6 9 -6 17q0 5 3 9z" />
<glyph unicode="Z" horiz-adv-x="1060" d="M82 31v71q0 19 12 37l721 1104h-672q-30 0 -30 31v55q0 31 30 31h795q31 0 31 -31v-72q0 -17 -13 -36l-725 -1104h717q31 0 31 -31v-55q0 -31 -31 -31h-835q-31 0 -31 31z" />
<glyph unicode="[" horiz-adv-x="655" d="M190 -156v1487q0 29 29 29h320q28 0 28 -29v-45q0 -29 -28 -29h-224v-1339h224q28 0 28 -29v-45q0 -28 -28 -28h-320q-29 0 -29 28z" />
<glyph unicode="\" horiz-adv-x="718" d="M59 1327q-6 15 1 24t22 9h57q23 0 33 -23l487 -1304q6 -15 -0.5 -24t-21.5 -9h-57q-23 0 -33 23z" />
<glyph unicode="]" horiz-adv-x="655" d="M88 -111q0 29 29 29h223v1339h-223q-29 0 -29 29v45q0 29 29 29h319q29 0 29 -29v-1487q0 -28 -29 -28h-319q-29 0 -29 28v45z" />
<glyph unicode="^" d="M52 539q-6 11 3 26l422 690q13 23 39 23h51q26 0 39 -23l420 -690q9 -15 3.5 -26t-23.5 -11h-64q-25 0 -37 21l-364 602l-363 -602q-12 -21 -37 -21h-65q-18 0 -24 11z" />
<glyph unicode="_" horiz-adv-x="1024" d="M0 -125h1024v-78h-1024v78z" />
<glyph unicode="`" horiz-adv-x="1024" d="M279 1454q5 10 24 10h72q23 0 35 -18l163 -252q9 -14 4 -23.5t-22 -9.5h-59q-22 0 -33 17l-178 252q-11 14 -6 24z" />
<glyph unicode="a" horiz-adv-x="929" d="M84 283q0 142 94 222.5t266 80.5h250v39q0 156 -63.5 228.5t-196.5 72.5q-63 0 -122 -26.5t-103 -70.5q-23 -23 -41 2l-35 46q-19 22 2 43q126 114 309 114q185 0 280 -98.5t95 -290.5v-285q0 -188 -96 -286.5t-283 -98.5q-170 0 -263 80.5t-93 227.5zM209 283 q0 -96 60 -147.5t171 -51.5q131 0 192.5 71.5t61.5 223.5v102h-235q-119 0 -184.5 -51t-65.5 -147z" />
<glyph unicode="b" horiz-adv-x="997" d="M137 360v1043q0 31 31 31h63q31 0 31 -31v-498h2q80 129 266 129q175 0 267 -98t92 -285v-291q0 -188 -96 -286.5t-279 -98.5q-184 0 -280.5 98.5t-96.5 286.5zM262 379q0 -152 61.5 -223.5t190.5 -71.5t189.5 71.5t60.5 223.5v254q0 151 -60.5 222t-189.5 71 q-252 0 -252 -293v-254z" />
<glyph unicode="c" horiz-adv-x="837" d="M109 367v278q0 191 95.5 290t276.5 99t279 -98q22 -19 2 -43l-31 -37q-9 -12 -22 -12.5t-23 10.5q-75 72 -197 72q-131 0 -193.5 -72.5t-62.5 -228.5v-240q0 -155 65 -228t200 -73q119 0 204 88q23 26 46 0l30 -35q9 -10 9 -21q0 -12 -11 -24q-114 -117 -289 -117 q-184 0 -281 100.5t-97 291.5z" />
<glyph unicode="d" horiz-adv-x="997" d="M109 360v291q0 187 91.5 285t266.5 98q187 0 266 -125h2v494q0 31 31 31h63q31 0 31 -31v-1043q0 -188 -96 -286.5t-279 -98.5q-184 0 -280 98.5t-96 286.5zM233 379q0 -152 61 -223.5t191 -71.5q129 0 189.5 71.5t60.5 223.5v254q0 293 -250 293q-130 0 -191 -71 t-61 -222v-254z" />
<glyph unicode="e" horiz-adv-x="929" d="M109 367v284q0 187 94 285t274 98q181 0 275 -97.5t94 -285.5v-155q0 -31 -31 -31h-582v-80q0 -158 67 -229.5t212 -71.5q127 0 225 104q23 26 43 0l35 -38q20 -23 0 -46q-123 -129 -309 -129q-196 0 -296.5 99t-100.5 293zM233 569h494v64q0 151 -60 222t-188 71 q-126 0 -186 -71t-60 -222v-64z" />
<glyph unicode="f" horiz-adv-x="661" d="M39 932v47q0 31 31 31h123v108q0 165 80.5 252.5t232.5 87.5q117 0 201 -47q16 -8 16 -23q0 -8 -4 -18l-21 -43q-6 -14 -17.5 -17.5t-23.5 3.5q-66 37 -143 37q-197 0 -197 -238v-102h310q30 0 30 -31v-47q0 -31 -30 -31h-310v-870q0 -31 -30 -31h-64q-30 0 -30 31v870 h-123q-31 0 -31 31z" />
<glyph unicode="g" horiz-adv-x="997" d="M109 387v264q0 188 96 285.5t280 97.5q183 0 279 -98t96 -285v-649q0 -165 -99.5 -259.5t-273.5 -94.5q-203 0 -331 116q-20 20 -4 43l30 41q21 27 43 5q106 -97 256 -97q123 0 188.5 68t65.5 194v111h-2q-79 -125 -266 -125q-175 0 -266.5 98t-91.5 285zM233 408 q0 -151 61 -223t191 -72q250 0 250 295v225q0 151 -60.5 222t-189.5 71q-130 0 -191 -71t-61 -222v-225z" />
<glyph unicode="h" horiz-adv-x="1024" d="M150 31v1372q0 31 30 31h64q30 0 30 -31v-494h2q76 125 263 125q170 0 259 -95.5t89 -279.5v-628q0 -31 -31 -31h-63q-31 0 -31 31v610q0 146 -59.5 215.5t-184.5 69.5q-244 0 -244 -285v-610q0 -31 -30 -31h-64q-30 0 -30 31z" />
<glyph unicode="i" horiz-adv-x="423" d="M125 1300q0 37 24.5 61.5t61.5 24.5t61.5 -24.5t24.5 -61.5t-24.5 -61.5t-61.5 -24.5t-61.5 24.5t-24.5 61.5zM150 31v948q0 31 30 31h64q30 0 30 -31v-948q0 -31 -30 -31h-64q-30 0 -30 31z" />
<glyph unicode="j" horiz-adv-x="423" d="M-41 -250q0 31 31 31q160 0 160 174v1024q0 31 30 31h64q30 0 30 -31v-1024q0 -139 -67.5 -211t-198.5 -72h-18q-31 0 -31 31v47zM125 1300q0 37 24.5 61.5t61.5 24.5t61.5 -24.5t24.5 -61.5t-24.5 -61.5t-61.5 -24.5t-61.5 24.5t-24.5 61.5z" />
<glyph unicode="k" horiz-adv-x="892" d="M150 31v1372q0 31 30 31h64q30 0 30 -31v-852l410 442q14 17 37 17h86q20 0 25 -12t-9 -25l-430 -457l453 -479q10 -9 10 -18q0 -3 -2 -7q-6 -12 -25 -12h-90q-24 0 -37 16l-428 463v-448q0 -31 -30 -31h-64q-30 0 -30 31z" />
<glyph unicode="l" horiz-adv-x="423" d="M150 31v1372q0 31 30 31h64q30 0 30 -31v-1372q0 -31 -30 -31h-64q-30 0 -30 31z" />
<glyph unicode="m" horiz-adv-x="1552" d="M137 31v631q0 183 87.5 277.5t254.5 94.5q217 0 297 -153h2q74 153 291 153q170 0 258 -94.5t88 -277.5v-631q0 -31 -31 -31h-63q-31 0 -31 31v612q0 146 -55.5 214.5t-171.5 68.5q-115 0 -169 -68.5t-54 -214.5v-612q0 -31 -31 -31h-64q-30 0 -30 31v612 q0 146 -55.5 214.5t-174.5 68.5q-115 0 -169 -68.5t-54 -214.5v-612q0 -31 -31 -31h-63q-31 0 -31 31z" />
<glyph unicode="n" horiz-adv-x="1011" d="M137 31v628q0 184 94.5 279.5t274.5 95.5q181 0 274.5 -95t93.5 -280v-628q0 -31 -30 -31h-64q-30 0 -30 31v610q0 146 -59.5 215.5t-184.5 69.5t-184.5 -69.5t-59.5 -215.5v-610q0 -31 -31 -31h-63q-31 0 -31 31z" />
<glyph unicode="o" horiz-adv-x="968" d="M109 358v293q0 188 96 285.5t280 97.5q183 0 279 -98t96 -285v-293q0 -187 -96 -285t-279 -98q-184 0 -280 97.5t-96 285.5zM233 379q0 -152 61 -223.5t191 -71.5q129 0 189.5 71.5t60.5 223.5v254q0 151 -60.5 222t-189.5 71q-130 0 -191 -71t-61 -222v-254z" />
<glyph unicode="p" horiz-adv-x="997" d="M137 -297v948q0 187 96 285t281 98q183 0 279 -98t96 -285v-293q0 -187 -92 -285t-267 -98q-186 0 -266 129h-2v-401q0 -31 -31 -31h-63q-31 0 -31 31zM262 379q0 -295 252 -295q129 0 189.5 72t60.5 223v254q0 151 -60.5 222t-189.5 71t-190.5 -71t-61.5 -222v-254z" />
<glyph unicode="q" horiz-adv-x="997" d="M109 358v293q0 188 96 285.5t280 97.5q183 0 279 -98t96 -285v-948q0 -31 -31 -31h-63q-31 0 -31 31v397h-2q-79 -125 -266 -125q-175 0 -266.5 98t-91.5 285zM233 379q0 -151 61 -223t191 -72q250 0 250 295v254q0 151 -60.5 222t-189.5 71q-130 0 -191 -71t-61 -222 v-254z" />
<glyph unicode="r" horiz-adv-x="743" d="M137 31v645q0 177 83.5 267.5t246.5 90.5q133 0 225 -65q16 -12 16 -26q0 -8 -6 -17l-26 -41q-18 -27 -43 -8q-70 49 -156 49q-112 0 -163.5 -62t-51.5 -196v-637q0 -31 -31 -31h-63q-31 0 -31 31z" />
<glyph unicode="s" horiz-adv-x="843" d="M78 143l33 41q21 24 45 0q100 -100 276 -100q109 0 168 48.5t59 139.5q0 81 -54.5 122.5t-196.5 62.5q-176 26 -248 90.5t-72 191.5q0 135 96.5 215t257.5 80q181 0 293 -92q23 -20 6 -43l-28 -39q-18 -24 -43 -6q-90 72 -217 72q-117 0 -178.5 -49t-61.5 -140 q0 -74 52.5 -112t187.5 -56q182 -24 256.5 -93t74.5 -204q0 -137 -91.5 -217t-248.5 -80q-233 0 -364 125q-11 11 -11 22t9 21z" />
<glyph unicode="t" horiz-adv-x="720" d="M39 932v47q0 31 31 31h123v243q0 31 30 31h64q30 0 30 -31v-243h310q30 0 30 -31v-47q0 -31 -30 -31h-310v-614q0 -203 183 -203q68 0 121 33q33 20 45 -11l18 -45q3 -8 3 -16q0 -16 -15 -25q-71 -45 -185 -45q-144 0 -219 78t-75 228v620h-123q-31 0 -31 31z" />
<glyph unicode="u" horiz-adv-x="999" d="M137 344v635q0 31 31 31h63q31 0 31 -31v-617q0 -144 58 -211t182 -67q123 0 181 67t58 211v617q0 31 31 31h59q31 0 31 -31v-635q0 -180 -92 -274.5t-270 -94.5q-177 0 -270 94.5t-93 274.5z" />
<glyph unicode="v" horiz-adv-x="915" d="M45 975q-3 7 -3 13q0 7 4 12q7 10 24 10h73q26 0 35 -25l281 -825h2l282 825q9 25 35 25h68q18 0 24 -10q3 -5 3 -12q0 -6 -3 -13l-338 -946q-12 -29 -38 -29h-72q-27 0 -39 29z" />
<glyph unicode="w" horiz-adv-x="1398" d="M47 975q-2 6 -2 11q1 8 5 14q8 10 24 10h71q26 0 35 -27l226 -786h2l231 782q8 31 37 31h51q29 0 37 -31l229 -774h2l228 778q9 27 34 27h68q17 0 25 -10q4 -6 4 -14q0 -5 -2 -11l-289 -944q-8 -31 -37 -31h-70q-28 0 -36 31l-220 741h-2l-221 -741q-8 -31 -37 -31h-69 q-29 0 -37 31z" />
<glyph unicode="x" horiz-adv-x="931" d="M68 11q-2 4 -1 8q0 8 7 18l315 485l-293 451q-11 15 -5 26t26 11h78q24 0 36 -21l240 -385l240 385q12 21 37 21h67q20 0 26 -11t-5 -26l-291 -453l313 -483q7 -10 7 -18q1 -4 -1 -8q-6 -11 -26 -11h-76q-26 0 -37 20l-262 420l-262 -420q-11 -20 -37 -20h-70 q-20 0 -26 11z" />
<glyph unicode="y" horiz-adv-x="1024" d="M137 379v600q0 31 31 31h63q31 0 31 -31v-580q0 -147 59.5 -216.5t184.5 -69.5q244 0 244 286v580q0 31 30 31h64q30 0 30 -31v-977q0 -166 -99.5 -260t-272.5 -94q-202 0 -330 116q-20 20 -4 43l31 41q21 27 43 5q106 -97 254 -97q123 0 188.5 68t65.5 194v111h-2 q-76 -125 -263 -125q-170 0 -259 96t-89 279z" />
<glyph unicode="z" horiz-adv-x="864" d="M76 31v63q0 19 12 37l541 770h-492q-31 0 -31 31v47q0 31 31 31h611q30 0 30 -31v-64q0 -18 -12 -36l-543 -770h535q30 0 30 -31v-47q0 -31 -30 -31h-652q-30 0 -30 31z" />
<glyph unicode="{" horiz-adv-x="675" d="M88 565v45q0 29 29 29q61 0 97 42t36 124v278q0 145 69.5 211t223.5 66h16q29 0 29 -29v-45q0 -29 -29 -29q-100 0 -142 -43.5t-42 -148.5v-248q0 -191 -142 -227v-2q142 -37 142 -230v-247q0 -105 42 -149t142 -44q29 0 29 -29v-45q0 -28 -29 -28h-16 q-154 0 -223.5 65.5t-69.5 210.5v279q0 82 -36 124t-97 42q-29 0 -29 28z" />
<glyph unicode="|" horiz-adv-x="540" d="M217 -299v1704q0 29 29 29h49q29 0 29 -29v-1704q0 -29 -29 -29h-49q-29 0 -29 29z" />
<glyph unicode="}" horiz-adv-x="675" d="M88 -111q0 29 29 29q100 0 142 44t42 149v247q0 98 34 153.5t107 74.5v2q-141 37 -141 229v248q0 105 -42 148.5t-142 43.5q-29 0 -29 29v45q0 29 29 29h16q154 0 223.5 -66t69.5 -211v-278q0 -82 36 -124t97 -42q29 0 29 -29v-45q0 -28 -29 -28q-61 0 -97 -42t-36 -124 v-279q0 -145 -69.5 -210.5t-223.5 -65.5h-16q-29 0 -29 28v45z" />
<glyph unicode="~" d="M41 512q60 100 128.5 146.5t156.5 46.5q61 0 117 -20t128 -67q61 -39 100 -54t81 -15q61 0 106 31.5t88 103.5q17 27 43 10l41 -24q30 -17 10 -43q-59 -100 -126.5 -146.5t-155.5 -46.5q-61 0 -114 17.5t-132 66.5q-67 41 -105 56.5t-77 15.5q-59 0 -104.5 -32 t-90.5 -103q-16 -26 -43 -11l-41 25q-25 16 -10 43z" />
<glyph unicode="&#xa1;" horiz-adv-x="454" d="M135 1294q0 38 26 64t66 26q38 0 64 -26t26 -64q0 -40 -26 -66t-64 -26q-40 0 -66 26t-26 66zM164 31v573l24 393q3 21 23 21h31q19 0 22 -21l25 -393v-573q0 -31 -31 -31h-63q-31 0 -31 31z" />
<glyph unicode="&#xa2;" d="M190 426v242q0 384 371 405v121q0 12 7.5 19.5t19.5 7.5h59q12 0 19.5 -7.5t7.5 -19.5v-125q147 -14 237 -98q23 -23 0 -45l-30 -35q-21 -24 -45 0q-62 62 -162 70v-832q103 11 180 88q21 24 43 2l33 -35q22 -22 0 -45q-105 -105 -256 -119v-137q0 -26 -27 -26h-59 q-27 0 -27 26v135q-183 10 -277 113.5t-94 294.5zM315 442q0 -151 59.5 -227t186.5 -88v836q-127 -10 -186.5 -87t-59.5 -231v-203z" />
<glyph unicode="&#xa3;" d="M135 567v49q0 31 31 31h104l-22 47q-40 83 -55 138.5t-15 115.5q0 162 111.5 258.5t298.5 96.5q257 0 385 -166q18 -24 -4 -43l-43 -37q-24 -21 -43 4q-94 129 -289 129q-133 0 -210 -68.5t-77 -187.5q0 -93 58 -209q23 -48 32 -78h396q30 0 30 -31v-49q0 -30 -30 -30 h-367q6 -41 6 -84q0 -198 -131 -338v-2h625q30 0 30 -31v-51q0 -31 -30 -31h-727q-31 0 -31 31v55q0 23 16 39q72 75 101.5 145.5t29.5 167.5q0 51 -10 99h-139q-31 0 -31 30z" />
<glyph unicode="&#xa4;" d="M102 231q-20 21 0 41l144 144q-68 93 -68 217q0 126 68 219l-144 143q-20 21 0 41l35 35q21 21 41 0l144 -143q93 71 219 71q123 0 221 -69l141 141q21 21 41 0l35 -35q21 -20 0 -41l-143 -143q69 -90 69 -219q0 -127 -69 -217l143 -144q21 -20 0 -41l-35 -34 q-20 -21 -41 0l-143 143q-93 -68 -219 -68t-219 68l-144 -143q-20 -21 -41 0zM281 633q0 -114 74 -188t188 -74q113 0 187.5 74t74.5 188q0 115 -74.5 190.5t-187.5 75.5q-114 0 -188 -75t-74 -191z" />
<glyph unicode="&#xa5;" d="M78.5 1267q5.5 11 25.5 11h80q25 0 37 -21l324 -520l323 520q12 21 37 21h76q20 0 25.5 -11t-5.5 -26l-383 -590h304q26 0 26 -26v-50q0 -26 -26 -26h-316v-176h314q26 0 26 -27v-49q0 -27 -26 -27h-314v-239q0 -31 -31 -31h-67q-31 0 -31 31v239h-321q-12 0 -19.5 7.5 t-7.5 19.5v49q0 12 7.5 19.5t19.5 7.5h321v176h-319q-27 0 -27 26v50q0 26 27 26h307l-381 590q-11 15 -5.5 26z" />
<glyph unicode="&#xa6;" horiz-adv-x="540" d="M217 -299v659q0 29 29 29h49q29 0 29 -29v-659q0 -29 -29 -29h-49q-29 0 -29 29zM217 745v660q0 29 29 29h49q29 0 29 -29v-660q0 -28 -29 -28h-49q-29 0 -29 28z" />
<glyph unicode="&#xa7;" horiz-adv-x="1138" d="M113 537q0 104 53.5 183t150.5 120v2q-174 68 -174 270q0 158 113 252t303 94q262 0 391 -155q18 -21 -4 -43l-37 -33q-24 -18 -43 4q-96 119 -305 119q-135 0 -216 -63.5t-81 -170.5q0 -99 73 -147t263 -68q232 -25 329 -101.5t97 -230.5q0 -106 -56 -185.5t-157 -119.5 v-2q86 -32 134 -94.5t48 -173.5q0 -157 -112.5 -251.5t-302.5 -94.5q-307 0 -447 180q-18 21 4 43l39 35q25 18 43 -6q119 -146 359 -146q137 0 218 63.5t81 172.5q0 95 -72.5 142t-259.5 67q-236 24 -334 103t-98 235zM233 551q0 -117 88 -170.5t322 -79.5q121 15 192.5 84 t71.5 170q0 117 -95 171.5t-331 74.5q-115 -19 -181.5 -85.5t-66.5 -164.5z" />
<glyph unicode="&#xa8;" horiz-adv-x="1024" d="M266 1300q0 36 23 59t59 23q35 0 58.5 -23.5t23.5 -58.5t-23.5 -58t-58.5 -23q-36 0 -59 22.5t-23 58.5zM594 1300q0 35 23.5 58.5t58.5 23.5q36 0 59 -23t23 -59t-23 -58.5t-59 -22.5q-35 0 -58.5 23t-23.5 58z" />
<glyph unicode="&#xa9;" horiz-adv-x="1579" d="M86 680q0 148 54 279t147.5 224t224.5 147t279 54q198 0 359 -92t253 -253t92 -359q0 -148 -54 -279t-147 -224.5t-224 -147.5t-279 -54t-279 54t-224.5 147.5t-147.5 224.5t-54 279zM180 680q0 -173 80 -315.5t220 -224t311 -81.5q127 0 240 48t194 130t128.5 197.5 t47.5 245.5t-47.5 245t-128.5 197.5t-194 130t-240 47.5q-171 0 -311 -81t-220 -223.5t-80 -315.5zM526 561v238q0 132 67.5 202t197.5 70q161 0 235 -133q11 -21 -10 -33l-31 -18q-22 -13 -35 10q-52 90 -159 90q-170 0 -170 -201v-213q0 -101 41.5 -150.5t128.5 -49.5 q105 0 159 88q13 23 35 10l31 -18q21 -12 10 -33q-73 -131 -235 -131q-130 0 -197.5 70t-67.5 202z" />
<glyph unicode="&#xaa;" horiz-adv-x="712" d="M57 725q0 111 73 173.5t206 62.5h184v24q0 115 -46.5 168t-145.5 53q-96 0 -164 -65q-21 -21 -41 2l-25 33q-17 23 4 41q96 86 234 86q145 0 220 -77t75 -227v-217q0 -145 -74.5 -220t-220.5 -75q-134 0 -206.5 62t-72.5 176zM168 727q0 -70 44 -106.5t124 -36.5 q96 0 140 51.5t44 161.5v69h-170q-87 0 -134.5 -35.5t-47.5 -103.5z" />
<glyph unicode="&#xab;" horiz-adv-x="849" d="M66 485q-12 21 0 41l221 346q13 19 35 19h57q17 0 22 -10t-4 -25l-223 -350l223 -352q9 -15 4 -25t-22 -10h-57q-23 0 -35 18zM426 485q-12 21 0 41l221 346q13 19 35 19h57q17 0 22.5 -10t-3.5 -25l-223 -350l223 -352q9 -15 3.5 -25t-22.5 -10h-57q-23 0 -35 18z" />
<glyph unicode="&#xac;" d="M43 676v53q0 31 31 31h934q30 0 30 -31v-493q0 -31 -30 -31h-54q-30 0 -30 31v409h-850q-31 0 -31 31z" />
<glyph unicode="&#xad;" horiz-adv-x="675" d="M61 526v60q0 30 31 30h492q30 0 30 -30v-60q0 -30 -30 -30h-492q-31 0 -31 30z" />
<glyph unicode="&#xae;" horiz-adv-x="1579" d="M86 680q0 148 54 279t147.5 224t224.5 147t279 54q198 0 359 -92t253 -253t92 -359q0 -148 -54 -279t-147 -224.5t-224 -147.5t-279 -54t-279 54t-224.5 147.5t-147.5 224.5t-54 279zM180 680q0 -173 80 -315.5t220 -224t311 -81.5q127 0 240 48t194 130t128.5 197.5 t47.5 245.5t-47.5 245t-128.5 197.5t-194 130t-240 47.5q-171 0 -311 -81t-220 -223.5t-80 -315.5zM565 328v704q0 25 25 25h205q135 0 201.5 -55.5t66.5 -170.5q0 -182 -172 -219l176 -280q8 -12 3.5 -20.5t-19.5 -8.5h-58q-17 0 -28 16l-170 285h-136v-276q0 -25 -24 -25 h-45q-25 0 -25 25zM659 688h136q88 0 130 34.5t42 106.5q0 73 -42 108.5t-130 35.5h-136v-285z" />
<glyph unicode="&#xaf;" horiz-adv-x="1024" d="M252 1268v45q0 28 29 28h464q29 0 29 -28v-45q0 -29 -29 -29h-464q-29 0 -29 29z" />
<glyph unicode="&#xb0;" horiz-adv-x="722" d="M63 1006q0 128 84.5 212.5t212.5 84.5q129 0 214 -84.5t85 -212.5q0 -129 -85 -214t-214 -85q-128 0 -212.5 85t-84.5 214zM172 1006q0 -86 53 -140.5t135 -54.5q84 0 137.5 54.5t53.5 140.5q0 84 -53.5 138t-137.5 54q-82 0 -135 -54t-53 -138z" />
<glyph unicode="&#xb1;" d="M61 31v53q0 31 31 31h899q31 0 31 -31v-53q0 -31 -31 -31h-899q-31 0 -31 31zM61 618v54q0 30 31 30h391v363q0 31 31 31h53q31 0 31 -31v-363h393q31 0 31 -30v-54q0 -30 -31 -30h-393v-363q0 -30 -31 -30h-53q-31 0 -31 30v363h-391q-31 0 -31 30z" />
<glyph unicode="&#xb2;" horiz-adv-x="675" d="M94 770v37q0 18 15 33l301 305q49 51 69.5 90.5t20.5 85.5q0 67 -41.5 103t-116.5 36q-106 0 -168 -94q-15 -24 -37 -8l-31 20q-20 16 -8 37q41 64 105.5 98.5t142.5 34.5q117 0 183.5 -60t66.5 -167q0 -64 -26 -117t-91 -119l-254 -254h342q27 0 27 -26v-35 q0 -12 -7.5 -19.5t-19.5 -7.5h-446q-12 0 -19.5 7.5t-7.5 19.5z" />
<glyph unicode="&#xb3;" horiz-adv-x="675" d="M92 836q-14 19 2 38l25 25q20 20 39 -2q71 -80 188 -80q85 0 131.5 39t46.5 109q0 145 -198 145h-47q-12 0 -19.5 7.5t-7.5 19.5v34q0 12 7.5 19.5t19.5 7.5h40q185 0 185 129q0 64 -43 98.5t-121 34.5q-105 0 -172 -80q-20 -24 -39 -2l-27 25q-19 19 -2 39 q92 106 244 106q120 0 188 -58t68 -159q0 -129 -123 -172v-2q69 -22 106.5 -72t37.5 -124q0 -109 -72 -170.5t-199 -61.5q-168 0 -258 107z" />
<glyph unicode="&#xb4;" horiz-adv-x="1024" d="M447 1170.5q-5 9.5 4 23.5l163 252q12 18 35 18h72q19 0 24 -10t-6 -24l-178 -252q-11 -17 -33 -17h-59q-17 0 -22 9.5z" />
<glyph unicode="&#xb5;" horiz-adv-x="1024" d="M150 -297v1276q0 31 30 31h64q30 0 30 -31v-608q0 -287 244 -287q125 0 184.5 70t59.5 217v608q0 31 31 31h63q31 0 31 -31v-629q0 -183 -89 -279t-259 -96q-187 0 -263 125h-2v-397q0 -31 -30 -31h-64q-30 0 -30 31z" />
<glyph unicode="&#xb6;" horiz-adv-x="1157" d="M49 1028q0 209 115 307.5t358 98.5h445q26 0 26 -27v-1708q0 -27 -26 -27h-52q-26 0 -26 27v1630h-279v-1630q0 -27 -26 -27h-52q-26 0 -26 27v924q-234 3 -345.5 101.5t-111.5 303.5z" />
<glyph unicode="&#xb7;" horiz-adv-x="450" d="M135 639q0 40 26 66t64 26q40 0 66 -26t26 -66q0 -38 -26 -64t-66 -26q-38 0 -64 26t-26 64z" />
<glyph unicode="&#xb8;" horiz-adv-x="1024" d="M338 -281l16 33q12 20 33 8q54 -28 105 -28q45 0 68.5 16t23.5 39q0 31 -28 43t-91 12q-12 0 -18 7.5t-3 19.5l31 145h80l-25 -116q70 -3 109 -33.5t39 -83.5q0 -63 -46.5 -98t-131.5 -35q-89 0 -154 39q-17 11 -8 32z" />
<glyph unicode="&#xb9;" horiz-adv-x="675" d="M182 1317q-17 21 6 37l224 170q15 10 32 10h31q12 0 19.5 -7.5t7.5 -19.5v-737q0 -12 -7.5 -19.5t-19.5 -7.5h-43q-26 0 -26 27v637l-166 -127q-24 -17 -37 6z" />
<glyph unicode="&#xba;" horiz-adv-x="749" d="M82 782v224q0 145 75 221t218 76t218 -76t75 -221v-224q0 -144 -75 -219.5t-218 -75.5t-218 75.5t-75 219.5zM193 797q0 -109 44 -161t138 -52t138 52t44 161v194q0 110 -44 162.5t-138 52.5t-138 -52.5t-44 -162.5v-194z" />
<glyph unicode="&#xbb;" horiz-adv-x="849" d="M86.5 129q-5.5 10 3.5 25l223 350l-223 352q-9 15 -3.5 25t22.5 10h57q22 0 35 -19l221 -348q12 -20 0 -41l-221 -346q-12 -18 -35 -18h-57q-17 0 -22.5 10zM447 129q-5 10 4 25l223 350l-223 352q-9 15 -4 25t22 10h57q22 0 35 -19l221 -348q12 -20 0 -41l-221 -346 q-12 -18 -35 -18h-57q-17 0 -22 10z" />
<glyph unicode="&#xbc;" horiz-adv-x="1624" d="M182 1061q-17 21 6 37l224 170q15 10 32 10h31q12 0 19.5 -7.5t7.5 -19.5v-737q0 -12 -7.5 -19.5t-19.5 -7.5h-43q-26 0 -26 27v637l-166 -127q-24 -17 -37 6zM434.5 10q-5.5 10 3.5 23l809 1229q13 16 33 16h51q17 0 22 -10t-3 -23l-809 -1229q-13 -16 -33 -16h-51 q-17 0 -22.5 10zM1008 207v49q0 18 10 33l364 485q14 17 33 17h51q12 0 19.5 -7.5t7.5 -19.5v-496h68q26 0 26 -26v-35q0 -27 -26 -27h-68v-153q0 -12 -7.5 -19.5t-19.5 -7.5h-43q-26 0 -26 27v153h-363q-26 0 -26 27zM1112 268h285v381h-2z" />
<glyph unicode="&#xbd;" horiz-adv-x="1624" d="M182 1061q-17 21 6 37l224 170q15 10 32 10h31q12 0 19.5 -7.5t7.5 -19.5v-737q0 -12 -7.5 -19.5t-19.5 -7.5h-43q-26 0 -26 27v637l-166 -127q-24 -17 -37 6zM352.5 10q-5.5 10 3.5 23l809 1229q13 16 33 16h51q17 0 22 -10t-3 -23l-809 -1229q-13 -16 -33 -16h-51 q-17 0 -22.5 10zM1042 27v36q0 18 15 33l301 305q49 51 69.5 91t20.5 86q0 67 -41.5 103t-116.5 36q-106 0 -168 -94q-15 -24 -37 -9l-30 21q-20 16 -8 37q85 133 247 133q117 0 183.5 -60t66.5 -167q0 -64 -26 -117t-91 -119l-253 -254h342q26 0 26 -27v-34q0 -27 -26 -27 h-447q-12 0 -19.5 7.5t-7.5 19.5z" />
<glyph unicode="&#xbe;" horiz-adv-x="1624" d="M92 580q-14 19 2 38l25 25q20 20 39 -2q71 -80 188 -80q85 0 131.5 39t46.5 109q0 145 -198 145h-47q-12 0 -19.5 7.5t-7.5 19.5v34q0 12 7.5 19.5t19.5 7.5h40q185 0 185 129q0 64 -43 98.5t-121 34.5q-105 0 -172 -80q-20 -24 -39 -2l-27 25q-19 19 -2 39 q92 106 244 106q120 0 188 -58t68 -159q0 -129 -123 -172v-2q69 -22 106.5 -72t37.5 -124q0 -109 -72 -170.5t-199 -61.5q-168 0 -258 107zM445 10q-5 10 4 23l808 1229q13 16 33 16h51q17 0 22 -10t-3 -23l-809 -1229q-13 -16 -33 -16h-51q-17 0 -22 10zM1008 207v49 q0 18 10 33l364 485q14 17 33 17h51q12 0 19.5 -7.5t7.5 -19.5v-496h68q26 0 26 -26v-35q0 -27 -26 -27h-68v-153q0 -12 -7.5 -19.5t-19.5 -7.5h-43q-26 0 -26 27v153h-363q-26 0 -26 27zM1112 268h285v381h-2z" />
<glyph unicode="&#xbf;" horiz-adv-x="921" d="M49 336q0 119 51 200t174 152q103 61 143 118t40 138v43q0 31 30 31h56q30 0 30 -31v-51q0 -106 -46 -179t-160 -143q-107 -66 -148 -128t-41 -150q0 -115 75 -181.5t206 -66.5q201 0 307 180q18 30 43 11l47 -31q25 -16 10 -43q-66 -111 -171.5 -170.5t-237.5 -59.5 q-189 0 -298.5 97.5t-109.5 263.5zM422 1294q0 38 26 64t66 26q38 0 64 -26t26 -64q0 -40 -26 -66t-64 -26q-40 0 -66 26t-26 66z" />
<glyph unicode="&#xc0;" horiz-adv-x="1189" d="M61 35l455 1300q9 25 35 25h88q26 0 35 -25l454 -1300q6 -15 -0.5 -25t-23.5 -10h-78q-26 0 -35 25l-96 284h-604l-96 -284q-9 -25 -35 -25h-74q-17 0 -24 10t-1 25zM332 426h524l-262 770h-2zM363.5 1791q5.5 11 23.5 11h72q23 0 35 -18l163 -252q9 -14 4 -23.5 t-22 -9.5h-59q-22 0 -33 17l-178 251q-11 13 -5.5 24z" />
<glyph unicode="&#xc1;" horiz-adv-x="1189" d="M61 35l455 1300q9 25 35 25h88q26 0 35 -25l454 -1300q6 -15 -0.5 -25t-23.5 -10h-78q-26 0 -35 25l-96 284h-604l-96 -284q-9 -25 -35 -25h-74q-17 0 -24 10t-1 25zM332 426h524l-262 770h-2zM531 1508.5q-5 9.5 4 23.5l163 252q12 18 35 18h72q18 0 23.5 -11t-5.5 -24 l-178 -251q-11 -17 -33 -17h-59q-17 0 -22 9.5z" />
<glyph unicode="&#xc2;" horiz-adv-x="1189" d="M61 35l455 1300q9 25 35 25h88q26 0 35 -25l454 -1300q6 -15 -0.5 -25t-23.5 -10h-78q-26 0 -35 25l-96 284h-604l-96 -284q-9 -25 -35 -25h-74q-17 0 -24 10t-1 25zM332 426h524l-262 770h-2zM347.5 1508.5q-4.5 9.5 4.5 23.5l176 252q12 18 35 18h64q23 0 35 -18 l174 -252q9 -14 4.5 -23.5t-21.5 -9.5h-55q-22 0 -33 17l-137 194l-137 -194q-11 -17 -33 -17h-55q-17 0 -21.5 9.5z" />
<glyph unicode="&#xc3;" horiz-adv-x="1189" d="M61 35l455 1300q9 25 35 25h88q26 0 35 -25l454 -1300q6 -15 -0.5 -25t-23.5 -10h-78q-26 0 -35 25l-96 284h-604l-96 -284q-9 -25 -35 -25h-74q-17 0 -24 10t-1 25zM311 1556q14 90 59 138.5t115 48.5q66 0 140 -68q52 -47 86 -47q63 0 80 88q6 25 28 25h35q30 0 27 -29 q-14 -89 -59 -137.5t-115 -48.5q-68 0 -140 67q-52 47 -86 47q-63 0 -80 -88q-6 -24 -28 -24h-35q-30 0 -27 28zM332 426h524l-262 770h-2z" />
<glyph unicode="&#xc4;" horiz-adv-x="1189" d="M61 35l455 1300q9 25 35 25h88q26 0 35 -25l454 -1300q6 -15 -0.5 -25t-23.5 -10h-78q-26 0 -35 25l-96 284h-604l-96 -284q-9 -25 -35 -25h-74q-17 0 -24 10t-1 25zM332 426h524l-262 770h-2zM350 1638q0 36 23 59t59 23q35 0 58.5 -23.5t23.5 -58.5t-23.5 -58.5 t-58.5 -23.5q-36 0 -59 23t-23 59zM678 1638q0 35 23.5 58.5t58.5 23.5q36 0 59 -23t23 -59t-23 -59t-59 -23q-35 0 -58.5 23.5t-23.5 58.5z" />
<glyph unicode="&#xc5;" horiz-adv-x="1189" d="M61 35l455 1300q9 25 35 25h88q26 0 35 -25l454 -1300q6 -15 -0.5 -25t-23.5 -10h-78q-26 0 -35 25l-96 284h-604l-96 -284q-9 -25 -35 -25h-74q-17 0 -24 10t-1 25zM332 426h524l-262 770h-2zM434 1651q0 69 46.5 115t115.5 46t115.5 -46t46.5 -115t-46.5 -115.5 t-115.5 -46.5t-115.5 46.5t-46.5 115.5zM524 1651q0 -31 20.5 -52.5t51.5 -21.5t51.5 21.5t20.5 52.5t-20.5 52t-51.5 21t-51.5 -21t-20.5 -52z" />
<glyph unicode="&#xc6;" horiz-adv-x="1802" d="M27.5 11q-5.5 11 3.5 26l780 1302q12 21 37 21h831q31 0 31 -31v-55q0 -31 -31 -31h-673v-498h583q31 0 31 -30v-56q0 -30 -31 -30h-583v-512h673q31 0 31 -31v-55q0 -31 -31 -31h-776q-31 0 -31 31v264h-540l-162 -275q-11 -20 -37 -20h-82q-18 0 -23.5 11zM399 412h473 v802h-2z" />
<glyph unicode="&#xc7;" horiz-adv-x="1087" d="M121 467v426q0 241 119 366t348 125q308 0 430 -249q13 -26 -14 -41l-52 -29q-29 -13 -41 14q-97 189 -323 189q-334 0 -334 -398v-381q0 -200 82.5 -298.5t251.5 -98.5q226 0 323 189q12 27 41 14l52 -29q27 -15 14 -41q-116 -235 -395 -250l-17 -77q70 -3 109 -33.5 t39 -83.5q0 -63 -47 -98t-132 -35q-88 0 -153 39q-17 11 -8 32l16 33q12 20 33 8q54 -28 104 -28q45 0 68.5 16t23.5 39q0 31 -27.5 43t-90.5 12q-12 0 -18 7.5t-3 19.5l23 108q-207 12 -314.5 136.5t-107.5 353.5z" />
<glyph unicode="&#xc8;" horiz-adv-x="1101" d="M172 31v1298q0 31 31 31h774q31 0 31 -31v-55q0 -31 -31 -31h-672v-498h582q31 0 31 -30v-56q0 -30 -31 -30h-582v-512h672q31 0 31 -31v-55q0 -31 -31 -31h-774q-31 0 -31 31zM356.5 1791q5.5 11 24.5 11h72q22 0 34 -18l164 -252q9 -14 4 -23.5t-22 -9.5h-60 q-21 0 -32 17l-179 251q-11 13 -5.5 24z" />
<glyph unicode="&#xc9;" horiz-adv-x="1101" d="M172 31v1298q0 31 31 31h774q31 0 31 -31v-55q0 -31 -31 -31h-672v-498h582q31 0 31 -30v-56q0 -30 -31 -30h-582v-512h672q31 0 31 -31v-55q0 -31 -31 -31h-774q-31 0 -31 31zM524.5 1508.5q-5.5 9.5 3.5 23.5l164 252q12 18 35 18h72q18 0 23.5 -11t-5.5 -24l-178 -251 q-11 -17 -33 -17h-59q-17 0 -22.5 9.5z" />
<glyph unicode="&#xca;" horiz-adv-x="1101" d="M172 31v1298q0 31 31 31h774q31 0 31 -31v-55q0 -31 -31 -31h-672v-498h582q31 0 31 -30v-56q0 -30 -31 -30h-582v-512h672q31 0 31 -31v-55q0 -31 -31 -31h-774q-31 0 -31 31zM341 1508.5q-4 9.5 5 23.5l176 252q12 18 35 18h64q22 0 34 -18l174 -252q9 -14 5 -23.5 t-21 -9.5h-55q-22 0 -33 17l-137 194l-137 -194q-11 -17 -33 -17h-56q-17 0 -21 9.5z" />
<glyph unicode="&#xcb;" horiz-adv-x="1101" d="M172 31v1298q0 31 31 31h774q31 0 31 -31v-55q0 -31 -31 -31h-672v-498h582q31 0 31 -30v-56q0 -30 -31 -30h-582v-512h672q31 0 31 -31v-55q0 -31 -31 -31h-774q-31 0 -31 31zM344 1638q0 36 23 59t59 23q35 0 58.5 -23.5t23.5 -58.5t-23.5 -58.5t-58.5 -23.5 q-36 0 -59 23t-23 59zM672 1638q0 35 23.5 58.5t58.5 23.5q36 0 59 -23t23 -59t-23 -59t-59 -23q-35 0 -58.5 23.5t-23.5 58.5z" />
<glyph unicode="&#xcc;" horiz-adv-x="477" d="M4.5 1791q5.5 11 24.5 11h71q23 0 35 -18l164 -252q9 -14 4 -23.5t-22 -9.5h-60q-22 0 -33 17l-178 251q-11 13 -5.5 24zM172 31v1298q0 31 31 31h71q31 0 31 -31v-1298q0 -31 -31 -31h-71q-31 0 -31 31z" />
<glyph unicode="&#xcd;" horiz-adv-x="477" d="M172 31v1298q0 31 31 31h71q31 0 31 -31v-1298q0 -31 -31 -31h-71q-31 0 -31 31zM172.5 1508.5q-5.5 9.5 3.5 23.5l164 252q12 18 35 18h71q19 0 24.5 -11t-5.5 -24l-178 -251q-11 -17 -33 -17h-59q-17 0 -22.5 9.5z" />
<glyph unicode="&#xce;" horiz-adv-x="477" d="M-11 1508.5q-4 9.5 5 23.5l176 252q12 18 35 18h63q23 0 35 -18l174 -252q9 -14 5 -23.5t-21 -9.5h-55q-22 0 -33 17l-137 194l-138 -194q-11 -17 -32 -17h-56q-17 0 -21 9.5zM172 31v1298q0 31 31 31h71q31 0 31 -31v-1298q0 -31 -31 -31h-71q-31 0 -31 31z" />
<glyph unicode="&#xcf;" horiz-adv-x="477" d="M-8 1638q0 36 23 59t59 23q35 0 58.5 -23.5t23.5 -58.5t-23.5 -58.5t-58.5 -23.5q-36 0 -59 23t-23 59zM172 31v1298q0 31 31 31h71q31 0 31 -31v-1298q0 -31 -31 -31h-71q-31 0 -31 31zM319 1638q0 35 23.5 58.5t58.5 23.5q36 0 59 -23t23 -59t-23 -59t-59 -23 q-35 0 -58.5 23.5t-23.5 58.5z" />
<glyph unicode="&#xd0;" horiz-adv-x="1228" d="M49 662v55q0 31 31 31h113v581q0 31 30 31h408q236 0 356.5 -117.5t120.5 -347.5v-430q0 -230 -120.5 -347.5t-356.5 -117.5h-408q-30 0 -30 31v600h-113q-31 0 -31 31zM326 117h299q179 0 264.5 90.5t85.5 279.5v385q0 189 -86 280t-264 91h-299v-495h284q31 0 31 -31 v-55q0 -31 -31 -31h-284v-514z" />
<glyph unicode="&#xd1;" horiz-adv-x="1275" d="M172 31v1298q0 31 31 31h90q25 0 37 -21l643 -1101h2v1091q0 31 31 31h67q31 0 31 -31v-1298q0 -31 -31 -31h-76q-25 0 -36 20l-658 1123h-2v-1112q0 -31 -31 -31h-67q-31 0 -31 31zM354 1556q14 90 59 138.5t115 48.5q66 0 140 -68q52 -47 86 -47q63 0 80 88q6 25 28 25 h35q30 0 27 -29q-14 -89 -59 -137.5t-115 -48.5q-68 0 -140 67q-52 47 -86 47q-63 0 -80 -88q-6 -24 -28 -24h-35q-30 0 -27 28z" />
<glyph unicode="&#xd2;" horiz-adv-x="1198" d="M121 467v426q0 241 121.5 366t355.5 125q235 0 357 -125t122 -366v-426q0 -241 -122 -366.5t-357 -125.5q-233 0 -355 125.5t-122 366.5zM254 489q0 -201 85.5 -299t258.5 -98q175 0 260.5 98t85.5 299v381q0 201 -85.5 299.5t-260.5 98.5q-173 0 -258.5 -98.5 t-85.5 -299.5v-381zM365.5 1791q5.5 11 23.5 11h72q23 0 35 -18l163 -252q9 -14 4 -23.5t-22 -9.5h-59q-22 0 -33 17l-178 251q-11 13 -5.5 24z" />
<glyph unicode="&#xd3;" horiz-adv-x="1198" d="M121 467v426q0 241 121.5 366t355.5 125q235 0 357 -125t122 -366v-426q0 -241 -122 -366.5t-357 -125.5q-233 0 -355 125.5t-122 366.5zM254 489q0 -201 85.5 -299t258.5 -98q175 0 260.5 98t85.5 299v381q0 201 -85.5 299.5t-260.5 98.5q-173 0 -258.5 -98.5 t-85.5 -299.5v-381zM533 1508.5q-5 9.5 4 23.5l163 252q12 18 35 18h72q18 0 23.5 -11t-5.5 -24l-178 -251q-11 -17 -33 -17h-59q-17 0 -22 9.5z" />
<glyph unicode="&#xd4;" horiz-adv-x="1198" d="M121 467v426q0 241 121.5 366t355.5 125q235 0 357 -125t122 -366v-426q0 -241 -122 -366.5t-357 -125.5q-233 0 -355 125.5t-122 366.5zM254 489q0 -201 85.5 -299t258.5 -98q175 0 260.5 98t85.5 299v381q0 201 -85.5 299.5t-260.5 98.5q-173 0 -258.5 -98.5 t-85.5 -299.5v-381zM349.5 1508.5q-4.5 9.5 4.5 23.5l176 252q12 18 35 18h64q23 0 35 -18l174 -252q9 -14 4.5 -23.5t-21.5 -9.5h-55q-22 0 -33 17l-137 194l-137 -194q-11 -17 -33 -17h-55q-17 0 -21.5 9.5z" />
<glyph unicode="&#xd5;" horiz-adv-x="1198" d="M121 467v426q0 241 121.5 366t355.5 125q235 0 357 -125t122 -366v-426q0 -241 -122 -366.5t-357 -125.5q-233 0 -355 125.5t-122 366.5zM254 489q0 -201 85.5 -299t258.5 -98q175 0 260.5 98t85.5 299v381q0 201 -85.5 299.5t-260.5 98.5q-173 0 -258.5 -98.5 t-85.5 -299.5v-381zM313 1556q14 90 59 138.5t115 48.5q66 0 140 -68q52 -47 86 -47q63 0 80 88q6 25 28 25h35q30 0 27 -29q-14 -89 -59 -137.5t-115 -48.5q-68 0 -140 67q-52 47 -86 47q-63 0 -80 -88q-6 -24 -28 -24h-35q-30 0 -27 28z" />
<glyph unicode="&#xd6;" horiz-adv-x="1198" d="M121 467v426q0 241 121.5 366t355.5 125q235 0 357 -125t122 -366v-426q0 -241 -122 -366.5t-357 -125.5q-233 0 -355 125.5t-122 366.5zM254 489q0 -201 85.5 -299t258.5 -98q175 0 260.5 98t85.5 299v381q0 201 -85.5 299.5t-260.5 98.5q-173 0 -258.5 -98.5 t-85.5 -299.5v-381zM352 1638q0 36 23 59t59 23q35 0 58.5 -23.5t23.5 -58.5t-23.5 -58.5t-58.5 -23.5q-36 0 -59 23t-23 59zM680 1638q0 35 23.5 58.5t58.5 23.5q36 0 59 -23t23 -59t-23 -59t-59 -23q-35 0 -58.5 23.5t-23.5 58.5z" />
<glyph unicode="&#xd7;" d="M100 164q-20 23 2 45l363 362l-363 363q-22 22 -2 45l37 37q23 22 45 0l363 -363l362 363q23 22 45 0l37 -37q23 -23 0 -45l-362 -363l362 -362q23 -23 0 -45l-37 -37q-22 -23 -45 0l-362 362l-363 -362q-22 -23 -45 0z" />
<glyph unicode="&#xd8;" horiz-adv-x="1198" d="M121 467v426q0 241 121.5 366t355.5 125q209 0 328 -98l49 76q15 24 41 8l45 -31q22 -16 6 -41l-63 -100q73 -116 73 -305v-426q0 -241 -122 -366.5t-357 -125.5q-206 0 -326 99l-49 -76q-15 -24 -41 -8l-45 30q-21 15 -8 41l66 101q-74 118 -74 305zM254 489 q0 -109 27 -192h2l571 879q-86 92 -256 92q-173 0 -258.5 -98.5t-85.5 -299.5v-381zM344 184q86 -92 254 -92q175 0 260.5 98t85.5 299v381q0 116 -26 195h-3z" />
<glyph unicode="&#xd9;" horiz-adv-x="1204" d="M147 451v878q0 31 31 31h72q31 0 31 -31v-860q0 -192 79.5 -284.5t243.5 -92.5t244 92.5t80 284.5v860q0 31 30 31h68q31 0 31 -31v-878q0 -233 -116.5 -354.5t-338.5 -121.5t-338.5 121.5t-116.5 354.5zM369.5 1791q5.5 11 23.5 11h72q23 0 35 -18l164 -252 q9 -14 3.5 -23.5t-22.5 -9.5h-59q-22 0 -33 17l-178 251q-11 13 -5.5 24z" />
<glyph unicode="&#xda;" horiz-adv-x="1204" d="M147 451v878q0 31 31 31h72q31 0 31 -31v-860q0 -192 79.5 -284.5t243.5 -92.5t244 92.5t80 284.5v860q0 31 30 31h68q31 0 31 -31v-878q0 -233 -116.5 -354.5t-338.5 -121.5t-338.5 121.5t-116.5 354.5zM537 1508.5q-5 9.5 4 23.5l164 252q12 18 34 18h72q18 0 23.5 -11 t-5.5 -24l-178 -251q-11 -17 -33 -17h-59q-17 0 -22 9.5z" />
<glyph unicode="&#xdb;" horiz-adv-x="1204" d="M147 451v878q0 31 31 31h72q31 0 31 -31v-860q0 -192 79.5 -284.5t243.5 -92.5t244 92.5t80 284.5v860q0 31 30 31h68q31 0 31 -31v-878q0 -233 -116.5 -354.5t-338.5 -121.5t-338.5 121.5t-116.5 354.5zM353.5 1508.5q-4.5 9.5 4.5 23.5l177 252q12 18 34 18h64 q23 0 35 -18l174 -252q9 -14 4.5 -23.5t-21.5 -9.5h-55q-22 0 -33 17l-137 194l-137 -194q-11 -17 -33 -17h-55q-17 0 -21.5 9.5z" />
<glyph unicode="&#xdc;" horiz-adv-x="1204" d="M147 451v878q0 31 31 31h72q31 0 31 -31v-860q0 -192 79.5 -284.5t243.5 -92.5t244 92.5t80 284.5v860q0 31 30 31h68q31 0 31 -31v-878q0 -233 -116.5 -354.5t-338.5 -121.5t-338.5 121.5t-116.5 354.5zM356 1638q0 36 23 59t59 23q35 0 58.5 -23.5t23.5 -58.5 t-23.5 -58.5t-58.5 -23.5q-36 0 -59 23t-23 59zM684 1638q0 35 23.5 58.5t58.5 23.5q36 0 59 -23t23 -59t-23 -59t-59 -23q-35 0 -58.5 23.5t-23.5 58.5z" />
<glyph unicode="&#xdd;" horiz-adv-x="1062" d="M23.5 1349q5.5 11 23.5 11h88q25 0 37 -21l363 -612l362 612q12 21 37 21h82q18 0 23.5 -11t-3.5 -26l-438 -723v-569q0 -31 -31 -31h-71q-31 0 -31 31v569l-438 723q-9 15 -3.5 26zM465 1508.5q-5 9.5 4 23.5l164 252q12 18 35 18h71q19 0 24.5 -11t-5.5 -24l-178 -251 q-11 -17 -33 -17h-60q-17 0 -22 9.5z" />
<glyph unicode="&#xde;" horiz-adv-x="1107" d="M172 31v1298q0 31 31 31h71q31 0 31 -31v-223h277q243 0 358 -98.5t115 -307.5t-115 -307t-358 -98h-277v-264q0 -31 -31 -31h-71q-31 0 -31 31zM305 412h275q177 0 258.5 69.5t81.5 218.5q0 150 -81.5 219.5t-258.5 69.5h-275v-577z" />
<glyph unicode="&#xdf;" horiz-adv-x="1126" d="M150 31v1073q0 166 103 260t286 94q182 0 283.5 -82.5t101.5 -230.5q0 -87 -37.5 -147.5t-130.5 -116.5q-73 -45 -99 -80t-26 -84q0 -57 37 -89t135 -57q143 -35 202.5 -104.5t59.5 -194.5q0 -137 -92 -217t-250 -80q-210 0 -328 103q-23 20 -6 43l29 41q18 27 45 4 q94 -82 250 -82q107 0 167 49.5t60 138.5q0 77 -45 122t-158 75q-128 35 -179.5 92t-51.5 158q0 75 35 128.5t123 108.5q80 50 108.5 90t28.5 95q0 100 -68 154.5t-192 54.5q-129 0 -198 -65t-69 -187v-1067q0 -31 -30 -31h-64q-30 0 -30 31z" />
<glyph unicode="&#xe0;" horiz-adv-x="929" d="M84 283q0 142 94 222.5t266 80.5h250v39q0 156 -63.5 228.5t-196.5 72.5q-63 0 -122 -26.5t-103 -70.5q-23 -23 -41 2l-35 46q-19 22 2 43q126 114 309 114q185 0 280 -98.5t95 -290.5v-285q0 -188 -96 -286.5t-283 -98.5q-170 0 -263 80.5t-93 227.5zM209 283 q0 -96 60 -147.5t171 -51.5q131 0 192.5 71.5t61.5 223.5v102h-235q-119 0 -184.5 -51t-65.5 -147zM240.5 1454q5.5 10 23.5 10h72q23 0 35 -18l164 -252q9 -14 3.5 -23.5t-22.5 -9.5h-59q-22 0 -33 17l-178 252q-11 14 -5.5 24z" />
<glyph unicode="&#xe1;" horiz-adv-x="929" d="M84 283q0 142 94 222.5t266 80.5h250v39q0 156 -63.5 228.5t-196.5 72.5q-63 0 -122 -26.5t-103 -70.5q-23 -23 -41 2l-35 46q-19 22 2 43q126 114 309 114q185 0 280 -98.5t95 -290.5v-285q0 -188 -96 -286.5t-283 -98.5q-170 0 -263 80.5t-93 227.5zM209 283 q0 -96 60 -147.5t171 -51.5q131 0 192.5 71.5t61.5 223.5v102h-235q-119 0 -184.5 -51t-65.5 -147zM408 1170.5q-5 9.5 4 23.5l163 252q12 18 35 18h72q18 0 23.5 -10t-5.5 -24l-178 -252q-11 -17 -33 -17h-59q-17 0 -22 9.5z" />
<glyph unicode="&#xe2;" horiz-adv-x="929" d="M84 283q0 142 94 222.5t266 80.5h250v39q0 156 -63.5 228.5t-196.5 72.5q-63 0 -122 -26.5t-103 -70.5q-23 -23 -41 2l-35 46q-19 22 2 43q126 114 309 114q185 0 280 -98.5t95 -290.5v-285q0 -188 -96 -286.5t-283 -98.5q-170 0 -263 80.5t-93 227.5zM209 283 q0 -96 60 -147.5t171 -51.5q131 0 192.5 71.5t61.5 223.5v102h-235q-119 0 -184.5 -51t-65.5 -147zM224.5 1170.5q-4.5 9.5 4.5 23.5l177 252q12 18 34 18h64q23 0 35 -18l174 -252q9 -14 4.5 -23.5t-21.5 -9.5h-55q-22 0 -33 17l-137 194l-137 -194q-11 -17 -33 -17h-55 q-17 0 -21.5 9.5z" />
<glyph unicode="&#xe3;" horiz-adv-x="929" d="M84 283q0 142 94 222.5t266 80.5h250v39q0 156 -63.5 228.5t-196.5 72.5q-63 0 -122 -26.5t-103 -70.5q-23 -23 -41 2l-35 46q-19 22 2 43q126 114 309 114q185 0 280 -98.5t95 -290.5v-285q0 -188 -96 -286.5t-283 -98.5q-170 0 -263 80.5t-93 227.5zM188 1219 q14 89 59 137.5t115 48.5q66 0 140 -68q52 -47 86 -47q63 0 80 88q6 25 28 25h35q30 0 27 -29q-14 -89 -59 -137.5t-115 -48.5q-68 0 -140 67q-53 48 -86 48q-61 0 -79 -89q-6 -24 -29 -24h-35q-30 0 -27 29zM209 283q0 -96 60 -147.5t171 -51.5q131 0 192.5 71.5 t61.5 223.5v102h-235q-119 0 -184.5 -51t-65.5 -147z" />
<glyph unicode="&#xe4;" horiz-adv-x="929" d="M84 283q0 142 94 222.5t266 80.5h250v39q0 156 -63.5 228.5t-196.5 72.5q-63 0 -122 -26.5t-103 -70.5q-23 -23 -41 2l-35 46q-19 22 2 43q126 114 309 114q185 0 280 -98.5t95 -290.5v-285q0 -188 -96 -286.5t-283 -98.5q-170 0 -263 80.5t-93 227.5zM209 283 q0 -96 60 -147.5t171 -51.5q131 0 192.5 71.5t61.5 223.5v102h-235q-119 0 -184.5 -51t-65.5 -147zM227 1300q0 36 23 59t59 23q35 0 58.5 -23.5t23.5 -58.5t-23.5 -58t-58.5 -23q-37 0 -59.5 22.5t-22.5 58.5zM555 1300q0 35 23.5 58.5t58.5 23.5q36 0 59 -23t23 -59 t-22.5 -58.5t-59.5 -22.5q-35 0 -58.5 23t-23.5 58z" />
<glyph unicode="&#xe5;" horiz-adv-x="929" d="M84 283q0 142 94 222.5t266 80.5h250v39q0 156 -63.5 228.5t-196.5 72.5q-63 0 -122 -26.5t-103 -70.5q-23 -23 -41 2l-35 46q-19 22 2 43q126 114 309 114q185 0 280 -98.5t95 -290.5v-285q0 -188 -96 -286.5t-283 -98.5q-170 0 -263 80.5t-93 227.5zM209 283 q0 -96 60 -147.5t171 -51.5q131 0 192.5 71.5t61.5 223.5v102h-235q-119 0 -184.5 -51t-65.5 -147zM311 1313q0 69 46.5 115.5t115.5 46.5t115.5 -46.5t46.5 -115.5t-46.5 -115.5t-115.5 -46.5t-115.5 46.5t-46.5 115.5zM401 1313q0 -31 20.5 -52.5t51.5 -21.5t51.5 21.5 t20.5 52.5t-20.5 52t-51.5 21t-51.5 -21t-20.5 -52z" />
<glyph unicode="&#xe6;" horiz-adv-x="1517" d="M84 281q0 143 93.5 221t266.5 78h250v45q0 156 -63.5 228.5t-196.5 72.5q-63 0 -122 -26.5t-103 -70.5q-23 -23 -41 2l-35 46q-19 22 2 43q129 114 303 114q243 0 320 -188h2q68 188 317 188q172 0 264.5 -98.5t92.5 -284.5v-145q0 -31 -31 -31h-584v-90 q0 -157 67.5 -229t213.5 -72q125 0 223 104q20 23 43 0l35 -38q20 -23 0 -46q-123 -129 -301 -129q-259 0 -340 193h-2q-71 -193 -330 -193q-161 0 -252.5 81.5t-91.5 224.5zM209 281q0 -96 60 -146.5t171 -50.5q131 0 192.5 71.5t61.5 223.5v96h-235q-120 0 -185 -49 t-65 -145zM819 580h496v53q0 151 -60 222t-188 71t-188 -71t-60 -222v-53z" />
<glyph unicode="&#xe7;" horiz-adv-x="837" d="M109 367v278q0 191 95.5 290t276.5 99t279 -98q22 -19 2 -43l-31 -37q-9 -12 -22 -12.5t-23 10.5q-75 72 -197 72q-131 0 -193.5 -72.5t-62.5 -228.5v-240q0 -155 65 -228t200 -73q119 0 204 88q23 26 46 0l30 -35q18 -22 -2 -45q-105 -108 -266 -117l-16 -77 q70 -3 108.5 -33.5t38.5 -83.5q0 -63 -46.5 -98t-131.5 -35q-89 0 -154 39q-17 11 -8 32l16 33q12 20 33 8q54 -28 105 -28q45 0 68.5 16t23.5 39q0 31 -28 43t-91 12q-12 0 -17.5 7.5t-2.5 19.5l22 108q-156 15 -238.5 114.5t-82.5 275.5z" />
<glyph unicode="&#xe8;" horiz-adv-x="929" d="M109 367v284q0 187 94 285t274 98q181 0 275 -97.5t94 -285.5v-155q0 -31 -31 -31h-582v-80q0 -158 67 -229.5t212 -71.5q127 0 225 104q23 26 43 0l35 -38q20 -23 0 -46q-123 -129 -309 -129q-196 0 -296.5 99t-100.5 293zM233 569h494v64q0 151 -60 222t-188 71 q-126 0 -186 -71t-60 -222v-64zM248.5 1454q5.5 10 23.5 10h72q23 0 35 -18l164 -252q9 -14 3.5 -23.5t-22.5 -9.5h-59q-22 0 -33 17l-178 252q-11 14 -5.5 24z" />
<glyph unicode="&#xe9;" horiz-adv-x="929" d="M109 367v284q0 187 94 285t274 98q181 0 275 -97.5t94 -285.5v-155q0 -31 -31 -31h-582v-80q0 -158 67 -229.5t212 -71.5q127 0 225 104q23 26 43 0l35 -38q20 -23 0 -46q-123 -129 -309 -129q-196 0 -296.5 99t-100.5 293zM233 569h494v64q0 151 -60 222t-188 71 q-126 0 -186 -71t-60 -222v-64zM416 1170.5q-5 9.5 4 23.5l164 252q12 18 34 18h72q19 0 24.5 -10t-5.5 -24l-179 -252q-11 -17 -32 -17h-60q-17 0 -22 9.5z" />
<glyph unicode="&#xea;" horiz-adv-x="929" d="M109 367v284q0 187 94 285t274 98q181 0 275 -97.5t94 -285.5v-155q0 -31 -31 -31h-582v-80q0 -158 67 -229.5t212 -71.5q127 0 225 104q23 26 43 0l35 -38q20 -23 0 -46q-123 -129 -309 -129q-196 0 -296.5 99t-100.5 293zM233 569h494v64q0 151 -60 222t-188 71 q-126 0 -186 -71t-60 -222v-64zM233 1170.5q-4 9.5 5 23.5l176 252q12 18 35 18h63q23 0 35 -18l174 -252q9 -14 5 -23.5t-21 -9.5h-56q-22 0 -33 17l-137 194l-137 -194q-11 -17 -33 -17h-55q-17 0 -21 9.5z" />
<glyph unicode="&#xeb;" horiz-adv-x="929" d="M109 367v284q0 187 94 285t274 98q181 0 275 -97.5t94 -285.5v-155q0 -31 -31 -31h-582v-80q0 -158 67 -229.5t212 -71.5q127 0 225 104q23 26 43 0l35 -38q20 -23 0 -46q-123 -129 -309 -129q-196 0 -296.5 99t-100.5 293zM233 569h494v64q0 151 -60 222t-188 71 q-126 0 -186 -71t-60 -222v-64zM236 1300q0 36 22.5 59t58.5 23q35 0 58.5 -23.5t23.5 -58.5t-23.5 -58t-58.5 -23q-36 0 -58.5 22.5t-22.5 58.5zM563 1300q0 35 23.5 58.5t58.5 23.5q36 0 59 -23t23 -59t-22.5 -58.5t-59.5 -22.5q-35 0 -58.5 23t-23.5 58z" />
<glyph unicode="&#xec;" horiz-adv-x="423" d="M-21.5 1454q5.5 10 23.5 10h72q23 0 35 -18l163 -252q9 -14 4 -23.5t-22 -9.5h-59q-22 0 -33 17l-178 252q-11 14 -5.5 24zM150 31v948q0 31 30 31h64q30 0 30 -31v-948q0 -31 -30 -31h-64q-30 0 -30 31z" />
<glyph unicode="&#xed;" horiz-adv-x="423" d="M146 1170.5q-5 9.5 4 23.5l163 252q12 18 35 18h72q18 0 23.5 -10t-5.5 -24l-178 -252q-11 -17 -33 -17h-59q-17 0 -22 9.5zM150 31v948q0 31 30 31h64q30 0 30 -31v-948q0 -31 -30 -31h-64q-30 0 -30 31z" />
<glyph unicode="&#xee;" horiz-adv-x="423" d="M-37.5 1170.5q-4.5 9.5 4.5 23.5l176 252q12 18 35 18h64q22 0 34 -18l175 -252q9 -14 4.5 -23.5t-21.5 -9.5h-55q-22 0 -33 17l-137 194l-137 -194q-11 -17 -33 -17h-55q-17 0 -21.5 9.5zM150 31v948q0 31 30 31h64q30 0 30 -31v-948q0 -31 -30 -31h-64q-30 0 -30 31z " />
<glyph unicode="&#xef;" horiz-adv-x="423" d="M-35 1300q0 36 23 59t59 23q35 0 58.5 -23.5t23.5 -58.5t-23.5 -58t-58.5 -23q-37 0 -59.5 22.5t-22.5 58.5zM150 31v948q0 31 30 31h64q30 0 30 -31v-948q0 -31 -30 -31h-64q-30 0 -30 31zM293 1300q0 35 23.5 58.5t58.5 23.5q36 0 59 -23t23 -59t-22.5 -58.5 t-59.5 -22.5q-35 0 -58.5 23t-23.5 58z" />
<glyph unicode="&#xf0;" horiz-adv-x="987" d="M109 360v279q0 187 91.5 285t266.5 98q165 0 248 -109h2q-38 215 -160 320l-119 -100q-22 -19 -41 4l-28 34q-15 22 4 41l92 78q-90 43 -227 58q-30 3 -27 32l6 50q3 31 35 28q177 -17 309 -88l98 82q22 19 41 -4l29 -35q15 -22 -4 -41l-76 -63q211 -182 211 -643v-306 q0 -188 -96 -286.5t-279 -98.5q-184 0 -280 98.5t-96 286.5zM233 379q0 -152 61 -223.5t191 -71.5q129 0 189.5 71.5t60.5 223.5v239q0 295 -250 295q-130 0 -191 -71.5t-61 -223.5v-239z" />
<glyph unicode="&#xf1;" horiz-adv-x="1011" d="M137 31v628q0 184 94.5 279.5t274.5 95.5q181 0 274.5 -95t93.5 -280v-628q0 -31 -30 -31h-64q-30 0 -30 31v610q0 146 -59.5 215.5t-184.5 69.5t-184.5 -69.5t-59.5 -215.5v-610q0 -31 -31 -31h-63q-31 0 -31 31zM221 1219q14 89 59 137.5t115 48.5q66 0 140 -68 q52 -47 86 -47q62 0 79 88q6 25 29 25h35q30 0 27 -29q-14 -89 -59.5 -137.5t-115.5 -48.5q-67 0 -139 67q-53 48 -86 48q-62 0 -80 -89q-6 -24 -28 -24h-35q-30 0 -27 29z" />
<glyph unicode="&#xf2;" horiz-adv-x="968" d="M109 358v293q0 188 96 285.5t280 97.5q183 0 279 -98t96 -285v-293q0 -187 -96 -285t-279 -98q-184 0 -280 97.5t-96 285.5zM233 379q0 -152 61 -223.5t191 -71.5q129 0 189.5 71.5t60.5 223.5v254q0 151 -60.5 222t-189.5 71q-130 0 -191 -71t-61 -222v-254zM252.5 1454 q5.5 10 23.5 10h72q23 0 35 -18l164 -252q9 -14 3.5 -23.5t-22.5 -9.5h-59q-22 0 -33 17l-178 252q-11 14 -5.5 24z" />
<glyph unicode="&#xf3;" horiz-adv-x="968" d="M109 358v293q0 188 96 285.5t280 97.5q183 0 279 -98t96 -285v-293q0 -187 -96 -285t-279 -98q-184 0 -280 97.5t-96 285.5zM233 379q0 -152 61 -223.5t191 -71.5q129 0 189.5 71.5t60.5 223.5v254q0 151 -60.5 222t-189.5 71q-130 0 -191 -71t-61 -222v-254zM420 1170.5 q-5 9.5 4 23.5l164 252q12 18 35 18h71q19 0 24.5 -10t-5.5 -24l-178 -252q-11 -17 -33 -17h-60q-17 0 -22 9.5z" />
<glyph unicode="&#xf4;" horiz-adv-x="968" d="M109 358v293q0 188 96 285.5t280 97.5q183 0 279 -98t96 -285v-293q0 -187 -96 -285t-279 -98q-184 0 -280 97.5t-96 285.5zM233 379q0 -152 61 -223.5t191 -71.5q129 0 189.5 71.5t60.5 223.5v254q0 151 -60.5 222t-189.5 71q-130 0 -191 -71t-61 -222v-254zM237 1170.5 q-4 9.5 5 23.5l176 252q12 18 35 18h63q23 0 35 -18l174 -252q9 -14 5 -23.5t-21 -9.5h-56q-21 0 -32 17l-138 194l-137 -194q-11 -17 -33 -17h-55q-17 0 -21 9.5z" />
<glyph unicode="&#xf5;" horiz-adv-x="968" d="M109 358v293q0 188 96 285.5t280 97.5q183 0 279 -98t96 -285v-293q0 -187 -96 -285t-279 -98q-184 0 -280 97.5t-96 285.5zM201 1219q14 89 59 137.5t115 48.5q65 0 139 -68q52 -47 86 -47q63 0 80 88q6 25 29 25h34q30 0 27 -29q-14 -89 -59 -137.5t-115 -48.5 q-67 0 -139 67q-53 48 -86 48q-62 0 -80 -89q-6 -24 -29 -24h-35q-29 0 -26 29zM233 379q0 -152 61 -223.5t191 -71.5q129 0 189.5 71.5t60.5 223.5v254q0 151 -60.5 222t-189.5 71q-130 0 -191 -71t-61 -222v-254z" />
<glyph unicode="&#xf6;" horiz-adv-x="968" d="M109 358v293q0 188 96 285.5t280 97.5q183 0 279 -98t96 -285v-293q0 -187 -96 -285t-279 -98q-184 0 -280 97.5t-96 285.5zM233 379q0 -152 61 -223.5t191 -71.5q129 0 189.5 71.5t60.5 223.5v254q0 151 -60.5 222t-189.5 71q-130 0 -191 -71t-61 -222v-254zM240 1300 q0 36 23 59t59 23q35 0 58 -23.5t23 -58.5t-23 -58t-58 -23q-36 0 -59 22.5t-23 58.5zM567 1300q0 35 23.5 58.5t58.5 23.5q36 0 59 -23t23 -59t-22.5 -58.5t-59.5 -22.5q-35 0 -58.5 23t-23.5 58z" />
<glyph unicode="&#xf7;" d="M43 545v53q0 31 31 31h934q30 0 30 -31v-53q0 -31 -30 -31h-934q-31 0 -31 31zM453 164q0 38 25 63t63 25t63 -25t25 -63q0 -37 -25 -62.5t-63 -25.5t-63 25.5t-25 62.5zM453 979q0 37 25 62.5t63 25.5t63 -25.5t25 -62.5q0 -38 -25 -63t-63 -25t-63 25t-25 63z" />
<glyph unicode="&#xf8;" horiz-adv-x="968" d="M109 358v293q0 188 96 285.5t280 97.5q154 0 248 -69l33 47q15 24 41 8l37 -29q22 -16 6 -39l-45 -67q55 -88 55 -234v-293q0 -187 -96 -285t-279 -98q-156 0 -249 72l-33 -49q-15 -24 -41 -8l-37 28q-22 16 -6 39l45 68q-55 88 -55 233zM233 379q0 -73 15 -129h2 l416 614q-62 62 -181 62q-130 0 -191 -71t-61 -222v-254zM303 145q61 -61 182 -61q129 0 189.5 71.5t60.5 223.5v254q0 75 -14 127h-2z" />
<glyph unicode="&#xf9;" horiz-adv-x="999" d="M137 344v635q0 31 31 31h63q31 0 31 -31v-617q0 -144 58 -211t182 -67q123 0 181 67t58 211v617q0 31 31 31h59q31 0 31 -31v-635q0 -180 -92 -274.5t-270 -94.5q-177 0 -270 94.5t-93 274.5zM266.5 1454q5.5 10 24.5 10h71q23 0 35 -18l164 -252q9 -14 4 -23.5t-22 -9.5 h-60q-21 0 -32 17l-179 252q-11 14 -5.5 24z" />
<glyph unicode="&#xfa;" horiz-adv-x="999" d="M137 344v635q0 31 31 31h63q31 0 31 -31v-617q0 -144 58 -211t182 -67q123 0 181 67t58 211v617q0 31 31 31h59q31 0 31 -31v-635q0 -180 -92 -274.5t-270 -94.5q-177 0 -270 94.5t-93 274.5zM434.5 1170.5q-5.5 9.5 3.5 23.5l164 252q12 18 35 18h72q19 0 24 -10t-6 -24 l-178 -252q-11 -17 -33 -17h-59q-17 0 -22.5 9.5z" />
<glyph unicode="&#xfb;" horiz-adv-x="999" d="M137 344v635q0 31 31 31h63q31 0 31 -31v-617q0 -144 58 -211t182 -67q123 0 181 67t58 211v617q0 31 31 31h59q31 0 31 -31v-635q0 -180 -92 -274.5t-270 -94.5q-177 0 -270 94.5t-93 274.5zM251 1170.5q-4 9.5 5 23.5l176 252q12 18 35 18h63q23 0 35 -18l174 -252 q9 -14 5 -23.5t-21 -9.5h-55q-22 0 -33 17l-137 194l-138 -194q-11 -17 -32 -17h-56q-17 0 -21 9.5z" />
<glyph unicode="&#xfc;" horiz-adv-x="999" d="M137 344v635q0 31 31 31h63q31 0 31 -31v-617q0 -144 58 -211t182 -67q123 0 181 67t58 211v617q0 31 31 31h59q31 0 31 -31v-635q0 -180 -92 -274.5t-270 -94.5q-177 0 -270 94.5t-93 274.5zM254 1300q0 36 23 59t59 23q35 0 58.5 -23.5t23.5 -58.5t-23.5 -58t-58.5 -23 q-36 0 -59 22.5t-23 58.5zM582 1300q0 35 23.5 58.5t58.5 23.5q36 0 58.5 -23t22.5 -59t-22.5 -58.5t-58.5 -22.5q-35 0 -58.5 23t-23.5 58z" />
<glyph unicode="&#xfd;" horiz-adv-x="1024" d="M137 379v600q0 31 31 31h63q31 0 31 -31v-580q0 -147 59.5 -216.5t184.5 -69.5q244 0 244 286v580q0 31 30 31h64q30 0 30 -31v-977q0 -166 -99.5 -260t-272.5 -94q-202 0 -330 116q-20 20 -4 43l31 41q21 27 43 5q106 -97 254 -97q123 0 188.5 68t65.5 194v111h-2 q-76 -125 -263 -125q-170 0 -259 96t-89 279zM440.5 1170.5q-5.5 9.5 3.5 23.5l164 252q12 18 35 18h72q19 0 24 -10t-6 -24l-178 -252q-11 -17 -33 -17h-59q-17 0 -22.5 9.5z" />
<glyph unicode="&#xfe;" horiz-adv-x="1009" d="M150 -297v1700q0 31 30 31h64q30 0 30 -31v-498h2q80 129 265 129q177 0 267.5 -97t90.5 -286v-293q0 -188 -90.5 -285.5t-267.5 -97.5q-185 0 -265 129h-2v-401q0 -31 -30 -31h-64q-30 0 -30 31zM274 379q0 -295 250 -295q128 0 189 72t61 223v254q0 150 -61 221.5 t-189 71.5q-250 0 -250 -293v-254z" />
<glyph unicode="&#xff;" horiz-adv-x="1024" d="M137 379v600q0 31 31 31h63q31 0 31 -31v-580q0 -147 59.5 -216.5t184.5 -69.5q244 0 244 286v580q0 31 30 31h64q30 0 30 -31v-977q0 -166 -99.5 -260t-272.5 -94q-202 0 -330 116q-20 20 -4 43l31 41q21 27 43 5q106 -97 254 -97q123 0 188.5 68t65.5 194v111h-2 q-76 -125 -263 -125q-170 0 -259 96t-89 279zM260 1300q0 36 23 59t59 23q35 0 58.5 -23.5t23.5 -58.5t-23.5 -58t-58.5 -23q-36 0 -59 22.5t-23 58.5zM588 1300q0 35 23.5 58.5t58.5 23.5q36 0 59 -23t23 -59t-23 -58.5t-59 -22.5q-35 0 -58.5 23t-23.5 58z" />
<glyph unicode="&#x152;" horiz-adv-x="1832" d="M121 465v430q0 230 120.5 347.5t356.5 117.5h1112q31 0 31 -31v-55q0 -31 -31 -31h-674v-498h584q31 0 31 -30v-56q0 -30 -31 -30h-584v-512h674q31 0 31 -31v-55q0 -31 -31 -31h-1112q-236 0 -356.5 117.5t-120.5 347.5zM254 487q0 -189 85.5 -279.5t264.5 -90.5h299 v1126h-299q-178 0 -264 -91t-86 -280v-385z" />
<glyph unicode="&#x153;" horiz-adv-x="1556" d="M109 358v293q0 187 93.5 285t272.5 98q247 0 324 -188h2q68 188 317 188q172 0 263.5 -98.5t91.5 -284.5v-155q0 -31 -31 -31h-582v-80q0 -158 67 -229.5t212 -71.5q127 0 225 104q23 26 43 0l35 -38q20 -23 0 -46q-126 -129 -301 -129q-259 0 -340 193h-2 q-71 -193 -324 -193q-179 0 -272.5 98t-93.5 285zM233 379q0 -152 61 -223.5t191 -71.5q129 0 189.5 71.5t60.5 223.5v254q0 151 -60.5 222t-189.5 71q-130 0 -191 -71t-61 -222v-254zM860 569h494v64q0 151 -60 222t-186 71q-128 0 -188 -71t-60 -222v-64z" />
<glyph unicode="&#x178;" horiz-adv-x="1062" d="M23.5 1349q5.5 11 23.5 11h88q25 0 37 -21l363 -612l362 612q12 21 37 21h82q18 0 23.5 -11t-3.5 -26l-438 -723v-569q0 -31 -31 -31h-71q-31 0 -31 31v569l-438 723q-9 15 -3.5 26zM285 1638q0 36 23 59t59 23q35 0 58.5 -23.5t23.5 -58.5t-23.5 -58.5t-58.5 -23.5 q-36 0 -59 23t-23 59zM612 1638q0 35 23.5 58.5t58.5 23.5q36 0 59 -23t23 -59t-23 -59t-59 -23q-35 0 -58.5 23.5t-23.5 58.5z" />
<glyph unicode="&#x2c6;" horiz-adv-x="1024" d="M265.5 1170.5q-4.5 9.5 4.5 23.5l176 252q12 18 35 18h64q23 0 35 -18l174 -252q9 -14 4.5 -23.5t-21.5 -9.5h-55q-22 0 -33 17l-137 194l-137 -194q-11 -17 -33 -17h-55q-17 0 -21.5 9.5z" />
<glyph unicode="&#x2dc;" horiz-adv-x="1024" d="M227 1219q14 89 59 137.5t115 48.5q66 0 140 -68q52 -47 86 -47q63 0 80 88q6 25 28 25h35q30 0 27 -29q-14 -89 -59 -137.5t-115 -48.5q-68 0 -140 67q-53 48 -86 48q-62 0 -80 -89q-6 -24 -28 -24h-35q-30 0 -27 29z" />
<glyph unicode="&#x2000;" horiz-adv-x="906" />
<glyph unicode="&#x2001;" horiz-adv-x="1812" />
<glyph unicode="&#x2002;" horiz-adv-x="906" />
<glyph unicode="&#x2003;" horiz-adv-x="1812" />
<glyph unicode="&#x2004;" horiz-adv-x="604" />
<glyph unicode="&#x2005;" horiz-adv-x="453" />
<glyph unicode="&#x2006;" horiz-adv-x="302" />
<glyph unicode="&#x2007;" horiz-adv-x="302" />
<glyph unicode="&#x2008;" horiz-adv-x="226" />
<glyph unicode="&#x2009;" horiz-adv-x="362" />
<glyph unicode="&#x200a;" horiz-adv-x="100" />
<glyph unicode="&#x2010;" horiz-adv-x="675" d="M61 526v60q0 30 31 30h492q30 0 30 -30v-60q0 -30 -30 -30h-492q-31 0 -31 30z" />
<glyph unicode="&#x2011;" horiz-adv-x="675" d="M61 526v60q0 30 31 30h492q30 0 30 -30v-60q0 -30 -30 -30h-492q-31 0 -31 30z" />
<glyph unicode="&#x2012;" horiz-adv-x="675" d="M61 526v60q0 30 31 30h492q30 0 30 -30v-60q0 -30 -30 -30h-492q-31 0 -31 30z" />
<glyph unicode="&#x2013;" horiz-adv-x="1024" d="M61 535v43q0 28 29 28h844q29 0 29 -28v-43q0 -29 -29 -29h-844q-29 0 -29 29z" />
<glyph unicode="&#x2014;" horiz-adv-x="1843" d="M61 535v43q0 28 29 28h1663q29 0 29 -28v-43q0 -29 -29 -29h-1663q-29 0 -29 29z" />
<glyph unicode="&#x2018;" horiz-adv-x="450" d="M133 1118q0 73 35 142t94 118q18 14 31 -2l18 -20q12 -15 -2 -29q-59 -53 -71 -143q34 -5 55.5 -27t21.5 -57q0 -39 -25.5 -62.5t-64.5 -23.5q-41 0 -66.5 28t-25.5 76z" />
<glyph unicode="&#x2019;" horiz-adv-x="450" d="M135 1298q0 39 25.5 62.5t64.5 23.5q41 0 66.5 -28t25.5 -76q0 -73 -35 -142t-94 -118q-17 -14 -30 2l-19 20q-12 15 2 29q60 54 72 143q-35 5 -56.5 27.5t-21.5 56.5z" />
<glyph unicode="&#x201a;" horiz-adv-x="450" d="M135 72q0 39 25.5 62.5t64.5 23.5q41 0 66.5 -28t25.5 -77q0 -73 -35 -142t-94 -118q-17 -14 -30 2l-19 21q-12 14 2 28q60 54 72 144q-35 5 -56.5 27.5t-21.5 56.5z" />
<glyph unicode="&#x201c;" horiz-adv-x="790" d="M133 1118q0 73 35 142t94 118q18 14 31 -2l18 -20q12 -15 -2 -29q-59 -53 -71 -143q34 -5 55.5 -27t21.5 -57q0 -39 -25.5 -62.5t-64.5 -23.5q-41 0 -66.5 28t-25.5 76zM471 1118q0 73 35 142t94 118q18 14 31 -2l18 -20q12 -15 -2 -29q-60 -54 -72 -143 q35 -5 56.5 -27.5t21.5 -56.5q0 -39 -25.5 -62.5t-64.5 -23.5q-41 0 -66.5 28t-25.5 76z" />
<glyph unicode="&#x201d;" horiz-adv-x="790" d="M135 1298q0 39 25.5 62.5t64.5 23.5q41 0 66.5 -28t25.5 -76q0 -73 -35 -142t-94 -118q-17 -14 -30 2l-19 20q-12 15 2 29q60 54 72 143q-35 5 -56.5 27.5t-21.5 56.5zM473 1298q0 39 25.5 62.5t64.5 23.5q41 0 66.5 -28t25.5 -76q0 -73 -35 -142t-94 -118q-17 -14 -30 2 l-19 20q-12 15 2 29q60 54 72 143q-35 5 -56.5 27.5t-21.5 56.5z" />
<glyph unicode="&#x201e;" horiz-adv-x="790" d="M135 72q0 39 25.5 62.5t64.5 23.5q41 0 66.5 -28t25.5 -77q0 -73 -35 -142t-94 -118q-17 -14 -30 2l-19 21q-12 14 2 28q60 54 72 144q-35 5 -56.5 27.5t-21.5 56.5zM473 72q0 39 25.5 62.5t64.5 23.5q41 0 66.5 -28t25.5 -77q0 -73 -35 -142t-94 -118q-17 -14 -30 2 l-19 21q-12 14 2 28q60 54 72 144q-35 5 -56.5 27.5t-21.5 56.5z" />
<glyph unicode="&#x2022;" horiz-adv-x="1024" d="M268 598q0 101 71.5 171.5t172.5 70.5t172.5 -70.5t71.5 -171.5q0 -102 -71 -173t-173 -71t-173 71t-71 173z" />
<glyph unicode="&#x2026;" horiz-adv-x="1843" d="M258 66q0 40 26 66t64 26q40 0 66 -26t26 -66q0 -38 -26 -64.5t-66 -26.5q-38 0 -64 26.5t-26 64.5zM831 66q0 40 26.5 66t64.5 26q40 0 66 -26t26 -66q0 -38 -26 -64.5t-66 -26.5q-38 0 -64.5 26.5t-26.5 64.5zM1405 66q0 40 26 66t64 26q40 0 66 -26t26 -66 q0 -38 -26.5 -64.5t-65.5 -26.5q-38 0 -64 26.5t-26 64.5z" />
<glyph unicode="&#x202f;" horiz-adv-x="362" />
<glyph unicode="&#x2039;" horiz-adv-x="487" d="M66 485q-12 21 0 41l221 346q13 19 35 19h57q17 0 22 -10t-4 -25l-223 -350l223 -352q9 -15 4 -25t-22 -10h-57q-23 0 -35 18z" />
<glyph unicode="&#x203a;" horiz-adv-x="487" d="M86.5 129q-5.5 10 3.5 25l223 350l-223 352q-9 15 -3.5 25t22.5 10h57q22 0 35 -19l221 -348q12 -20 0 -41l-221 -346q-12 -18 -35 -18h-57q-17 0 -22.5 10z" />
<glyph unicode="&#x205f;" horiz-adv-x="453" />
<glyph unicode="&#x20ac;" d="M72 475v49q0 27 26 27h78v190h-78q-26 0 -26 27v49q0 27 26 27h78v18q0 212 110.5 326.5t313.5 114.5q136 0 236 -53.5t157 -157.5q13 -27 -12 -41l-47 -27q-26 -13 -41 10q-92 156 -291 156q-297 0 -297 -342v-4h453q30 0 24 -29l-10 -51q-3 -23 -31 -23h-436v-190h391 q31 0 25 -29l-10 -51q-3 -22 -31 -22h-375v-19q0 -342 297 -342q98 0 172 40.5t117 115.5q16 28 41 12l49 -29q28 -16 12 -41q-57 -104 -157 -157.5t-236 -53.5q-203 0 -313.5 114.5t-110.5 326.5v33h-78q-26 0 -26 26z" />
<glyph unicode="&#x2122;" horiz-adv-x="1562" d="M31 1303v30q0 27 26 27h465q12 0 19.5 -7.5t7.5 -19.5v-30q0 -12 -7.5 -19.5t-19.5 -7.5h-184v-614q0 -12 -7.5 -19.5t-19.5 -7.5h-43q-26 0 -26 27v614h-185q-26 0 -26 27zM684 662v671q0 12 7.5 19.5t19.5 7.5h88q21 0 30 -21l236 -569l235 569q9 21 31 21h90 q12 0 19.5 -7.5t7.5 -19.5v-671q0 -12 -7.5 -19.5t-19.5 -7.5h-43q-26 0 -26 27v581h-2l-242 -588q-9 -20 -31 -20h-28q-22 0 -31 20l-242 584h-2v-577q0 -27 -26 -27h-37q-12 0 -19.5 7.5t-7.5 19.5z" />
<glyph unicode="&#x25fc;" horiz-adv-x="1013" d="M0 0v1014h1014v-1014h-1014z" />
</font>
</defs>
</svg>
